<?xml version="1.0" encoding="utf-8"?>
<!-- Generator: Adobe Illustrator 16.0.0, SVG Export Plug-In . SVG Version: 6.00 Build 0)  -->
<!DOCTYPE svg PUBLIC "-//W3C//DTD SVG 1.1//EN" "http://www.w3.org/Graphics/SVG/1.1/DTD/svg11.dtd">
<svg version="1.1" id="Layer_1" xmlns="http://www.w3.org/2000/svg" xmlns:xlink="http://www.w3.org/1999/xlink" x="0px" y="0px"
	 width="283.46px" height="283.46px" viewBox="0 0 283.46 283.46" enable-background="new 0 0 283.46 283.46" xml:space="preserve">
<g>
	<path fill="#--c--accent" d="M25.413,53.124c0-12.492,51.904-22.618,115.928-22.618c64.023,0,115.93,10.126,115.93,22.618
		c0,12.497-51.907,22.623-115.93,22.623C77.316,75.746,25.413,65.62,25.413,53.124z"/>
	<path fill="#808080" d="M279.865,96.286c0-12.197-1.617-24.011-4.578-35.283c1.422-2.141,2.283-4.333,2.283-6.584
		c0-20.392-60.993-36.93-136.23-36.93c-75.235,0-136.228,16.538-136.228,36.93c0,2.252,0.862,4.443,2.287,6.584
		C4.436,72.275,2.817,84.089,2.817,96.286c0,13.347,1.926,26.237,5.449,38.453c-3.217,4.763-5.449,10.411-5.449,17.045
		c0,24.811,39.381,39.775,39.381,48.834c0,9.056-8.663,25.599-8.663,25.599l13.783,2c0,0,8.63-9.89,13.978-18.912
		c15.688,11.133,33.779,19.09,53.359,22.91c6.763,12.387,18.626,18.824,18.626,22.871c0,5.657-5.898,15.194-5.898,15.194l14.346,3
		l13.573-3c0,0-5.896-9.537-5.896-15.194c0-4.047,11.864-10.484,18.624-22.871c19.579-3.82,37.669-11.771,53.356-22.903
		c5.348,9.021,13.979,18.905,13.979,18.905l13.781-2c0,0-8.662-16.543-8.662-25.599c0-9.059,39.381-24.023,39.381-48.834
		c0-6.634-2.23-12.282-5.448-17.045C277.939,122.523,279.865,109.633,279.865,96.286z M141.34,24.328
		c69.871,0,126.514,12.893,126.514,28.795c0,15.909-56.644,28.8-126.514,28.8c-69.87,0-126.512-12.891-126.512-28.8
		C14.829,37.221,71.471,24.328,141.34,24.328z"/>
</g>
</svg>
