<?xml version="1.0" encoding="utf-8"?>
<!-- Generator: Adobe Illustrator 16.0.0, SVG Export Plug-In . SVG Version: 6.00 Build 0)  -->
<!DOCTYPE svg PUBLIC "-//W3C//DTD SVG 1.1//EN" "http://www.w3.org/Graphics/SVG/1.1/DTD/svg11.dtd">
<svg version="1.1" id="Layer_1" xmlns="http://www.w3.org/2000/svg" xmlns:xlink="http://www.w3.org/1999/xlink" x="0px" y="0px"
	 width="283.46px" height="283.46px" viewBox="0 0 283.46 283.46" enable-background="new 0 0 283.46 283.46" xml:space="preserve">
<ellipse fill="#FFFFFF" cx="141.25" cy="53.25" rx="130.75" ry="33"/>
<path fill="--c-accent" d="M252.5,55c-2.322-0.48-6.076-3.065-5.717-4.288s-0.643,0.953-5.616,0.455s-6.551-4.475-6.551-4.475
	s-11.496,0.975-16.496,0.142s-13.926-5.718-13.926-5.718s-2.694,2.051-16.694,1.051s-15.5-4.05-15.5-4.05s-1.333,4.217-8.833,3.217
	c-8.056-1.074-10.833-3.217-10.833-3.217s-3.667,3.55-13.167,4.55s-24.054-4.325-24.054-4.325S113.5,45.333,100.833,46
	S86.52,40.19,86.52,40.19S82,46.333,79.5,46.167s-8.739-3.986-8.739-3.986S65.333,50.167,56.167,52s-15.08-3.24-15.08-3.24
	s-1.647,7.566-7.077,7.935c-4.148,0.282-6.738-0.744-8.167-1.627c5.052,11.586,54.829,20.679,115.498,20.679
	c63.042,0,114.335-9.818,115.893-22.05C255.902,54.42,253.919,55.293,252.5,55z"/>
<path fill="#808080" d="M279.865,96.286c0-12.197-1.617-24.011-4.578-35.283c1.422-2.141,2.283-4.333,2.283-6.584
	c0-20.392-60.993-36.93-136.23-36.93c-75.235,0-136.228,16.538-136.228,36.93c0,2.252,0.862,4.443,2.287,6.584
	C4.436,72.275,2.817,84.089,2.817,96.286c0,13.347,1.926,26.237,5.449,38.453c-3.217,4.763-5.449,10.411-5.449,17.045
	c0,24.811,39.381,39.775,39.381,48.834c0,9.056-8.663,25.599-8.663,25.599l13.783,2c0,0,8.63-9.89,13.978-18.912
	c15.688,11.133,33.779,19.09,53.359,22.91c6.763,12.387,18.626,18.824,18.626,22.871c0,5.657-5.898,15.194-5.898,15.194l14.346,3
	l13.573-3c0,0-5.896-9.537-5.896-15.194c0-4.047,11.864-10.484,18.624-22.871c19.579-3.82,37.669-11.771,53.356-22.903
	c5.348,9.021,13.979,18.905,13.979,18.905l13.781-2c0,0-8.662-16.543-8.662-25.599c0-9.059,39.381-24.023,39.381-48.834
	c0-6.634-2.23-12.282-5.448-17.045C277.939,122.523,279.865,109.633,279.865,96.286z M141.34,81.924
	c-69.87,0-126.512-12.891-126.512-28.8c0-0.252,0.015-0.504,0.043-0.756c1.227,1.445,3.056,3.246,3.848,2.214
	c10.372-13.521,60.174-24.799,122.53-24.809c62.356,0.01,112.158,11.288,122.53,24.809c0.825,1.076,2.778-0.927,4-2.396
	c0.044,0.312,0.074,0.624,0.074,0.938C267.854,69.033,211.211,81.924,141.34,81.924z"/>
<path fill="#FFFFFF" d="M61.129,209.6c6.473-9.411-7.608-19.678-11.842-27.565c-5.269-9.772-4.93-23.074-14.662-29.789
	c9.946,6.352,10.199,19.57,15.91,29.086c5.617,9.39,19.948,17.704,13.208,29.737C62.873,210.579,62.001,210.089,61.129,209.6z"/>
<path fill="#FFFFFF" d="M221.565,209.6c-6.473-9.411,7.609-19.678,11.842-27.565c5.27-9.772,4.931-23.074,14.662-29.789
	c-9.946,6.352-10.199,19.57-15.91,29.086c-5.617,9.39-19.947,17.704-13.209,29.737C219.822,210.579,220.694,210.089,221.565,209.6z"
	/>
<path fill="#FFFFFF" d="M109.98,209.677c-3.487-10.876,10.082-16.159,17.449-20.118c3.152-1.694,9.268-5.934,12.167-5.866
	c3.678-0.155,9.29,4.178,12.426,5.862c7.389,3.972,20.927,9.289,17.447,20.122c1.502-10.487-11.362-14.105-18.693-17.692
	c-1.086-0.532-9.859-6.074-11.14-5.295c-4.571,1.161-9.107,4.367-13.286,6.436C119.432,196.549,108.563,199.82,109.98,209.677
	C109.449,208.02,109.857,208.817,109.98,209.677z"/>
</svg>
