<?xml version="1.0" encoding="UTF-8" standalone="no"?>
<!DOCTYPE svg PUBLIC "-//W3C//DTD SVG 1.1//EN" "http://www.w3.org/Graphics/SVG/1.1/DTD/svg11.dtd">
<svg width="100%" height="100%" viewBox="0 0 170 170" version="1.1" xmlns="http://www.w3.org/2000/svg" xmlns:xlink="http://www.w3.org/1999/xlink" xml:space="preserve" xmlns:serif="http://www.serif.com/" style="fill-rule:evenodd;clip-rule:evenodd;stroke-linejoin:round;stroke-miterlimit:1.5;">
    <path d="M7.707,43.993L5.882,136.9L68.33,131.132L85,145.329L85,50.029C80.039,43.348 74.353,39.381 67.712,38.999C66.124,38.229 43.324,43.029 38.729,43.644C31.936,44.555 7.707,43.993 7.707,43.993Z" fill="white"/>
    <g transform="matrix(-1,0,0,1,170,0)">
        <path d="M7.707,43.993L5.882,136.9L68.33,131.132L85,145.329L85,50.029C80.039,43.348 74.353,39.381 67.712,38.999C66.124,38.229 43.324,43.029 38.729,43.644C31.936,44.555 7.707,43.993 7.707,43.993Z" fill="white"/>
    </g>
    <g transform="matrix(1.3826,0,0,1.3826,-29.6145,-21.6783)">
        <g transform="matrix(1,0,0,1,-1.50177,0.844674)">
            <path d="M28.495,46.631C28.495,46.631 47.655,47.41 54.965,45.745C61.263,44.309 68.18,43.041 71.784,43.041C78.242,43.041 81.345,47.397 81.345,47.397" style="fill:none;stroke:#808080;stroke-width:0.96px;"/>
        </g>
        <g transform="matrix(-1,0,0,1,167.297,0.844674)">
            <path d="M28.495,46.631C28.495,46.631 47.655,47.41 54.965,45.745C61.263,44.309 68.18,43.041 71.784,43.041C78.242,43.041 81.345,47.397 81.345,47.397" style="fill:none;stroke:#808080;stroke-width:0.96px;"/>
        </g>
        <path d="M27.032,46.796L23.428,53.913L23.428,123.746L69.382,113.534C69.382,113.534 71.795,112.764 74.652,116.333C78.375,120.983 82.898,120.892 82.898,120.892C82.898,120.892 81.679,116.013 80.171,113.842C80.171,113.842 73.996,105.671 63.525,108.368C54.603,110.667 39.712,111.346 26.581,111.372L27.032,46.796Z" fill="#808080"/>
        <g transform="matrix(-1,0,0,1,165.795,0)">
            <path d="M27.032,46.796L23.428,53.913L23.428,123.746L69.382,113.534C69.382,113.534 71.795,112.764 74.652,116.333C78.375,120.983 82.898,120.892 82.898,120.892C82.898,120.892 81.679,116.013 80.171,113.842C80.171,113.842 73.996,105.671 63.525,108.368C54.603,110.667 39.712,111.346 26.581,111.372L27.032,46.796Z" fill="#808080"/>
        </g>
        <g transform="matrix(0.483871,0,0,1,41.7685,1.20141)">
            <path d="M71.119,80.418C61.938,77.888 50.961,76.403 38.756,75.63C49.851,74.89 60.43,73.501 70.049,70.904C78.128,59.709 82.955,47.196 85,33.58C86.487,47.491 91.339,60.117 100.174,71.485C109.338,73.949 119.884,75.159 131.244,75.63C119.172,76.671 108.453,78.449 99.121,80.981C90.121,92.612 85.641,104.849 85,117.679C84.951,103.779 80.824,91.31 71.119,80.418Z" fill="--c-accent"/>
        </g>
    </g>
</svg>
