<?xml version="1.0" encoding="utf-8"?>
<!-- Generator: Adobe Illustrator 16.0.0, SVG Export Plug-In . SVG Version: 6.00 Build 0)  -->
<!DOCTYPE svg PUBLIC "-//W3C//DTD SVG 1.1//EN" "http://www.w3.org/Graphics/SVG/1.1/DTD/svg11.dtd">
<svg version="1.1" id="Layer_1" xmlns="http://www.w3.org/2000/svg" xmlns:xlink="http://www.w3.org/1999/xlink" x="0px" y="0px"
	 width="283.46px" height="283.46px" viewBox="0 0 283.46 283.46" enable-background="new 0 0 283.46 283.46" xml:space="preserve" fill="--c-accent">
<path d="M136.381,157.574c0.075,0.066,0.152,0.131,0.227,0.197C136.533,157.705,136.456,157.641,136.381,157.574z"/>
<path d="M132.589,147.987c0.423-0.798,0.946-1.531,1.567-2.2C133.495,146.436,132.973,147.169,132.589,147.987
	C132.657,147.861,132.639,147.889,132.589,147.987z"/>
<path d="M133.232,154.163c0.209,0.292,0.433,0.573,0.661,0.852C133.664,154.737,133.44,154.455,133.232,154.163z"/>
<path d="M131.987,151.695c0.011,0.041,0.022,0.082,0.034,0.122C132.009,151.777,131.997,151.736,131.987,151.695z"/>
<path d="M131.913,151.322c0.019,0.125,0.043,0.249,0.074,0.373C131.954,151.572,131.936,151.447,131.913,151.322z"/>
<path d="M133.059,153.892c0.06,0.09,0.111,0.184,0.173,0.271C133.17,154.076,133.12,153.98,133.059,153.892z"/>
<path d="M136.608,157.771c0.522,0.459,1.056,0.905,1.604,1.334C137.665,158.676,137.13,158.23,136.608,157.771z"/>
<path d="M139.75,160.25C138.637,159.479,139.679,160.199,139.75,160.25C139.699,160.215,139.701,160.215,139.75,160.25z"/>
<path d="M133.059,153.892C130.746,150.446,132.597,153.212,133.059,153.892C132.709,153.37,132.876,153.622,133.059,153.892z"/>
<path d="M131.913,151.322C131.286,147.093,131.758,150.446,131.913,151.322C131.815,150.664,131.857,151.005,131.913,151.322z"/>
<path d="M134.817,156.055C134.404,155.628,134.722,155.958,134.817,156.055C134.754,155.989,134.792,156.028,134.817,156.055z"/>
<path d="M132.168,152.243C131.824,151.334,132.082,152.032,132.168,152.243C132.115,152.103,132.146,152.189,132.168,152.243z"/>
<path d="M134.629,155.855C133.065,154.149,134.383,155.594,134.629,155.855C134.404,155.609,134.484,155.701,134.629,155.855z"/>
<path d="M138.606,159.412C137.952,158.912,138.507,159.338,138.606,159.412C138.513,159.341,138.543,159.365,138.606,159.412z"/>
<path d="M136.381,157.574c-0.542-0.486-1.064-0.992-1.564-1.52C135.319,156.58,135.84,157.088,136.381,157.574z"/>
<path d="M139.309,159.937C137.489,158.58,139.25,159.902,139.309,159.937C139.115,159.792,139.306,159.935,139.309,159.937z"/>
<path d="M138.324,159.196C138.078,159,138.27,159.152,138.324,159.196C138.286,159.166,138.307,159.183,138.324,159.196z"/>
<path d="M133.893,155.015c0.024,0.029,0.047,0.061,0.072,0.09C133.94,155.075,133.917,155.045,133.893,155.015z"/>
<path d="M146.666,139.564c0.132-0.003,0.264,0.001,0.396,0.002C146.927,139.564,146.796,139.558,146.666,139.564z"/>
<path d="M132.589,147.987c-0.059,0.11-0.113,0.223-0.166,0.336C132.476,148.21,132.534,148.1,132.589,147.987z"/>
<path d="M134.22,145.713c-0.022,0.024-0.042,0.05-0.063,0.074C134.179,145.763,134.198,145.737,134.22,145.713z"/>
<path d="M145.355,139.644C146.58,139.569,147.137,139.401,145.355,139.644C145.516,139.634,145.054,139.685,145.355,139.644z"/>
<path d="M132.424,148.323c-0.001,0.002-0.002,0.005-0.003,0.007C132.422,148.328,132.423,148.325,132.424,148.323z"/>
<path d="M132.192,148.892c-0.024,0.065-0.046,0.131-0.068,0.197C132.145,149.022,132.168,148.957,132.192,148.892z"/>
<path d="M132.421,148.33c-0.085,0.184-0.161,0.37-0.229,0.562C132.262,148.702,132.337,148.514,132.421,148.33z"/>
<path d="M132.124,149.089c-0.027,0.085-0.052,0.171-0.075,0.257C132.073,149.26,132.095,149.174,132.124,149.089z"/>
<path d="M185.077,145.986c2.646,3.547,3.459,13.275,5.946,15.473c0.925,0.235-4.549-14.161-5.519-15.479
	c-4.796-6.896-12.683-12.248-20.479-15.142c-4.285-1.426-26.203-5.036-26.267-0.598c0.165-2.452,17.542-1.188,19.742-0.768
	C168.891,131.456,178.752,137.451,185.077,145.986C186.668,148.118,181.891,141.687,185.077,145.986z"/>
<path d="M161.878,151.494c0.113,0.152-0.695-1.643-0.895-1.869C160.785,149.403,161.773,151.355,161.878,151.494
	C162.235,151.975,161.727,151.293,161.878,151.494z"/>
<path d="M143.929,154.421c-0.006-0.007,0.001-0.003,0.001-0.005c-0.001,0.001-0.003,0.003-0.004,0.004
	C143.912,154.428,143.926,154.422,143.929,154.421C143.923,154.414,143.926,154.422,143.929,154.421z"/>
<path d="M144.699,142.467l0.011-0.003c0.024-0.008-0.175,0.054-0.087,0.027C144.648,142.485,144.675,142.477,144.699,142.467z"/>
<path d="M160.822,107.164l-0.041-0.006c0.862,0.133,0.69,0.106,0.591,0.091C161.189,107.217,161.006,107.188,160.822,107.164z"/>
<path d="M147.062,139.566C148.237,139.573,147.247,139.57,147.062,139.566C147.232,139.567,147.17,139.568,147.062,139.566z"/>
<path d="M147.118,150.109"/>
<path d="M146.861,150.215c0.045,0.005,0.032-0.032,0.078-0.038"/>
<path d="M134.917,150.305L134.917,150.305"/>
<path d="M134.914,150.322c-0.711,3.243,6.616,5.631,6.641,7.231c-0.604,0.414-5.892-5.521-6.28-6.598
	c0.026,0.05,0.022,0.092-0.01,0.127c0.026-0.052-0.019-0.557-0.009-0.694c-0.226-0.052-0.219-0.056-0.339-0.084
	c0,0.002,0,0.004-0.001,0.006 M134.973,150.337l0.045,0.034C135.002,150.359,134.987,150.349,134.973,150.337
	C134.972,150.337,134.972,150.337,134.973,150.337z"/>
<path d="M161.479,156.319c-0.032-0.006-0.054,0.002-0.064,0.023c0.004-0.002-0.613,0.215-0.683,0.239
	c0.01,0.015,0.025,0.026,0.042,0.033c-0.657,1.641-4.764,2.133-5.672,4.207c0.402,0.356,1.996,1.252,1.996,1.642
	c1.423-1.316,2.904-2.428,4.753-3.221c-0.07,0.035-0.156,0.048-0.235,0.049c15.417,1.999,6.313,18.931-5.852,18.905
	c-24.22-0.053-36.445-22.529-21.643-42.392c10-13.417,29.607-14.952,44.851-12.575c78.301,12.205,53.645,109.425-10.442,118.414
	c14.712-2.587,28.168-10.417,38.804-20.794c6.297-5.679,11.754-13.057,15.188-20.81c1.474-3.304,3.041-23.185,3.815-23.848
	c-5.366,7.544-4.112,22.982-10.298,32.349c-2.688,4.07-6.263,7.967-9.865,11.205c-7.149,6.767-15.452,12.277-24.455,16.201
	c-39.029,17.018-95.849-13.129-111.194-51.561c1.103,3.476,2.451,6.661,3.874,9.833c-14.63-28.369-17.282-68.202,2.512-95.043
	c-0.346,0.119-0.706,0.28-1.055,0.444c0.172-0.262,0.328-0.54,0.503-0.797c-0.098,0.039-0.2,0.091-0.301,0.136
	c1.865-2.262,4.095-4.543,6.31-6.483c-0.999,0.632-1.814,1.359-2.745,2.104c27.666-26.105,64.577-47.313,102.828-32.666
	c-2.133-0.98-4.198-1.891-6.385-2.715c3.419,1.023,6.718,2.326,10.054,3.586c-0.335-0.335-0.757-0.756-1.095-1.094
	c4.316,2.147,41.233,22.49,41.212,21.667c-1.148-3.916-3.27-7.271-6.366-10.064c2.616,1.662,12.273,10.058,13.805,5.327
	c-0.394-2.297-1.418-4.238-3.07-5.819c1.681,0.614,3.012,1.602,3.99,2.961c-0.076-0.127-0.146-0.245-0.22-0.369
	c1.819,1.184,3.533,3.151,5.723,3.687c0.353-3.035-1.729-4.716-4.044-7.365c0.388,0.448,0.823,0.588,1.302,0.421
	c0.215,0.247,0.346,0.398,0.346,0.398c-0.101-0.141-0.194-0.271-0.293-0.408c0.063-0.015,0.105-0.04,0.156-0.06
	c1.873,1.591,3.548,3.141,5.698,4.274c-0.431-2.987-2.52-4.741-4.82-7.178c0.324,0.205,0.639,0.393,0.927,0.552
	c1.425-0.014-16.286-18.413-19.653-21.214c0.622-0.038,1.227,0.042,1.815,0.239c-0.151-0.517,0.064-0.94,0.651-1.271
	c1.126-0.358,0.067-2.004-2.216-4.313c0.938,0.296,1.58,0.126,1.922-0.508c4.255,1.423,7.209,2.829,11.427,2.113
	c-0.066-0.155-0.179-0.338-0.289-0.521l1.104-0.62c-1.331-4.289-7.465-8.63-11.035-11.015l2.302,0.045
	c-17.373-20.851-49.729-29.596-75.462-26.21c2.025-1.532-2.947-2.013-3.805-2.027c1.219-0.585,2.377-1.282,3.475-2.088
	c2.164-2.37-28.689,2.171-29.984,2.593c-11.116,3.619-21.749,9.176-31.395,15.739C60.545,40.042,35.405,64.201,24.715,97.05
	c-24.787,76.632,9.209,149.538,83.578,176.546c55.116,20.018,120.605,2.084,148.592-52.241
	c29.571-58.258-10.711-125.206-74.609-132.391c0.519,0.08-1.234-0.189,1.149,0.178c-24.578-3.57-52.579,2.073-70.049,20.77
	c-30.942,33.111-16.653,69.532,15.383,90.864c-63.562-37.231-15.833-111.751,46.127-107.957
	c42.619,2.763,82.208,35.657,84.542,79.642c-0.221-3.134-0.342-15.245-3.754-16.804c-0.197,0.041-0.165,0.856,0.026,2.159
	c-8.951-32.67-41.902-56.229-74.396-61.211c-0.661-0.102,0.878,0.135,0.715,0.11c-44.541-7.923-104.067,32.091-75.871,81.898
	c22.311,39.409,91.396,33.589,89.972-15.622c-0.68,22.492-14.036,39.112-38.291,40.269c-48.949,2.021-72.839-52.583-39.572-87.035
	c-27.979,30.567-14.854,77.094,26.863,84.748c10.45,1.917,22.5,0.979,31.727-4.92c11.758-6.893,11.113-18.141,17.99-26.23
	c-7.61,10.727-8.433,21.569-22.262,27.72c-11.718,5.212-24.781,4.338-36.757,0.263c-49.662-17.241-36.02-84.847,10.255-96.029
	c-54.222,17.296-51.809,98.848,10.621,98.141c14.139-0.159,29.607-8.749,35.023-22.289c4.74-11.849-0.205-24.085-9.484-32.038
	c-1.552-1.329-20.285-9.16-19.931-7.812c0.163,0.799,21.551,10.9,24.489,15.175c6.75,9.838,5.914,22.105-1.873,31.041
	c4.584-6.001,7.002-12.706,5.633-20.354c2.511,14.252-8.059,25.874-20.615,30.495c11.153-4.59,18.589-12.747,20.746-24.61
	c-3.051,17.899-20.63,28.513-37.979,26.841c17.407,1.367,40.361-11.247,37.728-31.492c-2.024-15.568-15.475-20.924-28.178-24.966
	c14.752,0.993,26.295,16.094,27.819,24.429c-1.603-8.955-8.855-18.654-17.607-21.541c1.021-0.215,3.965,2.38,4.818,3.009
	c-11.827-7.188-24.408-6.916-34.348,3.961c8.583-9.466,20.971-11.928,31.948-5.245c-3.929-1.75-8.104-3.495-12.471-3.688
	c3.604,0.241,6.991,1.221,10.167,2.939c-0.299-0.035-0.52-0.021-0.616,0.06c-0.006,0.009,0,0.022-0.003,0.032
	c-13.4-6.842-43.236,6.671-27.052,21.916c-17.278-19.979,21.196-29.648,35.531-13.995c-1.029-1.227-2.262-2.166-3.695-2.818
	c7.082,9.101,14.815,16.418,7.611,28.84c-8.159,14.065-25.898,16.893-40.278,12.601c20.96,5.346,57.353-13.739,35.086-37.311
	c0.621,0.506-2.75-2.773-2.106-2.041c0.021,0.022,0.031,0.032,0.053,0.055c-7.914-6.813-29.502-10.535-33.158,5.354
	c0.112,0.028,0.277,0.065,0.497,0.118c2.302-23.177,36.406-5.223,39.774,5.895c11.92,36.419-69.848,39.253-68.606-5.74
	c0.167,20.865,20.921,33.478,39.984,34.1c6.682,0.217,34.398-18.261,28.499-20.08c1.065,0.405-9.13,12.771-9.769,13.214
	c1.761-1.187,2.761-2.766,3.001-4.736c-0.498-0.721-3.647,1.373-3.946,1.548c10.914-9.274,1.826-36.964-12.62-29.436
	c-0.092,0.066-0.091,0.15-0.012,0.186c7.474,4.756,20.335,5.377,17.295,19.057c-1.411,6.588-8.034,12.075-14.505,13.646
	c-20.639,6.663-45.913-12.855-39.39-34.878c13.815-49.69,85.465-31.143,103.314,4.775c-1.122-1.922-1.832-2.337-2.131-1.249
	c-17.504-30.996-94.045-54.322-100.385-1.91c-2.192,18.118,17.176,36.605,36.119,29.757c13.354-3.947,15.978-26.688,0.682-24.526
	l-0.004-0.022c0,0.007,0.001,0.017,0.001,0.022c-0.008,0.001-0.021,0-0.03,0.001 M122.476,178.452
	c6.122,6.302,14.202,10.637,22.632,12.9c-10.758-2.685-21.694-8.729-27.108-18.777C119.262,174.688,120.773,176.656,122.476,178.452
	C123.78,179.796,120.773,176.656,122.476,178.452z M125.101,128.901c-9.243,11.382-13.935,29.391-6.886,43.02
	c-7.631-13.234-2.979-34.027,7.878-44.288C125.752,128.046,125.426,128.474,125.101,128.901
	C124.507,129.632,125.426,128.474,125.101,128.901z M220.867,57.541c0.033,0.035,0.058,0.059,0.093,0.096
	c-0.045-0.04-0.085-0.079-0.129-0.118C220.843,57.525,220.856,57.534,220.867,57.541C220.9,57.575,220.856,57.534,220.867,57.541z"
	/>
<path d="M135.258,150.384c0,0.001-0.001,0.003-0.001,0.005"/>
</svg>
