<?xml version="1.0" encoding="UTF-8" standalone="no"?>
<!DOCTYPE svg PUBLIC "-//W3C//DTD SVG 1.1//EN" "http://www.w3.org/Graphics/SVG/1.1/DTD/svg11.dtd">
<svg width="100%" height="100%" viewBox="0 0 119 119" version="1.1" xmlns="http://www.w3.org/2000/svg" xmlns:xlink="http://www.w3.org/1999/xlink" xml:space="preserve" xmlns:serif="http://www.serif.com/" style="fill-rule:evenodd;clip-rule:evenodd;stroke-linejoin:round;stroke-miterlimit:2;">
    <g id="Layer-1" serif:id="Layer 1" transform="matrix(4.16667,0,0,4.16667,0,0)">
        <g transform="matrix(0.143753,0.248988,-0.248988,0.143753,20.5631,-7.26899)">
            <path d="M56.693,113.978C56.705,114.361 56.404,114.681 56.022,114.693C55.639,114.705 55.319,114.404 55.307,114.022C55.307,114.022 54.982,108.87 54.482,101.421C54.231,97.68 53.923,93.363 53.615,88.827C53.242,83.338 52.856,77.531 52.416,72.056C51.861,65.147 51.258,58.765 50.542,54.227C49.354,46.556 48.118,39.671 45.87,34.392C44.013,30.032 41.475,26.795 37.515,25.314C34.007,23.969 31.168,24.819 29.434,26.592C27.347,28.726 26.783,32.123 28.762,34.266C29.93,35.543 31.295,35.837 32.477,35.577C33.53,35.346 34.446,34.737 34.92,34.031C35.125,33.726 35.267,33.417 35.229,33.122C35.151,32.513 34.969,32.029 34.74,31.658C34.288,30.924 33.714,30.631 33.714,30.631C33.365,30.473 33.211,30.062 33.369,29.714C33.527,29.365 33.938,29.211 34.286,29.369C34.286,29.369 35.209,29.764 35.961,30.866C36.306,31.372 36.612,32.031 36.771,32.878C37.069,34.474 35.369,36.699 32.923,37.375C31.17,37.859 29.087,37.559 27.238,35.734C24.314,32.822 24.733,27.958 27.583,24.841C29.857,22.355 33.676,20.977 38.485,22.686C43.182,24.399 46.33,28.099 48.551,33.242C50.907,38.699 52.215,45.829 53.458,53.773C54.548,60.948 55.474,72.663 56.003,83.874C56.254,89.186 56.396,94.382 56.499,98.924C56.697,107.673 56.693,113.978 56.693,113.978Z" fill="--c-accent"/>
        </g>
        <g transform="matrix(0.143753,0.248988,-0.248988,0.143753,25.4864,-6.79165)">
            <path d="M48.743,74.553C48.989,74.963 48.857,75.496 48.447,75.743C48.037,75.989 47.504,75.857 47.257,75.447C47.257,75.447 46.208,74.043 45.667,67.05C45.439,64.105 45.341,60.132 45.413,54.78C45.538,51.569 46.264,47.482 46.877,43.314C47.431,39.547 47.893,35.711 47.559,32.444C47.259,29.515 46.356,27.054 43.91,25.87C40.416,24.158 37.673,24.512 35.957,25.955C34.91,26.835 34.259,28.068 34.09,29.343C33.921,30.622 34.178,31.952 35.084,32.956C36.116,34.118 37.322,34.432 38.389,34.218C39.357,34.023 40.222,33.512 40.671,32.874C40.842,32.631 41,32.401 40.975,32.162C40.915,31.589 40.768,31.127 40.562,30.774C40.157,30.084 39.642,29.789 39.642,29.789C39.206,29.592 39.013,29.078 39.211,28.642C39.408,28.206 39.922,28.013 40.358,28.211C40.358,28.211 41.326,28.613 42.14,29.75C42.513,30.271 42.838,30.955 43.025,31.838C43.381,33.539 41.616,35.962 39.012,36.734C37.147,37.286 34.923,36.966 32.916,35.044C31.252,33.425 30.574,31.192 30.757,28.985C30.932,26.865 31.961,24.778 33.657,23.284C36.167,21.073 40.256,20.086 45.5,22.571C49.116,24.306 50.795,27.746 51.234,32.07C51.594,35.615 51.125,39.785 50.471,43.866C49.826,47.898 48.995,51.837 48.81,54.946C48.368,60.175 48.23,64.067 48.207,66.962C48.157,73.208 48.743,74.553 48.743,74.553Z" fill="--c-accent"/>
        </g>
        <g transform="matrix(-0.119477,-0.20694,-0.257222,0.148507,37.7761,18.3169)">
            <path d="M55.166,114.017C55.178,114.387 55.561,114.68 56.021,114.671C56.481,114.662 56.845,114.353 56.834,113.983C56.834,113.983 56.886,107.685 56.731,98.944C56.651,94.407 56.531,89.215 56.292,83.907C55.786,72.704 54.849,60.993 53.763,53.822C52.308,44.58 50.76,36.441 47.584,30.754C45.455,26.942 42.588,24.191 38.7,22.773C33.234,20.823 28.984,22.617 26.722,25.636C24.448,28.672 24.306,32.972 26.982,35.634C29.032,37.658 31.681,37.848 33.94,37.133C36.634,36.281 38.615,34.111 38.324,32.607C38.147,31.689 37.68,30.933 37.134,30.339C36.139,29.258 34.914,28.717 34.914,28.717C34.514,28.534 34.004,28.647 33.777,28.969C33.549,29.291 33.69,29.701 34.09,29.884C34.09,29.884 34.987,30.321 35.684,31.16C36.046,31.595 36.339,32.146 36.42,32.802C36.455,33.09 36.277,33.398 36.03,33.71C35.458,34.431 34.375,35.093 33.166,35.418C31.775,35.791 30.179,35.635 29.018,34.366C27.134,32.323 27.529,29.149 29.313,26.941C30.893,24.986 33.727,23.862 37.3,25.227C41.42,26.767 43.936,30.225 45.8,34.865C47.896,40.081 49.092,46.763 50.237,54.178C50.956,58.727 51.558,65.124 52.12,72.05C52.564,77.528 52.95,83.336 53.339,88.827C53.66,93.363 53.99,97.679 54.261,101.42C54.801,108.867 55.166,114.017 55.166,114.017Z" fill="--c-accent"/>
        </g>
        <g transform="matrix(0.0459767,0.0715937,-0.144661,0.0928996,16.9116,4.60609)">
            <path d="M59.723,107.055C59.662,107.614 58.695,108.043 57.565,108.013C56.435,107.983 55.568,107.504 55.629,106.945C55.629,106.945 55.369,105.015 54.791,101.449C54.54,99.905 54.196,98.074 53.883,95.95C53.66,94.439 53.471,92.788 53.254,91.004C52.841,87.61 52.415,83.739 51.649,79.468C51.1,75.853 50.485,72.909 50.012,70.388C49.578,68.076 49.172,66.129 48.86,64.352C48.223,60.716 47.834,57.839 47.365,54.149C47.199,53.595 47.973,53.079 49.092,52.996C50.211,52.914 51.254,53.297 51.42,53.851C52.947,57.021 54.424,59.541 55.804,62.545C56.345,63.722 56.871,64.962 57.339,66.341C58.443,69.598 59.291,73.591 60.351,79.112C61.022,83.451 61.525,87.379 61.69,90.829C61.777,92.644 61.8,94.325 61.713,95.863C61.59,98.026 61.308,99.891 61.035,101.459C60.4,105.102 59.723,107.055 59.723,107.055Z" fill="--c-accent"/>
        </g>
        <g transform="matrix(-0.0751368,-0.145626,-0.220883,0.113966,37.1462,17.8211)">
            <path d="M56.615,106.949C56.572,107.336 57.014,107.672 57.6,107.7C58.185,107.728 58.695,107.437 58.738,107.051C58.738,107.051 59.448,104.062 59.732,98.658C59.819,97.009 59.857,95.14 59.782,93.062C59.64,89.112 59.091,84.427 58.254,79.126C57.258,73.592 56.387,69.595 55.389,66.333C54.969,64.958 54.519,63.718 54.062,62.543C52.899,59.555 51.684,57.022 50.437,53.864C50.323,53.484 49.763,53.237 49.186,53.312C48.61,53.387 48.234,53.756 48.348,54.136C49.033,57.46 49.676,60.137 50.43,63.294C50.859,65.087 51.322,67.027 51.818,69.333C52.407,72.077 53.095,75.329 53.746,79.453C54.446,83.495 54.869,87.178 55.227,90.438C55.496,92.884 55.687,95.092 55.879,97.04C56.504,103.373 56.615,106.949 56.615,106.949Z" fill="--c-accent"/>
        </g>
    </g>
</svg>
