<?xml version="1.0" encoding="UTF-8" standalone="no"?>
<!DOCTYPE svg PUBLIC "-//W3C//DTD SVG 1.1//EN" "http://www.w3.org/Graphics/SVG/1.1/DTD/svg11.dtd">
<svg width="100%" height="100%" viewBox="0 0 119 119" version="1.1" xmlns="http://www.w3.org/2000/svg" xmlns:xlink="http://www.w3.org/1999/xlink" xml:space="preserve" xmlns:serif="http://www.serif.com/" style="fill-rule:evenodd;clip-rule:evenodd;stroke-linejoin:round;stroke-miterlimit:2;">
    <g transform="matrix(4.16667,0,0,4.16667,0,0)">
        <g id="Layer-1" serif:id="Layer 1">
            <g transform="matrix(1.60204,0,0,1.60204,8.97073,14.8838)">
                <path d="M0,-8.465C0.287,-8.417 0.573,-8.369 0.859,-8.32C2.101,-8.11 3.24,-7.685 4.138,-6.756C4.19,-6.701 4.241,-6.643 4.266,-6.545C4.219,-6.559 4.164,-6.561 4.126,-6.588C3.237,-7.213 2.239,-7.578 1.175,-7.721C-0.223,-7.908 -1.592,-7.799 -2.839,-7.049C-3.813,-6.462 -4.321,-5.585 -4.442,-4.459C-4.542,-3.536 -4.336,-2.697 -3.82,-1.934C-2.763,-0.371 -0.542,-0.289 0.61,-1.444C1.574,-2.408 1.528,-4.052 0.53,-4.979C0.254,-5.235 -0.084,-5.374 -0.44,-5.416C-0.765,-5.453 -1.109,-5.443 -1.43,-5.377C-2.214,-5.217 -2.745,-4.354 -2.589,-3.561C-2.457,-2.891 -2.117,-2.418 -1.41,-2.272C-0.921,-2.17 -0.283,-2.738 -0.348,-3.229C-0.38,-3.469 -0.642,-3.663 -0.894,-3.627C-1.019,-3.61 -1.142,-3.579 -1.271,-3.555C-1.19,-3.824 -0.844,-3.957 -0.5,-3.867C0.161,-3.695 0.326,-2.857 -0.119,-2.301C-0.329,-2.039 -0.608,-1.891 -0.937,-1.84C-2.047,-1.669 -3.11,-2.221 -3.362,-3.34C-3.637,-4.56 -3.156,-5.611 -1.934,-6.135C-0.303,-6.834 1.445,-6 1.883,-4.271C2.172,-3.127 1.925,-2.045 1.156,-1.119C0.513,-0.346 -0.332,-0.042 -1.324,-0.027C-3.027,0 -4.18,-0.893 -5.03,-2.242C-5.256,-2.604 -5.279,-3.092 -5.396,-3.52C-5.412,-3.578 -5.429,-3.637 -5.445,-3.695L-5.445,-4.514C-5.413,-4.682 -5.378,-4.85 -5.351,-5.02C-5.061,-6.827 -3.774,-7.9 -2.126,-8.27C-1.774,-8.35 -1.416,-8.401 -1.06,-8.465L0,-8.465Z" fill="--c-accent"/>
            </g>
            <g transform="matrix(1.60204,0,0,1.60204,28.1155,11.1296)">
                <path d="M0,-0.774C-0.077,-0.475 -0.145,-0.175 -0.234,0.119C-0.658,1.515 -1.523,2.607 -2.604,3.551C-3.161,4.037 -3.775,4.418 -4.489,4.625C-4.699,4.687 -4.914,4.73 -5.126,4.781C-5.136,4.757 -5.146,4.732 -5.155,4.706C-5.095,4.673 -5.036,4.634 -4.973,4.605C-2.955,3.642 -1.623,2.095 -1.047,-0.069C-0.643,-1.588 -1.111,-2.946 -2.397,-3.854C-3.497,-4.631 -4.71,-4.873 -5.973,-4.241C-7.217,-3.619 -8.053,-1.852 -7.273,-0.472C-6.714,0.517 -5.488,1.07 -4.421,0.725C-3.74,0.503 -3.036,-0.386 -2.987,-1.094C-2.93,-1.91 -3.746,-2.777 -4.581,-2.801C-5.137,-2.817 -5.595,-2.651 -5.856,-2.128C-6.047,-1.745 -5.869,-1.182 -5.507,-0.958C-5.322,-0.844 -5.038,-0.911 -4.917,-1.113C-4.836,-1.245 -4.782,-1.393 -4.684,-1.536C-4.611,-1.366 -4.594,-1.19 -4.671,-1.016C-4.917,-0.462 -5.611,-0.332 -6.073,-0.758C-6.47,-1.126 -6.556,-1.583 -6.378,-2.077C-5.833,-3.593 -4.086,-4.001 -2.904,-2.932C-1.98,-2.098 -1.993,-0.691 -2.544,0.294C-3.34,1.716 -5.309,2.024 -6.611,1.116C-7.362,0.592 -7.902,-0.085 -8.131,-0.975C-8.386,-1.965 -8.121,-2.863 -7.563,-3.682C-6.819,-4.772 -5.724,-5.235 -4.455,-5.405C-3.349,-5.555 -2.456,-5.106 -1.619,-4.481C-0.964,-3.991 -0.457,-3.378 -0.193,-2.59C-0.115,-2.358 -0.063,-2.118 0,-1.881L0,-0.774Z" fill="--c-accent"/>
            </g>
            <g transform="matrix(1.60204,0,0,1.60204,12.2133,14.2108)">
                <path d="M0,8C-0.239,7.955 -0.479,7.92 -0.716,7.863C-1.417,7.693 -2.016,7.328 -2.554,6.862C-3.845,5.744 -4.558,4.289 -4.947,2.657C-5.099,2.021 -5.06,1.373 -4.951,0.731C-4.943,0.683 -4.905,0.639 -4.849,0.529C-4.82,0.845 -4.801,1.094 -4.772,1.341C-4.612,2.717 -4.102,3.947 -3.24,5.034C-2.736,5.67 -2.153,6.211 -1.432,6.589C-0.026,7.326 1.457,6.994 2.562,6C3.146,5.477 3.523,4.838 3.691,4.064C4.018,2.551 2.858,0.85 1.332,0.631C0.074,0.45 -1.24,1.398 -1.438,2.652C-1.587,3.596 -0.821,4.799 0.053,4.945C1.071,5.115 2.296,4.165 1.976,3C1.81,2.395 1.128,2.102 0.581,2.408C0.311,2.561 0.271,2.861 0.491,3.121C0.566,3.209 0.65,3.291 0.775,3.422C0.496,3.449 0.332,3.355 0.208,3.197C-0.136,2.76 -0.013,2.16 0.484,1.885C0.947,1.629 1.408,1.672 1.809,2.004C2.826,2.841 2.945,4.359 1.902,5.233C0.903,6.069 -0.221,6.016 -1.243,5.227C-1.954,4.678 -2.349,3.945 -2.31,3.027C-2.269,2.059 -1.869,1.26 -1.073,0.696C-0.44,0.249 0.273,0.004 1.06,0.002C2.133,0 2.962,0.467 3.612,1.299C4.221,2.078 4.481,2.967 4.427,3.945C4.353,5.281 3.851,6.385 2.681,7.136C2.108,7.503 1.515,7.797 0.846,7.93C0.709,7.957 0.571,7.978 0.434,8L0,8Z" fill="--c-accent"/>
            </g>
        </g>
    </g>
</svg>
