<?xml version="1.0" encoding="UTF-8" standalone="no"?>
<!DOCTYPE svg PUBLIC "-//W3C//DTD SVG 1.1//EN" "http://www.w3.org/Graphics/SVG/1.1/DTD/svg11.dtd">
<svg width="100%" height="100%" viewBox="0 0 119 119" version="1.1" xmlns="http://www.w3.org/2000/svg" xmlns:xlink="http://www.w3.org/1999/xlink" xml:space="preserve" xmlns:serif="http://www.serif.com/" style="fill-rule:evenodd;clip-rule:evenodd;stroke-linejoin:round;stroke-miterlimit:2;">
    <g transform="matrix(4.16667,0,0,4.16667,0,0)">
        <g id="Layer-1" serif:id="Layer 1">
            <g transform="matrix(1.56398,0,0,1.56398,17.8558,21.846)">
                <path d="M0,-10.904C0.335,-9.506 0.663,-8.138 0.997,-6.746C0.889,-6.73 0.794,-6.701 0.7,-6.705C0.339,-6.715 -0.022,-6.742 -0.384,-6.752C-0.56,-6.758 -0.738,-6.75 -0.914,-6.732C-1.18,-6.709 -1.356,-6.55 -1.443,-6.308C-1.578,-5.935 -1.703,-5.558 -1.814,-5.177C-2.023,-4.463 -2.322,-3.793 -2.823,-3.236C-3.016,-3.023 -3.271,-2.855 -3.52,-2.703C-3.938,-2.449 -4.166,-2.111 -4.099,-1.609C-4.07,-1.398 -4.036,-1.187 -4.005,-0.974C-3.959,-0.662 -3.915,-0.349 -3.864,-0.004L-4.109,-0.004C-6.326,-0.004 -8.542,-0.006 -10.758,-0.002C-10.911,0 -10.981,-0.025 -11,-0.201C-11.083,-0.951 -11.187,-1.697 -11.284,-2.443C-11.304,-2.595 -11.317,-2.752 -11.366,-2.892C-11.483,-3.236 -11.388,-3.509 -11.188,-3.8C-10.738,-4.449 -10.292,-5.105 -9.898,-5.787C-9.076,-7.211 -8.552,-8.75 -8.271,-10.369C-8.178,-10.902 -8.181,-10.904 -7.643,-10.904L0,-10.904Z" fill="--c-accent"/>
            </g>
            <g transform="matrix(1.56398,0,0,1.56398,13.9062,13.2287)">
                <path d="M0,6.604C-0.083,6.012 -0.167,5.432 -0.247,4.85C-0.278,4.62 -0.301,4.389 -0.323,4.157C-0.34,3.979 -0.268,3.834 -0.136,3.717C-0.072,3.661 -0.012,3.596 0.06,3.551C0.843,3.053 1.291,2.299 1.628,1.471C1.803,1.042 1.935,0.594 2.079,0.153C2.114,0.043 2.158,0 2.282,0C3.466,0.006 4.65,0.004 5.834,0.004L7.221,0.004C7.277,0.194 7.342,0.434 7.417,0.67C7.691,1.526 8.125,2.293 8.779,2.911C9.135,3.247 9.278,3.614 9.224,4.086C9.129,4.92 9.046,5.754 8.958,6.604L0,6.604Z" fill="--c-accent"/>
            </g>
        </g>
    </g>
</svg>
