<?xml version="1.0" encoding="UTF-8" standalone="no"?>
<!DOCTYPE svg PUBLIC "-//W3C//DTD SVG 1.1//EN" "http://www.w3.org/Graphics/SVG/1.1/DTD/svg11.dtd">
<svg width="100%" height="100%" viewBox="0 0 119 119" version="1.1" xmlns="http://www.w3.org/2000/svg" xmlns:xlink="http://www.w3.org/1999/xlink" xml:space="preserve" xmlns:serif="http://www.serif.com/" style="fill-rule:evenodd;clip-rule:evenodd;stroke-linejoin:round;stroke-miterlimit:2;">
    <g transform="matrix(4.16667,0,0,4.16667,0,0)">
        <g id="Layer-1" serif:id="Layer 1">
            <g transform="matrix(1.46654,0,0,1.46654,17.9699,28.3496)">
                <path d="M0,-17.746C0.63,-16.56 0.837,-15.382 0.639,-14.109C0.47,-13.024 -0.098,-12.146 -0.654,-11.244C-1.064,-10.578 -1.464,-9.898 -1.786,-9.187C-2.317,-8.015 -2.026,-7.065 -0.988,-6.313C-0.639,-6.06 -0.089,-6.051 0.414,-6.346C0.293,-6.424 0.183,-6.476 0.1,-6.555C-0.729,-7.348 -0.933,-8.336 -0.445,-9.386C-0.262,-9.78 -0.002,-10.142 0.248,-10.502C0.443,-10.785 0.694,-11.029 0.887,-11.314C1.078,-11.598 1.227,-11.908 1.4,-12.219C1.497,-11.693 1.29,-11.243 1.081,-10.785C0.885,-10.355 0.687,-9.92 0.57,-9.465C0.514,-9.253 0.584,-8.951 0.706,-8.759C1.009,-8.28 1.753,-8.363 2.052,-8.934C2.254,-9.321 2.328,-9.775 2.454,-10.184C2.569,-9.739 2.728,-9.243 2.824,-8.736C3.083,-7.363 3.212,-5.99 3.03,-4.584C2.732,-2.289 1.225,-0.561 -1.016,-0.061C-1.142,-0.034 -1.267,-0.005 -1.417,0C0.015,-0.87 0.842,-2.093 0.828,-3.818C0.754,-3.697 0.681,-3.576 0.608,-3.453C0.273,-2.883 -0.183,-2.491 -0.857,-2.361C-1.139,-2.308 -1.402,-2.162 -1.618,-2.08C-2.067,-2.746 -2.561,-3.447 -3.017,-4.17C-3.226,-4.5 -3.361,-4.875 -3.535,-5.238C-3.763,-4.918 -3.931,-4.512 -3.813,-4.049C-3.646,-3.393 -3.439,-2.748 -3.255,-2.098C-3.22,-1.975 -3.208,-1.848 -3.179,-1.686C-3.779,-1.629 -4.29,-1.785 -4.768,-2.061C-5.272,-2.351 -5.523,-2.826 -5.653,-3.447C-5.865,-2.38 -5.399,-0.976 -3.751,-0.178C-3.757,-0.146 -3.764,-0.117 -3.77,-0.086C-4.225,-0.197 -4.696,-0.266 -5.132,-0.428C-6.796,-1.045 -7.804,-2.252 -8.137,-3.987C-8.621,-6.511 -7.958,-8.718 -6.202,-10.592C-6.014,-10.793 -5.783,-10.954 -5.535,-11.111C-6.367,-9.273 -6.997,-7.461 -5.527,-5.678C-5.549,-6.447 -5.646,-7.22 -5.573,-7.976C-5.44,-9.367 -4.588,-10.357 -3.566,-11.228C-2.825,-11.859 -2.035,-12.453 -1.388,-13.171C-0.314,-14.365 0.109,-15.821 -0.031,-17.43C-0.037,-17.488 -0.037,-17.549 -0.036,-17.608C-0.036,-17.631 -0.025,-17.652 0,-17.746" fill="--c-accent"/>
            </g>
            <g transform="matrix(1.46654,0,0,1.46654,12.9875,0.108524)">
                <path d="M0,5.8C1.063,3.867 1.117,1.911 0.149,-0.074C0.521,0.003 1.067,0.484 1.412,0.993C2.114,2.032 2.025,3.099 1.433,4.118C1.068,4.745 0.564,5.292 0.123,5.874C0.083,5.849 0.042,5.824 0,5.8" fill="--c-accent"/>
            </g>
        </g>
    </g>
</svg>
