<?xml version="1.0" encoding="UTF-8" standalone="no"?>
<!DOCTYPE svg PUBLIC "-//W3C//DTD SVG 1.1//EN" "http://www.w3.org/Graphics/SVG/1.1/DTD/svg11.dtd">
<svg width="100%" height="100%" viewBox="0 0 1182 1182" version="1.1" xmlns="http://www.w3.org/2000/svg" xmlns:xlink="http://www.w3.org/1999/xlink" xml:space="preserve" xmlns:serif="http://www.serif.com/" style="fill-rule:evenodd;clip-rule:evenodd;stroke-linejoin:round;stroke-miterlimit:2;">
    <g id="air-icon.afdesign" serif:id="air icon.afdesign" transform="matrix(-0.103906,0.179971,-0.179971,-0.103906,883.876,835.12)">
        <g transform="matrix(1,0,0,1,-1240.16,-1753.94)">
            <g transform="matrix(1.0175,0,0,1.09652,297.224,533.95)">
                <path d="M851.559,2389.09C851.506,2392.96 848.076,2396.06 843.903,2396.01C839.731,2395.97 836.387,2392.78 836.441,2388.91C832.397,2324.37 826.833,2260.12 821.194,2195.04C818.405,2162.86 815.498,2130.75 812.776,2098.39C810.075,2066.28 807.373,2034.15 804.907,2001.85C800.027,1937.91 795.416,1873.6 789.626,1808.96C783.908,1745.12 777.572,1680.95 770.388,1616.42C758.528,1509.9 743.697,1402.53 727.468,1293.99C720.624,1248.22 713.166,1202.31 706.651,1156C699.463,1104.92 693.317,1053.69 686.42,1001.94C679.579,950.603 673.217,899.384 665.612,847.489C664.727,843.706 667.318,839.967 671.395,839.145C675.473,838.323 679.502,840.727 680.388,844.511C696.729,894.837 712.719,944.419 727.21,994.557C741.864,1045.26 755.77,1095.56 767.516,1146.26C778.184,1192.32 786.795,1238.48 794.991,1284.47C814.439,1393.6 829.277,1502.07 841.366,1609.58C848.691,1674.73 854.762,1739.57 859.392,1804.11C864.078,1869.44 867.868,1934.43 869.307,1999.12C870.033,2031.77 870.023,2064.28 869.472,2096.75C868.918,2129.44 867.69,2161.87 866.033,2194.35C862.693,2259.84 857.404,2324.4 851.559,2389.09Z" fill="--c-accent"/>
            </g>
            <g transform="matrix(0.345341,0,0,0.447423,864.918,826.509)">
                <path d="M861.673,2389.14C861.57,2396.67 853.566,2402.72 843.812,2402.64C834.058,2402.56 826.223,2396.38 826.327,2388.86C818.382,2339.04 809.004,2290.54 800.748,2240.38C792.631,2191.06 784.553,2142.35 777.377,2092.55C772.663,2059.83 768.514,2027.18 764.86,1994.2C761.241,1961.53 758.557,1928.76 755.504,1895.87C750.058,1837.2 744.405,1778.26 738.294,1719C729.255,1631.34 718.985,1543.05 707.527,1454.05C699.994,1395.55 691.582,1336.79 683.888,1277.59C678.8,1238.43 673.094,1199.25 669.655,1159.66C665.169,1108.02 663.564,1056.89 661.166,1004.59C658.769,952.313 658.134,901.291 655.607,848.426C653.873,841.016 660.258,833.914 669.857,832.576C679.457,831.237 688.658,836.165 690.393,843.574C712.116,894.064 733.495,942.666 752.724,993.138C772.05,1043.87 790.354,1093.62 804.901,1144.7C818.012,1190.74 827.276,1237.05 836.272,1283.22C857.571,1392.53 872.358,1501.33 884.527,1609.15C891.892,1674.4 897.765,1739.36 901.706,1804.01C905.694,1869.43 908.973,1934.49 908.346,1999.25C908.029,2032 906.448,2064.45 903.967,2096.97C901.461,2129.83 897.858,2162.03 893.563,2194.61C884.876,2260.5 873.396,2324.19 861.673,2389.14Z" fill="--c-accent"/>
            </g>
            <g transform="matrix(-1.13989,0,0,1.09652,2202.89,432.787)">
                <path d="M837.057,2388.9C837.002,2392.88 840.069,2396.16 843.901,2396.22C847.733,2396.28 850.888,2393.09 850.943,2389.1C856.22,2324.29 860.883,2259.58 863.699,2193.95C865.096,2161.39 866.082,2128.88 866.442,2096.12C866.799,2063.57 866.645,2030.98 865.811,1998.26C864.16,1933.43 860.308,1868.31 855.537,1802.85C850.826,1738.22 844.717,1673.28 837.374,1608.04C825.269,1500.5 810.395,1392 791.099,1282.85C782.978,1236.92 774.429,1190.81 764.003,1144.83C752.536,1094.27 739.101,1044.13 724.92,993.606C710.915,943.701 695.529,894.365 679.747,844.293C678.841,840.422 675.082,838.044 671.358,838.986C667.634,839.928 665.347,843.836 666.253,847.707C674.336,899.51 681.235,950.655 688.498,1001.88C695.827,1053.57 702.41,1104.73 709.845,1155.72C716.591,1201.98 724.102,1247.8 731.015,1293.5C747.424,1401.98 762.251,1509.27 774.127,1615.7C781.328,1680.25 787.661,1744.44 793.326,1808.28C799.065,1872.98 803.643,1937.33 808.334,2001.32C810.704,2033.66 813.254,2065.82 815.771,2097.95C818.308,2130.35 820.98,2162.5 823.515,2194.72C828.642,2259.89 833.584,2324.26 837.057,2388.9Z" fill="--c-accent"/>
            </g>
            <g transform="matrix(-0.779906,0,0,0.594812,1883.05,780.305)">
                <path d="M848.98,2389.08C849.012,2394.74 852.545,2399.3 856.864,2399.26C861.183,2399.22 864.664,2394.59 864.632,2388.93C868.52,2336.33 872.191,2284.4 874.193,2231.31C876.178,2178.69 877.206,2126.25 876.481,2073.19C875.836,2025.94 873.579,1978.65 870.674,1931.2C863.991,1822.03 853.027,1712.36 839.44,1602.12C826.145,1494.24 810.216,1385.73 790.597,1277.01C782.326,1231.18 773.772,1185.22 763.37,1139.65C751.888,1089.34 738.585,1040 724.629,990.138C710.796,940.72 695.796,892.518 680.523,843.174C679.334,837.729 674.997,834.575 670.844,836.135C666.692,837.695 664.287,843.382 665.477,848.826C670.925,890.602 675.549,931.584 680.844,972.996C688.818,1035.37 695.993,1096.82 704.505,1158.2C710.914,1204.42 718.392,1250.06 725.336,1295.67C741.773,1403.63 757.208,1510.52 770.417,1616.81C783.894,1725.24 794.937,1832.96 804.879,1939.91C809.202,1986.41 813.214,2032.7 817.741,2078.82C822.84,2130.76 828.46,2181.93 833.642,2233.49C838.898,2285.78 844.539,2336.97 848.98,2389.08Z" fill="--c-accent"/>
            </g>
            <g transform="matrix(1.57052,0.311716,-0.311716,1.57052,-686.203,-561.75)">
                <path d="M1196.58,547.211C1196.54,550.718 1193.66,553.531 1190.15,553.491C1186.65,553.45 1183.83,550.571 1183.87,547.064C1183.87,547.064 1178.75,500.858 1192.76,444.618C1196.83,428.289 1202.77,411.515 1210.86,394.729C1218.49,378.877 1228.35,363.474 1240.45,349.021C1262.38,322.839 1292.2,300.567 1330.57,285.52C1360.27,273.873 1395.56,267.199 1437.16,266.96C1532.07,267.88 1595.81,302.404 1636.95,348.113C1647.1,359.387 1655.95,371.268 1663.18,383.66C1670.76,396.63 1676.84,409.773 1681.65,422.914C1687.95,440.087 1692.44,456.55 1695.26,472.009C1703.15,515.247 1700.39,546.813 1700.39,546.813C1700.57,550.315 1697.88,553.304 1694.37,553.483C1690.87,553.662 1687.88,550.964 1687.7,547.462C1687.7,547.462 1677.23,495.49 1643.64,441.266C1637.38,431.176 1630.21,421.282 1622.4,411.221C1615.28,402.049 1607.4,393.122 1598.71,384.455C1563.85,349.692 1513.14,322.855 1437.16,323.591C1387.52,323.177 1349.04,334.378 1318.95,351.906C1303.25,361.054 1289.87,371.802 1278.23,383.444C1265.08,396.595 1253.88,410.438 1244.68,424.828C1233.95,441.621 1225.31,458.206 1218.71,474.004C1201.68,514.768 1196.58,547.211 1196.58,547.211Z" fill="--c-accent"/>
            </g>
            <g transform="matrix(1.22656,-0.759766,0.759766,1.22656,-1278.72,1447.38)">
                <path d="M1195.87,547.203C1195.83,550.316 1193.27,552.814 1190.16,552.778C1187.05,552.742 1184.55,550.185 1184.59,547.072C1184.59,547.072 1180.08,500.988 1194.64,445.305C1198.86,429.176 1204.89,412.558 1213.04,395.998C1220.72,380.39 1230.53,365.186 1242.57,350.952C1264.34,325.206 1293.77,303.23 1331.67,288.434C1361.08,276.954 1395.99,270.347 1437.16,270.137C1531,270.944 1593.99,305.079 1634.81,350.152C1644.88,361.271 1653.65,373.005 1660.89,385.206C1668.49,397.99 1674.61,410.987 1679.52,423.943C1685.95,440.902 1690.56,457.246 1693.56,472.536C1701.97,515.348 1699.68,546.85 1699.68,546.85C1699.84,549.959 1697.45,552.612 1694.34,552.771C1691.23,552.93 1688.58,550.535 1688.42,547.426C1688.42,547.426 1678.78,494.946 1645.77,440.236C1639.59,429.99 1632.49,419.877 1624.69,409.675C1617.55,400.333 1609.63,391.221 1600.85,382.417C1565.61,347.062 1514.2,319.752 1437.16,320.414C1386.83,320.041 1347.83,331.471 1317.37,349.3C1301.43,358.629 1287.85,369.597 1276.11,381.513C1265.68,392.09 1256.53,403.129 1248.65,414.58C1234.97,434.452 1224.58,454.633 1216.99,473.497C1200.48,514.521 1195.87,547.203 1195.87,547.203Z" fill="--c-accent"/>
            </g>
            <g transform="matrix(0.402981,1.10254,-1.10254,0.402981,1698.58,-706.274)">
                <path d="M1197.16,547.218C1197.11,551.044 1193.97,554.114 1190.15,554.07C1186.32,554.026 1183.25,550.884 1183.29,547.058C1183.29,547.058 1177.67,500.761 1191.22,444.06C1195.17,427.567 1201.05,410.669 1209.08,393.698C1216.67,377.646 1226.57,362.083 1238.73,347.451C1260.79,320.914 1290.93,298.405 1329.68,283.151C1359.62,271.368 1395.2,264.641 1437.16,264.378C1532.93,265.39 1597.29,300.229 1638.7,346.456C1648.91,357.857 1657.82,369.856 1665.04,382.403C1672.6,395.526 1678.65,408.785 1683.39,422.077C1689.57,439.427 1693.97,455.983 1696.64,471.581C1704.11,515.174 1700.97,546.784 1700.97,546.784C1701.17,550.605 1698.23,553.866 1694.4,554.062C1690.58,554.257 1687.32,551.313 1687.13,547.492C1687.13,547.492 1675.97,495.944 1641.9,442.102C1635.6,432.138 1628.36,422.426 1620.54,412.477C1613.44,403.443 1605.59,394.669 1596.97,386.112C1562.41,351.828 1512.28,325.379 1437.16,326.173C1388.07,325.726 1350.01,336.74 1320.24,354.023C1304.73,363.027 1291.48,373.573 1279.95,385.014C1266.87,397.988 1255.65,411.564 1246.43,425.755C1235.62,442.396 1226.83,458.751 1220.1,474.415C1202.69,514.99 1197.16,547.218 1197.16,547.218Z" fill="--c-accent"/>
            </g>
            <g transform="matrix(-0.462185,-0.731022,0.731022,-0.462185,1068.99,2652.13)">
                <path d="M1198.46,547.233C1198.41,551.777 1194.67,555.423 1190.13,555.371C1185.59,555.318 1181.94,551.586 1181.99,547.042C1181.99,547.042 1175.26,500.575 1187.78,442.806C1191.44,425.942 1197.2,408.778 1205.09,391.381C1212.58,374.878 1222.58,358.967 1234.86,343.927C1257.19,316.585 1288.08,293.553 1327.68,277.834C1358.14,265.742 1394.41,258.899 1437.16,258.581C1534.87,259.808 1600.62,295.338 1642.61,342.736C1652.97,354.425 1662.02,366.683 1669.22,379.582C1676.74,393.054 1682.72,406.562 1687.28,420.198C1693.21,437.955 1697.41,454.705 1699.74,470.62C1706.25,515.036 1702.27,546.717 1702.27,546.717C1702.5,551.256 1699.01,555.129 1694.47,555.361C1689.93,555.593 1686.06,552.096 1685.83,547.558C1685.83,547.558 1673.15,497.001 1638.01,443.981C1631.59,434.294 1624.21,425 1616.37,415.299C1609.32,406.568 1601.52,398.143 1593.05,389.833C1559.2,356.616 1510.34,331.052 1437.16,331.97C1389.32,331.453 1352.2,342.038 1323.12,358.778C1308.04,367.457 1295.11,377.545 1283.82,388.537C1270.88,401.123 1259.6,414.086 1250.35,427.835C1239.37,444.146 1230.24,459.969 1223.24,475.34C1204.94,515.511 1198.46,547.233 1198.46,547.233Z" fill="--c-accent"/>
            </g>
            <g transform="matrix(-0.520211,0.690933,-0.690933,-0.520211,2690.29,745.776)">
                <path d="M1198.46,547.233C1198.41,551.777 1194.67,555.423 1190.13,555.371C1185.59,555.318 1181.94,551.586 1181.99,547.042C1181.99,547.042 1175.26,500.575 1187.78,442.806C1191.44,425.942 1197.2,408.778 1205.09,391.381C1212.58,374.878 1222.58,358.967 1234.86,343.927C1257.19,316.585 1288.08,293.553 1327.68,277.834C1358.14,265.742 1394.41,258.899 1437.16,258.581C1534.87,259.808 1600.62,295.338 1642.61,342.736C1652.97,354.425 1662.02,366.683 1669.22,379.582C1676.74,393.054 1682.72,406.562 1687.28,420.198C1693.21,437.955 1697.41,454.705 1699.74,470.62C1706.25,515.036 1702.27,546.717 1702.27,546.717C1702.5,551.256 1699.01,555.129 1694.47,555.361C1689.93,555.593 1686.06,552.096 1685.83,547.558C1685.83,547.558 1673.15,497.001 1638.01,443.981C1631.59,434.294 1624.21,425 1616.37,415.299C1609.32,406.568 1601.52,398.143 1593.05,389.833C1559.2,356.616 1510.34,331.052 1437.16,331.97C1389.32,331.453 1352.2,342.038 1323.12,358.778C1308.04,367.457 1295.11,377.545 1283.82,388.537C1270.88,401.123 1259.6,414.086 1250.35,427.835C1239.37,444.146 1230.24,459.969 1223.24,475.34C1204.94,515.511 1198.46,547.233 1198.46,547.233Z" fill="--c-accent"/>
            </g>
        </g>
    </g>
    <g transform="matrix(1.09492,0,0,1.09492,-67.7592,1.82046)">
        <g transform="matrix(21.359,0,0,20.6875,645.824,399.907)">
            <path d="M0,-17.746C0.63,-16.56 0.837,-15.382 0.639,-14.109C0.47,-13.024 -0.098,-12.146 -0.654,-11.244C-1.064,-10.578 -1.464,-9.898 -1.786,-9.187C-2.317,-8.015 -2.026,-7.065 -0.988,-6.313C-0.639,-6.06 -0.089,-6.051 0.414,-6.346C0.293,-6.424 0.183,-6.476 0.1,-6.555C-0.729,-7.348 -0.933,-8.336 -0.445,-9.386C-0.262,-9.78 -0.002,-10.142 0.248,-10.502C0.443,-10.785 0.694,-11.029 0.887,-11.314C1.078,-11.598 1.227,-11.908 1.4,-12.219C1.497,-11.693 1.29,-11.243 1.081,-10.785C0.885,-10.355 0.687,-9.92 0.57,-9.465C0.514,-9.253 0.584,-8.951 0.706,-8.759C1.009,-8.28 1.753,-8.363 2.052,-8.934C2.254,-9.321 2.328,-9.775 2.454,-10.184C2.569,-9.739 2.728,-9.243 2.824,-8.736C3.083,-7.363 3.212,-5.99 3.03,-4.584C2.732,-2.289 1.225,-0.561 -1.016,-0.061C-1.142,-0.034 -1.267,-0.005 -1.417,0C0.015,-0.87 0.842,-2.093 0.828,-3.818C0.754,-3.697 0.681,-3.576 0.608,-3.453C0.273,-2.883 -0.183,-2.491 -0.857,-2.361C-1.139,-2.308 -1.402,-2.162 -1.618,-2.08C-2.067,-2.746 -2.561,-3.447 -3.017,-4.17C-3.226,-4.5 -3.361,-4.875 -3.535,-5.238C-3.763,-4.918 -3.931,-4.512 -3.813,-4.049C-3.646,-3.393 -3.439,-2.748 -3.255,-2.098C-3.22,-1.975 -3.208,-1.848 -3.179,-1.686C-3.779,-1.629 -4.29,-1.785 -4.768,-2.061C-5.272,-2.351 -5.523,-2.826 -5.653,-3.447C-5.865,-2.38 -5.399,-0.976 -3.751,-0.178C-3.757,-0.146 -3.764,-0.117 -3.77,-0.086C-4.225,-0.197 -4.696,-0.266 -5.132,-0.428C-6.796,-1.045 -7.804,-2.252 -8.137,-3.987C-8.621,-6.511 -7.958,-8.718 -6.202,-10.592C-6.014,-10.793 -5.783,-10.954 -5.535,-11.111C-6.367,-9.273 -6.997,-7.461 -5.527,-5.678C-5.549,-6.447 -5.646,-7.22 -5.573,-7.976C-5.44,-9.367 -4.588,-10.357 -3.566,-11.228C-2.825,-11.859 -2.035,-12.453 -1.388,-13.171C-0.314,-14.365 0.109,-15.821 -0.031,-17.43C-0.037,-17.488 -0.037,-17.549 -0.036,-17.608C-0.036,-17.631 -0.025,-17.652 0,-17.746" fill="--c-accent"/>
        </g>
        <g transform="matrix(21.359,0,0,20.6875,573.259,1.53087)">
            <path d="M0,5.8C1.063,3.867 1.117,1.911 0.149,-0.074C0.521,0.003 1.067,0.484 1.412,0.993C2.114,2.032 2.025,3.099 1.433,4.118C1.068,4.745 0.564,5.292 0.123,5.874C0.083,5.849 0.042,5.824 0,5.8" fill="--c-accent"/>
        </g>
    </g>
    <g transform="matrix(1.19508,0,0,1.19508,-90.8669,-47.0199)">
        <g transform="matrix(22.1841,0,0,22.1841,356.275,533.883)">
            <path d="M0,-10.904C0.335,-9.506 0.663,-8.138 0.997,-6.746C0.889,-6.73 0.794,-6.701 0.7,-6.705C0.339,-6.715 -0.022,-6.742 -0.384,-6.752C-0.56,-6.758 -0.738,-6.75 -0.914,-6.732C-1.18,-6.709 -1.356,-6.55 -1.443,-6.308C-1.578,-5.935 -1.703,-5.558 -1.814,-5.177C-2.023,-4.463 -2.322,-3.793 -2.823,-3.236C-3.016,-3.023 -3.271,-2.855 -3.52,-2.703C-3.938,-2.449 -4.166,-2.111 -4.099,-1.609C-4.07,-1.398 -4.036,-1.187 -4.005,-0.974C-3.959,-0.662 -3.915,-0.349 -3.864,-0.004L-4.109,-0.004C-6.326,-0.004 -8.542,-0.006 -10.758,-0.002C-10.911,0 -10.981,-0.025 -11,-0.201C-11.083,-0.951 -11.187,-1.697 -11.284,-2.443C-11.304,-2.595 -11.317,-2.752 -11.366,-2.892C-11.483,-3.236 -11.388,-3.509 -11.188,-3.8C-10.738,-4.449 -10.292,-5.105 -9.898,-5.787C-9.076,-7.211 -8.552,-8.75 -8.271,-10.369C-8.178,-10.902 -8.181,-10.904 -7.643,-10.904L0,-10.904Z" fill="#808080"/>
        </g>
        <g transform="matrix(22.1841,0,0,22.1841,300.251,411.651)">
            <path d="M0,6.604C-0.083,6.012 -0.167,5.432 -0.247,4.85C-0.278,4.62 -0.301,4.389 -0.323,4.157C-0.34,3.979 -0.268,3.834 -0.136,3.717C-0.072,3.661 -0.012,3.596 0.06,3.551C0.843,3.053 1.291,2.299 1.628,1.471C1.803,1.042 1.935,0.594 2.079,0.153C2.114,0.043 2.158,0 2.282,0C3.466,0.006 4.65,0.004 5.834,0.004L7.221,0.004C7.277,0.194 7.342,0.434 7.417,0.67C7.691,1.526 8.125,2.293 8.779,2.911C9.135,3.247 9.278,3.614 9.224,4.086C9.129,4.92 9.046,5.754 8.958,6.604L0,6.604Z" fill="#808080"/>
        </g>
    </g>
    <g transform="matrix(0.970822,0,0,0.970822,14.7103,42.8778)">
        <g transform="matrix(1.20544,0,0,1.20544,-130.785,-161.895)">
            <path d="M650.811,865.552C677.231,899.151 708.533,942.911 708.533,986.018C708.533,1051.13 655.667,1104 590.551,1104C525.435,1104 472.569,1051.13 472.569,986.018C472.569,942.911 509.564,891.018 530.292,865.552C559.651,829.482 590.551,754.904 590.551,726.04C590.551,754.904 621.807,828.668 650.811,865.552Z" fill="#808080"/>
        </g>
        <g transform="matrix(1.10542,0,0,1.10542,-71.7163,-10.6313)">
            <path d="M611.515,865.741C613.205,867.938 620.761,866.958 609.609,860.611C556.488,830.376 507,883.442 507,945.576C507,997.42 547.807,1018.12 564.332,1023.95C613.809,1041.4 662.589,1015.9 666.969,984.436C671.512,951.806 648.275,912.648 599.111,936.151C574.439,947.945 548.255,930.919 547.695,903.436C547.172,877.747 562.045,869.103 572.719,862.882C588.149,853.89 611.515,865.741 611.515,865.741Z" fill="white"/>
        </g>
    </g>
    <g transform="matrix(1.2913,0,0,1.2913,-220.511,-79.8765)">
        <g transform="matrix(0.679413,-0.340932,0.27175,0.541546,180.836,139.107)">
            <path d="M446.285,955.007C435.747,956.05 426.402,961.856 417.407,967.798C404.407,976.384 391.986,985.353 379.055,987.792C361.841,991.038 350.081,986.317 342.094,980.043C328.717,969.537 325.188,953.733 325.188,953.733L322.02,940.566L343.01,932.617L346.178,945.784C346.178,945.784 347.999,952.228 353.728,956.729C358.478,960.459 365.561,962.521 375.795,960.59C386.456,958.58 396.476,950.536 407.193,943.457C419.18,935.541 431.815,928.553 445.935,927.478C451.808,852.784 514.359,793.918 590.551,793.918C590.963,793.918 591.375,793.919 591.786,793.923L591.786,793.918C591.786,793.918 591.969,793.948 592.327,793.928C610.581,792.903 632.745,794.236 650.307,798.374C678.572,805.033 725.271,815.973 771.873,857.632C821.919,902.37 851.019,941.935 851.019,941.935C851.019,941.935 808.601,953.657 756.146,989.749C697.502,1030.1 649.36,1038.85 617.32,1044.79C607.21,1047.16 593.753,1048.47 582.955,1048.6C582.596,1048.61 582.414,1048.61 582.414,1048.61L582.414,1048.6C582.003,1048.61 581.591,1048.61 581.179,1048.61C506.698,1048.61 453.362,1023.03 446.285,955.007Z" fill="#808080"/>
        </g>
        <path d="M753.011,489.367L751.645,490.378C749.357,490.65 748.569,489.823 749.622,487.645L750.989,486.633C758.056,480.298 764.921,474.018 772.254,468.222C779.659,462.371 787.287,456.941 795.061,451.826C818.947,436.109 843.855,423.108 868.706,411.032C889.942,400.713 911.357,391.398 933.018,383.2C954.98,374.887 977.171,367.76 999.492,361.377L1001.12,360.87C1003.65,361.012 1004.47,361.885 1002.13,364.115L1000.51,364.623C978.655,372.055 957.059,380.433 935.565,389.55C914.444,398.509 893.459,408.214 872.693,418.976C848.458,431.535 824.852,445.989 800.851,460.885C793.039,465.734 785.172,470.574 777.161,475.347C769.189,480.097 761.077,484.496 753.011,489.367Z" fill="white"/>
        <g transform="matrix(0.163433,-0.180603,0.288569,0.261134,505.079,484.395)">
            <path d="M754.547,489.281L752.448,490.834L747.353,488.273L749.453,486.719C755.198,480.783 760.401,475.043 766.707,469.571C773.101,464.023 780.018,458.867 787.253,453.984C810.217,438.484 835.385,425.622 859.91,413.628C881.904,402.871 904.027,393.175 926.522,384.655C950.275,375.658 974.345,368.011 998.493,361.208L1001.43,360.289L1004.44,363.873L1001.51,364.792C979.578,372.376 958.087,380.937 936.528,390.271C922.828,396.202 909.088,402.4 895.491,409.083C871.974,420.642 848.93,433.569 825.858,447.745C816.553,453.462 807.541,459.552 797.881,465.484C791.155,469.614 784.279,473.705 777,477.712C769.727,481.717 762.137,485.246 754.547,489.281Z" fill="white"/>
        </g>
        <g transform="matrix(0.246086,-0.0657728,-0.102148,-0.382183,655.18,700.419)">
            <path d="M749.453,486.719L747.353,488.273L752.448,490.834L754.547,489.281C762.137,485.246 769.727,481.717 777,477.712C784.279,473.704 791.155,469.614 797.881,465.484C807.541,459.552 816.553,453.462 825.858,447.745C848.93,433.569 871.974,420.642 895.491,409.083C909.088,402.4 922.828,396.202 936.528,390.271C958.087,380.937 979.578,372.376 1001.51,364.792L1004.44,363.873L1001.43,360.289L998.493,361.208C974.345,368.011 950.275,375.658 926.522,384.655C904.027,393.175 881.904,402.871 859.91,413.628C835.385,425.622 810.217,438.484 787.253,453.984C780.018,458.867 773.101,464.023 766.707,469.571C760.401,475.043 755.198,480.783 749.453,486.719Z" fill="white"/>
        </g>
        <g transform="matrix(0.233882,-0.062511,-0.0842174,-0.315096,619.457,688.439)">
            <path d="M749.453,486.719L747.353,488.273L752.448,490.834L754.547,489.281C762.137,485.246 769.727,481.717 777,477.712C784.279,473.704 791.155,469.614 797.881,465.484C807.541,459.552 816.553,453.462 825.858,447.745C848.93,433.569 871.974,420.642 895.491,409.083C909.088,402.4 922.828,396.202 936.528,390.271C958.087,380.937 979.578,372.376 1001.51,364.792L1004.44,363.873L1001.43,360.289L998.493,361.208C974.345,368.011 950.275,375.658 926.522,384.655C904.027,393.175 881.904,402.871 859.91,413.628C835.385,425.622 810.217,438.484 787.253,453.984C780.018,458.867 773.101,464.023 766.707,469.571C760.401,475.043 755.198,480.783 749.453,486.719Z" fill="white"/>
        </g>
        <g transform="matrix(0.166352,-0.183829,0.288252,0.260847,543.282,463.048)">
            <path d="M754.547,489.281L752.448,490.834L747.353,488.273L749.453,486.719C755.198,480.783 760.401,475.043 766.707,469.571C773.101,464.023 780.018,458.867 787.253,453.984C810.217,438.484 835.385,425.622 859.91,413.628C881.904,402.871 904.027,393.175 926.522,384.655C950.275,375.658 974.345,368.011 998.493,361.208L1001.43,360.289L1004.44,363.873L1001.51,364.792C979.578,372.376 958.087,380.937 936.528,390.271C922.828,396.202 909.088,402.4 895.491,409.083C871.974,420.642 848.93,433.569 825.858,447.745C816.553,453.462 807.541,459.552 797.881,465.484C791.155,469.614 784.279,473.705 777,477.712C769.727,481.717 762.137,485.246 754.547,489.281Z" fill="white"/>
        </g>
        <g transform="matrix(0.222398,-0.0594415,-0.0971942,-0.363648,713.16,659.473)">
            <path d="M749.453,486.719L747.353,488.273L752.448,490.834L754.547,489.281C762.137,485.246 769.727,481.717 777,477.712C784.279,473.704 791.155,469.614 797.881,465.484C807.541,459.552 816.553,453.462 825.858,447.745C848.93,433.569 871.974,420.642 895.491,409.083C909.088,402.4 922.828,396.202 936.528,390.271C958.087,380.937 979.578,372.376 1001.51,364.792L1004.44,363.873L1001.43,360.289L998.493,361.208C974.345,368.011 950.275,375.658 926.522,384.655C904.027,393.175 881.904,402.871 859.91,413.628C835.385,425.622 810.217,438.484 787.253,453.984C780.018,458.867 773.101,464.023 766.707,469.571C760.401,475.043 755.198,480.783 749.453,486.719Z" fill="white"/>
        </g>
        <g transform="matrix(0.142605,-0.157587,0.253288,0.229208,621.984,433.238)">
            <path d="M754.941,489.525L752.479,491.347L746.597,488.297L749.059,486.475C754.644,480.362 759.559,474.505 765.794,468.887C772.071,463.23 778.95,458.011 786.197,453.085C809.15,437.483 834.597,424.736 859.265,412.772C881.346,402.063 903.536,392.406 926.13,383.964C949.943,375.067 974.068,367.565 998.271,360.879L1001.7,359.808L1005.15,364.05L1001.73,365.121C979.941,372.789 958.644,381.444 937.22,390.829C923.6,396.796 909.926,403.003 896.398,409.703C872.974,421.303 850.062,434.285 827.067,448.476C817.783,454.205 808.828,460.333 799.124,466.227C792.349,470.342 785.404,474.379 777.995,478.299C770.525,482.253 762.775,485.584 754.941,489.525Z" fill="white"/>
        </g>
        <g transform="matrix(0.195351,-0.0522126,-0.0800902,-0.299654,768.698,600.517)">
            <path d="M749.059,486.475L746.597,488.297L752.479,491.347L754.941,489.525C762.775,485.584 770.525,482.253 777.995,478.299C785.403,474.379 792.349,470.342 799.124,466.227C808.828,460.333 817.783,454.205 827.067,448.476C850.062,434.285 872.974,421.303 896.398,409.703C909.926,403.003 923.6,396.796 937.22,390.829C958.644,381.444 979.941,372.789 1001.73,365.121L1005.15,364.05L1001.7,359.808L998.271,360.879C974.067,367.565 949.943,375.067 926.129,383.964C903.536,392.406 881.346,402.063 859.265,412.772C834.597,424.736 809.15,437.483 786.197,453.085C778.95,458.011 772.071,463.23 765.794,468.887C759.559,474.505 754.644,480.362 749.059,486.475Z" fill="white"/>
        </g>
        <g transform="matrix(0.112272,-0.124068,0.201096,0.181978,715.255,408.371)">
            <path d="M755.757,489.918L752.636,492.227L745.123,488.391L748.243,486.082C752.283,480.907 755.57,476.134 760.217,471.313C764.789,466.569 770.007,462.29 775.367,458.032C778.614,455.453 782.002,452.984 785.567,450.631C800.313,440.9 816.282,432.455 831.891,424.312C863.403,407.871 895.145,393.665 927.662,381.909C950.812,373.539 974.265,366.584 997.785,360.325L1002.14,358.963L1006.57,364.314L1002.22,365.675C980.589,373.517 959.576,382.367 938.31,391.891C924.824,397.931 911.254,404.17 897.839,410.915C874.637,422.582 852.033,435.645 829.224,449.852C820.026,455.582 811.23,461.752 801.471,467.562C794.627,471.637 787.573,475.562 779.932,479.321C772.079,483.184 764.069,486.145 755.757,489.918Z" fill="white"/>
        </g>
        <g transform="matrix(0.124953,-0.033397,-0.0568617,-0.212745,852.742,522.966)">
            <path d="M748.243,486.082L745.123,488.391L752.636,492.227L755.757,489.918C764.069,486.145 772.079,483.184 779.932,479.321C787.573,475.562 794.627,471.637 801.471,467.562C811.23,461.752 820.026,455.582 829.224,449.852C852.033,435.645 874.637,422.582 897.839,410.915C911.254,404.17 924.824,397.931 938.31,391.891C959.576,382.367 980.589,373.517 1002.22,365.675L1006.57,364.314L1002.14,358.963L997.785,360.325C974.265,366.584 950.812,373.539 927.662,381.909C895.145,393.665 863.403,407.871 831.891,424.312C816.282,432.455 800.313,440.9 785.567,450.631C782.002,452.984 778.613,455.453 775.367,458.032C770.006,462.29 764.789,466.569 760.217,471.313C755.57,476.134 752.283,480.907 748.243,486.082Z" fill="white"/>
        </g>
        <g transform="matrix(0.0851739,-0.0941223,0.113468,0.102681,819.003,407.652)">
            <path d="M756.097,491.928L751.434,495.379L743.24,487.523L747.903,484.072C752.24,477.533 755.358,471.91 760.446,465.918C765.221,460.294 770.658,455.536 776.349,450.707C779.737,447.833 783.278,445.15 787.02,442.666C802.254,432.555 818.753,424.435 834.891,416.39C866.366,400.7 898.001,387.122 930.447,376.405C952.758,369.035 975.199,363.333 997.839,358.099L1003.66,356.278L1007.98,366.081L1002.16,367.901C981.435,376.191 961.47,385.587 941.015,395.194C896.21,416.237 854.905,443.65 808.859,470.143C799.358,475.609 789.521,480.327 778.909,484.636C771.2,487.767 764.176,489.207 756.097,491.928Z" fill="white"/>
        </g>
    </g>
    <g transform="matrix(1.02262,0,0,1.02262,-15.3903,-5.87183)">
        <g transform="matrix(3.54535,0,0,3.54535,15.7205,730.635)">
            <path d="M84,25.5C84,19.705 79.295,15 73.5,15L24.5,15C18.705,15 14,19.705 14,25.5L14,74.5C14,80.295 18.705,85 24.5,85L73.5,85C79.295,85 84,80.295 84,74.5L84,25.5Z" fill="--c-accent"/>
        </g>
        <g transform="matrix(3.54535,0,0,3.54535,40.5379,645.546)">
            <path d="M16.515,35.64L40.386,11.769C40.445,11.71 40.504,11.65 40.564,11.592C42.457,9.743 45.045,8.603 47.897,8.603L96.897,8.603C102.693,8.603 107.397,13.307 107.397,19.103L107.397,68.103C107.397,71.226 106.031,74.033 103.863,75.957L80.36,99.46L80.36,48.99C80.36,41.622 74.378,35.64 67.01,35.64L16.515,35.64Z" fill="--c-accent"/>
        </g>
        <g transform="matrix(1,0,0,1,-2,0)">
            <path d="M139,759L323,685L355,685L169,759L139,759Z" fill="white"/>
        </g>
        <g transform="matrix(1,0,0,1,40.4136,0)">
            <path d="M139,759L323,685L336,685L150,759L139,759Z" fill="white"/>
        </g>
        <g transform="matrix(3.06849,0,0,3.06849,66.2668,676.957)">
            <path d="M25.151,43.387L8.266,60.272L8.266,55.519C8.266,48.823 13.702,43.387 20.398,43.387L25.151,43.387Z" fill="white"/>
        </g>
        <path d="M153,810.09L92.372,870.718L92.372,877L160.493,809.88L153,810.09Z" fill="white"/>
    </g>
</svg>
