<?xml version="1.0" encoding="UTF-8" standalone="no"?>
<!DOCTYPE svg PUBLIC "-//W3C//DTD SVG 1.1//EN" "http://www.w3.org/Graphics/SVG/1.1/DTD/svg11.dtd">
<svg width="100%" height="100%" viewBox="0 0 1182 1182" version="1.1" xmlns="http://www.w3.org/2000/svg" xmlns:xlink="http://www.w3.org/1999/xlink" xml:space="preserve" xmlns:serif="http://www.serif.com/" style="fill-rule:evenodd;clip-rule:evenodd;stroke-linejoin:round;stroke-miterlimit:2;">
    <g id="air-3.afdesign" serif:id="air 3.afdesign" transform="matrix(3.95333,0,0,3.95333,892.004,491.195)">
        <g transform="matrix(1,0,0,1,-59.0617,-59.0617)">
            <g id="Layer-1" serif:id="Layer 1" transform="matrix(4.16667,0,0,4.16667,0,0)">
                <g transform="matrix(0.143753,0.248988,-0.248988,0.143753,20.5631,-9.18899)">
                    <path d="M56.693,113.978C56.705,114.361 56.404,114.681 56.022,114.693C55.639,114.705 55.319,114.404 55.307,114.022C55.307,114.022 54.982,108.87 54.482,101.421C54.231,97.68 53.923,93.363 53.615,88.827C53.242,83.338 52.856,77.531 52.416,72.056C51.861,65.147 51.258,58.765 50.542,54.227C49.354,46.556 48.118,39.671 45.87,34.392C44.013,30.032 41.475,26.795 37.515,25.314C34.007,23.969 31.168,24.819 29.434,26.592C27.347,28.726 26.783,32.123 28.762,34.266C29.93,35.543 31.295,35.837 32.477,35.577C33.53,35.346 34.446,34.737 34.92,34.031C35.125,33.726 35.267,33.417 35.229,33.122C35.151,32.513 34.969,32.029 34.74,31.658C34.288,30.924 33.714,30.631 33.714,30.631C33.365,30.473 33.211,30.062 33.369,29.714C33.527,29.365 33.938,29.211 34.286,29.369C34.286,29.369 35.209,29.764 35.961,30.866C36.306,31.372 36.612,32.031 36.771,32.878C37.069,34.474 35.369,36.699 32.923,37.375C31.17,37.859 29.087,37.559 27.238,35.734C24.314,32.822 24.733,27.958 27.583,24.841C29.857,22.355 33.676,20.977 38.485,22.686C43.182,24.399 46.33,28.099 48.551,33.242C50.907,38.699 52.215,45.829 53.458,53.773C54.548,60.948 55.474,72.662 56.003,83.874C56.254,89.186 56.396,94.382 56.499,98.923C56.697,107.673 56.693,113.978 56.693,113.978Z" fill="#808080"/>
                </g>
                <g transform="matrix(0.143753,0.248988,-0.248988,0.143753,25.4864,-8.71165)">
                    <path d="M48.743,74.553C48.989,74.963 48.857,75.496 48.447,75.743C48.037,75.989 47.504,75.857 47.257,75.447C47.257,75.447 46.208,74.043 45.667,67.05C45.439,64.105 45.341,60.132 45.413,54.78C45.538,51.569 46.264,47.482 46.877,43.314C47.431,39.547 47.893,35.711 47.559,32.444C47.259,29.515 46.356,27.054 43.91,25.87C40.416,24.158 37.673,24.512 35.957,25.955C34.91,26.835 34.259,28.068 34.09,29.343C33.921,30.622 34.178,31.952 35.084,32.956C36.116,34.118 37.322,34.432 38.389,34.218C39.357,34.023 40.222,33.512 40.671,32.874C40.842,32.631 41,32.401 40.975,32.162C40.915,31.589 40.768,31.127 40.562,30.774C40.157,30.084 39.642,29.789 39.642,29.789C39.206,29.592 39.013,29.078 39.211,28.642C39.408,28.206 39.922,28.013 40.358,28.211C40.358,28.211 41.326,28.613 42.14,29.75C42.513,30.271 42.838,30.955 43.025,31.838C43.381,33.539 41.616,35.962 39.012,36.734C37.147,37.286 34.923,36.966 32.916,35.044C31.252,33.425 30.574,31.192 30.757,28.985C30.932,26.865 31.961,24.778 33.657,23.284C36.167,21.073 40.256,20.086 45.5,22.571C49.116,24.306 50.795,27.746 51.234,32.07C51.594,35.615 51.125,39.785 50.471,43.866C49.826,47.898 48.995,51.837 48.81,54.946C48.368,60.175 48.23,64.067 48.207,66.962C48.157,73.208 48.743,74.553 48.743,74.553Z" fill="#808080"/>
                </g>
                <g transform="matrix(-0.119477,-0.20694,-0.257222,0.148507,37.7761,16.3969)">
                    <path d="M55.166,114.017C55.178,114.387 55.561,114.68 56.021,114.671C56.481,114.662 56.845,114.353 56.834,113.983C56.834,113.983 56.886,107.685 56.731,98.944C56.651,94.407 56.531,89.215 56.292,83.907C55.786,72.704 54.849,60.993 53.763,53.822C52.308,44.58 50.76,36.441 47.584,30.754C45.455,26.942 42.588,24.191 38.7,22.773C33.234,20.823 28.984,22.617 26.722,25.636C24.448,28.672 24.306,32.972 26.982,35.634C29.032,37.658 31.681,37.848 33.94,37.133C36.634,36.281 38.615,34.111 38.324,32.607C38.147,31.689 37.68,30.933 37.134,30.339C36.139,29.258 34.914,28.717 34.914,28.717C34.514,28.534 34.004,28.647 33.777,28.969C33.549,29.291 33.69,29.701 34.09,29.884C34.09,29.884 34.987,30.321 35.684,31.16C36.046,31.595 36.339,32.146 36.42,32.802C36.455,33.09 36.277,33.398 36.03,33.71C35.458,34.431 34.375,35.093 33.166,35.418C31.775,35.791 30.179,35.635 29.018,34.366C27.134,32.323 27.529,29.149 29.313,26.941C30.893,24.986 33.727,23.862 37.3,25.227C41.42,26.767 43.936,30.225 45.8,34.865C47.896,40.081 49.092,46.763 50.237,54.178C50.956,58.727 51.558,65.124 52.12,72.05C52.564,77.528 52.95,83.336 53.339,88.827C53.66,93.363 53.99,97.679 54.261,101.42C54.801,108.867 55.166,114.017 55.166,114.017Z" fill="#808080"/>
                </g>
                <g transform="matrix(0.0459767,0.0715937,-0.144661,0.0928996,16.9116,2.68609)">
                    <path d="M59.723,107.055C59.662,107.614 58.695,108.043 57.565,108.013C56.435,107.983 55.568,107.504 55.629,106.945C55.629,106.945 55.369,105.015 54.791,101.449C54.54,99.905 54.196,98.074 53.883,95.95C53.66,94.439 53.471,92.788 53.254,91.004C52.841,87.61 52.415,83.739 51.649,79.468C51.1,75.853 50.485,72.909 50.012,70.388C49.578,68.076 49.172,66.129 48.86,64.352C48.223,60.716 47.834,57.839 47.365,54.149C47.199,53.595 47.973,53.079 49.092,52.996C50.211,52.914 51.254,53.297 51.42,53.851C52.947,57.021 54.424,59.541 55.804,62.545C56.345,63.722 56.871,64.962 57.339,66.341C58.443,69.598 59.291,73.591 60.351,79.112C61.022,83.451 61.525,87.379 61.69,90.829C61.777,92.644 61.8,94.325 61.713,95.863C61.59,98.026 61.308,99.891 61.035,101.459C60.4,105.102 59.723,107.055 59.723,107.055Z" fill="#808080"/>
                </g>
                <g transform="matrix(-0.0751368,-0.145626,-0.220883,0.113966,37.1462,15.9011)">
                    <path d="M56.615,106.949C56.572,107.336 57.014,107.672 57.6,107.7C58.185,107.728 58.695,107.437 58.738,107.051C58.738,107.051 59.448,104.062 59.732,98.658C59.819,97.009 59.857,95.14 59.782,93.062C59.64,89.112 59.091,84.427 58.254,79.126C57.258,73.592 56.387,69.595 55.389,66.333C54.969,64.958 54.519,63.718 54.062,62.543C52.899,59.555 51.684,57.022 50.437,53.864C50.323,53.484 49.763,53.237 49.186,53.312C48.61,53.387 48.234,53.756 48.348,54.136C49.033,57.46 49.676,60.137 50.43,63.294C50.859,65.087 51.322,67.027 51.818,69.333C52.407,72.077 53.095,75.329 53.746,79.453C54.446,83.495 54.869,87.178 55.227,90.438C55.496,92.884 55.687,95.092 55.879,97.04C56.504,103.373 56.615,106.949 56.615,106.949Z" fill="#808080"/>
                </g>
            </g>
        </g>
    </g>
    <g transform="matrix(1.09492,0,0,1.09492,-44.7592,1.82046)">
        <g transform="matrix(21.359,0,0,20.6875,645.824,399.907)">
            <path d="M0,-17.746C0.63,-16.56 0.837,-15.382 0.639,-14.109C0.47,-13.024 -0.098,-12.146 -0.654,-11.244C-1.064,-10.578 -1.464,-9.898 -1.786,-9.187C-2.317,-8.015 -2.026,-7.065 -0.988,-6.313C-0.639,-6.06 -0.089,-6.051 0.414,-6.346C0.293,-6.424 0.183,-6.476 0.1,-6.555C-0.729,-7.348 -0.933,-8.336 -0.445,-9.386C-0.262,-9.78 -0.002,-10.142 0.248,-10.502C0.443,-10.785 0.694,-11.029 0.887,-11.314C1.078,-11.598 1.227,-11.908 1.4,-12.219C1.497,-11.693 1.29,-11.243 1.081,-10.785C0.885,-10.355 0.687,-9.92 0.57,-9.465C0.514,-9.253 0.584,-8.951 0.706,-8.759C1.009,-8.28 1.753,-8.363 2.052,-8.934C2.254,-9.321 2.328,-9.775 2.454,-10.184C2.569,-9.739 2.728,-9.243 2.824,-8.736C3.083,-7.363 3.212,-5.99 3.03,-4.584C2.732,-2.289 1.225,-0.561 -1.016,-0.061C-1.142,-0.034 -1.267,-0.005 -1.417,0C0.015,-0.87 0.842,-2.093 0.828,-3.818C0.754,-3.697 0.681,-3.576 0.608,-3.453C0.273,-2.883 -0.183,-2.491 -0.857,-2.361C-1.139,-2.308 -1.402,-2.162 -1.618,-2.08C-2.067,-2.746 -2.561,-3.447 -3.017,-4.17C-3.226,-4.5 -3.361,-4.875 -3.535,-5.238C-3.763,-4.918 -3.931,-4.512 -3.813,-4.049C-3.646,-3.393 -3.439,-2.748 -3.255,-2.098C-3.22,-1.975 -3.208,-1.848 -3.179,-1.686C-3.779,-1.629 -4.29,-1.785 -4.768,-2.061C-5.272,-2.351 -5.523,-2.826 -5.653,-3.447C-5.865,-2.38 -5.399,-0.976 -3.751,-0.178C-3.757,-0.146 -3.764,-0.117 -3.77,-0.086C-4.225,-0.197 -4.696,-0.266 -5.132,-0.428C-6.796,-1.045 -7.804,-2.252 -8.137,-3.987C-8.621,-6.511 -7.958,-8.718 -6.202,-10.592C-6.014,-10.793 -5.783,-10.954 -5.535,-11.111C-6.367,-9.273 -6.997,-7.461 -5.527,-5.678C-5.549,-6.447 -5.646,-7.22 -5.573,-7.976C-5.44,-9.367 -4.588,-10.357 -3.566,-11.228C-2.825,-11.859 -2.035,-12.453 -1.388,-13.171C-0.314,-14.365 0.109,-15.821 -0.031,-17.43C-0.037,-17.488 -0.037,-17.549 -0.036,-17.608C-0.036,-17.631 -0.025,-17.652 0,-17.746" fill="--c-accent"/>
        </g>
        <g transform="matrix(21.359,0,0,20.6875,573.259,1.53087)">
            <path d="M0,5.8C1.063,3.867 1.117,1.911 0.149,-0.074C0.521,0.003 1.067,0.484 1.412,0.993C2.114,2.032 2.025,3.099 1.433,4.118C1.068,4.745 0.564,5.292 0.123,5.874C0.083,5.849 0.042,5.824 0,5.8" fill="--c-accent"/>
        </g>
    </g>
    <g transform="matrix(1.19508,0,0,1.19508,-67.8669,-47.0199)">
        <g transform="matrix(22.1841,0,0,22.1841,356.275,533.883)">
            <path d="M0,-10.904C0.335,-9.506 0.663,-8.138 0.997,-6.746C0.889,-6.73 0.794,-6.701 0.7,-6.705C0.339,-6.715 -0.022,-6.742 -0.384,-6.752C-0.56,-6.758 -0.738,-6.75 -0.914,-6.732C-1.18,-6.709 -1.356,-6.55 -1.443,-6.308C-1.578,-5.935 -1.703,-5.558 -1.814,-5.177C-2.023,-4.463 -2.322,-3.793 -2.823,-3.236C-3.016,-3.023 -3.271,-2.855 -3.52,-2.703C-3.938,-2.449 -4.166,-2.111 -4.099,-1.609C-4.07,-1.398 -4.036,-1.187 -4.005,-0.974C-3.959,-0.662 -3.915,-0.349 -3.864,-0.004L-4.109,-0.004C-6.326,-0.004 -8.542,-0.006 -10.758,-0.002C-10.911,0 -10.981,-0.025 -11,-0.201C-11.083,-0.951 -11.187,-1.697 -11.284,-2.443C-11.304,-2.595 -11.317,-2.752 -11.366,-2.892C-11.483,-3.236 -11.388,-3.509 -11.188,-3.8C-10.738,-4.449 -10.292,-5.105 -9.898,-5.787C-9.076,-7.211 -8.552,-8.75 -8.271,-10.369C-8.178,-10.902 -8.181,-10.904 -7.643,-10.904L0,-10.904Z" fill="#808080"/>
        </g>
        <g transform="matrix(22.1841,0,0,22.1841,300.251,411.651)">
            <path d="M0,6.604C-0.083,6.012 -0.167,5.432 -0.247,4.85C-0.278,4.62 -0.301,4.389 -0.323,4.157C-0.34,3.979 -0.268,3.834 -0.136,3.717C-0.072,3.661 -0.012,3.596 0.06,3.551C0.843,3.053 1.291,2.299 1.628,1.471C1.803,1.042 1.935,0.594 2.079,0.153C2.114,0.043 2.158,0 2.282,0C3.466,0.006 4.65,0.004 5.834,0.004L7.221,0.004C7.277,0.194 7.342,0.434 7.417,0.67C7.691,1.526 8.125,2.293 8.779,2.911C9.135,3.247 9.278,3.614 9.224,4.086C9.129,4.92 9.046,5.754 8.958,6.604L0,6.604Z" fill="#808080"/>
        </g>
    </g>
    <g transform="matrix(0.970822,0,0,0.970822,37.7103,42.8778)">
        <g transform="matrix(1.20544,0,0,1.20544,-130.785,-161.895)">
            <path d="M650.811,865.552C677.231,899.151 708.533,942.911 708.533,986.018C708.533,1051.13 655.667,1104 590.551,1104C525.435,1104 472.569,1051.13 472.569,986.018C472.569,942.911 509.564,891.018 530.292,865.552C559.651,829.482 590.551,754.904 590.551,726.04C590.551,754.904 621.807,828.668 650.811,865.552Z" fill="#808080"/>
        </g>
        <g transform="matrix(1.10542,0,0,1.10542,-71.7163,-10.6313)">
            <path d="M611.515,865.741C613.205,867.938 620.761,866.958 609.609,860.611C556.488,830.376 507,883.442 507,945.576C507,997.42 547.807,1018.12 564.332,1023.95C613.809,1041.4 662.589,1015.9 666.969,984.436C671.512,951.806 648.275,912.648 599.111,936.151C574.439,947.945 548.255,930.919 547.695,903.436C547.172,877.747 562.045,869.103 572.719,862.882C588.149,853.89 611.515,865.741 611.515,865.741Z" style="fill:white;"/>
        </g>
    </g>
    <g transform="matrix(0.645651,1.1183,-1.1183,0.645651,842.115,-409.886)">
        <g transform="matrix(0.679413,-0.340932,0.27175,0.541546,180.836,139.107)">
            <path d="M446.285,955.007C435.747,956.05 426.402,961.856 417.407,967.798C404.407,976.384 391.986,985.353 379.055,987.792C361.841,991.038 350.081,986.317 342.094,980.043C328.717,969.537 325.188,953.733 325.188,953.733L322.02,940.566L343.01,932.617L346.178,945.784C346.178,945.784 347.999,952.228 353.728,956.729C358.478,960.459 365.561,962.521 375.795,960.59C386.456,958.58 396.476,950.536 407.193,943.457C419.18,935.541 431.815,928.553 445.935,927.478C451.808,852.784 514.359,793.918 590.551,793.918C590.963,793.918 591.375,793.919 591.786,793.923L591.786,793.918C591.786,793.918 591.969,793.948 592.327,793.928C610.581,792.903 632.745,794.236 650.307,798.374C678.572,805.033 725.271,815.973 771.873,857.632C821.919,902.37 851.019,941.935 851.019,941.935C851.019,941.935 808.601,953.657 756.146,989.749C697.502,1030.1 649.36,1038.85 617.32,1044.79C607.21,1047.16 593.753,1048.47 582.955,1048.6C582.596,1048.61 582.414,1048.61 582.414,1048.61L582.414,1048.6C582.003,1048.61 581.591,1048.61 581.179,1048.61C506.698,1048.61 453.362,1023.03 446.285,955.007Z" fill="--c-accent"/>
        </g>
        <path d="M753.011,489.367L751.645,490.378C749.357,490.65 748.569,489.823 749.622,487.645L750.989,486.633C758.056,480.298 764.921,474.018 772.254,468.222C779.659,462.371 787.287,456.941 795.061,451.826C818.947,436.109 843.855,423.108 868.706,411.032C889.942,400.713 911.357,391.398 933.018,383.2C954.98,374.887 977.171,367.76 999.492,361.377L1001.12,360.87C1003.65,361.012 1004.47,361.885 1002.13,364.115L1000.51,364.623C978.655,372.055 957.059,380.433 935.565,389.55C914.444,398.509 893.459,408.214 872.693,418.976C848.458,431.535 824.852,445.989 800.851,460.885C793.039,465.734 785.172,470.574 777.161,475.347C769.189,480.097 761.077,484.496 753.011,489.367Z" style="fill:white;"/>
        <g transform="matrix(0.163433,-0.180603,0.288569,0.261134,505.079,484.395)">
            <path d="M754.547,489.281L752.448,490.834L747.353,488.273L749.453,486.719C755.198,480.783 760.401,475.043 766.707,469.571C773.101,464.023 780.018,458.867 787.253,453.984C810.217,438.484 835.385,425.622 859.91,413.628C881.904,402.871 904.027,393.175 926.522,384.655C950.275,375.658 974.345,368.011 998.493,361.208L1001.43,360.289L1004.44,363.873L1001.51,364.792C979.578,372.376 958.087,380.937 936.528,390.271C922.828,396.202 909.088,402.4 895.491,409.083C871.974,420.642 848.93,433.569 825.858,447.745C816.553,453.462 807.541,459.552 797.881,465.484C791.155,469.614 784.279,473.705 777,477.712C769.727,481.717 762.137,485.246 754.547,489.281Z" style="fill:white;"/>
        </g>
        <g transform="matrix(0.246086,-0.0657728,-0.102148,-0.382183,655.18,700.419)">
            <path d="M749.453,486.719L747.353,488.273L752.448,490.834L754.547,489.281C762.137,485.246 769.727,481.717 777,477.712C784.279,473.704 791.155,469.614 797.881,465.484C807.541,459.552 816.553,453.462 825.858,447.745C848.93,433.569 871.974,420.642 895.491,409.083C909.088,402.4 922.828,396.202 936.528,390.271C958.087,380.937 979.578,372.376 1001.51,364.792L1004.44,363.873L1001.43,360.289L998.493,361.208C974.345,368.011 950.275,375.658 926.522,384.655C904.027,393.175 881.904,402.871 859.91,413.628C835.385,425.622 810.217,438.484 787.253,453.984C780.018,458.867 773.101,464.023 766.707,469.571C760.401,475.043 755.198,480.783 749.453,486.719Z" style="fill:white;"/>
        </g>
        <g transform="matrix(0.233882,-0.062511,-0.0842174,-0.315096,619.457,688.439)">
            <path d="M749.453,486.719L747.353,488.273L752.448,490.834L754.547,489.281C762.137,485.246 769.727,481.717 777,477.712C784.279,473.704 791.155,469.614 797.881,465.484C807.541,459.552 816.553,453.462 825.858,447.745C848.93,433.569 871.974,420.642 895.491,409.083C909.088,402.4 922.828,396.202 936.528,390.271C958.087,380.937 979.578,372.376 1001.51,364.792L1004.44,363.873L1001.43,360.289L998.493,361.208C974.345,368.011 950.275,375.658 926.522,384.655C904.027,393.175 881.904,402.871 859.91,413.628C835.385,425.622 810.217,438.484 787.253,453.984C780.018,458.867 773.101,464.023 766.707,469.571C760.401,475.043 755.198,480.783 749.453,486.719Z" style="fill:white;"/>
        </g>
        <g transform="matrix(0.166352,-0.183829,0.288252,0.260847,543.282,463.048)">
            <path d="M754.547,489.281L752.448,490.834L747.353,488.273L749.453,486.719C755.198,480.783 760.401,475.043 766.707,469.571C773.101,464.023 780.018,458.867 787.253,453.984C810.217,438.484 835.385,425.622 859.91,413.628C881.904,402.871 904.027,393.175 926.522,384.655C950.275,375.658 974.345,368.011 998.493,361.208L1001.43,360.289L1004.44,363.873L1001.51,364.792C979.578,372.376 958.087,380.937 936.528,390.271C922.828,396.202 909.088,402.4 895.491,409.083C871.974,420.642 848.93,433.569 825.858,447.745C816.553,453.462 807.541,459.552 797.881,465.484C791.155,469.614 784.279,473.705 777,477.712C769.727,481.717 762.137,485.246 754.547,489.281Z" style="fill:white;"/>
        </g>
        <g transform="matrix(0.222398,-0.0594415,-0.0971942,-0.363648,713.16,659.473)">
            <path d="M749.453,486.719L747.353,488.273L752.448,490.834L754.547,489.281C762.137,485.246 769.727,481.717 777,477.712C784.279,473.704 791.155,469.614 797.881,465.484C807.541,459.552 816.553,453.462 825.858,447.745C848.93,433.569 871.974,420.642 895.491,409.083C909.088,402.4 922.828,396.202 936.528,390.271C958.087,380.937 979.578,372.376 1001.51,364.792L1004.44,363.873L1001.43,360.289L998.493,361.208C974.345,368.011 950.275,375.658 926.522,384.655C904.027,393.175 881.904,402.871 859.91,413.628C835.385,425.622 810.217,438.484 787.253,453.984C780.018,458.867 773.101,464.023 766.707,469.571C760.401,475.043 755.198,480.783 749.453,486.719Z" style="fill:white;"/>
        </g>
        <g transform="matrix(0.142605,-0.157587,0.253288,0.229208,621.984,433.238)">
            <path d="M754.941,489.525L752.479,491.347L746.597,488.297L749.059,486.475C754.644,480.362 759.559,474.505 765.794,468.887C772.071,463.23 778.95,458.011 786.197,453.085C809.15,437.483 834.597,424.736 859.265,412.772C881.346,402.063 903.536,392.406 926.13,383.964C949.943,375.067 974.068,367.565 998.271,360.879L1001.7,359.808L1005.15,364.05L1001.73,365.121C979.941,372.789 958.644,381.444 937.22,390.829C923.6,396.796 909.926,403.003 896.398,409.703C872.974,421.303 850.062,434.285 827.067,448.476C817.783,454.205 808.828,460.333 799.124,466.227C792.349,470.342 785.404,474.379 777.995,478.299C770.525,482.253 762.775,485.584 754.941,489.525Z" style="fill:white;"/>
        </g>
        <g transform="matrix(0.195351,-0.0522126,-0.0800902,-0.299654,768.698,600.517)">
            <path d="M749.059,486.475L746.597,488.297L752.479,491.347L754.941,489.525C762.775,485.584 770.525,482.253 777.995,478.299C785.403,474.379 792.349,470.342 799.124,466.227C808.828,460.333 817.783,454.205 827.067,448.476C850.062,434.285 872.974,421.303 896.398,409.703C909.926,403.003 923.6,396.796 937.22,390.829C958.644,381.444 979.941,372.789 1001.73,365.121L1005.15,364.05L1001.7,359.808L998.271,360.879C974.067,367.565 949.943,375.067 926.129,383.964C903.536,392.406 881.346,402.063 859.265,412.772C834.597,424.736 809.15,437.483 786.197,453.085C778.95,458.011 772.071,463.23 765.794,468.887C759.559,474.505 754.644,480.362 749.059,486.475Z" style="fill:white;"/>
        </g>
        <g transform="matrix(0.112272,-0.124068,0.201096,0.181978,715.255,408.371)">
            <path d="M755.757,489.918L752.636,492.227L745.123,488.391L748.243,486.082C752.283,480.907 755.57,476.134 760.217,471.313C764.789,466.569 770.007,462.29 775.367,458.032C778.614,455.453 782.002,452.984 785.567,450.631C800.313,440.9 816.282,432.455 831.891,424.312C863.403,407.871 895.145,393.665 927.662,381.909C950.812,373.539 974.265,366.584 997.785,360.325L1002.14,358.963L1006.57,364.314L1002.22,365.675C980.589,373.517 959.576,382.367 938.31,391.891C924.824,397.931 911.254,404.17 897.839,410.915C874.637,422.582 852.033,435.645 829.224,449.852C820.026,455.582 811.23,461.752 801.471,467.562C794.627,471.637 787.573,475.562 779.932,479.321C772.079,483.184 764.069,486.145 755.757,489.918Z" style="fill:white;"/>
        </g>
        <g transform="matrix(0.124953,-0.033397,-0.0568617,-0.212745,852.742,522.966)">
            <path d="M748.243,486.082L745.123,488.391L752.636,492.227L755.757,489.918C764.069,486.145 772.079,483.184 779.932,479.321C787.573,475.562 794.627,471.637 801.471,467.562C811.23,461.752 820.026,455.582 829.224,449.852C852.033,435.645 874.637,422.582 897.839,410.915C911.254,404.17 924.824,397.931 938.31,391.891C959.576,382.367 980.589,373.517 1002.22,365.675L1006.57,364.314L1002.14,358.963L997.785,360.325C974.265,366.584 950.812,373.539 927.662,381.909C895.145,393.665 863.403,407.871 831.891,424.312C816.282,432.455 800.313,440.9 785.567,450.631C782.002,452.984 778.613,455.453 775.367,458.032C770.006,462.29 764.789,466.569 760.217,471.313C755.57,476.134 752.283,480.907 748.243,486.082Z" style="fill:white;"/>
        </g>
        <g transform="matrix(0.0851739,-0.0941223,0.113468,0.102681,819.003,407.652)">
            <path d="M756.097,491.928L751.434,495.379L743.24,487.523L747.903,484.072C752.24,477.533 755.358,471.91 760.446,465.918C765.221,460.294 770.658,455.536 776.349,450.707C779.737,447.833 783.278,445.15 787.02,442.666C802.254,432.555 818.753,424.435 834.891,416.39C866.366,400.7 898.001,387.122 930.447,376.405C952.758,369.035 975.199,363.333 997.839,358.099L1003.66,356.278L1007.98,366.081L1002.16,367.901C981.435,376.191 961.47,385.587 941.015,395.194C896.21,416.237 854.905,443.65 808.859,470.143C799.358,475.609 789.521,480.327 778.909,484.636C771.2,487.767 764.176,489.207 756.097,491.928Z" style="fill:white;"/>
        </g>
    </g>
    <g transform="matrix(1.02262,0,0,1.02262,7.60971,-5.87183)">
        <g transform="matrix(3.54535,0,0,3.54535,15.7205,730.635)">
            <path d="M84,25.5C84,19.705 79.295,15 73.5,15L24.5,15C18.705,15 14,19.705 14,25.5L14,74.5C14,80.295 18.705,85 24.5,85L73.5,85C79.295,85 84,80.295 84,74.5L84,25.5Z" fill="--c-accent"/>
        </g>
        <g transform="matrix(3.54535,0,0,3.54535,40.5379,645.546)">
            <path d="M16.515,35.64L40.386,11.769C40.445,11.71 40.504,11.65 40.564,11.592C42.457,9.743 45.045,8.603 47.897,8.603L96.897,8.603C102.693,8.603 107.397,13.307 107.397,19.103L107.397,68.103C107.397,71.226 106.031,74.033 103.863,75.957L80.36,99.46L80.36,48.99C80.36,41.622 74.378,35.64 67.01,35.64L16.515,35.64Z" fill="--c-accent"/>
        </g>
        <g transform="matrix(1,0,0,1,-2,0)">
            <path d="M139,759L323,685L355,685L169,759L139,759Z" style="fill:white;"/>
        </g>
        <g transform="matrix(1,0,0,1,40.4136,0)">
            <path d="M139,759L323,685L336,685L150,759L139,759Z" style="fill:white;"/>
        </g>
        <g transform="matrix(3.06849,0,0,3.06849,66.2668,676.957)">
            <path d="M25.151,43.387L8.266,60.272L8.266,55.519C8.266,48.823 13.702,43.387 20.398,43.387L25.151,43.387Z" style="fill:white;"/>
        </g>
        <path d="M153,810.09L92.372,870.718L92.372,877L160.493,809.88L153,810.09Z" style="fill:white;"/>
    </g>
</svg>
