<?xml version="1.0" encoding="UTF-8" standalone="no"?>
<!DOCTYPE svg PUBLIC "-//W3C//DTD SVG 1.1//EN" "http://www.w3.org/Graphics/SVG/1.1/DTD/svg11.dtd">
<svg width="100%" height="100%" viewBox="0 0 119 119" version="1.1" xmlns="http://www.w3.org/2000/svg" xmlns:xlink="http://www.w3.org/1999/xlink" xml:space="preserve" xmlns:serif="http://www.serif.com/" style="fill-rule:evenodd;clip-rule:evenodd;stroke-linejoin:round;stroke-miterlimit:2;">
    <g transform="matrix(4.16667,0,0,4.16667,0,0)">
        <g id="Layer-1" serif:id="Layer 1">
            <g transform="matrix(0.24144,0,0,0.24144,-1.46017,5.65236)">
                <path d="M84,25.5C84,19.705 79.295,15 73.5,15L24.5,15C18.705,15 14,19.705 14,25.5L14,74.5C14,80.295 18.705,85 24.5,85L73.5,85C79.295,85 84,80.295 84,74.5L84,25.5Z" fill="--c-accent"/>
            </g>
            <g transform="matrix(0.24144,0,0,0.24144,0.229917,-0.142211)">
                <path d="M16.515,35.64L40.386,11.769C40.445,11.71 40.504,11.65 40.564,11.592C42.457,9.743 45.045,8.603 47.897,8.603L96.897,8.603C102.693,8.603 107.397,13.307 107.397,19.103L107.397,68.103C107.397,71.226 106.031,74.033 103.863,75.957L80.36,99.46L80.36,48.99C80.36,41.622 74.378,35.64 67.01,35.64L16.515,35.64Z" fill="--c-accent"/>
            </g>
            <g transform="matrix(0.208966,0,0,0.208966,1.98207,1.99687)">
                <path d="M25.151,43.387L8.266,60.272L8.266,55.519C8.266,48.823 13.702,43.387 20.398,43.387L25.151,43.387Z" fill="white"/>
            </g>
        </g>
    </g>
</svg>
