<?xml version="1.0" encoding="UTF-8" standalone="no"?>
<!DOCTYPE svg PUBLIC "-//W3C//DTD SVG 1.1//EN" "http://www.w3.org/Graphics/SVG/1.1/DTD/svg11.dtd">
<svg width="100%" height="100%" viewBox="0 0 119 119" version="1.1" xmlns="http://www.w3.org/2000/svg" xmlns:xlink="http://www.w3.org/1999/xlink" xml:space="preserve" xmlns:serif="http://www.serif.com/" style="fill-rule:evenodd;clip-rule:evenodd;stroke-linejoin:round;stroke-miterlimit:2;">
    <g transform="matrix(4.16667,0,0,4.16667,0,0)">
        <g id="Layer-1" serif:id="Layer 1">
            <g transform="matrix(-1.00393,-0.710308,-0.710308,1.00393,9.04281,12.4897)">
                <path d="M-1.179,-5.059C-0.027,-5.002 0.499,-3.819 -0.706,-2.666C-1.908,-1.515 -1.595,0.588 -1.179,1.437C-1.179,1.437 -2.199,0.277 -2.662,-1.01C-3.526,-3.411 -2.139,-5.106 -1.179,-5.059" fill="--c-accent"/>
            </g>
            <g transform="matrix(-0.452198,-1.14365,-1.14365,0.452198,16.6973,7.91222)">
                <path d="M-3.5,-3.195C-4.653,-3.136 -5.179,-1.954 -3.973,-0.802C-2.771,0.349 -3.083,2.452 -3.5,3.302C-3.5,3.302 -2.482,2.144 -2.018,0.855C-1.155,-1.545 -2.544,-3.24 -3.5,-3.195" fill="--c-accent"/>
            </g>
            <g transform="matrix(1.22981,0,0,1.22981,25.9868,11.0946)">
                <path d="M0,4.047C0,4.047 -0.154,3.983 -0.442,3.861C-0.733,3.748 -1.159,3.586 -1.711,3.418C-2.263,3.252 -2.945,3.1 -3.729,3.006C-4.515,2.92 -5.405,2.912 -6.359,3.031C-7.314,3.154 -8.329,3.408 -9.383,3.77C-10.438,4.131 -11.524,4.608 -12.698,5.072C-13.286,5.305 -13.894,5.537 -14.548,5.729C-15.199,5.92 -15.906,6.059 -16.662,6.051C-17.415,6.047 -18.22,5.85 -18.899,5.453C-19.24,5.26 -19.55,5.026 -19.831,4.77L-20.034,4.574C-20.132,4.473 -20.152,4.453 -20.23,4.363C-20.382,4.184 -20.492,4.026 -20.601,3.846C-21.025,3.129 -21.192,2.285 -21.111,1.484C-21.033,0.682 -20.711,-0.092 -20.186,-0.705C-20.053,-0.857 -19.911,-1.004 -19.753,-1.133C-19.678,-1.199 -19.594,-1.258 -19.514,-1.318L-19.386,-1.404L-19.355,-1.424L-19.339,-1.433L-19.296,-1.461L-19.243,-1.488L-19.135,-1.547L-19.082,-1.576L-19.007,-1.609C-18.905,-1.652 -18.796,-1.707 -18.7,-1.736C-18.507,-1.803 -18.309,-1.851 -18.109,-1.885C-17.307,-2.012 -16.469,-1.824 -15.817,-1.375C-15.492,-1.152 -15.214,-0.865 -15.001,-0.549L-14.96,-0.49C-14.95,-0.474 -14.97,-0.508 -14.934,-0.451L-14.927,-0.437L-14.913,-0.412L-14.856,-0.314C-14.84,-0.287 -14.814,-0.234 -14.791,-0.182L-14.722,-0.029C-14.648,0.162 -14.6,0.35 -14.572,0.543C-14.461,1.322 -14.713,2.108 -15.209,2.645C-15.453,2.912 -15.749,3.131 -16.084,3.27C-16.437,3.414 -16.801,3.451 -17.151,3.406C-17.498,3.354 -17.824,3.221 -18.094,3.022C-18.36,2.828 -18.581,2.557 -18.709,2.293C-19.021,1.652 -18.888,0.971 -18.521,0.514C-18.335,0.289 -18.107,0.121 -17.836,0.024C-17.568,-0.068 -17.286,-0.07 -17.038,0.002C-16.789,0.072 -16.574,0.215 -16.42,0.393C-16.382,0.438 -16.345,0.483 -16.315,0.531L-16.292,0.567L-16.286,0.576C-16.271,0.6 -16.279,0.588 -16.274,0.594L-16.267,0.609L-16.234,0.674C-16.177,0.799 -16.156,0.901 -16.144,1.014C-16.102,1.461 -16.361,1.84 -16.668,1.992C-16.99,2.162 -17.341,2.07 -17.527,1.899C-17.725,1.731 -17.787,1.494 -17.756,1.328C-17.73,1.158 -17.64,1.059 -17.581,1.004C-17.518,0.951 -17.48,0.934 -17.48,0.934C-17.48,0.934 -17.515,0.959 -17.564,1.02C-17.612,1.082 -17.672,1.19 -17.671,1.336C-17.674,1.479 -17.593,1.652 -17.42,1.756C-17.257,1.861 -17.004,1.877 -16.818,1.74C-16.624,1.604 -16.502,1.332 -16.567,1.074C-16.582,1.016 -16.612,0.943 -16.639,0.904L-16.675,0.852L-16.685,0.836C-16.683,0.838 -16.694,0.82 -16.683,0.84L-16.687,0.834L-16.705,0.813C-16.727,0.787 -16.753,0.762 -16.779,0.736C-16.886,0.641 -17.022,0.572 -17.168,0.553C-17.466,0.5 -17.766,0.649 -17.945,0.94C-18.033,1.078 -18.084,1.242 -18.09,1.408C-18.093,1.492 -18.082,1.574 -18.063,1.656C-18.042,1.734 -18.002,1.822 -17.975,1.869C-17.771,2.205 -17.426,2.402 -17.046,2.422C-16.863,2.424 -16.666,2.393 -16.509,2.313C-16.335,2.227 -16.176,2.09 -16.046,1.928C-15.786,1.604 -15.684,1.154 -15.772,0.746C-15.781,0.693 -15.8,0.647 -15.813,0.594L-15.87,0.453L-15.897,0.399C-15.905,0.379 -15.91,0.363 -15.936,0.326L-15.996,0.229L-16.01,0.203L-16.019,0.192C-15.987,0.242 -16.014,0.201 -16.008,0.209L-16.035,0.176C-16.172,-0.01 -16.34,-0.168 -16.536,-0.291C-16.924,-0.535 -17.414,-0.625 -17.878,-0.529C-17.994,-0.506 -18.108,-0.473 -18.219,-0.428C-18.276,-0.408 -18.311,-0.385 -18.358,-0.365L-18.394,-0.351L-18.446,-0.32L-18.55,-0.26L-18.604,-0.228C-18.595,-0.234 -18.643,-0.207 -18.587,-0.238L-18.596,-0.232L-18.615,-0.219L-18.691,-0.166C-18.739,-0.127 -18.789,-0.094 -18.834,-0.051C-18.929,0.029 -19.013,0.119 -19.093,0.215C-19.745,0.988 -19.867,2.236 -19.337,3.092C-19.274,3.197 -19.191,3.311 -19.128,3.387C-19.099,3.424 -19.006,3.526 -18.987,3.543L-18.834,3.695C-18.625,3.891 -18.405,4.059 -18.172,4.195C-17.707,4.473 -17.19,4.611 -16.635,4.625C-15.519,4.643 -14.313,4.25 -13.157,3.848C-12.575,3.645 -11.999,3.426 -11.424,3.233C-10.848,3.039 -10.276,2.858 -9.709,2.705C-9.142,2.553 -8.583,2.422 -8.034,2.332C-7.482,2.246 -6.944,2.192 -6.428,2.174C-5.392,2.133 -4.442,2.25 -3.631,2.44C-2.817,2.631 -2.142,2.891 -1.606,3.139C-1.068,3.383 -0.673,3.627 -0.402,3.785C-0.14,3.955 0,4.047 0,4.047" fill="--c-accent"/>
            </g>
            <g transform="matrix(1.22981,0,0,1.22981,28.3496,18.272)">
                <path d="M0,0.326C0,0.326 -0.079,0.305 -0.225,0.26C-0.37,0.213 -0.586,0.152 -0.854,0.058C-1.126,-0.02 -1.454,-0.1 -1.82,-0.201C-2.199,-0.278 -2.619,-0.375 -3.082,-0.434C-3.31,-0.473 -3.551,-0.492 -3.799,-0.512C-4.046,-0.541 -4.303,-0.549 -4.565,-0.553C-5.089,-0.572 -5.64,-0.531 -6.205,-0.479C-6.77,-0.401 -7.351,-0.313 -7.937,-0.166C-8.523,-0.026 -9.116,0.142 -9.708,0.342C-10.301,0.527 -10.893,0.748 -11.486,0.955C-12.077,1.168 -12.67,1.375 -13.26,1.555C-13.849,1.738 -14.437,1.892 -15.02,1.982C-15.599,2.068 -16.167,2.109 -16.696,2.041C-16.825,2.031 -16.954,2.004 -17.078,1.976C-17.202,1.947 -17.324,1.935 -17.437,1.89C-17.666,1.808 -17.881,1.74 -18.066,1.633C-18.161,1.584 -18.252,1.539 -18.336,1.49C-18.418,1.435 -18.495,1.379 -18.567,1.326C-18.64,1.271 -18.71,1.221 -18.773,1.172C-18.833,1.115 -18.889,1.06 -18.942,1.012C-19.163,0.816 -19.294,0.627 -19.389,0.508C-19.481,0.385 -19.53,0.32 -19.53,0.32C-19.53,0.32 -19.461,0.363 -19.332,0.445C-19.268,0.486 -19.191,0.537 -19.099,0.596C-19.01,0.658 -18.892,0.705 -18.773,0.771C-18.713,0.803 -18.648,0.836 -18.582,0.869C-18.512,0.898 -18.437,0.924 -18.362,0.951C-18.285,0.978 -18.207,1.008 -18.128,1.041C-18.044,1.062 -17.957,1.082 -17.869,1.103C-17.517,1.197 -17.108,1.217 -16.671,1.187C-16.234,1.162 -15.759,1.049 -15.263,0.9C-14.765,0.752 -14.243,0.547 -13.698,0.324C-13.152,0.103 -12.585,-0.145 -11.994,-0.381C-11.405,-0.621 -10.792,-0.852 -10.162,-1.059C-9.849,-1.164 -9.526,-1.25 -9.207,-1.342C-8.883,-1.422 -8.563,-1.504 -8.235,-1.561C-8.071,-1.59 -7.909,-1.619 -7.747,-1.649C-7.583,-1.67 -7.419,-1.69 -7.258,-1.709C-6.934,-1.754 -6.608,-1.76 -6.292,-1.779C-5.654,-1.783 -5.038,-1.752 -4.463,-1.653C-4.175,-1.604 -3.897,-1.559 -3.634,-1.483C-3.37,-1.412 -3.117,-1.35 -2.881,-1.258C-2.646,-1.168 -2.414,-1.106 -2.209,-1C-2.004,-0.904 -1.809,-0.813 -1.626,-0.727C-1.266,-0.539 -0.963,-0.354 -0.723,-0.203C-0.488,-0.041 -0.311,0.096 -0.187,0.183C-0.065,0.277 0,0.326 0,0.326" fill="--c-accent"/>
            </g>
        </g>
    </g>
</svg>
