<?xml version="1.0" encoding="UTF-8" standalone="no"?>
<!DOCTYPE svg PUBLIC "-//W3C//DTD SVG 1.1//EN" "http://www.w3.org/Graphics/SVG/1.1/DTD/svg11.dtd">
<svg width="100%" height="100%" viewBox="0 0 119 119" version="1.1" xmlns="http://www.w3.org/2000/svg" xmlns:xlink="http://www.w3.org/1999/xlink" xml:space="preserve" xmlns:serif="http://www.serif.com/" style="fill-rule:evenodd;clip-rule:evenodd;stroke-linejoin:round;stroke-miterlimit:2;">
    <g transform="matrix(0.259265,0,0,0.259265,-91.5943,-184.934)">
        <g id="Layer-1" serif:id="Layer 1">
            <g>
                <g transform="matrix(1.20544,0,0,1.20544,-130.785,-161.895)">
                    <path d="M650.811,865.552C677.231,899.151 708.533,942.911 708.533,986.018C708.533,1051.13 655.667,1104 590.551,1104C525.435,1104 472.569,1051.13 472.569,986.018C472.569,942.911 509.564,891.018 530.292,865.552C559.651,829.482 590.551,754.904 590.551,726.04C590.551,754.904 621.807,828.668 650.811,865.552Z" fill="--c-accent"/>
                </g>
                <g transform="matrix(1.10542,0,0,1.10542,-71.7163,-10.6313)">
                    <path d="M611.515,865.741C613.205,867.938 620.761,866.958 609.609,860.611C556.488,830.376 507,883.442 507,945.576C507,997.42 547.807,1018.12 564.332,1023.95C613.809,1041.4 662.589,1015.9 666.969,984.436C671.512,951.806 648.275,912.648 599.111,936.151C574.439,947.945 548.255,930.919 547.695,903.436C547.172,877.747 562.045,869.103 572.719,862.882C588.149,853.89 611.515,865.741 611.515,865.741Z" style="fill:white;"/>
                </g>
            </g>
        </g>
    </g>
</svg>
