<?xml version="1.0" encoding="UTF-8" standalone="no"?>
<!DOCTYPE svg PUBLIC "-//W3C//DTD SVG 1.1//EN" "http://www.w3.org/Graphics/SVG/1.1/DTD/svg11.dtd">
<svg width="100%" height="100%" viewBox="0 0 119 119" version="1.1" xmlns="http://www.w3.org/2000/svg" xmlns:xlink="http://www.w3.org/1999/xlink" xml:space="preserve" xmlns:serif="http://www.serif.com/" style="fill-rule:evenodd;clip-rule:evenodd;stroke-linejoin:round;stroke-miterlimit:2;">
    <g transform="matrix(0.326851,0,0,0.326851,-214.105,-84.087)">
        <g id="Layer-1" serif:id="Layer 1">
            <g>
                <g transform="matrix(0.679413,-0.340932,0.27175,0.541546,180.836,139.107)">
                    <path d="M446.285,955.007C435.747,956.05 426.402,961.856 417.407,967.798C404.407,976.384 391.986,985.353 379.055,987.792C361.841,991.038 350.081,986.317 342.094,980.043C328.717,969.537 325.188,953.733 325.188,953.733L322.02,940.566L343.01,932.617L346.178,945.784C346.178,945.784 347.999,952.228 353.728,956.729C358.478,960.459 365.561,962.521 375.795,960.59C386.456,958.58 396.476,950.536 407.193,943.457C419.18,935.541 431.815,928.553 445.935,927.478C451.808,852.784 514.359,793.918 590.551,793.918C590.963,793.918 591.375,793.919 591.786,793.923L591.786,793.918C591.786,793.918 591.969,793.948 592.327,793.928C610.581,792.903 632.745,794.236 650.307,798.374C678.572,805.033 725.271,815.973 771.873,857.632C821.919,902.37 851.019,941.935 851.019,941.935C851.019,941.935 808.601,953.657 756.146,989.749C697.502,1030.1 649.36,1038.85 617.32,1044.79C607.21,1047.16 593.753,1048.47 582.955,1048.6C582.596,1048.61 582.414,1048.61 582.414,1048.61L582.414,1048.6C582.003,1048.61 581.591,1048.61 581.179,1048.61C506.698,1048.61 453.362,1023.03 446.285,955.007Z" fill="--c-accent"/>
                </g>
                <path d="M753.011,489.367L751.645,490.378C749.357,490.65 748.569,489.823 749.622,487.645L750.989,486.633C758.056,480.298 764.921,474.018 772.254,468.222C779.659,462.371 787.287,456.941 795.061,451.826C818.947,436.109 843.855,423.108 868.706,411.032C889.942,400.713 911.357,391.398 933.018,383.2C954.98,374.887 977.171,367.76 999.492,361.377L1001.12,360.87C1003.65,361.012 1004.47,361.885 1002.13,364.115L1000.51,364.623C978.655,372.055 957.059,380.433 935.565,389.55C914.444,398.509 893.459,408.214 872.693,418.976C848.458,431.535 824.852,445.989 800.851,460.885C793.039,465.734 785.172,470.574 777.161,475.347C769.189,480.097 761.077,484.496 753.011,489.367Z" style="fill:white;"/>
                <g transform="matrix(0.163433,-0.180603,0.288569,0.261134,505.079,484.395)">
                    <path d="M754.547,489.281L752.448,490.834L747.353,488.273L749.453,486.719C755.198,480.783 760.401,475.043 766.707,469.571C773.101,464.023 780.018,458.867 787.253,453.984C810.217,438.484 835.385,425.622 859.91,413.628C881.904,402.871 904.027,393.175 926.522,384.655C950.275,375.658 974.345,368.011 998.493,361.208L1001.43,360.289L1004.44,363.873L1001.51,364.792C979.578,372.376 958.087,380.937 936.528,390.271C922.828,396.202 909.088,402.4 895.491,409.083C871.974,420.642 848.93,433.569 825.858,447.745C816.553,453.462 807.541,459.552 797.881,465.484C791.155,469.614 784.279,473.705 777,477.712C769.727,481.717 762.137,485.246 754.547,489.281Z" style="fill:white;"/>
                </g>
                <g transform="matrix(0.246086,-0.0657728,-0.102148,-0.382183,655.18,700.419)">
                    <path d="M749.453,486.719L747.353,488.273L752.448,490.834L754.547,489.281C762.137,485.246 769.727,481.717 777,477.712C784.279,473.704 791.155,469.614 797.881,465.484C807.541,459.552 816.553,453.462 825.858,447.745C848.93,433.569 871.974,420.642 895.491,409.083C909.088,402.4 922.828,396.202 936.528,390.271C958.087,380.937 979.578,372.376 1001.51,364.792L1004.44,363.873L1001.43,360.289L998.493,361.208C974.345,368.011 950.275,375.658 926.522,384.655C904.027,393.175 881.904,402.871 859.91,413.628C835.385,425.622 810.217,438.484 787.253,453.984C780.018,458.867 773.101,464.023 766.707,469.571C760.401,475.043 755.198,480.783 749.453,486.719Z" style="fill:white;"/>
                </g>
                <g transform="matrix(0.233882,-0.062511,-0.0842174,-0.315096,619.457,688.439)">
                    <path d="M749.453,486.719L747.353,488.273L752.448,490.834L754.547,489.281C762.137,485.246 769.727,481.717 777,477.712C784.279,473.704 791.155,469.614 797.881,465.484C807.541,459.552 816.553,453.462 825.858,447.745C848.93,433.569 871.974,420.642 895.491,409.083C909.088,402.4 922.828,396.202 936.528,390.271C958.087,380.937 979.578,372.376 1001.51,364.792L1004.44,363.873L1001.43,360.289L998.493,361.208C974.345,368.011 950.275,375.658 926.522,384.655C904.027,393.175 881.904,402.871 859.91,413.628C835.385,425.622 810.217,438.484 787.253,453.984C780.018,458.867 773.101,464.023 766.707,469.571C760.401,475.043 755.198,480.783 749.453,486.719Z" style="fill:white;"/>
                </g>
                <g transform="matrix(0.166352,-0.183829,0.288252,0.260847,543.282,463.048)">
                    <path d="M754.547,489.281L752.448,490.834L747.353,488.273L749.453,486.719C755.198,480.783 760.401,475.043 766.707,469.571C773.101,464.023 780.018,458.867 787.253,453.984C810.217,438.484 835.385,425.622 859.91,413.628C881.904,402.871 904.027,393.175 926.522,384.655C950.275,375.658 974.345,368.011 998.493,361.208L1001.43,360.289L1004.44,363.873L1001.51,364.792C979.578,372.376 958.087,380.937 936.528,390.271C922.828,396.202 909.088,402.4 895.491,409.083C871.974,420.642 848.93,433.569 825.858,447.745C816.553,453.462 807.541,459.552 797.881,465.484C791.155,469.614 784.279,473.705 777,477.712C769.727,481.717 762.137,485.246 754.547,489.281Z" style="fill:white;"/>
                </g>
                <g transform="matrix(0.222398,-0.0594415,-0.0971942,-0.363648,713.16,659.473)">
                    <path d="M749.453,486.719L747.353,488.273L752.448,490.834L754.547,489.281C762.137,485.246 769.727,481.717 777,477.712C784.279,473.704 791.155,469.614 797.881,465.484C807.541,459.552 816.553,453.462 825.858,447.745C848.93,433.569 871.974,420.642 895.491,409.083C909.088,402.4 922.828,396.202 936.528,390.271C958.087,380.937 979.578,372.376 1001.51,364.792L1004.44,363.873L1001.43,360.289L998.493,361.208C974.345,368.011 950.275,375.658 926.522,384.655C904.027,393.175 881.904,402.871 859.91,413.628C835.385,425.622 810.217,438.484 787.253,453.984C780.018,458.867 773.101,464.023 766.707,469.571C760.401,475.043 755.198,480.783 749.453,486.719Z" style="fill:white;"/>
                </g>
                <g transform="matrix(0.142605,-0.157587,0.253288,0.229208,621.984,433.238)">
                    <path d="M754.941,489.525L752.479,491.347L746.597,488.297L749.059,486.475C754.644,480.362 759.559,474.505 765.794,468.887C772.071,463.23 778.95,458.011 786.197,453.085C809.15,437.483 834.597,424.736 859.265,412.772C881.346,402.063 903.536,392.406 926.13,383.964C949.943,375.067 974.068,367.565 998.271,360.879L1001.7,359.808L1005.15,364.05L1001.73,365.121C979.941,372.789 958.644,381.444 937.22,390.829C923.6,396.796 909.926,403.003 896.398,409.703C872.974,421.303 850.062,434.285 827.067,448.476C817.783,454.205 808.828,460.333 799.124,466.227C792.349,470.342 785.404,474.379 777.995,478.299C770.525,482.253 762.775,485.584 754.941,489.525Z" style="fill:white;"/>
                </g>
                <g transform="matrix(0.195351,-0.0522126,-0.0800902,-0.299654,768.698,600.517)">
                    <path d="M749.059,486.475L746.597,488.297L752.479,491.347L754.941,489.525C762.775,485.584 770.525,482.253 777.995,478.299C785.403,474.379 792.349,470.342 799.124,466.227C808.828,460.333 817.783,454.205 827.067,448.476C850.062,434.285 872.974,421.303 896.398,409.703C909.926,403.003 923.6,396.796 937.22,390.829C958.644,381.444 979.941,372.789 1001.73,365.121L1005.15,364.05L1001.7,359.808L998.271,360.879C974.067,367.565 949.943,375.067 926.129,383.964C903.536,392.406 881.346,402.063 859.265,412.772C834.597,424.736 809.15,437.483 786.197,453.085C778.95,458.011 772.071,463.23 765.794,468.887C759.559,474.505 754.644,480.362 749.059,486.475Z" style="fill:white;"/>
                </g>
                <g transform="matrix(0.112272,-0.124068,0.201096,0.181978,715.255,408.371)">
                    <path d="M755.757,489.918L752.636,492.227L745.123,488.391L748.243,486.082C752.283,480.907 755.57,476.134 760.217,471.313C764.789,466.569 770.007,462.29 775.367,458.032C778.614,455.453 782.002,452.984 785.567,450.631C800.313,440.9 816.282,432.455 831.891,424.312C863.403,407.871 895.145,393.665 927.662,381.909C950.812,373.539 974.265,366.584 997.785,360.325L1002.14,358.963L1006.57,364.314L1002.22,365.675C980.589,373.517 959.576,382.367 938.31,391.891C924.824,397.931 911.254,404.17 897.839,410.915C874.637,422.582 852.033,435.645 829.224,449.852C820.026,455.582 811.23,461.752 801.471,467.562C794.627,471.637 787.573,475.562 779.932,479.321C772.079,483.184 764.069,486.145 755.757,489.918Z" style="fill:white;"/>
                </g>
                <g transform="matrix(0.124953,-0.033397,-0.0568617,-0.212745,852.742,522.966)">
                    <path d="M748.243,486.082L745.123,488.391L752.636,492.227L755.757,489.918C764.069,486.145 772.079,483.184 779.932,479.321C787.573,475.562 794.627,471.637 801.471,467.562C811.23,461.752 820.026,455.582 829.224,449.852C852.033,435.645 874.637,422.582 897.839,410.915C911.254,404.17 924.824,397.931 938.31,391.891C959.576,382.367 980.589,373.517 1002.22,365.675L1006.57,364.314L1002.14,358.963L997.785,360.325C974.265,366.584 950.812,373.539 927.662,381.909C895.145,393.665 863.403,407.871 831.891,424.312C816.282,432.455 800.313,440.9 785.567,450.631C782.002,452.984 778.613,455.453 775.367,458.032C770.006,462.29 764.789,466.569 760.217,471.313C755.57,476.134 752.283,480.907 748.243,486.082Z" style="fill:white;"/>
                </g>
                <g transform="matrix(0.0851739,-0.0941223,0.113468,0.102681,819.003,407.652)">
                    <path d="M756.097,491.928L751.434,495.379L743.24,487.523L747.903,484.072C752.24,477.533 755.358,471.91 760.446,465.918C765.221,460.294 770.658,455.536 776.349,450.707C779.737,447.833 783.278,445.15 787.02,442.666C802.254,432.555 818.753,424.435 834.891,416.39C866.366,400.7 898.001,387.122 930.447,376.405C952.758,369.035 975.199,363.333 997.839,358.099L1003.66,356.278L1007.98,366.081L1002.16,367.901C981.435,376.191 961.47,385.587 941.015,395.194C896.21,416.237 854.905,443.65 808.859,470.143C799.358,475.609 789.521,480.327 778.909,484.636C771.2,487.767 764.176,489.207 756.097,491.928Z" style="fill:white;"/>
                </g>
            </g>
        </g>
    </g>
</svg>
