<?xml version="1.0" encoding="UTF-8" standalone="no"?>
<!DOCTYPE svg PUBLIC "-//W3C//DTD SVG 1.1//EN" "http://www.w3.org/Graphics/SVG/1.1/DTD/svg11.dtd">
<svg width="100%" height="100%" viewBox="0 0 119 119" version="1.1" xmlns="http://www.w3.org/2000/svg" xmlns:xlink="http://www.w3.org/1999/xlink" xml:space="preserve" xmlns:serif="http://www.serif.com/" style="fill-rule:evenodd;clip-rule:evenodd;stroke-linejoin:round;stroke-miterlimit:2;">
    <g transform="matrix(9.94648,0,0,9.94648,79.1203,88.9842)">
        <g id="Layer-1" serif:id="Layer 1">
            <path d="M0,-6.085C0.026,-6.096 0.054,-6.107 0.082,-6.117C0.061,-6.18 0.041,-6.241 0.021,-6.304C-0.011,-6.282 -0.07,-6.254 -0.067,-6.238C-0.057,-6.185 -0.024,-6.136 0,-6.085M-6.08,-6.032C-6.078,-6.023 -6.074,-6.013 -6.071,-6.003C-5.977,-5.998 -5.882,-5.993 -5.764,-5.985C-5.789,-6.07 -5.806,-6.127 -5.827,-6.198C-5.925,-6.134 -6.003,-6.083 -6.08,-6.032M-2.704,-7.779C-2.689,-7.772 -2.673,-7.766 -2.658,-7.759C-2.597,-7.843 -2.535,-7.926 -2.479,-8.012C-2.473,-8.022 -2.495,-8.064 -2.514,-8.072C-2.562,-8.097 -2.614,-8.11 -2.68,-8.134C-2.689,-8.002 -2.696,-7.891 -2.704,-7.779M1.862,-4.911C2.024,-4.792 2.294,-4.842 2.395,-5.001C2.205,-4.969 2.034,-4.94 1.862,-4.911M0.576,-6.679C0.609,-6.571 0.636,-6.467 0.674,-6.368C0.681,-6.349 0.732,-6.347 0.764,-6.338C0.781,-6.427 0.829,-6.523 0.81,-6.603C0.785,-6.699 0.684,-6.718 0.576,-6.679M-0.201,0.754C-0.471,0.864 -0.659,1.107 -0.627,1.303C-0.452,1.148 -0.321,0.98 -0.201,0.754M-6.628,-5.739C-6.839,-5.604 -6.852,-5.329 -6.65,-5.138C-6.644,-5.346 -6.535,-5.533 -6.628,-5.739M0.299,0.678C0.198,0.918 0.098,1.158 -0.012,1.424C0.239,1.326 0.358,1.048 0.299,0.678M-3.822,-5.62C-3.626,-5.555 -3.447,-5.495 -3.247,-5.428C-3.352,-5.649 -3.541,-5.763 -3.714,-5.895C-3.755,-5.789 -3.791,-5.699 -3.822,-5.62M0.861,-5.804C1.015,-5.856 1.143,-5.894 1.267,-5.941C1.294,-5.951 1.329,-5.986 1.331,-6.014C1.345,-6.137 1.358,-6.265 1.255,-6.357C1.13,-6.181 1.006,-6.008 0.861,-5.804M-1.892,-7.368C-1.894,-7.355 -1.896,-7.342 -1.897,-7.328C-1.786,-7.248 -1.679,-7.155 -1.559,-7.094C-1.515,-7.073 -1.403,-7.108 -1.376,-7.15C-1.334,-7.216 -1.296,-7.343 -1.403,-7.378C-1.561,-7.43 -1.73,-7.401 -1.892,-7.368M-2.441,2.336C-2.092,2.451 -1.592,2.11 -1.564,1.887C-1.887,1.969 -2.129,2.189 -2.441,2.336M-0.742,-7.373C-0.647,-7.653 -0.719,-7.907 -0.939,-8.062C-0.961,-8.077 -0.998,-8.094 -1.019,-8.085C-1.038,-8.077 -1.052,-8.037 -1.054,-8.011C-1.058,-7.903 -1.056,-7.796 -1.056,-7.719C-0.947,-7.599 -0.849,-7.489 -0.742,-7.373M-2.017,-6.915C-1.993,-6.643 -1.968,-6.382 -1.942,-6.091C-1.844,-6.176 -1.748,-6.253 -1.662,-6.338C-1.642,-6.356 -1.639,-6.407 -1.648,-6.436C-1.722,-6.629 -1.819,-6.806 -2.017,-6.915M-0.567,-4.638C-0.54,-4.662 -0.514,-4.682 -0.492,-4.706C-0.406,-4.804 -0.327,-4.909 -0.236,-5.003C-0.101,-5.145 -0.106,-5.349 -0.259,-5.487C-0.336,-5.374 -0.4,-5.248 -0.493,-5.149C-0.64,-4.994 -0.653,-4.833 -0.567,-4.638M-4.445,-6.106C-4.501,-6.123 -4.545,-6.137 -4.589,-6.15C-4.711,-6.183 -4.837,-6.205 -4.953,-6.253C-5.055,-6.296 -5.094,-6.282 -5.111,-6.171C-5.123,-6.099 -5.12,-6.048 -5.044,-6.011C-5.003,-5.991 -4.96,-5.952 -4.944,-5.911C-4.889,-5.77 -4.802,-5.746 -4.659,-5.783C-4.561,-5.807 -4.498,-5.82 -4.496,-5.936C-4.496,-5.985 -4.467,-6.035 -4.445,-6.106M-5.489,-3.42C-5.485,-3.41 -5.48,-3.399 -5.475,-3.389C-5.254,-3.462 -5.032,-3.531 -4.812,-3.609C-4.71,-3.645 -4.605,-3.685 -4.517,-3.745C-4.476,-3.773 -4.451,-3.855 -4.455,-3.91C-4.457,-3.937 -4.536,-3.972 -4.586,-3.981C-4.634,-3.988 -4.688,-3.971 -4.739,-3.959C-5.062,-3.878 -5.243,-3.605 -5.489,-3.42M-0.103,-7.662C0.064,-7.686 0.173,-7.595 0.266,-7.473C0.282,-7.452 0.317,-7.44 0.345,-7.438C0.477,-7.426 0.609,-7.42 0.753,-7.411C0.73,-7.446 0.705,-7.482 0.683,-7.521C0.64,-7.596 0.588,-7.668 0.56,-7.748C0.469,-8.012 0.39,-8.076 0.112,-8.106C0.009,-8.116 -0.032,-8.074 -0.046,-7.982C-0.062,-7.883 -0.081,-7.786 -0.103,-7.662M-1.029,-3.199C-1.045,-3.293 -1.068,-3.388 -1.078,-3.484C-1.1,-3.713 -1.07,-3.934 -0.982,-4.15C-0.942,-4.249 -0.913,-4.359 -0.91,-4.465C-0.908,-4.518 -0.965,-4.595 -1.015,-4.619C-1.044,-4.633 -1.134,-4.576 -1.161,-4.53C-1.226,-4.418 -1.269,-4.294 -1.32,-4.174C-1.458,-3.856 -1.342,-3.41 -1.029,-3.199M-2.802,-5.921C-2.786,-5.849 -2.772,-5.799 -2.765,-5.75C-2.731,-5.522 -2.687,-5.294 -2.669,-5.065C-2.653,-4.866 -2.428,-4.607 -2.221,-4.583C-2.145,-5.105 -2.39,-5.694 -2.802,-5.921M-5.597,-5.242C-5.596,-5.26 -5.592,-5.277 -5.59,-5.294C-5.771,-5.359 -5.952,-5.424 -6.134,-5.488C-6.258,-5.532 -6.316,-5.492 -6.365,-5.361C-6.444,-5.148 -6.483,-4.945 -6.384,-4.73C-6.339,-4.635 -6.269,-4.576 -6.173,-4.6C-6.107,-4.615 -6.028,-4.67 -6.002,-4.729C-5.909,-4.935 -5.801,-5.124 -5.597,-5.242M-3.503,-6.786C-3.389,-6.949 -3.262,-7.1 -3.17,-7.269C-3.093,-7.417 -3.144,-7.495 -3.277,-7.595C-3.356,-7.656 -3.426,-7.744 -3.471,-7.835C-3.559,-8.01 -3.654,-8.048 -3.846,-7.944C-3.757,-7.745 -3.629,-7.539 -3.849,-7.362C-3.792,-7.255 -3.703,-7.163 -3.699,-7.066C-3.691,-6.909 -3.603,-6.846 -3.503,-6.786M-1.077,-5.162C-1.061,-5.159 -1.047,-5.156 -1.031,-5.152C-0.992,-5.19 -0.944,-5.222 -0.914,-5.266C-0.82,-5.402 -0.728,-5.539 -0.644,-5.682C-0.478,-5.964 -0.586,-6.389 -0.86,-6.563C-0.949,-6.619 -1.02,-6.596 -1.05,-6.494C-1.084,-6.386 -1.094,-6.268 -1.139,-6.166C-1.295,-5.812 -1.052,-5.501 -1.077,-5.162M-1.773,-3.917C-1.723,-4.104 -1.701,-4.28 -1.629,-4.434C-1.487,-4.736 -1.391,-5.041 -1.429,-5.378C-1.445,-5.519 -1.456,-5.66 -1.471,-5.819C-1.601,-5.758 -1.706,-5.704 -1.814,-5.66C-1.913,-5.621 -1.941,-5.546 -1.938,-5.452C-1.925,-5.033 -1.915,-4.614 -1.897,-4.195C-1.892,-4.089 -1.857,-3.988 -1.773,-3.917M-5.661,-2.079C-5.232,-2.343 -5.19,-2.787 -5.04,-3.194C-5.322,-3.146 -5.581,-3.083 -5.843,-3.062C-6.124,-3.039 -6.361,-2.915 -6.607,-2.806C-6.706,-2.763 -6.748,-2.698 -6.736,-2.58C-6.706,-2.273 -6.781,-1.994 -7.007,-1.754C-7.2,-1.959 -7.417,-2.14 -7.267,-2.487C-7.369,-2.472 -7.438,-2.459 -7.509,-2.451C-7.599,-2.44 -7.673,-2.448 -7.687,-2.566C-7.7,-2.666 -7.698,-2.74 -7.575,-2.758C-7.468,-2.774 -7.363,-2.801 -7.222,-2.832C-7.363,-2.888 -7.484,-2.918 -7.585,-2.981C-7.679,-3.04 -7.682,-3.186 -7.617,-3.329C-7.47,-3.272 -7.323,-3.209 -7.172,-3.156C-6.768,-3.014 -6.396,-3.086 -6.068,-3.355C-5.859,-3.525 -5.668,-3.718 -5.464,-3.896C-5.217,-4.11 -4.951,-4.26 -4.598,-4.221C-4.317,-4.191 -4.029,-4.188 -3.747,-4.208C-3.456,-4.229 -3.169,-4.292 -2.834,-4.344C-2.968,-4.471 -3.085,-4.565 -3.183,-4.677C-3.417,-4.943 -3.694,-5.133 -4.041,-5.227C-4.231,-5.278 -4.419,-5.272 -4.607,-5.221C-4.988,-5.118 -5.277,-4.893 -5.479,-4.555C-5.687,-4.206 -5.962,-3.933 -6.34,-3.762C-6.625,-3.634 -6.905,-3.687 -7.188,-3.743C-7.269,-3.759 -7.348,-3.788 -7.428,-3.809C-7.58,-3.848 -7.506,-3.954 -7.485,-4.031C-7.463,-4.109 -7.412,-4.154 -7.315,-4.1C-7.261,-4.068 -7.188,-4.068 -7.091,-4.048C-7.128,-4.117 -7.142,-4.154 -7.163,-4.183C-7.369,-4.452 -7.372,-4.736 -7.238,-5.034C-7.186,-5.148 -7.145,-5.266 -7.082,-5.426C-7.059,-5.285 -7.025,-5.171 -7.025,-5.057C-7.025,-4.871 -7.079,-4.677 -6.95,-4.514C-6.898,-4.449 -6.804,-4.35 -6.758,-4.364C-6.658,-4.393 -6.671,-4.511 -6.701,-4.598C-6.742,-4.721 -6.781,-4.85 -6.848,-4.958C-6.966,-5.145 -7.017,-5.342 -6.996,-5.556C-6.97,-5.816 -6.796,-5.975 -6.586,-6.095C-6.448,-6.174 -6.357,-6.284 -6.313,-6.431C-6.235,-6.697 -5.948,-6.953 -5.604,-6.906C-5.438,-6.883 -5.259,-6.952 -5.085,-6.98C-5.085,-6.995 -5.086,-7.011 -5.087,-7.026C-5.208,-7.063 -5.33,-7.09 -5.447,-7.136C-5.567,-7.183 -5.681,-7.245 -5.796,-7.301C-5.796,-7.316 -5.794,-7.331 -5.794,-7.346C-5.732,-7.37 -5.668,-7.387 -5.611,-7.418C-5.444,-7.51 -5.271,-7.595 -5.117,-7.705C-4.958,-7.819 -4.793,-7.865 -4.591,-7.841C-4.51,-8.022 -4.459,-8.236 -4.21,-8.283C-4.231,-8.35 -4.251,-8.409 -4.265,-8.451C-4.023,-8.483 -3.794,-8.523 -3.564,-8.54C-3.479,-8.547 -3.391,-8.501 -3.304,-8.48C-3.296,-8.46 -3.29,-8.441 -3.282,-8.422C-3.23,-8.49 -3.15,-8.551 -3.132,-8.627C-3.068,-8.884 -2.63,-9.04 -2.413,-8.884C-2.23,-8.753 -2.034,-8.744 -1.81,-8.846C-1.816,-8.57 -1.945,-8.377 -2.104,-8.196C-1.989,-8.045 -1.927,-8.044 -1.777,-8.141C-1.646,-8.225 -1.502,-8.291 -1.358,-8.353C-1.292,-8.381 -1.284,-8.4 -1.295,-8.474C-1.313,-8.613 -1.3,-8.755 -1.3,-8.938C-1.192,-8.902 -1.115,-8.875 -1.036,-8.853C-0.953,-8.829 -0.869,-8.796 -0.785,-8.794C-0.598,-8.789 -0.489,-8.685 -0.405,-8.535C-0.384,-8.498 -0.359,-8.461 -0.333,-8.417C-0.227,-8.558 -0.127,-8.691 -0.025,-8.828C-0.025,-8.828 -0.014,-8.832 -0.007,-8.829C0.206,-8.733 0.418,-8.637 0.63,-8.539C0.635,-8.538 0.641,-8.535 0.641,-8.532C0.702,-8.306 0.944,-8.289 1.085,-8.155C1.183,-8.063 1.229,-7.961 1.226,-7.833C1.219,-7.581 1.249,-7.335 1.339,-7.099C1.365,-7.031 1.396,-6.966 1.424,-6.9C1.437,-6.901 1.449,-6.902 1.463,-6.903C1.473,-6.954 1.482,-7.004 1.493,-7.055C1.521,-7.2 1.56,-7.35 1.716,-7.397C1.87,-7.443 2.02,-7.415 2.134,-7.28C2.2,-7.202 2.274,-7.129 2.357,-7.04C1.941,-6.966 1.901,-6.64 1.834,-6.322C1.904,-6.372 1.97,-6.427 2.043,-6.472C2.144,-6.532 2.245,-6.593 2.353,-6.638C2.544,-6.717 2.666,-6.632 2.682,-6.406C2.393,-6.393 2.246,-6.174 2.074,-5.984C1.973,-5.872 1.867,-5.759 1.745,-5.671C1.53,-5.517 1.267,-5.494 1.02,-5.428C0.636,-5.327 0.314,-5.126 0.049,-4.837C0.051,-4.821 0.055,-4.807 0.058,-4.791C0.33,-4.798 0.607,-4.772 0.87,-4.822C1.083,-4.862 1.277,-4.991 1.478,-5.085C1.737,-5.205 2.009,-5.277 2.293,-5.306C2.469,-5.325 2.657,-5.336 2.762,-5.518C2.845,-5.664 2.87,-5.819 2.827,-6.001C2.857,-5.98 2.9,-5.965 2.916,-5.936C3.002,-5.779 3.1,-5.627 3.161,-5.46C3.229,-5.274 3.147,-5.128 2.979,-5.02C2.889,-4.962 2.818,-4.875 2.739,-4.8C2.749,-4.785 2.76,-4.77 2.771,-4.755C2.81,-4.766 2.852,-4.772 2.885,-4.792C3.009,-4.866 3.139,-4.85 3.265,-4.808C3.309,-4.793 3.355,-4.747 3.373,-4.704C3.414,-4.604 3.438,-4.496 3.468,-4.391C3.5,-4.28 3.478,-4.21 3.343,-4.217C3.325,-4.218 3.306,-4.201 3.316,-4.206C3.38,-4.023 3.452,-3.853 3.499,-3.676C3.52,-3.596 3.494,-3.503 3.487,-3.416C3.468,-3.197 3.493,-2.989 3.659,-2.817C3.497,-2.774 3.316,-2.935 3.293,-3.126C3.27,-3.299 3.271,-3.477 3.231,-3.647C3.18,-3.866 3.075,-4.065 2.884,-4.201C2.824,-4.243 2.747,-4.259 2.659,-4.274C2.898,-3.991 2.771,-3.708 2.692,-3.422C2.418,-3.618 2.167,-3.833 2.071,-4.176C2.049,-4.252 2.003,-4.269 1.934,-4.29C1.755,-4.344 1.578,-4.409 1.408,-4.487C1.32,-4.528 1.254,-4.543 1.166,-4.491C1.105,-4.454 1.029,-4.445 0.93,-4.415C1.447,-4.084 1.725,-3.51 2.297,-3.277C2.026,-3.251 1.811,-3.377 1.621,-3.532C1.236,-3.844 0.841,-4.134 0.367,-4.298C0.05,-4.408 -0.233,-4.383 -0.472,-4.127C-0.721,-3.859 -0.733,-3.425 -0.528,-3.108C-0.245,-2.672 0.112,-2.324 0.545,-2.035C0.792,-1.873 0.996,-1.64 1.197,-1.42C1.433,-1.163 1.424,-0.841 1.35,-0.527C1.309,-0.357 1.207,-0.203 1.153,-0.034C1.081,0.198 1.024,0.435 0.97,0.672C0.958,0.722 0.974,0.802 1.01,0.833C1.091,0.909 1.196,0.947 1.307,0.885C1.507,0.773 1.708,0.667 1.837,0.457C1.896,0.361 2.016,0.282 2.124,0.241C2.46,0.114 2.675,-0.139 2.847,-0.432C3.022,-0.728 3.174,-1.039 3.337,-1.343C3.348,-1.363 3.367,-1.379 3.409,-1.384C3.381,-1.306 3.357,-1.227 3.328,-1.149C3.133,-0.623 2.883,-0.127 2.56,0.334C2.443,0.501 2.299,0.62 2.125,0.718C2.08,0.744 2.042,0.803 2.02,0.855C1.897,1.138 1.697,1.344 1.418,1.476C1.32,1.523 1.228,1.589 1.125,1.615C1.034,1.638 0.932,1.62 0.834,1.614C0.801,1.612 0.769,1.588 0.735,1.579C0.554,1.533 0.522,1.553 0.493,1.737C0.418,2.202 0.03,2.528 -0.446,2.519C-0.371,2.413 -0.289,2.316 -0.23,2.206C-0.172,2.095 -0.138,1.973 -0.093,1.856C-0.114,1.845 -0.135,1.834 -0.157,1.824C-0.206,1.904 -0.253,1.985 -0.305,2.064C-0.43,2.257 -0.537,2.466 -0.689,2.635C-0.818,2.78 -1.024,2.811 -1.215,2.843C-1.292,2.855 -1.368,2.877 -1.445,2.886C-1.479,2.89 -1.516,2.874 -1.552,2.867C-1.541,2.832 -1.538,2.791 -1.517,2.762C-1.49,2.722 -1.451,2.689 -1.431,2.624C-1.493,2.644 -1.566,2.649 -1.614,2.686C-1.89,2.898 -2.214,2.955 -2.541,2.92C-2.974,2.874 -3.41,2.814 -3.83,2.705C-4.458,2.541 -5.006,2.207 -5.514,1.803C-6.054,1.371 -6.479,0.843 -6.811,0.242C-7.004,-0.112 -7.153,-0.491 -7.31,-0.864C-7.405,-1.092 -7.475,-1.331 -7.557,-1.564L-7.524,-1.578C-7.462,-1.439 -7.41,-1.297 -7.338,-1.164C-7.09,-0.694 -6.867,-0.207 -6.574,0.234C-6.177,0.83 -5.619,1.265 -4.995,1.621C-4.698,1.79 -4.4,1.947 -4.072,2.046C-3.724,2.152 -3.366,2.232 -3.004,2.173C-2.822,2.144 -2.641,2.052 -2.478,1.957C-2.099,1.733 -1.686,1.59 -1.285,1.42C-1.155,1.366 -1.011,1.248 -0.958,1.124C-0.843,0.853 -0.654,0.67 -0.414,0.528C0.068,0.242 0.184,-0.228 0.179,-0.729C0.177,-1.018 0.009,-1.268 -0.225,-1.445C-0.393,-1.574 -0.592,-1.666 -0.756,-1.797C-1.129,-2.093 -1.486,-2.407 -1.685,-2.857C-1.805,-3.132 -1.952,-3.393 -2.208,-3.561C-2.522,-3.767 -2.859,-3.908 -3.254,-3.848C-3.553,-3.804 -3.831,-3.714 -4.113,-3.601C-4.442,-3.469 -4.662,-3.253 -4.831,-2.968C-4.931,-2.797 -4.995,-2.604 -5.075,-2.42C-5.167,-2.21 -5.39,-2.071 -5.661,-2.079" fill="--c-accent"/>
        </g>
    </g>
</svg>
