<?xml version="1.0" encoding="utf-8"?>
<!-- Generator: Adobe Illustrator 16.0.0, SVG Export Plug-In . SVG Version: 6.00 Build 0)  -->
<!DOCTYPE svg PUBLIC "-//W3C//DTD SVG 1.1//EN" "http://www.w3.org/Graphics/SVG/1.1/DTD/svg11.dtd">
<svg version="1.1" id="Layer_1" xmlns="http://www.w3.org/2000/svg" xmlns:xlink="http://www.w3.org/1999/xlink" x="0px" y="0px"
	 width="100.422px" height="100.401px" viewBox="0 0 100.422 100.401" enable-background="new 0 0 100.422 100.401"
	 xml:space="preserve">
<g>
	<path fill="#808080" d="M10.32,10.234c-11.823,11.823-11.823,30.992,0,42.814c11.823,11.822,30.991,11.822,42.815,0
		c11.822-11.823,11.822-30.991,0-42.814C41.312-1.588,22.143-1.587,10.32,10.234z M50.175,50.089
		c-10.188,10.187-26.707,10.187-36.895,0c-10.188-10.188-10.188-26.706,0-36.894s26.705-10.188,36.895,0
		C60.363,23.383,60.363,39.901,50.175,50.089z"/>
	<path fill="#808080" d="M46.521,56.451c-2.641-2.641,1.46-2.823,4.102-5.463l0,0c2.641-2.641,2.821-6.741,5.463-4.1L96.18,89.716
		c2.641,2.641,4.006,5.557,1.367,8.194l0,0c-2.641,2.641-5.557,1.277-8.197-1.365L46.521,56.451z"/>
</g>
<path fill="--c-accent" d="M51.791,38.405c-13.983,0.992-13.813-5.711-31.385-4.464c-4.322,0.307-8.036,2.213-11.189,3.314
	c0.218,0.878,0.486,1.736,0.801,2.57c3.137-0.918,6.598-2.698,10.216-2.955c13.605-0.965,18.154,5.333,31.571,4.381
	c0.367-0.026,0.727-0.059,1.08-0.095c0.428-0.95,0.795-1.934,1.092-2.947C53.279,38.284,52.555,38.351,51.791,38.405z"/>
<path fill="--c-accent" d="M54.398,26.723c-1.055,0.136-2.188,0.251-3.412,0.338c-13.983,0.992-13.813-5.711-31.385-4.464
	c-3.922,0.278-7.322,2.072-10.28,3.026c-0.261,0.976-0.458,1.978-0.591,3c3.262-0.986,6.895-2.826,10.699-3.096
	C33.034,24.562,37.583,30.86,51,29.908c1.381-0.098,2.646-0.268,3.818-0.488C54.73,28.504,54.59,27.604,54.398,26.723z"/>
</svg>
