<?xml version="1.0" encoding="utf-8"?>
<!-- Generator: Adobe Illustrator 16.0.0, SVG Export Plug-In . SVG Version: 6.00 Build 0)  -->
<!DOCTYPE svg PUBLIC "-//W3C//DTD SVG 1.1//EN" "http://www.w3.org/Graphics/SVG/1.1/DTD/svg11.dtd">
<svg version="1.1" id="Layer_1" xmlns="http://www.w3.org/2000/svg" xmlns:xlink="http://www.w3.org/1999/xlink" x="0px" y="0px"
	 width="283.46px" height="283.46px" viewBox="0 0 283.46 283.46" enable-background="new 0 0 283.46 283.46" xml:space="preserve">
<circle fill="--c-accent" cx="58.864" cy="171.825" r="18.983"/>
<circle fill="--c-accent" cx="93.754" cy="192.092" r="18.983"/>
<circle fill="--c-accent" cx="129.667" cy="211.076" r="18.983"/>
<circle fill="--c-accent" cx="167.634" cy="226.98" r="18.984"/>
<path fill="#808080" d="M251.683,90.911c-2.731-2.644-5.394-5.615-8.66-7.385
	c-5.207-2.824-6.572-6.891-5.938-12.258c0.106-0.897-0.013-1.831-0.104-2.738c-0.832-8.343-3.288-11.048-11.484-12.684
	c-1.077-0.215-2.146-0.564-3.23-0.625c-6.599-0.375-9.605-4.516-10.99-10.373c-0.843-3.559-1.434-7.192-2.479-10.688
	c-2.302-7.688-5.392-10.114-13.463-10.395c-3.448-0.12-6.927,0.348-10.382,0.667c-6.114,0.564-8.836-1.322-10.194-7.313
	c-0.442-1.959-0.545-4.004-1.077-5.935c-1.691-6.134-5.041-8.544-11.483-8.613c-2.009-0.022-4.043-0.133-6.009-0.496
	c-4.098-0.755-7.847,0.156-10.701,2.976c-4.541,4.481-9.066,9.074-12.858,14.169c-2.044,2.746-3.242,3.885-6.881,2.85
	c-12.494-3.553-27.185,1.504-32.789,13.343C89.62,42.467,83.224,46.804,76.536,50.3c-5.764,3.013-10.458,6.959-15.044,11.574
	c-6.057,6.096-7.367,13.519-6.048,20.735c1.826,9.999,5.21,19.817,8.882,29.343c3.413,8.852,7.985,17.267,12.222,25.786
	c2.904,5.836,2.841,12.042,2.43,18.212c-0.086,1.298-0.817,2.553-1.644,3.883c2.251,3.455,3.564,7.572,3.564,11.993
	c0,0.842-0.052,1.673-0.144,2.49c3.646-2.674,8.14-4.259,13-4.259c12.149,0,22.034,9.885,22.034,22.035
	c0,0.661-0.035,1.313-0.092,1.958c3.805-3.128,8.673-5.009,13.972-5.009c12.149,0,22.034,9.885,22.034,22.035
	c0,0.244-0.012,0.484-0.021,0.728c4.019-4.219,9.681-6.856,15.953-6.856c2.768,0,5.414,0.518,7.856,1.452
	c0.264-0.222,0.522-0.443,0.771-0.65c4.765-3.979,8.942-8.918,14.23-11.943c5.325-3.048,9.439-6.823,12.638-11.781
	c4.845-7.511,9.442-15.181,14.253-22.713c2.328-3.646,10.558-23.346,14.774-27.29c7.421-6.939,13.823-15.03,20.215-22.991
	C255.828,104.724,255.096,94.212,251.683,90.911z"/>
<path fill="#808080" d="M146.104,226.98c0-0.244,0.012-0.485,0.02-0.728
	c-4.016,4.218-9.679,6.854-15.951,6.854c-12.149,0-22.035-9.883-22.035-22.031c0-0.662,0.036-1.314,0.092-1.961
	c-3.805,3.127-8.672,5.009-13.972,5.009c-12.15,0-22.035-9.884-22.035-22.032c0-0.843,0.053-1.674,0.145-2.493
	c-3.647,2.675-8.141,4.259-13.001,4.259c-2.496,0-4.893-0.423-7.132-1.191c-2.226,2.933-4.069,5.45-5.125,6.618
	c-5.264,5.82-10.701,13.558-15.553,19.732c0,0,13.37,6.004,24.558,15.28c11.187,9.278,21.284,15.555,32.198,24.832
	c10.915,9.279,36.564,22.92,36.564,22.92c0.908-2.538,13.333-24.432,14.734-26.74c0.96-1.58,5.699-8.557,10.533-15.633
	C147.604,236.085,146.104,231.705,146.104,226.98z"/>
</svg>
