<?xml version="1.0" encoding="UTF-8" standalone="no"?>
<!DOCTYPE svg PUBLIC "-//W3C//DTD SVG 1.1//EN" "http://www.w3.org/Graphics/SVG/1.1/DTD/svg11.dtd">
<svg width="100%" height="100%" viewBox="0 0 2599 2599" version="1.1" xmlns="http://www.w3.org/2000/svg" xmlns:xlink="http://www.w3.org/1999/xlink" xml:space="preserve" xmlns:serif="http://www.serif.com/" style="fill-rule:evenodd;clip-rule:evenodd;stroke-linecap:round;stroke-linejoin:round;stroke-miterlimit:1.5;">
    <g transform="matrix(3.26667,0,0,3.26667,-428.346,-428.346)">
        <path d="M897.638,224.409C897.638,204.853 881.761,188.976 862.205,188.976L224.409,188.976C204.853,188.976 188.976,204.853 188.976,224.409L188.976,862.205C188.976,881.761 204.853,897.638 224.409,897.638L862.205,897.638C881.761,897.638 897.638,881.761 897.638,862.205L897.638,224.409Z" style="fill:rgb(179,179,179);fill-opacity:0.31;stroke:rgb(179,179,179);stroke-width:1.28px;stroke-dasharray:0,2.55,0,0;"/>
    </g>
    <g transform="matrix(1,0,0,1,188.976,188.976)">
        <g transform="matrix(0.928571,0,0,0.928571,10.1237,10.1237)">
            <path d="M803.15,174.803C803.15,156.551 788.331,141.732 770.079,141.732L174.803,141.732C156.551,141.732 141.732,156.551 141.732,174.803L141.732,770.079C141.732,788.331 156.551,803.15 174.803,803.15L770.079,803.15C788.331,803.15 803.15,788.331 803.15,770.079L803.15,174.803Z" style="fill:white;stroke:rgb(179,179,179);stroke-width:4.49px;stroke-dasharray:0,8.97,0,0;"/>
        </g>
        <g transform="matrix(1,1.79628e-16,1.79628e-16,1.97041,23.622,-740.625)">
            <path d="M425.197,755.906L425.197,448.819" style="fill:none;stroke:rgb(179,179,179);stroke-width:2.67px;stroke-dasharray:0,5.33,0,0;"/>
        </g>
        <g transform="matrix(-3.38097e-16,1,-1.95685,-1.37238e-16,1627.55,23.622)">
            <path d="M425.197,755.906L425.197,448.819" style="fill:none;stroke:rgb(179,179,179);stroke-width:2.68px;stroke-dasharray:0,5.36,0,0;"/>
        </g>
    </g>
    <g transform="matrix(1,0,0,1,188.976,897.638)">
        <g transform="matrix(0.928571,0,0,0.928571,10.1237,10.1237)">
            <path d="M803.15,174.803C803.15,156.551 788.331,141.732 770.079,141.732L174.803,141.732C156.551,141.732 141.732,156.551 141.732,174.803L141.732,770.079C141.732,788.331 156.551,803.15 174.803,803.15L770.079,803.15C788.331,803.15 803.15,788.331 803.15,770.079L803.15,174.803Z" style="fill:white;stroke:rgb(179,179,179);stroke-width:4.49px;stroke-dasharray:0,8.97,0,0;"/>
        </g>
        <g transform="matrix(1,1.79628e-16,1.79628e-16,1.97041,23.622,-740.625)">
            <path d="M425.197,755.906L425.197,448.819" style="fill:none;stroke:rgb(179,179,179);stroke-width:2.67px;stroke-dasharray:0,5.33,0,0;"/>
        </g>
        <g transform="matrix(-3.38097e-16,1,-1.95685,-1.37238e-16,1627.55,23.622)">
            <path d="M425.197,755.906L425.197,448.819" style="fill:none;stroke:rgb(179,179,179);stroke-width:2.68px;stroke-dasharray:0,5.36,0,0;"/>
        </g>
    </g>
    <g transform="matrix(1,0,0,1,188.976,1606.3)">
        <g transform="matrix(0.928571,0,0,0.928571,10.1237,10.1237)">
            <path d="M803.15,174.803C803.15,156.551 788.331,141.732 770.079,141.732L174.803,141.732C156.551,141.732 141.732,156.551 141.732,174.803L141.732,770.079C141.732,788.331 156.551,803.15 174.803,803.15L770.079,803.15C788.331,803.15 803.15,788.331 803.15,770.079L803.15,174.803Z" style="fill:white;stroke:rgb(179,179,179);stroke-width:4.49px;stroke-dasharray:0,8.97,0,0;"/>
        </g>
        <g transform="matrix(1,1.79628e-16,1.79628e-16,1.97041,23.622,-740.625)">
            <path d="M425.197,755.906L425.197,448.819" style="fill:none;stroke:rgb(179,179,179);stroke-width:2.67px;stroke-dasharray:0,5.33,0,0;"/>
        </g>
        <g transform="matrix(-3.38097e-16,1,-1.95685,-1.37238e-16,1627.55,23.622)">
            <path d="M425.197,755.906L425.197,448.819" style="fill:none;stroke:rgb(179,179,179);stroke-width:2.68px;stroke-dasharray:0,5.36,0,0;"/>
        </g>
    </g>
    <g transform="matrix(1,0,0,1,897.638,188.976)">
        <g transform="matrix(0.928571,0,0,0.928571,10.1237,10.1237)">
            <path d="M803.15,174.803C803.15,156.551 788.331,141.732 770.079,141.732L174.803,141.732C156.551,141.732 141.732,156.551 141.732,174.803L141.732,770.079C141.732,788.331 156.551,803.15 174.803,803.15L770.079,803.15C788.331,803.15 803.15,788.331 803.15,770.079L803.15,174.803Z" style="fill:white;stroke:rgb(179,179,179);stroke-width:4.49px;stroke-dasharray:0,8.97,0,0;"/>
        </g>
        <g transform="matrix(1,1.79628e-16,1.79628e-16,1.97041,23.622,-740.625)">
            <path d="M425.197,755.906L425.197,448.819" style="fill:none;stroke:rgb(179,179,179);stroke-width:2.67px;stroke-dasharray:0,5.33,0,0;"/>
        </g>
        <g transform="matrix(-3.38097e-16,1,-1.95685,-1.37238e-16,1627.55,23.622)">
            <path d="M425.197,755.906L425.197,448.819" style="fill:none;stroke:rgb(179,179,179);stroke-width:2.68px;stroke-dasharray:0,5.36,0,0;"/>
        </g>
    </g>
    <g transform="matrix(1,0,0,1,897.638,897.638)">
        <g transform="matrix(0.928571,0,0,0.928571,10.1237,10.1237)">
            <path d="M803.15,174.803C803.15,156.551 788.331,141.732 770.079,141.732L174.803,141.732C156.551,141.732 141.732,156.551 141.732,174.803L141.732,770.079C141.732,788.331 156.551,803.15 174.803,803.15L770.079,803.15C788.331,803.15 803.15,788.331 803.15,770.079L803.15,174.803Z" style="fill:white;stroke:rgb(179,179,179);stroke-width:4.49px;stroke-dasharray:0,8.97,0,0;"/>
        </g>
        <g transform="matrix(1,1.79628e-16,1.79628e-16,1.97041,23.622,-740.625)">
            <path d="M425.197,755.906L425.197,448.819" style="fill:none;stroke:rgb(179,179,179);stroke-width:2.67px;stroke-dasharray:0,5.33,0,0;"/>
        </g>
        <g transform="matrix(-3.38097e-16,1,-1.95685,-1.37238e-16,1627.55,23.622)">
            <path d="M425.197,755.906L425.197,448.819" style="fill:none;stroke:rgb(179,179,179);stroke-width:2.68px;stroke-dasharray:0,5.36,0,0;"/>
        </g>
    </g>
    <g transform="matrix(1,0,0,1,897.638,1606.3)">
        <g transform="matrix(0.928571,0,0,0.928571,10.1237,10.1237)">
            <path d="M803.15,174.803C803.15,156.551 788.331,141.732 770.079,141.732L174.803,141.732C156.551,141.732 141.732,156.551 141.732,174.803L141.732,770.079C141.732,788.331 156.551,803.15 174.803,803.15L770.079,803.15C788.331,803.15 803.15,788.331 803.15,770.079L803.15,174.803Z" style="fill:white;stroke:rgb(179,179,179);stroke-width:4.49px;stroke-dasharray:0,8.97,0,0;"/>
        </g>
        <g transform="matrix(1,1.79628e-16,1.79628e-16,1.97041,23.622,-740.625)">
            <path d="M425.197,755.906L425.197,448.819" style="fill:none;stroke:rgb(179,179,179);stroke-width:2.67px;stroke-dasharray:0,5.33,0,0;"/>
        </g>
        <g transform="matrix(-3.38097e-16,1,-1.95685,-1.37238e-16,1627.55,23.622)">
            <path d="M425.197,755.906L425.197,448.819" style="fill:none;stroke:rgb(179,179,179);stroke-width:2.68px;stroke-dasharray:0,5.36,0,0;"/>
        </g>
    </g>
    <g transform="matrix(1,0,0,1,1606.3,188.976)">
        <g transform="matrix(0.928571,0,0,0.928571,10.1237,10.1237)">
            <path d="M803.15,174.803C803.15,156.551 788.331,141.732 770.079,141.732L174.803,141.732C156.551,141.732 141.732,156.551 141.732,174.803L141.732,770.079C141.732,788.331 156.551,803.15 174.803,803.15L770.079,803.15C788.331,803.15 803.15,788.331 803.15,770.079L803.15,174.803Z" style="fill:white;stroke:rgb(179,179,179);stroke-width:4.49px;stroke-dasharray:0,8.97,0,0;"/>
        </g>
        <g transform="matrix(1,1.79628e-16,1.79628e-16,1.97041,23.622,-740.625)">
            <path d="M425.197,755.906L425.197,448.819" style="fill:none;stroke:rgb(179,179,179);stroke-width:2.67px;stroke-dasharray:0,5.33,0,0;"/>
        </g>
        <g transform="matrix(-3.38097e-16,1,-1.95685,-1.37238e-16,1627.55,23.622)">
            <path d="M425.197,755.906L425.197,448.819" style="fill:none;stroke:rgb(179,179,179);stroke-width:2.68px;stroke-dasharray:0,5.36,0,0;"/>
        </g>
    </g>
    <g transform="matrix(1,0,0,1,1606.3,897.638)">
        <g transform="matrix(0.928571,0,0,0.928571,10.1237,10.1237)">
            <path d="M803.15,174.803C803.15,156.551 788.331,141.732 770.079,141.732L174.803,141.732C156.551,141.732 141.732,156.551 141.732,174.803L141.732,770.079C141.732,788.331 156.551,803.15 174.803,803.15L770.079,803.15C788.331,803.15 803.15,788.331 803.15,770.079L803.15,174.803Z" style="fill:white;stroke:rgb(179,179,179);stroke-width:4.49px;stroke-dasharray:0,8.97,0,0;"/>
        </g>
        <g transform="matrix(1,1.79628e-16,1.79628e-16,1.97041,23.622,-740.625)">
            <path d="M425.197,755.906L425.197,448.819" style="fill:none;stroke:rgb(179,179,179);stroke-width:2.67px;stroke-dasharray:0,5.33,0,0;"/>
        </g>
        <g transform="matrix(-3.38097e-16,1,-1.95685,-1.37238e-16,1627.55,23.622)">
            <path d="M425.197,755.906L425.197,448.819" style="fill:none;stroke:rgb(179,179,179);stroke-width:2.68px;stroke-dasharray:0,5.36,0,0;"/>
        </g>
    </g>
    <g transform="matrix(1,0,0,1,1606.3,1606.3)">
        <g transform="matrix(0.928571,0,0,0.928571,10.1237,10.1237)">
            <path d="M803.15,174.803C803.15,156.551 788.331,141.732 770.079,141.732L174.803,141.732C156.551,141.732 141.732,156.551 141.732,174.803L141.732,770.079C141.732,788.331 156.551,803.15 174.803,803.15L770.079,803.15C788.331,803.15 803.15,788.331 803.15,770.079L803.15,174.803Z" style="fill:white;stroke:rgb(179,179,179);stroke-width:4.49px;stroke-dasharray:0,8.97,0,0;"/>
        </g>
        <g transform="matrix(1,1.79628e-16,1.79628e-16,1.97041,23.622,-740.625)">
            <path d="M425.197,755.906L425.197,448.819" style="fill:none;stroke:rgb(179,179,179);stroke-width:2.67px;stroke-dasharray:0,5.33,0,0;"/>
        </g>
        <g transform="matrix(-3.38097e-16,1,-1.95685,-1.37238e-16,1627.55,23.622)">
            <path d="M425.197,755.906L425.197,448.819" style="fill:none;stroke:rgb(179,179,179);stroke-width:2.68px;stroke-dasharray:0,5.36,0,0;"/>
        </g>
    </g>
    <g transform="matrix(1,1.97215e-31,0,1,107.48,-70.8661)">
        <path d="M850.394,188.976L850.394,94.488" style="fill:none;stroke:rgb(128,128,128);stroke-width:4.17px;"/>
    </g>
    <g transform="matrix(1,1.97215e-31,0,1,816.15,-70.8661)">
        <path d="M850.394,188.976L850.394,94.488" style="fill:none;stroke:rgb(128,128,128);stroke-width:4.17px;"/>
    </g>
    <g transform="matrix(1,1.97215e-31,0,1,1524.8,-70.8661)">
        <path d="M850.394,188.976L850.394,94.488" style="fill:none;stroke:rgb(128,128,128);stroke-width:4.17px;"/>
    </g>
    <g transform="matrix(4.72417e-15,1,-1,4.72417e-15,212.598,107.48)">
        <path d="M850.394,188.976L850.394,94.488" style="fill:none;stroke:rgb(128,128,128);stroke-width:4.17px;"/>
    </g>
    <g transform="matrix(4.72417e-15,1,-1,4.72417e-15,212.598,816.15)">
        <path d="M850.394,188.976L850.394,94.488" style="fill:none;stroke:rgb(128,128,128);stroke-width:4.17px;"/>
    </g>
    <g transform="matrix(4.72417e-15,1,-1,4.72417e-15,212.598,1524.8)">
        <path d="M850.394,188.976L850.394,94.488" style="fill:none;stroke:rgb(128,128,128);stroke-width:4.17px;"/>
    </g>
    <g transform="matrix(1,0,0,1,23.622,141.732)">
        <g transform="matrix(1,-0,-0,1,-23.622,-141.732)">
            <path d="M83.366,919.882L70.866,944.882L58.366,919.882C64.616,926.132 77.116,926.132 83.366,919.882Z" style="fill:rgb(128,128,128);"/>
            <path d="M70.866,897.638L70.866,924.882" style="fill:none;stroke:rgb(128,128,128);stroke-width:4.17px;"/>
        </g>
    </g>
    <g transform="matrix(1,0,0,1,23.622,850.394)">
        <g transform="matrix(1,-0,-0,1,-23.622,-850.394)">
            <path d="M83.366,1628.54L70.866,1653.54L58.366,1628.54C64.616,1634.79 77.116,1634.79 83.366,1628.54Z" style="fill:rgb(128,128,128);"/>
            <path d="M70.866,1606.3L70.866,1633.54" style="fill:none;stroke:rgb(128,128,128);stroke-width:4.17px;"/>
        </g>
    </g>
    <g transform="matrix(1,0,0,1,23.622,1559.06)">
        <g transform="matrix(1,-0,-0,1,-23.622,-1559.06)">
            <path d="M83.366,2337.2L70.866,2362.2L58.366,2337.2C64.616,2343.45 77.116,2343.45 83.366,2337.2Z" style="fill:rgb(128,128,128);"/>
            <path d="M70.866,2314.96L70.866,2342.2" style="fill:none;stroke:rgb(128,128,128);stroke-width:4.17px;"/>
        </g>
    </g>
    <g transform="matrix(6.12323e-17,-1,1,6.12323e-17,141.732,118.11)">
        <g transform="matrix(6.12323e-17,1,-1,6.12323e-17,118.11,-141.732)">
            <path d="M919.882,58.366L944.882,70.866L919.882,83.366C926.132,77.116 926.132,64.616 919.882,58.366Z" style="fill:rgb(128,128,128);"/>
            <path d="M897.638,70.866L924.882,70.866" style="fill:none;stroke:rgb(128,128,128);stroke-width:4.17px;"/>
        </g>
    </g>
    <g transform="matrix(6.12323e-17,-1,1,6.12323e-17,850.394,118.11)">
        <g transform="matrix(6.12323e-17,1,-1,6.12323e-17,118.11,-850.394)">
            <path d="M1628.54,58.366L1653.54,70.866L1628.54,83.366C1634.79,77.116 1634.79,64.616 1628.54,58.366Z" style="fill:rgb(128,128,128);"/>
            <path d="M1606.3,70.866L1633.54,70.866" style="fill:none;stroke:rgb(128,128,128);stroke-width:4.17px;"/>
        </g>
    </g>
    <g transform="matrix(6.12323e-17,-1,1,6.12323e-17,1559.06,118.11)">
        <g transform="matrix(6.12323e-17,1,-1,6.12323e-17,118.11,-1559.06)">
            <path d="M2337.2,58.366L2362.2,70.866L2337.2,83.366C2343.45,77.116 2343.45,64.616 2337.2,58.366Z" style="fill:rgb(128,128,128);"/>
            <path d="M2314.96,70.866L2342.2,70.866" style="fill:none;stroke:rgb(128,128,128);stroke-width:4.17px;"/>
        </g>
    </g>
    <g transform="matrix(1.89639,0,0,1.89639,-744.395,-744.395)">
        <path d="M536.408,897.638L876.378,897.638C888.112,897.638 897.638,888.112 897.638,876.378L897.638,536.408" style="fill:none;stroke:rgb(179,179,179);stroke-width:2.2px;stroke-dasharray:10.99,10.99,0,0;"/>
    </g>
    <g transform="matrix(1.89639,0,0,1.89639,-35.7259,-35.7259)">
        <path d="M162.714,897.638L876.378,897.638C888.112,897.638 897.638,888.112 897.638,876.378L897.638,162.714" style="fill:none;stroke:rgb(179,179,179);stroke-width:2.2px;stroke-dasharray:10.99,10.99,0,0;"/>
    </g>
    <g transform="matrix(1.89639,0,0,1.89639,672.928,672.928)">
        <path d="M-230.284,897.638L876.378,897.638C888.112,897.638 897.638,888.112 897.638,876.378L897.015,-230.284" style="fill:none;stroke:rgb(179,179,179);stroke-width:2.2px;stroke-dasharray:10.99,10.99,0,0;"/>
    </g>
    <g transform="matrix(0.869565,0,0,1.33333,350.223,2299.21)">
        <rect x="330.709" y="118.11" width="1629.92" height="70.866" style="fill:rgb(250,250,250);stroke:rgb(128,128,128);stroke-width:1.11px;"/>
    </g>
    <g transform="matrix(0.869565,0,0,1.33333,350.223,-15.748)">
        <rect x="330.709" y="118.11" width="1629.92" height="70.866" style="fill:rgb(250,250,250);stroke:rgb(128,128,128);stroke-width:0.93px;"/>
    </g>
    <g transform="matrix(5.32455e-17,-0.869565,1.33333,8.16431e-17,2299.21,2342.69)">
        <rect x="330.709" y="118.11" width="1629.92" height="70.866" style="fill:rgb(250,250,250);stroke:rgb(128,128,128);stroke-width:0.93px;"/>
    </g>
    <g transform="matrix(5.32455e-17,-0.869565,1.33333,8.16431e-17,-15.748,2342.69)">
        <rect x="330.709" y="118.11" width="1629.92" height="70.866" style="fill:rgb(250,250,250);stroke:rgb(128,128,128);stroke-width:0.93px;"/>
    </g>
</svg>
