<?xml version="1.0" encoding="utf-8"?>
<!-- Generator: Adobe Illustrator 16.0.0, SVG Export Plug-In . SVG Version: 6.00 Build 0)  -->
<!DOCTYPE svg PUBLIC "-//W3C//DTD SVG 1.1//EN" "http://www.w3.org/Graphics/SVG/1.1/DTD/svg11.dtd">
<svg version="1.1" id="Layer_1" xmlns="http://www.w3.org/2000/svg" xmlns:xlink="http://www.w3.org/1999/xlink" x="0px" y="0px"
	 width="566.929px" height="566.93px" viewBox="0 0 566.929 566.93" enable-background="new 0 0 566.929 566.93"
	 xml:space="preserve">
<path fill="#808080" d="M545.995,19.086c-2.46-3.075-15.909-17.876-37.036-3.904c-16.993,11.237-10.593,30.169-10.593,30.169
	l-7.136,7.007l-9.696-7.213l-4.664,3.856l2.399,6.382l4.968,3.841l-13.725,13.474l-11.021-8.955l-3.581,3.301l1.128,8.127
	l6.261,4.61L321.323,217.099c0,0-167.019,13.43-254.595,120.678c-73.992,90.612-6.438,165.614-3.337,168.968
	c3.833,5.168,80.139,105.013,188.514,14.885C358.362,433.095,358.577,237.39,358.577,237.39L491.638,97.199l4.458,4.161
	l10.837,2.483l5.225-5.6l-13.234-8.61l9.28-9.637l6.605,4.008l7.849,2.073l5.158-4.358l-13.018-8.572l5.714-5.934
	c0,0,18.991,6.215,30.063-10.885C564.888,34.218,548.17,20.708,545.995,19.086z M221.795,414.913
	c-37.293,0-67.526-30.231-67.526-67.526c0-37.294,30.233-67.526,67.526-67.526c37.294,0,67.527,30.232,67.527,67.526
	C289.322,384.682,259.089,414.913,221.795,414.913z"/>
<g>
	<line fill="none" stroke="--c-accent" stroke-width="5" x1="159.163" y1="372.667" x2="251.878" y2="286.921"/>
	<line fill="none" stroke="--c-accent" stroke-width="5" x1="171.623" y1="392.578" x2="267.555" y2="297.734"/>
	<line fill="none" stroke="--c-accent" stroke-width="5" x1="188.57" y1="406.183" x2="278.841" y2="311.243"/>
</g>
<path fill="--c-accent" d="M15.549,518.501c0,0,10.666,8.623,25.49,6.476c14.823-2.146,23.477-5.351,25.113-7.702
	c1.635-2.352,0.871-6.192,0.871-6.192l5.739,6.281c0,0,0.187,9.324-1.499,14.663c-2.278,7.218-12.526,27.044-12.526,27.044
	s-3.004,0.409-6.425-1.301c-3.42-1.71-9.979-8.804-9.979-8.804s4.585,0.698,6.747-1.125c15.641-13.187,16.254-20.14,16.254-20.14
	s-40.174,14.007-43.241,13.495c-3.067-0.513-4.499-6.135-5.418-9.099C15.754,529.133,15.549,518.501,15.549,518.501z"/>
</svg>
