<?xml version="1.0" encoding="UTF-8" standalone="no"?>
<!DOCTYPE svg PUBLIC "-//W3C//DTD SVG 1.1//EN" "http://www.w3.org/Graphics/SVG/1.1/DTD/svg11.dtd">
<svg width="100%" height="100%" viewBox="0 0 134 134" version="1.1" xmlns="http://www.w3.org/2000/svg" xmlns:xlink="http://www.w3.org/1999/xlink" xml:space="preserve" xmlns:serif="http://www.serif.com/" style="fill-rule:evenodd;clip-rule:evenodd;stroke-linejoin:round;stroke-miterlimit:2;">
    <g transform="matrix(1.19934,0,0,1.19934,-13.808,-8.50685)">
        <g transform="matrix(1.17585,0,0,1.14417,-16.0064,-9.95987)">
            <path fill="--c-accent" d="M43.665,44.57C42.347,44.861 40.97,45.379 39.775,46.269C36.061,49.036 37.299,51.221 35.114,52.531C32.93,53.842 31.376,51.512 31.862,49.327C32.347,47.143 35.187,44.157 39.993,42.774C41.478,42.346 42.901,42.105 44.159,41.975L44.158,41.975C44.158,41.975 46.328,35.711 46.692,32.07C46.907,29.921 46.665,27.62 46.431,26.095C44.448,25.149 43.077,23.125 43.077,20.784C43.077,17.539 45.712,14.904 48.957,14.904C52.203,14.904 54.837,17.539 54.837,20.784C54.837,23.125 53.466,25.149 51.483,26.095C51.249,27.62 51.008,29.921 51.222,32.07C51.578,35.63 53.573,41.699 53.661,41.966C54.943,42.093 56.401,42.336 57.922,42.774C62.728,44.157 65.568,47.143 66.053,49.327C66.538,51.512 64.985,53.842 62.8,52.531C60.616,51.221 61.854,49.036 58.14,46.269C56.945,45.379 55.568,44.862 54.25,44.57L48.957,112.459L43.665,44.57Z"/>
        </g>
        <g transform="matrix(1.60018,0,0,1.60018,-36.7803,-31.7668)">
            <path fill="#808080" d="M42.987,52.217C37.148,53.876 32.293,57.484 31.889,57.789L31.862,57.789L31.862,94.039L31.889,94.039C32.355,93.686 38.763,88.926 45.766,87.853L42.987,52.217ZM54.904,52.511L52.136,88.027C58.748,89.361 64.592,93.703 65.037,94.039L65.091,94.039C65.617,93.641 73.696,87.64 81.665,87.64C89.634,87.64 97.713,93.641 98.239,94.039L98.266,94.039L98.266,57.789L98.239,57.789C97.713,57.392 89.634,51.39 81.665,51.39C73.696,51.39 65.617,57.392 65.091,57.789L65.037,57.789C64.655,57.501 60.305,54.268 54.904,52.511Z"/>
        </g>
    </g>
</svg>
