<?xml version="1.0" encoding="utf-8"?>
<!-- Generator: Adobe Illustrator 16.0.0, SVG Export Plug-In . SVG Version: 6.00 Build 0)  -->
<!DOCTYPE svg PUBLIC "-//W3C//DTD SVG 1.1//EN" "http://www.w3.org/Graphics/SVG/1.1/DTD/svg11.dtd">
<svg version="1.1" id="Layer_1" xmlns="http://www.w3.org/2000/svg" xmlns:xlink="http://www.w3.org/1999/xlink" x="0px" y="0px"
	 width="56.69px" height="28.35px" viewBox="0 0 56.69 28.35" enable-background="new 0 0 56.69 28.35" xml:space="preserve">
<path fill-rule="evenodd" clip-rule="evenodd" fill="#808080" d="M40.546,0.818c1.662,1.227,1.99,3.114,2.437,4.94
	c0.036,0.146,0.04,0.333-0.02,0.464c-0.49,1.078-0.189,2.088,0.221,3.099c0.076,0.188,0.088,0.402,0.12,0.557
	c1.307-0.123,2.585-0.222,3.854-0.383c0.247-0.031,0.549-0.255,0.678-0.477c0.498-0.856,1.137-1.384,2.186-1.163
	c1.071,0.227,1.724,1.093,1.793,1.978c0.104,1.31,0.31,2.601,0.431,3.901c0.142,1.526-1.01,2.291-2.209,2.861
	c-0.552,0.262-0.675,0.556-0.542,1.106c0.517,2.149,1.013,4.304,1.509,6.458c0.077,0.331,0.18,0.675,0.159,1.006
	c-0.035,0.546-0.177,0.927-0.929,0.974c-0.865,0.055-1.7,0.499-2.568,0.61c-0.607,0.078-1.25-0.119-1.906-0.197
	c0.102,0.804-0.674,0.822-1.319,0.95c-1.336,0.265-2.676,0.513-4.02,0.737c-0.665,0.111-1.295,0.145-1.549-0.744
	c-0.1-0.351-0.463-0.626-0.746-0.987c-0.232,0.291-0.371,0.446-0.488,0.616c-0.67,0.97-0.898,1.063-2.029,0.756
	c-0.955-0.259-1.925-0.484-2.845-0.837c-0.27-0.103-0.556-0.593-0.551-0.9c0.016-0.996,0.18-1.989,0.256-2.986
	c0.096-1.255,0.162-2.512,0.08-3.826c-0.283,0.656-0.556,1.318-0.855,1.968c-0.066,0.144-0.229,0.244-0.346,0.365
	c-0.114-0.152-0.288-0.288-0.332-0.458c-0.209-0.809-0.384-1.626-0.566-2.441c-0.046-0.204-0.088-0.411-0.109-0.619
	c-0.146-1.393,0.57-1.983,1.854-1.419c0.378,0.167,0.574,0.746,0.811,1.077c0.277,0,0.67-0.115,0.83,0.028
	c0.207,0.187,0.319,0.581,0.312,0.882c-0.015,0.657-0.11,1.314-0.215,1.966c-0.069,0.434,0.059,0.644,0.506,0.689
	c1.673,0.173,3.343,0.467,5.019,0.503c1.082,0.022,2.196-0.236,3.253-0.529c1.67-0.463,3.302-1.066,4.953-1.599
	c0.596-0.191,0.872-0.523,0.701-1.18c-0.159-0.61-0.335-1.232-0.366-1.855c-0.035-0.702-0.385-0.92-0.997-0.929
	c-0.264-0.003-0.535,0.037-0.79-0.013c-0.453-0.09-0.896-0.233-1.343-0.354c0.012-0.07,0.022-0.141,0.034-0.211
	c-0.17,0.062-0.336,0.137-0.51,0.181c-0.974,0.243-1.624,0.552-1.441,1.874c0.077,0.563-0.822,1.263-1.395,2.064
	c-0.422-1.234-0.747-2.184-1.072-3.133c-0.128,0.031-0.256,0.062-0.384,0.092c0.088,1.002,0.113,2.016,0.288,3.002
	c0.105,0.598-0.143,0.814-0.591,1.018c-0.561,0.254-0.58-0.189-0.734-0.518c-0.646-1.376-1.913-1.781-3.261-2.041
	c-0.205-0.04-0.43,0.016-0.63-0.035c-0.631-0.158-1.156-0.225-0.989-1.242c0.217-1.316-0.11-2.663-0.894-4.08
	c0.489,0.277,0.831,0.403,1.086,0.627c0.832,0.729,1.425,0.654,2.349-0.206c0.607-0.566,0.954-1.413,1.417-2.134
	c-0.05-0.084-0.101-0.168-0.15-0.253c-0.437,0.082-0.891,0.112-1.307,0.255c-1.02,0.353-2.042,0.71-3.021,1.158
	c-0.58,0.265-0.933,0.207-1.121-0.21c0.395-0.749,0.658-1.449,1.097-2.017c0.331-0.428,0.84-0.787,1.345-1.001
	c1.748-0.745,2.016-2.031,1.492-3.219c-0.109,0.082-0.283,0.145-0.299,0.234c-0.199,1.197-1.161,1.634-2.107,1.934
	c-1.252,0.397-1.771,1.298-2.094,2.431c-0.076,0.269-0.161,0.536-0.211,0.7c-1.027-0.49-1.989-1.304-2.957-1.311
	c-0.942-0.007-1.89,0.813-2.954,1.326c-0.147-0.526-0.415-1.178-0.488-1.851c-0.045-0.411-0.16-0.606-0.512-0.747
	c-0.584-0.233-1.184-0.444-1.731-0.748C22.481,7,21.893,6.556,21.246,6.127c-0.436,0.391-0.493,0.845,0.058,1.402
	c0.378,0.382,0.833,0.781,1.327,0.938c0.961,0.304,1.336,1.029,1.69,1.841c0.117,0.269,0.34,0.489,0.478,0.751
	c0.103,0.195,0.255,0.558,0.194,0.607c-0.19,0.152-0.514,0.318-0.711,0.253c-0.999-0.331-1.965-0.755-2.959-1.101
	c-0.552-0.192-1.134-0.295-1.702-0.438c-0.073,0.093-0.145,0.186-0.217,0.278c0.585,0.81,1.066,1.731,1.782,2.4
	c0.972,0.908,1.879,0.047,2.733-0.489c-0.22,1.622-0.43,3.171-0.662,4.887c-0.674,0.155-1.585,0.342-2.483,0.581
	c-1.085,0.288-1.988,0.804-2.339,1.992c-0.043,0.146-0.489,0.338-0.563,0.278c-0.269-0.217-0.635-0.525-0.644-0.81
	c-0.024-0.783,0.122-1.57,0.183-2.356c0.019-0.247-0.018-0.498-0.029-0.748c-0.104-0.024-0.207-0.049-0.31-0.074
	c-0.287,0.879-0.574,1.756-0.92,2.817c-0.328-0.301-0.677-0.536-0.914-0.855c-0.449-0.605-0.919-0.603-1.682-0.639
	c-1.678-0.08-1.975,1.03-2.574,2.072c-0.927,1.611-3.092,1.587-3.95-0.058c-0.282-0.542-0.406-1.286-0.301-1.885
	c0.229-1.305,0.185-2.412-0.813-3.456c-0.396-0.415-0.544-1.213-0.539-1.835c0.009-1.107,0.5-2.095,1.291-2.887
	c0.968-0.967,2.257-0.929,3.177,0.131c0.353,0.408,0.705,0.582,1.223,0.534c0.551-0.051,1.105-0.064,1.658-0.086
	c1.609-0.061,1.798-0.296,2.049-1.938c0.105-0.687,0.017-1.3-0.063-1.967c-0.089-0.749,0.108-1.565,0.324-2.31
	c0.36-1.242,0.925-2.391,2.061-3.143c0.053,0,0.105,0,0.158,0c0.313,0.128,0.623,0.267,0.939,0.384
	C19.53,1.697,21,1.892,22.063,3.012c1.022-0.657,2.11-0.698,3.272-0.606c1.986,0.157,3.999,0.372,5.969,0.201
	c1.511-0.131,2.949-0.46,4.154,0.323c0.612-0.346,1.057-0.663,1.549-0.861c1.114-0.448,2.252-0.837,3.38-1.25
	C40.44,0.818,40.493,0.818,40.546,0.818z M48.767,20.267c-0.741,0.384-1.281,0.759-1.881,0.956
	c-1.862,0.614-3.729,1.232-5.631,1.704c-0.947,0.234-1.978,0.244-2.962,0.195c-1.31-0.065-2.611-0.286-3.917-0.44
	c-0.493-0.059-0.651,0.196-0.658,0.65c-0.008,0.525,0.011,1.065-0.101,1.573c-0.164,0.743,0.17,1.093,0.81,1.282
	c0.277,0.082,0.564,0.135,0.842,0.218c1.539,0.462,1.582,0.492,2.456-0.819c0.818-1.229,1.334-0.971,2.058,0.017
	c0.118,0.162,0.206,0.368,0.241,0.565c0.12,0.681,0.482,0.886,1.128,0.654c0.545-0.194,1.089-0.411,1.65-0.538
	c1.104-0.249,2.229-0.385,2.646-1.725c0.123-0.395,0.474-0.445,0.768-0.018c0.205,0.298,0.462,0.568,0.733,0.81
	c0.652,0.578,1.249-0.02,1.842-0.181c0.112-0.03,0.091-0.624,0.1-0.959c0.017-0.711,0.034-1.422,0.012-2.132
	C48.882,21.442,48.809,20.805,48.767,20.267z M11.848,11.715c-0.244,0.072-0.501,0.122-0.736,0.223
	c-1.11,0.48-1.751,0.279-2.435-0.7c-0.085-0.122-0.539-0.155-0.669-0.047c-0.538,0.446-0.813,1.061-0.593,1.752
	c0.19,0.596,0.651,0.894,1.316,0.909c0.308,0.007,0.611,0.188,1.038,0.331c-0.41,0.685-0.643,1.353-1.103,1.771
	c-0.649,0.591-0.568,1.26-0.493,1.949C8.223,18.356,8.431,18.77,9,18.799c0.549,0.027,1.02-0.061,1.354-0.59
	c0.4-0.634,0.892-1.209,1.295-1.841c0.197-0.309,0.4-0.689,0.396-1.035C12.031,14.163,11.925,12.993,11.848,11.715z M46.714,12.604
	c-0.033,0.934,0.437,1.906,1.159,2.138c0.933,0.298,1.872,0.636,2.869,0.066c0.648-0.369,0.771-0.85,0.18-1.321
	c-0.203-0.162-0.418-0.343-0.658-0.417c-0.541-0.167-0.594-0.444-0.302-0.879c0.13-0.194,0.266-0.398,0.336-0.618
	c0.274-0.853-0.363-1.756-1.146-1.649C48.034,10.078,46.755,11.485,46.714,12.604z M37.628,4.622
	c1.086,0.505,1.91,0.894,2.738,1.273c0.407,0.187,0.684,0.078,0.694-0.398c0.021-0.892,0.051-1.787,0.003-2.676
	c-0.034-0.637-0.381-0.815-0.883-0.424C39.331,3.059,38.549,3.81,37.628,4.622z M19.946,4.657c-0.84-0.784-1.588-1.509-2.374-2.192
	c-0.167-0.146-0.529-0.249-0.696-0.164c-0.166,0.084-0.27,0.427-0.278,0.661c-0.03,0.813-0.015,1.626-0.002,2.439
	c0.007,0.471,0.197,0.7,0.698,0.468C18.12,5.485,18.952,5.11,19.946,4.657z M15.309,13.899c-0.645,0.464-1.148,0.827-1.747,1.257
	c-0.053-0.315-0.13-0.539-0.12-0.758c0.027-0.574,0.1-1.146,0.138-1.72c0.027-0.405,0.131-0.887-0.594-0.805
	c-0.021,0.12-0.063,0.222-0.051,0.318c0.138,1.114,0.268,2.23,0.45,3.337c0.023,0.142,0.323,0.326,0.503,0.337
	C14.924,15.925,15.329,15.435,15.309,13.899z M44.02,11.459c0.069,0.727,0.08,1.253,0.187,1.759c0.04,0.192,0.294,0.473,0.456,0.476
	c0.306,0.007,0.851-0.107,0.883-0.259c0.128-0.604,0.227-1.282,0.05-1.842C45.536,11.409,44.61,11.499,44.02,11.459z M31.12,19.467
	c0.102,0.041,0.204,0.082,0.306,0.123c0.188-0.485,0.417-0.961,0.545-1.462c0.049-0.195-0.127-0.447-0.2-0.674
	c-0.217,0.182-0.576,0.335-0.621,0.553C31.054,18.476,31.12,18.978,31.12,19.467z M42.188,14.19
	c0.114,0.424,0.229,0.848,0.389,1.437C43.13,14.52,43.118,14.464,42.188,14.19z"/>
<path fill-rule="evenodd" clip-rule="evenodd" fill="#808080" d="M31.868,16.136c-0.922,0.028-1.909-0.17-2.568,0.809
	c-0.107,0.159-0.833,0.17-0.942,0.015c-0.71-1.005-1.751-0.883-2.722-0.847c-1.492,0.055-1.29-0.05-1.213-1.362
	c0.036-0.609,0.271-1.223,0.511-1.793c0.063-0.15,0.545-0.277,0.733-0.191c0.546,0.247,1.063,0.577,1.551,0.93
	c1.083,0.783,2.111,0.791,3.171,0.019c0.442-0.324,0.959-0.549,1.394-0.882c0.568-0.437,0.953-0.149,1.082,0.345
	c0.211,0.807,0.291,1.653,0.359,2.488c0.011,0.143-0.292,0.393-0.491,0.451C32.466,16.196,32.158,16.136,31.868,16.136z"/>
<path fill-rule="evenodd" clip-rule="evenodd" fill="#808080" d="M20.749,22.39c-0.1,1.714-0.026,3.475-1.034,4.986
	c-0.295,0.441-0.708,0.839-1.146,1.143c-0.428,0.296-1.127-0.064-1.343-0.553c-0.638-1.442-0.23-2.783,0.489-4.025
	c0.529-0.914,1.229-1.733,1.896-2.56c0.172-0.213,0.513-0.288,0.776-0.427c0.121,0.294,0.265,0.581,0.354,0.885
	C20.789,22.009,20.749,22.206,20.749,22.39z M18.499,26.064c0.671,0.075,0.883-0.529,0.749-2.008
	C18.999,24.722,18.751,25.389,18.499,26.064z"/>
<path fill-rule="evenodd" clip-rule="evenodd" fill="#808080" d="M21.759,25.423c0.161-1.709,0.269-3.25,1.393-4.456
	c0.142-0.152,0.366-0.297,0.558-0.306c0.103-0.004,0.253,0.275,0.324,0.45c0.445,1.09,0.819,2.214,1.326,3.274
	c0.438,0.916-0.081,2.05-1.051,2.608c-0.565,0.325-1.87-0.031-2.313-0.698C21.807,26.013,21.805,25.606,21.759,25.423z
	 M24.355,23.328c-0.108,0.006-0.217,0.012-0.325,0.019c-0.09,0.544-0.22,1.086-0.25,1.634c-0.01,0.185,0.231,0.383,0.358,0.575
	c0.193-0.157,0.56-0.329,0.548-0.47C24.638,24.495,24.476,23.913,24.355,23.328z"/>
<path fill-rule="evenodd" clip-rule="evenodd" fill="#808080" d="M31.381,12.122c-0.332,0.054-0.649,0.203-0.763,0.108
	c-0.63-0.531-0.741,0.001-0.905,0.405c-0.056,0.139,0.032,0.359-0.048,0.46c-0.242,0.303-0.522,0.771-0.812,0.788
	c-0.29,0.018-0.657-0.389-0.896-0.686c-0.145-0.179-0.103-0.504-0.16-0.76c-0.103-0.458-0.279-0.667-0.742-0.283
	c-0.125,0.104-0.404,0.022-0.613,0.025c0.031-0.218-0.018-0.52,0.106-0.638c0.511-0.483,1.029-1,1.639-1.325
	c0.339-0.182,0.941-0.155,1.292,0.029c0.566,0.299,1.032,0.797,1.521,1.231C31.127,11.589,31.185,11.78,31.381,12.122z"/>
<path fill-rule="evenodd" clip-rule="evenodd" fill="#808080" d="M26.387,21.704c-0.213-0.238-0.382-0.357-0.455-0.52
	c-0.37-0.834-0.826-1.654-1.029-2.531c-0.125-0.539-0.042-1.359,0.301-1.706c0.324-0.327,1.107-0.232,1.69-0.244
	c0.114-0.003,0.335,0.354,0.336,0.546c0.002,0.591-0.024,1.192-0.142,1.77C26.914,19.872,26.652,20.708,26.387,21.704z
	 M26.166,19.654c0.115-0.022,0.23-0.046,0.345-0.068c-0.034-0.583-0.022-1.174-0.132-1.741c-0.031-0.161-0.417-0.253-0.639-0.376
	c-0.054,0.2-0.192,0.425-0.144,0.597C25.748,18.605,25.971,19.125,26.166,19.654z"/>
</svg>
