<?xml version="1.0" standalone="no"?>
<svg width="auto" height="auto" xmlns="http://www.w3.org/2000/svg">
	<svg x="0" y="0" width="51%" height="30" viewBox="0 0 2000 30" preserveAspectRatio="xMinYMid slice">
	<path fill="#909090" d="M2000,30V0H12.074C8.74,4.375,0,0,0,0s4.334,8.75,0,12.164V30H2000z"/>
	<path fill="#FFFFFF" d="M6.896,10.28C7.448,9.729,6.71,6.785,5.79,5.863c0.921,0.922,3.866,1.66,4.418,1.107
	c-0.552,0.553,0.188,3.498,1.108,4.42C10.395,10.469,7.448,9.729,6.896,10.28z"/>
	</svg>

	<svg x="49%" y="0" width="51%" height="30" viewBox="0 0 2000 30" preserveAspectRatio="xMaxYMid slice">
	<path fill="#909090" d="M0,30V0h1987.926C1991.26,4.375,2000,0,2000,0s-4.334,8.75,0,12.164V30H0z"/>
	<path fill="#FFFFFF" d="M1993.104,10.28c-0.553-0.551,0.185-3.496,1.106-4.417c-0.922,0.921-3.867,1.659-4.418,1.107
	c0.551,0.552-0.188,3.498-1.109,4.419C1989.605,10.469,1992.552,9.729,1993.104,10.28z"/>
	</svg>
</svg>
