<?xml version="1.0" encoding="utf-8"?>
<!-- Generator: Adobe Illustrator 16.0.0, SVG Export Plug-In . SVG Version: 6.00 Build 0)  -->
<!DOCTYPE svg PUBLIC "-//W3C//DTD SVG 1.1//EN" "http://www.w3.org/Graphics/SVG/1.1/DTD/svg11.dtd">
<svg version="1.1" id="Layer_1" xmlns="http://www.w3.org/2000/svg" xmlns:xlink="http://www.w3.org/1999/xlink" x="0px" y="0px"
	 width="42.52px" height="28.35px" viewBox="0 0 42.52 28.35" enable-background="new 0 0 42.52 28.35" xml:space="preserve">
<path fill="#808080" d="M34.432,8.087c-3.902-3.902-6.087-8.086-6.087-8.086c-0.002,0.004-2.164,4.141-6.024,8.022
	c0.021,0.021,0.038,0.043,0.061,0.064c3.9,3.902,8.086,6.086,8.086,6.086s-4.182,2.183-8.088,6.086
	c-0.021,0.021-0.038,0.041-0.059,0.063c3.857,3.88,6.024,8.024,6.024,8.024s2.188-4.188,6.087-8.088
	c3.904-3.903,8.087-6.086,8.087-6.086S38.333,11.989,34.432,8.087z"/>
<g>
	<path fill="#808080" d="M18.531,21.082c-2.283,2.486-3.779,4.898-4.366,5.918c-0.594-1.023-2.106-3.457-4.361-5.918
		c-0.141,0.162-0.279,0.322-0.424,0.486c2.861,3.137,4.486,6.203,4.504,6.236l0.283,0.543l0.283-0.543
		c0.018-0.033,1.633-3.096,4.502-6.238C18.808,21.404,18.669,21.244,18.531,21.082z"/>
	<path fill="#808080" d="M9.802,7.267c2.281-2.486,3.777-4.897,4.365-5.919c0.594,1.025,2.106,3.458,4.362,5.919
		c0.141-0.162,0.279-0.322,0.424-0.485c-2.861-3.137-4.487-6.205-4.504-6.238l-0.283-0.542l-0.283,0.542
		c-0.018,0.035-1.634,3.096-4.502,6.239C9.523,6.944,9.663,7.105,9.802,7.267z"/>
	<path fill="#808080" d="M21.076,9.812c2.487,2.281,4.901,3.775,5.923,4.363c-1.027,0.594-3.461,2.106-5.923,4.36
		c0.164,0.139,0.322,0.279,0.484,0.424c3.14-2.861,6.208-4.486,6.241-4.503l0.543-0.283l-0.543-0.284
		c-0.033-0.017-3.096-1.632-6.241-4.501C21.398,9.532,21.236,9.673,21.076,9.812z"/>
</g>
<g>
	<path fill="#808080" d="M8.245,10.975c1.974,1.625,3.741,2.719,4.576,3.2c-0.838,0.484-2.614,1.588-4.574,3.198
		c0.168,0.131,0.338,0.266,0.51,0.405c2.604-2.122,4.839-3.308,4.867-3.322l0.543-0.283l-0.543-0.284
		c-0.028-0.014-2.261-1.194-4.868-3.319C8.583,10.708,8.413,10.843,8.245,10.975z"/>
	<path fill="#808080" d="M7.266,9.813c-2.487,2.281-4.901,3.775-5.923,4.363c1.027,0.594,3.461,2.106,5.923,4.36
		c-0.164,0.139-0.322,0.279-0.484,0.424c-3.14-2.861-6.208-4.486-6.241-4.503l-0.543-0.283l0.543-0.284
		c0.033-0.017,3.096-1.632,6.241-4.501C6.944,9.533,7.106,9.674,7.266,9.813z"/>
</g>
</svg>
