<?xml version="1.0" encoding="utf-8"?>
<!-- Generator: Adobe Illustrator 16.0.0, SVG Export Plug-In . SVG Version: 6.00 Build 0)  -->
<!DOCTYPE svg PUBLIC "-//W3C//DTD SVG 1.1//EN" "http://www.w3.org/Graphics/SVG/1.1/DTD/svg11.dtd">
<svg version="1.1" id="Layer_1" xmlns="http://www.w3.org/2000/svg" xmlns:xlink="http://www.w3.org/1999/xlink" x="0px" y="0px"
	 width="28.35px" height="28.35px" viewBox="0 0 28.35 28.35" enable-background="new 0 0 28.35 28.35" xml:space="preserve">
<g>
	<path fill="#808080" d="M8.985,8.45C8.948,8.412,8.912,8.373,8.874,8.335c-0.111,0.113-0.217,0.228-0.33,0.341
		C8.504,8.715,8.465,8.752,8.425,8.79c0.036,0.037,0.072,0.074,0.108,0.111c2.763,2.764,5.716,4.601,6.873,5.271
		c-1.157,0.67-4.108,2.507-6.873,5.271c-0.037,0.037-0.072,0.073-0.108,0.111c0.04,0.038,0.079,0.074,0.119,0.114
		c0.113,0.112,0.219,0.228,0.33,0.341c0.038-0.039,0.073-0.077,0.111-0.115c3.446-3.446,7.186-5.42,7.223-5.439l0.543-0.283
		l-0.543-0.283C16.171,13.87,12.433,11.898,8.985,8.45z"/>
	<path fill="#808080" d="M14.173,28.348l-0.566-1.08c-0.019-0.037-1.976-3.743-5.38-7.147c-3.42-3.422-7.105-5.361-7.142-5.381
		l-1.083-0.565l1.081-0.567c0.037-0.019,3.738-1.976,7.144-5.382c3.376-3.378,5.3-6.994,5.381-7.146l0.566-1.076l0.566,1.076
		c0.018,0.037,1.974,3.739,5.379,7.146c3.413,3.414,7.107,5.362,7.145,5.381l1.084,0.566l-1.084,0.566
		c-0.035,0.02-3.735,1.973-7.145,5.383c-3.403,3.404-5.361,7.109-5.379,7.146L14.173,28.348z M2.665,14.173
		c1.378,0.832,3.976,2.555,6.465,5.044c2.495,2.496,4.214,5.093,5.043,6.469c0.829-1.376,2.548-3.972,5.044-6.468
		c2.497-2.499,5.09-4.217,6.465-5.046c-1.375-0.829-3.97-2.547-6.465-5.045C16.72,6.629,15,4.032,14.171,2.658
		c-0.834,1.38-2.564,3.991-5.042,6.469C6.634,11.625,4.04,13.344,2.665,14.173z"/>
</g>
</svg>
