<?xml version="1.0" encoding="utf-8"?>
<!-- Generator: Adobe Illustrator 16.0.0, SVG Export Plug-In . SVG Version: 6.00 Build 0)  -->
<!DOCTYPE svg PUBLIC "-//W3C//DTD SVG 1.1//EN" "http://www.w3.org/Graphics/SVG/1.1/DTD/svg11.dtd">
<svg version="1.1" id="Layer_1" xmlns="http://www.w3.org/2000/svg" xmlns:xlink="http://www.w3.org/1999/xlink" x="0px" y="0px"
	 width="28.35px" height="28.35px" viewBox="0 0 28.35 28.35" enable-background="new 0 0 28.35 28.35" xml:space="preserve">
<g>
	<path fill="#707070" d="M23.749,25.36c0.294,1.167-0.685,3.167-2.023,2.693c-0.711-0.076-0.703-0.873-0.842-1.519
		c-1.913-1.171-4.023-2.149-6.06-3.198c-1.468,0.865-5.591,1.735-7.242,3.198c-0.602,0.538-0.786,1.696-1.683,1.684
		c-0.944-0.008-1.418-1.282-1.344-2.188c2.813-1.112,5.569-2.283,8.416-3.365c-1.826-1.161-3.743-3.019-6.566-2.191
		c-0.333-0.337-0.797-0.55-1.008-1.009c0.407-1.105,0.31-2.719,2.017-2.524c1.051,1.485,2.385,2.284,4.378,3.368
		c2.47,1.341,2.677,1.493,5.388,0.165c1.802-0.879,3.185-1.232,3.873-3.028c1.216,0.468,2.377,0.989,2.523,2.523
		c-0.354,0.652-1.713,0.936-2.356,0.34c-1.634,0.666-3.082,1.519-4.712,2.188C18.784,23.688,21.093,25,23.749,25.36z"/>
	<path fill="#707070" d="M8.258,2.629c4.783-4.9,15.206-2.39,13.301,5.723c-0.275,1.167-1.703,2.31-1.012,4.377
		c-0.311,0.028-0.104,0.57-0.335,0.675c-1.618,0.346-3.465,0.463-3.538,2.356c-0.54,0.148-0.228-0.555-0.67-0.505
		c-0.381,0.07,0.024,0.923-0.505,0.844c-0.662-0.474-0.521-0.474-1.18,0c-0.197-0.679-0.499-0.745-1.009-0.339
		c-0.262-0.246-0.151-0.861-0.169-1.347c-0.614-0.107-0.208,0.803-0.673,0.842c-1.069-0.555-1.208-2.169-3.369-2.021
		C8.771,9.473,5.941,6.148,8.258,2.629z M16.339,9.027c-0.368,3.558,4.729,1.451,2.861-0.674
		C17.981,8.313,16.801,8.311,16.339,9.027z M15.667,12.562c0.035-0.13,0.139-0.194,0.337-0.167
		c-0.021-1.324-0.786-1.909-1.516-2.525c-0.448,0.78-1.195,1.604-0.842,2.692c0.899,0.284,0.73-0.503,1.347-0.503
		C14.941,12.502,15.344,12.492,15.667,12.562z M12.804,10.708c0.157-0.459,0.517-0.715,0.672-1.177
		c-0.725-1.411-2.688-1.65-3.702-0.337c0.088,0.473,0.246,0.877,0.335,1.348C11.181,10.426,11.732,10.827,12.804,10.708z"/>
	<path fill="#707070" d="M18.192,14.582c1.972,5.151-6.238,6.728-7.746,2.358c0.246-0.633,0.246-1.891,0-2.526
		c1.055,0.01,0.313,1.821,1.011,2.191c0.4,0.095-0.481-1.008,0.336-0.844c0,0.339,0,0.674,0,1.009
		c0.443,0.052,0.554-0.233,0.506-0.67c0.452,0.649,1.226-0.033,1.347,0.84c0.692-0.056,1.042-0.651,1.347,0.168
		c0.346-0.048,0.335-0.451,0.507-0.673c0.549,0.708,1.093-0.502,1.345,0.505C17.204,16.18,17.741,15.612,18.192,14.582z"/>
</g>
</svg>
