<?xml version="1.0" encoding="utf-8"?>
<!-- Generator: Adobe Illustrator 16.0.0, SVG Export Plug-In . SVG Version: 6.00 Build 0)  -->
<!DOCTYPE svg PUBLIC "-//W3C//DTD SVG 1.1//EN" "http://www.w3.org/Graphics/SVG/1.1/DTD/svg11.dtd">
<svg version="1.1" id="Layer_1" xmlns="http://www.w3.org/2000/svg" xmlns:xlink="http://www.w3.org/1999/xlink" x="0px" y="0px"
	 width="56.69px" height="28.35px" viewBox="0 0 56.69 28.35" enable-background="new 0 0 56.69 28.35" xml:space="preserve">
<g>
	<g>
		<path fill="#808080" d="M46.879,21.082c-2.283,2.486-3.777,4.898-4.365,5.918c-0.594-1.023-2.105-3.457-4.361-5.918
			c-0.141,0.162-0.279,0.322-0.424,0.486c2.861,3.137,4.486,6.203,4.504,6.236l0.283,0.543l0.283-0.543
			c0.018-0.033,1.635-3.096,4.502-6.238C47.158,21.404,47.018,21.244,46.879,21.082z"/>
		<path fill="#808080" d="M38.15,7.266c2.283-2.486,3.777-4.897,4.365-5.919c0.594,1.025,2.105,3.458,4.361,5.919
			c0.141-0.162,0.279-0.322,0.424-0.485c-2.861-3.137-4.486-6.205-4.504-6.238l-0.283-0.542L42.23,0.542
			c-0.018,0.035-1.633,3.096-4.502,6.239C37.871,6.944,38.012,7.105,38.15,7.266z"/>
		<path fill="#808080" d="M49.424,9.811c2.486,2.281,4.9,3.775,5.922,4.363c-1.025,0.594-3.459,2.107-5.922,4.361
			c0.164,0.139,0.324,0.279,0.486,0.424c3.137-2.861,6.205-4.487,6.238-4.503l0.543-0.283l-0.543-0.284
			c-0.033-0.017-3.096-1.632-6.238-4.501C49.748,9.532,49.586,9.672,49.424,9.811z"/>
	</g>
	<g>
		<path fill="#808080" d="M32.703,21.082C30.42,23.568,28.924,25.98,28.337,27c-0.594-1.023-2.106-3.457-4.361-5.918
			c-0.141,0.162-0.279,0.322-0.424,0.486c2.861,3.137,4.486,6.203,4.504,6.236l0.283,0.543l0.283-0.543
			c0.018-0.033,1.633-3.096,4.502-6.238C32.98,21.404,32.842,21.244,32.703,21.082z"/>
		<path fill="#808080" d="M23.974,7.266c2.281-2.486,3.777-4.897,4.365-5.919c0.594,1.025,2.106,3.458,4.362,5.919
			c0.141-0.162,0.279-0.322,0.424-0.485c-2.861-3.137-4.487-6.205-4.504-6.238l-0.283-0.542l-0.283,0.542
			c-0.018,0.035-1.634,3.096-4.502,6.239C23.696,6.944,23.835,7.105,23.974,7.266z"/>
		<path fill="#808080" d="M35.248,9.811c2.486,2.281,4.9,3.775,5.922,4.363c-1.027,0.594-3.461,2.107-5.922,4.361
			c0.164,0.139,0.322,0.279,0.484,0.424c3.139-2.861,6.207-4.487,6.24-4.503l0.543-0.283l-0.543-0.284
			c-0.033-0.017-3.096-1.632-6.24-4.501C35.57,9.532,35.408,9.672,35.248,9.811z"/>
	</g>
	<path fill="#808080" d="M-0.001,14.172c0.01,0.006,3.504,1.837,7.085,5.13c3.585-3.299,7.086-5.13,7.086-5.13
		s-3.504-1.833-7.086-5.129C3.5,12.339-0.001,14.172-0.001,14.172z"/>
	<path fill="#808080" d="M20.256,8.088c-3.901-3.9-6.087-8.083-6.087-8.083c-0.002,0.004-2.164,4.14-6.024,8.019
		c0.021,0.021,0.04,0.043,0.061,0.064c3.9,3.9,8.086,6.084,8.086,6.084s-4.183,2.183-8.087,6.085
		c-0.021,0.021-0.04,0.041-0.06,0.063c3.859,3.879,6.024,8.021,6.024,8.021s2.188-4.186,6.086-8.084
		c3.904-3.902,8.086-6.085,8.086-6.085S24.157,11.989,20.256,8.088z"/>
</g>
</svg>
