<?xml version="1.0" encoding="utf-8"?>
<!-- Generator: Adobe Illustrator 16.0.0, SVG Export Plug-In . SVG Version: 6.00 Build 0)  -->
<!DOCTYPE svg PUBLIC "-//W3C//DTD SVG 1.1//EN" "http://www.w3.org/Graphics/SVG/1.1/DTD/svg11.dtd">
<svg version="1.1" id="Layer_1" xmlns="http://www.w3.org/2000/svg" xmlns:xlink="http://www.w3.org/1999/xlink" x="0px" y="0px"
	 width="28.35px" height="28.35px" viewBox="0 0 28.35 28.35" enable-background="new 0 0 28.35 28.35" xml:space="preserve">
<g>
	<path fill="#808080" d="M10.406,19.001c-1.968-2.179-4.017-3.814-5.431-4.826c1.41-1.009,3.454-2.641,5.431-4.829
		c0.262-0.29,0.515-0.581,0.759-0.872c-0.023-0.026-0.047-0.05-0.071-0.076c-0.572-0.634-1.098-1.274-1.583-1.902
		C9.247,6.813,8.977,7.133,8.691,7.449c-3.165,3.501-6.607,5.517-6.641,5.537l-2.048,1.188l2.047,1.189
		c0.141,0.081,3.484,2.042,6.642,5.535c0.286,0.316,0.556,0.636,0.821,0.955c0.484-0.63,1.011-1.27,1.583-1.903
		c0.023-0.026,0.047-0.05,0.071-0.077C10.921,19.583,10.669,19.292,10.406,19.001z"/>
	<path fill="#808080" d="M17.943,9.348c1.968,2.177,4.017,3.813,5.431,4.825c-1.408,1.009-3.452,2.641-5.431,4.828
		c-0.261,0.291-0.514,0.582-0.759,0.873c0.024,0.026,0.047,0.05,0.071,0.075c0.572,0.635,1.098,1.274,1.582,1.904
		c0.265-0.319,0.534-0.638,0.821-0.955c3.164-3.5,6.607-5.516,6.642-5.535l2.047-1.189l-2.047-1.188
		c-0.141-0.082-3.485-2.043-6.642-5.536c-0.287-0.317-0.557-0.636-0.821-0.954c-0.484,0.628-1.01,1.269-1.582,1.901
		c-0.024,0.027-0.049,0.051-0.072,0.077C17.428,8.766,17.681,9.057,17.943,9.348z"/>
	<path fill="#808080" d="M14.174,28.348l-0.269-0.569c-0.019-0.039-1.897-3.975-5.167-7.592c-3.282-3.631-6.826-5.693-6.861-5.714
		l-0.515-0.297l0.515-0.299c0.036-0.02,3.589-2.095,6.862-5.716c3.256-3.602,5.089-7.43,5.167-7.591l0.269-0.567l0.269,0.567
		c0.018,0.039,1.894,3.973,5.166,7.592s6.828,5.694,6.863,5.715l0.514,0.298l-0.514,0.297c-0.035,0.02-3.588,2.093-6.863,5.716
		c-3.271,3.617-5.148,7.552-5.166,7.591L14.174,28.348z M2.641,14.173c1.094,0.695,3.868,2.599,6.527,5.539
		c2.623,2.902,4.369,6.008,5.006,7.227c0.636-1.218,2.382-4.323,5.007-7.226c2.626-2.906,5.43-4.835,6.529-5.539
		c-1.1-0.704-3.904-2.634-6.529-5.539c-2.625-2.902-4.37-6.004-5.006-7.223c-0.634,1.215-2.361,4.295-5.007,7.223
		C6.544,11.538,3.742,13.468,2.641,14.173z"/>
</g>
</svg>
