<?xml version="1.0" encoding="utf-8"?>
<!-- Generator: Adobe Illustrator 16.0.0, SVG Export Plug-In . SVG Version: 6.00 Build 0)  -->
<!DOCTYPE svg PUBLIC "-//W3C//DTD SVG 1.1//EN" "http://www.w3.org/Graphics/SVG/1.1/DTD/svg11.dtd">
<svg version="1.1" id="Layer_1" xmlns="http://www.w3.org/2000/svg" xmlns:xlink="http://www.w3.org/1999/xlink" x="0px" y="0px"
	 width="28.35px" height="28.35px" viewBox="0 0 28.35 28.35" enable-background="new 0 0 28.35 28.35" xml:space="preserve">
<path fill="#FFFFFF" stroke="--c-accent" stroke-width="0.6" stroke-linecap="round" stroke-linejoin="round" stroke-miterlimit="10" d="
	M2.246,21.083c0,0,2.725,0.938,6.233,2.964c3.511,2.027,5.684,3.918,5.684,3.918s2.173-1.891,5.684-3.918
	c3.511-2.026,6.234-2.964,6.234-2.964s-0.551-2.827-0.551-6.881c0-4.051,0.551-6.879,0.551-6.879s-2.726-0.937-6.234-2.964
	c-3.511-2.026-5.684-3.917-5.684-3.917s-2.174,1.891-5.684,3.917C4.97,6.386,2.246,7.323,2.246,7.323s0.55,2.828,0.55,6.881
	C2.795,18.256,2.246,21.083,2.246,21.083z"/>
<g>
	<path fill="--c-accent" d="M5.112,19.231c0,0,0.274-0.063,0.765-0.148c0.493-0.065,1.198-0.227,2.047-0.299
		c0.849-0.065,1.838-0.214,2.903-0.243c1.065-0.033,2.201-0.068,3.336-0.104c1.133,0.037,2.267,0.074,3.33,0.109
		c1.06,0.03,2.059,0.181,2.907,0.247c0.853,0.074,1.55,0.234,2.043,0.301c0.491,0.086,0.773,0.151,0.773,0.151
		c0.104,0.024,0.169,0.129,0.145,0.233c-0.023,0.1-0.121,0.162-0.221,0.147c0,0-0.273-0.042-0.762-0.089
		c-0.492-0.035-1.189-0.117-2.03-0.158c-0.844-0.036-1.813-0.118-2.874-0.135c-1.057-0.019-2.184-0.038-3.311-0.058
		c-1.125,0.021-2.25,0.042-3.305,0.063c-1.055,0.018-2.035,0.102-2.878,0.139c-0.844,0.043-1.534,0.124-2.026,0.16
		c-0.49,0.047-0.771,0.091-0.771,0.092c-0.113,0.018-0.219-0.06-0.236-0.173c-0.017-0.107,0.052-0.208,0.156-0.233L5.112,19.231z"/>
</g>
<g>
	<path fill="--c-accent" d="M23.02,19.568c-0.001,0-0.193-0.206-0.512-0.588c-0.304-0.394-0.795-0.924-1.283-1.623
		c-0.481-0.702-1.104-1.484-1.662-2.392c-0.563-0.908-1.163-1.877-1.764-2.846c-0.533-0.997-1.066-1.994-1.566-2.929
		c-0.503-0.933-0.873-1.874-1.239-2.643c-0.362-0.774-0.571-1.46-0.76-1.919c-0.172-0.469-0.255-0.746-0.255-0.746
		c-0.031-0.103,0.027-0.211,0.13-0.242c0.098-0.029,0.201,0.024,0.237,0.117c0,0,0.1,0.259,0.304,0.706
		c0.215,0.443,0.492,1.088,0.877,1.837c0.391,0.749,0.804,1.63,1.32,2.556c0.514,0.927,1.063,1.916,1.611,2.905
		c0.579,0.961,1.158,1.922,1.701,2.823c0.544,0.904,1.105,1.711,1.56,2.423c0.46,0.709,0.876,1.267,1.152,1.674
		c0.286,0.4,0.465,0.622,0.465,0.622c0.072,0.089,0.059,0.219-0.03,0.291c-0.085,0.068-0.207,0.059-0.28-0.019L23.02,19.568z"/>
</g>
<g>
	<path fill="--c-accent" d="M14.356,3.891c0,0-0.081,0.27-0.252,0.737c-0.189,0.459-0.402,1.151-0.763,1.922
		c-0.368,0.769-0.733,1.7-1.24,2.637c-0.505,0.942-1.044,1.946-1.583,2.951c-0.597,0.96-1.194,1.92-1.754,2.821
		c-0.557,0.902-1.187,1.692-1.669,2.394c-0.49,0.7-0.979,1.225-1.283,1.617c-0.321,0.384-0.519,0.594-0.519,0.594
		c-0.074,0.078-0.197,0.082-0.275,0.009c-0.074-0.07-0.08-0.187-0.017-0.265c0,0,0.174-0.216,0.459-0.615
		c0.276-0.408,0.697-0.971,1.153-1.679c0.454-0.712,1.01-1.51,1.555-2.42c0.546-0.909,1.128-1.878,1.711-2.847
		c0.542-0.982,1.084-1.964,1.593-2.885c0.511-0.923,0.928-1.813,1.317-2.563c0.384-0.752,0.658-1.391,0.873-1.835
		c0.203-0.448,0.305-0.714,0.305-0.714c0.041-0.106,0.161-0.16,0.267-0.119c0.102,0.039,0.155,0.149,0.124,0.252L14.356,3.891z"/>
</g>
<g>
	<path fill="--c-accent" d="M5.258,19.224c0,0,0.167,0.087,0.454,0.256c0.279,0.183,0.697,0.422,1.167,0.75
		c0.458,0.34,1.007,0.72,1.572,1.157c0.543,0.462,1.124,0.955,1.704,1.448c0.583,0.511,1.094,1.049,1.611,1.539
		c0.516,0.48,0.952,0.995,1.341,1.413c0.395,0.414,0.679,0.802,0.892,1.058c0.21,0.258,0.318,0.426,0.318,0.426
		c0.058,0.091,0.032,0.211-0.059,0.27c-0.08,0.052-0.185,0.035-0.248-0.031c0,0-0.51-0.539-1.327-1.311
		c-0.404-0.391-0.874-0.839-1.4-1.317c-0.521-0.474-1.069-1.014-1.629-1.49c-0.562-0.496-1.124-0.991-1.65-1.456
		c-0.542-0.446-1.049-0.862-1.483-1.219c-0.875-0.691-1.483-1.143-1.483-1.143c-0.092-0.068-0.111-0.198-0.043-0.29
		C5.055,19.2,5.169,19.178,5.258,19.224z"/>
</g>
<g>
	<path fill="--c-accent" d="M14.002,27.259c0,0,0.1-0.158,0.313-0.418c0.215-0.257,0.504-0.648,0.896-1.059
		c0.39-0.416,0.822-0.926,1.344-1.409c0.256-0.248,0.52-0.504,0.788-0.764c0.264-0.251,0.546-0.54,0.835-0.778
		c0.576-0.488,1.152-0.977,1.692-1.434c0.567-0.438,1.12-0.82,1.58-1.16c0.471-0.327,0.886-0.563,1.165-0.746
		c0.289-0.17,0.461-0.259,0.461-0.259c0.096-0.05,0.213-0.012,0.263,0.083c0.044,0.086,0.019,0.189-0.057,0.246l-0.005,0.003
		c0,0-0.598,0.445-1.478,1.144c-0.432,0.355-0.935,0.771-1.474,1.216c-0.529,0.47-1.095,0.971-1.66,1.472
		c-0.291,0.245-0.545,0.489-0.823,0.747c-0.271,0.252-0.537,0.5-0.794,0.74c-0.521,0.476-0.994,0.928-1.398,1.32
		c-0.814,0.772-1.328,1.317-1.328,1.317c-0.078,0.083-0.209,0.087-0.293,0.009c-0.073-0.069-0.085-0.18-0.033-0.263L14.002,27.259z"
		/>
</g>
<g>
	<path fill="--c-accent" d="M22.97,19.426c0,0-0.009-0.188-0.005-0.521c0.018-0.333,0.016-0.814,0.065-1.386
		c0.064-0.566,0.12-1.232,0.216-1.939c0.129-0.703,0.266-1.451,0.402-2.2c0.15-0.76,0.361-1.472,0.527-2.165
		c0.158-0.687,0.386-1.322,0.553-1.869c0.162-0.548,0.355-0.989,0.471-1.301c0.118-0.311,0.209-0.488,0.209-0.488
		c0.05-0.096,0.167-0.133,0.263-0.084c0.085,0.043,0.124,0.143,0.097,0.23c0,0-0.211,0.711-0.471,1.805
		c-0.137,0.545-0.289,1.176-0.441,1.871c-0.148,0.688-0.343,1.433-0.475,2.156c-0.148,0.734-0.298,1.469-0.438,2.157
		c-0.114,0.693-0.221,1.34-0.313,1.894c-0.162,1.104-0.248,1.856-0.248,1.856c-0.014,0.113-0.115,0.195-0.229,0.182
		C23.051,19.613,22.975,19.526,22.97,19.426z"/>
</g>
<g>
	<path fill="--c-accent" d="M25.557,7.836c0,0-0.188-0.008-0.52-0.062c-0.328-0.058-0.813-0.112-1.364-0.247
		c-0.555-0.129-1.214-0.249-1.893-0.459c-0.343-0.098-0.696-0.199-1.055-0.301c-0.35-0.102-0.741-0.202-1.092-0.333
		c-0.71-0.254-1.421-0.509-2.088-0.749c-0.663-0.272-1.271-0.56-1.795-0.789c-0.519-0.244-0.931-0.485-1.228-0.636
		c-0.292-0.166-0.455-0.27-0.455-0.27c-0.09-0.058-0.117-0.178-0.059-0.269c0.052-0.082,0.155-0.111,0.241-0.074l0.005,0.002
		c0,0,0.684,0.295,1.729,0.708c0.523,0.195,1.135,0.423,1.79,0.667c0.671,0.224,1.388,0.463,2.104,0.702
		c0.357,0.13,0.695,0.228,1.059,0.34c0.354,0.108,0.701,0.215,1.038,0.318c0.673,0.213,1.3,0.397,1.843,0.551
		c1.076,0.319,1.805,0.492,1.805,0.492c0.111,0.026,0.18,0.138,0.153,0.25c-0.023,0.098-0.113,0.164-0.21,0.159L25.557,7.836z"/>
</g>
<g>
	<path fill="--c-accent" d="M14.271,4.003c0,0-0.158,0.102-0.448,0.265c-0.297,0.15-0.714,0.393-1.232,0.636
		c-0.523,0.228-1.127,0.513-1.788,0.783c-0.672,0.24-1.389,0.495-2.105,0.751C7.962,6.688,7.24,6.862,6.558,7.064
		C5.884,7.271,5.22,7.391,4.663,7.52C4.107,7.654,3.63,7.707,3.301,7.764C2.973,7.816,2.773,7.826,2.773,7.826
		C2.666,7.831,2.574,7.749,2.569,7.641c-0.005-0.095,0.062-0.178,0.151-0.2c0,0,0.721-0.172,1.799-0.494
		C5.06,6.792,5.683,6.609,6.36,6.393c0.67-0.214,1.412-0.419,2.104-0.666c0.711-0.238,1.421-0.477,2.087-0.701
		c0.657-0.247,1.271-0.478,1.797-0.675c1.035-0.412,1.73-0.714,1.73-0.713c0.104-0.046,0.227,0.002,0.272,0.107
		C14.393,3.839,14.355,3.95,14.271,4.003z"/>
</g>
<g>
	<path fill="--c-accent" d="M2.94,7.558c0,0,0.087,0.166,0.206,0.48c0.114,0.314,0.31,0.76,0.468,1.306
		C3.78,9.89,4.006,10.52,4.163,11.213c0.087,0.345,0.176,0.702,0.267,1.064c0.087,0.354,0.195,0.743,0.257,1.112
		c0.135,0.743,0.27,1.486,0.396,2.183c0.095,0.71,0.15,1.38,0.214,1.949c0.049,0.57,0.046,1.049,0.063,1.381
		c0.003,0.336-0.006,0.529-0.006,0.529c-0.005,0.107-0.097,0.19-0.203,0.186c-0.097-0.005-0.174-0.079-0.185-0.172l-0.001-0.006
		c0,0-0.086-0.74-0.251-1.852c-0.093-0.551-0.201-1.194-0.316-1.884C4.256,15.01,4.104,14.27,3.953,13.53
		c-0.066-0.376-0.15-0.718-0.235-1.087c-0.083-0.361-0.164-0.715-0.243-1.059C3.322,10.696,3.168,10.06,3.03,9.514
		C2.769,8.422,2.554,7.705,2.554,7.706C2.521,7.596,2.583,7.48,2.692,7.447C2.789,7.418,2.891,7.463,2.936,7.55L2.94,7.558z"/>
</g>
<g>
	<path fill="--c-accent" d="M14.37,1c0,0,0.055,0.176,0.096,0.44c0.046,0.265,0.061,0.617,0.072,0.97
		c-0.014,0.352-0.032,0.705-0.081,0.969c-0.043,0.264-0.1,0.44-0.1,0.44c-0.035,0.107-0.149,0.166-0.257,0.132
		c-0.064-0.021-0.112-0.072-0.132-0.132c0,0-0.056-0.176-0.1-0.44c-0.049-0.265-0.067-0.617-0.081-0.969
		c0.011-0.353,0.025-0.705,0.072-0.97C13.9,1.176,13.956,1,13.956,1c0.036-0.114,0.158-0.178,0.272-0.142
		C14.297,0.88,14.349,0.935,14.37,1z"/>
</g>
<g>
	<path fill="--c-accent" d="M23.28,19.22c0,0,0.18,0.04,0.43,0.137c0.252,0.092,0.564,0.255,0.875,0.422
		c0.298,0.188,0.594,0.38,0.799,0.555c0.207,0.17,0.331,0.307,0.331,0.307c0.076,0.083,0.069,0.212-0.014,0.288
		c-0.05,0.045-0.118,0.061-0.18,0.048c0,0-0.182-0.039-0.432-0.134c-0.253-0.09-0.567-0.25-0.88-0.414
		c-0.3-0.186-0.598-0.374-0.803-0.547c-0.209-0.167-0.334-0.304-0.334-0.304c-0.081-0.088-0.075-0.225,0.013-0.306
		C23.141,19.222,23.214,19.205,23.28,19.22z"/>
</g>
<g>
	<path fill="--c-accent" d="M2.603,20.63c0,0,0.125-0.137,0.333-0.304c0.206-0.173,0.503-0.362,0.803-0.547
		c0.312-0.165,0.626-0.325,0.88-0.415C4.87,19.27,5.05,19.23,5.05,19.23c0.11-0.024,0.219,0.046,0.243,0.156
		c0.014,0.066-0.006,0.133-0.048,0.18c0,0-0.125,0.138-0.332,0.307c-0.205,0.175-0.5,0.367-0.799,0.555
		c-0.311,0.168-0.623,0.331-0.875,0.423c-0.25,0.097-0.43,0.137-0.43,0.137c-0.117,0.026-0.233-0.047-0.259-0.164
		C2.535,20.752,2.557,20.68,2.603,20.63z"/>
</g>
</svg>
