<?xml version="1.0" encoding="utf-8"?>
<!-- Generator: Adobe Illustrator 16.0.0, SVG Export Plug-In . SVG Version: 6.00 Build 0)  -->
<!DOCTYPE svg PUBLIC "-//W3C//DTD SVG 1.1//EN" "http://www.w3.org/Graphics/SVG/1.1/DTD/svg11.dtd">
<svg version="1.1" id="Layer_1" xmlns="http://www.w3.org/2000/svg" xmlns:xlink="http://www.w3.org/1999/xlink" x="0px" y="0px"
	 width="28.35px" height="28.35px" viewBox="0 0 28.35 28.35" enable-background="new 0 0 28.35 28.35" xml:space="preserve">
<g>
	<path fill="#808080" d="M-0.014,14.175c0.01,0.006,3.51,1.836,7.094,5.131c3.59-3.3,7.095-5.132,7.095-5.132
		s-3.508-1.833-7.095-5.132C3.492,12.341-0.014,14.175-0.014,14.175z"/>
	<path fill="#808080" d="M20.268,8.088c-3.906-3.901-6.094-8.086-6.094-8.086c-0.003,0.004-2.167,4.14-6.032,8.023
		c0.021,0.021,0.04,0.042,0.061,0.063c3.906,3.901,8.097,6.086,8.097,6.086s-4.188,2.185-8.097,6.088
		c-0.021,0.021-0.04,0.041-0.061,0.062c3.864,3.882,6.032,8.024,6.032,8.024s2.19-4.188,6.092-8.086
		c3.91-3.903,8.098-6.088,8.098-6.088S24.172,11.989,20.268,8.088z"/>
</g>
</svg>
