<?xml version="1.0" encoding="utf-8"?>
<!-- Generator: Adobe Illustrator 16.0.0, SVG Export Plug-In . SVG Version: 6.00 Build 0)  -->
<!DOCTYPE svg PUBLIC "-//W3C//DTD SVG 1.1//EN" "http://www.w3.org/Graphics/SVG/1.1/DTD/svg11.dtd">
<svg version="1.1" id="Layer_1" xmlns="http://www.w3.org/2000/svg" xmlns:xlink="http://www.w3.org/1999/xlink" x="0px" y="0px"
	 width="42.52px" height="28.35px" viewBox="0 0 42.52 28.35" enable-background="new 0 0 42.52 28.35" xml:space="preserve">
<g>
	<path fill="#808080" d="M-0.002,14.173c0.01,0.005,3.505,1.836,7.086,5.133c3.585-3.302,7.086-5.133,7.086-5.133
		s-3.503-1.834-7.086-5.132C3.5,12.339-0.002,14.173-0.002,14.173z"/>
	<path fill="#808080" d="M20.256,8.087c-3.901-3.902-6.087-8.086-6.087-8.086c-0.002,0.004-2.164,4.141-6.025,8.022
		c0.021,0.021,0.04,0.043,0.062,0.064c3.9,3.902,8.086,6.086,8.086,6.086s-4.183,2.183-8.086,6.086
		c-0.021,0.021-0.04,0.041-0.061,0.063c3.86,3.88,6.025,8.024,6.025,8.024s2.188-4.188,6.087-8.088
		c3.905-3.903,8.087-6.086,8.087-6.086S24.158,11.989,20.256,8.087z"/>
	<path fill="#808080" d="M34.432,8.087c-3.902-3.902-6.087-8.086-6.087-8.086c-0.002,0.004-2.164,4.141-6.024,8.022
		c0.021,0.021,0.038,0.043,0.061,0.064c3.9,3.902,8.086,6.086,8.086,6.086s-4.182,2.183-8.088,6.086
		c-0.021,0.021-0.038,0.041-0.059,0.063c3.857,3.88,6.024,8.024,6.024,8.024s2.188-4.188,6.087-8.088
		c3.904-3.903,8.087-6.086,8.087-6.086S38.333,11.989,34.432,8.087z"/>
</g>
</svg>
