<?xml version="1.0" encoding="utf-8"?>
<!-- Generator: Adobe Illustrator 16.0.0, SVG Export Plug-In . SVG Version: 6.00 Build 0)  -->
<!DOCTYPE svg PUBLIC "-//W3C//DTD SVG 1.1//EN" "http://www.w3.org/Graphics/SVG/1.1/DTD/svg11.dtd">
<svg version="1.1" id="Layer_1" xmlns="http://www.w3.org/2000/svg" xmlns:xlink="http://www.w3.org/1999/xlink" x="0px" y="0px"
	 width="28.35px" height="28.35px" viewBox="0 0 28.35 28.35" enable-background="new 0 0 28.35 28.35" xml:space="preserve">
<g>
	<path fill="#FFFFFF" d="M20.338,12.173c-1.222-0.149-3.307-0.331-6.197-0.331c-2.89,0-4.974,0.182-6.196,0.331
		c0.741-0.983,1.94-2.697,3.385-5.2s2.329-4.399,2.811-5.532c0.481,1.133,1.365,3.029,2.812,5.532
		C18.395,9.472,19.596,11.188,20.338,12.173z"/>
	<path fill="#707071" d="M14.141,2.672c0.526,1.14,1.297,2.68,2.378,4.551c1.079,1.869,2.027,3.308,2.753,4.334
		c-1.25-0.114-2.97-0.216-5.131-0.216c-2.161,0-3.879,0.102-5.13,0.216c0.725-1.025,1.672-2.463,2.752-4.334
		C12.843,5.352,13.614,3.813,14.141,2.672 M14.141,0.079c0,0-0.846,2.491-3.244,6.644s-4.131,6.13-4.131,6.13
		s2.579-0.512,7.375-0.512c4.797,0,7.376,0.512,7.376,0.512s-1.741-1.989-4.132-6.13C14.986,2.57,14.141,0.079,14.141,0.079
		L14.141,0.079z"/>
</g>
<path fill="#707071" d="M6.766,15.497c0,0,1.74,1.987,4.132,6.129c2.398,4.154,3.244,6.646,3.244,6.646s0.846-2.491,3.244-6.646
	c2.397-4.152,4.132-6.129,4.132-6.129s-2.579,0.511-7.375,0.511S6.766,15.497,6.766,15.497z"/>
</svg>
