<?xml version="1.0" encoding="utf-8"?>
<!-- Generator: Adobe Illustrator 16.0.0, SVG Export Plug-In . SVG Version: 6.00 Build 0)  -->
<!DOCTYPE svg PUBLIC "-//W3C//DTD SVG 1.1//EN" "http://www.w3.org/Graphics/SVG/1.1/DTD/svg11.dtd">
<svg version="1.1" id="Layer_1" xmlns="http://www.w3.org/2000/svg" xmlns:xlink="http://www.w3.org/1999/xlink" x="0px" y="0px"
	 width="28.35px" height="28.35px" viewBox="0 0 28.35 28.35" enable-background="new 0 0 28.35 28.35" xml:space="preserve">
<rect x="9.71" y="8.282" fill-rule="evenodd" clip-rule="evenodd" fill="#FFFFFF" width="3.217" height="16.17"/>
<g>
	<path fill-rule="evenodd" clip-rule="evenodd" fill="#707070" d="M20.583,6.748c-0.965-0.337-2.627,0.137-3.919-0.19
		c3.462-0.334,3.219-6.296-0.096-6.595c-0.445,0-0.893,0-1.338,0c-2.1,0.214-2.954,2.675-2.413,4.533c0.108,0,0.215,0,0.323,0
		c2.784,0.252,2.989,5.262,0.08,5.541c1.087,0.274,2.482-0.123,3.294,0.161c2.449,0.861,0.938,5.555,1.363,8.512
		c-0.444,0.13-1.402,0.13-1.848,0c0-1.509,0-3.26,0-4.899c0-0.437,0.204-1.143-0.241-1.365c-0.567,0.093-0.32,1.171-0.32,1.767
		c0,4.043,0,9.718,0,14.133c0.048,0,0.097,0,0.145,0h0.573c0.326,0,0.654,0,0.981,0c0.725,0,1.447,0,2.172,0
		c0-5.42,0-11.465,0-16.818c0-0.711-0.294-1.994,0.382-2.104c0.53,0.264,0.287,1.104,0.287,1.625c0,1.951,0,4.035,0,5.829
		c0.529,0.156,1.668,0.156,2.198,0C21.7,13.358,23.502,7.773,20.583,6.748z"/>
	<path fill-rule="evenodd" clip-rule="evenodd" fill="#707070" d="M9.797,9.479c0.295,0,0.593,0,0.889,0
		c2.203,0.199,2.364,4.161,0.063,4.384c0.86,0.215,1.969-0.1,2.606,0.127c1.94,0.679,0.74,4.393,1.08,6.73
		c-0.355,0.105-1.112,0.105-1.459,0c0-1.189,0-2.575,0-3.872c0-0.347,0.159-0.904-0.193-1.081c-0.449,0.073-0.254,0.925-0.254,1.396
		c0,3.56,0,7.58,0,11.182c-0.702,0-1.398,0-2.095,0c-0.083-1.904,0.102-4.085,0-6.097c-0.012-0.179,0.151-0.619-0.189-0.636
		c-0.35,0.033-0.186,0.508-0.192,0.698c-0.08,1.856,0.055,4.111,0,6.034c-0.699,0-1.404,0-2.098,0
		c-0.178-3.866,0.237-8.038,0-12.006c-0.008-0.13,0.145-0.575-0.191-0.572c-0.449,0.063-0.255,0.755-0.255,1.081
		c0,1.174,0,2.688,0,3.872c-0.351,0.105-1.105,0.105-1.46,0c0-1.798,0-3.598,0-5.399c0.176-1.538,2.019-1.409,3.688-1.458
		C7.443,13.615,7.609,9.701,9.797,9.479z"/>
</g>
</svg>
