<?xml version="1.0" encoding="utf-8"?>
<!-- Generator: Adobe Illustrator 16.0.0, SVG Export Plug-In . SVG Version: 6.00 Build 0)  -->
<!DOCTYPE svg PUBLIC "-//W3C//DTD SVG 1.1//EN" "http://www.w3.org/Graphics/SVG/1.1/DTD/svg11.dtd">
<svg version="1.1" id="Layer_1" xmlns="http://www.w3.org/2000/svg" xmlns:xlink="http://www.w3.org/1999/xlink" x="0px" y="0px"
	 width="28.35px" height="28.35px" viewBox="0 0 28.35 28.35" enable-background="new 0 0 28.35 28.35" xml:space="preserve">
<g>
	<path fill="#FFFFFF" stroke="#808285" stroke-miterlimit="10" d="M20.389,14.083l-6.214-6.214l-6.213,6.214
		c0,0,0.63,0.561,0.95,0.864c3.375,3.182,5.264,6.594,5.264,6.594s1.89-3.416,5.261-6.592
		C19.758,14.645,20.389,14.083,20.389,14.083z"/>
	<path fill="#808285" d="M14.174,5.755l5.48,5.481c1.844-1.506,3.414-2.331,3.414-2.331s-2.627-1.374-5.074-3.822
		C15.545,2.628,14.174,0,14.174,0s-1.372,2.63-3.82,5.081C7.905,7.532,5.279,8.905,5.279,8.905c0.002,0.003,1.572,0.825,3.416,2.331
		L14.174,5.755z"/>
</g>
</svg>
