<?xml version="1.0" encoding="utf-8"?>
<!-- Generator: Adobe Illustrator 16.0.0, SVG Export Plug-In . SVG Version: 6.00 Build 0)  -->
<!DOCTYPE svg PUBLIC "-//W3C//DTD SVG 1.1//EN" "http://www.w3.org/Graphics/SVG/1.1/DTD/svg11.dtd">
<svg version="1.1" id="Layer_1" xmlns="http://www.w3.org/2000/svg" xmlns:xlink="http://www.w3.org/1999/xlink" x="0px" y="0px"
	 width="28.35px" height="28.35px" viewBox="0 0 28.35 28.35" enable-background="new 0 0 28.35 28.35" xml:space="preserve">
<g>
	<path fill-rule="evenodd" clip-rule="evenodd" fill="#707070" d="M8.29,19.551c0,1.007,0,2.017,0,3.027c1.243,0,2.483,0,3.724,0
		c0,0.621,0,1.24,0,1.864c-1.24,0-2.48,0-3.724,0c0,1.177,0,2.353,0,3.532c-0.621,0-1.243,0-1.864,0c0-1.166,0-2.331,0-3.493
		c-1.166-0.092-2.497,0.024-3.729,0c0-0.625,0-1.282,0-1.903c1.246,0,2.486,0,3.729,0c0-0.996,0-1.992,0-2.991
		c-1.881-0.353-3.202-1.104-4.309-2.214c-1.054-1.052-1.903-2.611-2.02-4.502c-0.136-2.199,0.661-4.105,1.784-5.358
		C3.177,6.071,5.097,4.915,7.86,5.067c2.025,0.111,3.504,1.017,4.623,2.135c1.112,1.111,2.013,2.608,2.135,4.583
		c0.139,2.203-0.648,4.062-1.747,5.319C11.77,18.354,10.305,19.221,8.29,19.551z M3.823,8.25c-0.869,0.757-1.346,1.468-1.667,2.642
		c-0.744,2.691,0.619,4.9,2.25,5.979c4.359,2.878,10.093-1.695,7.921-6.717C11.52,8.286,9.6,6.73,6.892,6.968
		C5.563,7.087,4.556,7.614,3.823,8.25z"/>
	<g>
		<path fill-rule="evenodd" clip-rule="evenodd" fill="#707070" d="M11.39,9.889c-0.316-0.527-0.763-1.029-1.337-1.429
			C9.841,8.799,9.65,9.15,9.497,9.522c-0.918,2.235-0.505,4.857,0.558,6.622c0.5-0.347,0.943-0.782,1.288-1.31
			c0.031-0.042,0.042-0.092,0.069-0.136c-0.396-0.771-0.624-1.709-0.538-2.915C10.923,11.094,11.115,10.457,11.39,9.889z"/>
		<path fill-rule="evenodd" clip-rule="evenodd" fill="#707070" d="M21.662,0.375c-0.038,0.004-0.035,0.05-0.033,0.097
			c0,0.602,0,1.203,0,1.804c1.113,0,2.231,0,3.341,0c-1.373,1.401-2.758,2.79-4.162,4.162c-1.551-1.45-4.509-1.904-6.784-1.146
			c-0.601,0.2-1.172,0.491-1.705,0.843c0.222,0.183,0.453,0.353,0.666,0.565c0.261,0.261,0.475,0.54,0.694,0.817
			c0.65-0.355,1.411-0.619,2.31-0.684c1.688-0.126,3.155,0.576,4.031,1.408c0.925,0.877,1.641,2.003,1.771,3.64
			c0.147,1.754-0.499,3.061-1.343,4.032c-0.805,0.936-2.039,1.718-3.571,1.837c-1.198,0.092-2.255-0.184-3.128-0.66
			c-0.12,0.158-0.211,0.33-0.344,0.479c-0.313,0.358-0.652,0.675-1.01,0.963c0.979,0.627,2.132,1.046,3.431,1.118
			c3.579,0.197,5.945-1.759,7.113-4.062c0.594-1.171,0.899-2.659,0.725-4.201c-0.172-1.473-0.738-2.604-1.442-3.604
			c1.356-1.363,2.771-2.844,4.128-4.098c0.025,1.093-0.044,2.272,0.033,3.312c0.619,0,1.246,0,1.87,0c0-2.208,0-4.413,0-6.622
			C26.055,0.375,23.86,0.375,21.662,0.375z"/>
	</g>
</g>
</svg>
