<?xml version="1.0" encoding="utf-8"?>
<!-- Generator: Adobe Illustrator 16.0.0, SVG Export Plug-In . SVG Version: 6.00 Build 0)  -->
<!DOCTYPE svg PUBLIC "-//W3C//DTD SVG 1.1//EN" "http://www.w3.org/Graphics/SVG/1.1/DTD/svg11.dtd">
<svg version="1.1" id="Layer_1" xmlns="http://www.w3.org/2000/svg" xmlns:xlink="http://www.w3.org/1999/xlink" x="0px" y="0px"
	 width="28.35px" height="28.35px" viewBox="0 0 28.35 28.35" enable-background="new 0 0 28.35 28.35" xml:space="preserve">
<path fill="none" stroke="#BCBEC0" stroke-width="0.75" stroke-miterlimit="10" d="M14.174,13.279l5.351-5.352
	c-3.43-3.429-5.351-7.111-5.351-7.111c-0.003,0.005-1.922,3.682-5.352,7.111l0,0L14.174,13.279z"/>
<path fill="#FFFFFF" stroke="#595959" stroke-width="0.75" stroke-miterlimit="10" d="M14.174,15.037l-5.352,5.354
	c3.431,3.428,5.352,7.109,5.352,7.109c0.004-0.006,1.923-3.682,5.351-7.109l0,0L14.174,15.037z"/>
<path fill="#FFFFFF" stroke="#595959" stroke-width="0.75" stroke-miterlimit="10" d="M13.296,14.157L7.944,8.805
	c-3.429,3.431-7.111,5.352-7.111,5.352c0.005,0.003,3.682,1.922,7.111,5.351l0,0L13.296,14.157z"/>
<path fill="#FFFFFF" stroke="#595959" stroke-width="0.75" stroke-miterlimit="10" d="M15.052,14.159l5.353,5.351
	c3.431-3.429,7.11-5.352,7.11-5.352c-0.003-0.001-3.68-1.921-7.11-5.351l0,0L15.052,14.159z"/>
</svg>
