<?xml version="1.0" encoding="utf-8"?>
<!-- Generator: Adobe Illustrator 16.0.0, SVG Export Plug-In . SVG Version: 6.00 Build 0)  -->
<!DOCTYPE svg PUBLIC "-//W3C//DTD SVG 1.1//EN" "http://www.w3.org/Graphics/SVG/1.1/DTD/svg11.dtd">
<svg version="1.1" id="Layer_1" xmlns="http://www.w3.org/2000/svg" xmlns:xlink="http://www.w3.org/1999/xlink" x="0px" y="0px"
	 width="28.35px" height="28.35px" viewBox="0 0 28.35 28.35" enable-background="new 0 0 28.35 28.35" xml:space="preserve">
<g>
	<path fill-rule="evenodd" clip-rule="evenodd" fill="#FFFFFF" d="M14.172,27.312c-1.46-0.803-2.799-1.818-4.095-3.103
		c-2.411-2.391-4.232-5.335-5.568-9.002c-0.546-1.498-0.973-3.185-1.304-5.157C2.911,8.302,2.744,6.45,2.697,4.399
		C3.17,4.371,3.633,4.342,4.095,4.301c2.473-0.222,4.847-0.82,7.055-1.78c0.822-0.357,1.621-0.77,2.395-1.17l0.616-0.317
		c2.629,1.511,5.243,2.481,7.983,2.965c1.269,0.224,2.422,0.356,3.506,0.401c-0.048,1.727-0.172,3.334-0.377,4.899
		c-0.652,4.951-2.519,9.447-5.546,13.364c-0.918,1.188-2.098,2.163-3.238,3.106C15.655,26.455,14.918,26.946,14.172,27.312z"/>
	<path fill="#707071" d="M14.143,1.886c2.585,1.44,5.166,2.375,7.87,2.851c1.02,0.18,1.967,0.302,2.862,0.369
		c-0.06,1.429-0.174,2.778-0.347,4.094c-0.635,4.818-2.449,9.193-5.395,13.004c-0.867,1.121-2.015,2.069-3.122,2.984
		c-0.654,0.54-1.243,0.95-1.825,1.27c-1.264-0.735-2.439-1.649-3.582-2.783c-2.331-2.311-4.094-5.164-5.391-8.726
		c-0.53-1.455-0.945-3.098-1.27-5.024C3.69,8.418,3.534,6.83,3.468,5.102c0.232-0.016,0.463-0.034,0.694-0.054
		C6.715,4.819,9.167,4.2,11.449,3.209c0.846-0.367,1.656-0.786,2.44-1.192C13.974,1.973,14.059,1.93,14.143,1.886 M14.178,0.229
		c-0.073,0-0.144,0.027-0.228,0.07c-1.028,0.522-2.042,1.076-3.099,1.534C8.676,2.778,6.394,3.342,4.028,3.554
		C3.344,3.615,2.657,3.647,1.939,3.695c0,0.112-0.001,0.208,0,0.305c0.031,2.07,0.182,4.131,0.526,6.174
		c0.303,1.799,0.713,3.571,1.339,5.289c1.271,3.491,3.085,6.642,5.744,9.277c1.3,1.289,2.727,2.394,4.334,3.268
		c0.1,0.054,0.189,0.079,0.279,0.079s0.181-0.025,0.283-0.075c0.917-0.441,1.74-1.021,2.521-1.665
		c1.199-0.991,2.397-1.987,3.354-3.226c3.137-4.059,5.025-8.639,5.695-13.726c0.234-1.784,0.355-3.574,0.394-5.371
		C26.411,3.913,26.41,3.8,26.41,3.679c-0.079-0.006-0.127-0.013-0.174-0.013c-1.333-0.018-2.651-0.174-3.963-0.406
		c-2.821-0.498-5.438-1.533-7.904-2.972C14.298,0.247,14.237,0.229,14.178,0.229L14.178,0.229z"/>
</g>
</svg>
