<?xml version="1.0" encoding="utf-8"?>
<!-- Generator: Adobe Illustrator 16.0.0, SVG Export Plug-In . SVG Version: 6.00 Build 0)  -->
<!DOCTYPE svg PUBLIC "-//W3C//DTD SVG 1.1//EN" "http://www.w3.org/Graphics/SVG/1.1/DTD/svg11.dtd">
<svg version="1.1" id="Layer_1" xmlns="http://www.w3.org/2000/svg" xmlns:xlink="http://www.w3.org/1999/xlink" x="0px" y="0px"
	 width="28.35px" height="28.35px" viewBox="0 0 28.35 28.35" enable-background="new 0 0 28.35 28.35" xml:space="preserve">
<g>
	<path fill-rule="evenodd" clip-rule="evenodd" fill="#707070" d="M25.083,0.588c0.097,0,0.188,0,0.284,0
		c1.049,1.212,0.552,3.973,1.977,4.807c-0.087,1.324-0.601,2.223-0.846,3.394c0.504,0.167,1.175-0.832,1.413,0
		c-0.147,1.076-0.589,1.857-0.846,2.825c0.421,0.049,1.042-0.099,1.128,0.284c-0.302,1.109-0.933,1.894-1.412,2.827
		c0.499,0.064,1.414-0.285,1.13,0.567c-0.97,4.063-1.49,7.599-4.24,10.742c-1.078,0.136-1.807-0.08-2.264-0.567
		c-0.45,0.492-0.135,1.753-0.847,1.982c-1.861,0.185-2.251,0.112-3.96,0.28c-0.854-1.564-1.46-5.853-0.283-7.632
		c1.016,0.155,2.77,0.63,3.678,0c1.012-1.951-0.863-2.92-0.85-4.523c0.021-2.899,3.396-5.398,3.393-8.767
		c0.45,0.21-0.063,1.384,0.852,1.133C24.188,5.723,24.678,3.198,25.083,0.588z"/>
	<path fill-rule="evenodd" clip-rule="evenodd" fill="#707070" d="M3.222,0.588c-0.096,0-0.19,0-0.283,0
		C1.888,1.8,2.386,4.561,0.961,5.395c0.086,1.324,0.602,2.223,0.847,3.394c-0.503,0.167-1.174-0.832-1.413,0
		c0.15,1.076,0.59,1.857,0.848,2.825c-0.423,0.049-1.046-0.099-1.132,0.284c0.303,1.109,0.933,1.894,1.413,2.827
		c-0.499,0.064-1.416-0.285-1.129,0.567c0.968,4.063,1.49,7.599,4.24,10.742c1.08,0.136,1.805-0.08,2.261-0.567
		c0.454,0.492,0.139,1.753,0.849,1.982c1.859,0.185,2.25,0.112,3.958,0.28c0.854-1.564,1.463-5.853,0.283-7.632
		c-1.012,0.155-2.767,0.63-3.676,0c-1.009-1.951,0.86-2.92,0.849-4.523c-0.021-2.899-3.397-5.398-3.394-8.767
		c-0.447,0.21,0.065,1.384-0.849,1.133C4.119,5.723,3.628,3.198,3.222,0.588z"/>
	<path fill-rule="evenodd" clip-rule="evenodd" fill="#707070" d="M17.074,13.171c0-1.611-1.307-2.922-2.923-2.922
		c-1.612,0-2.92,1.311-2.92,2.922c0,1.615,1.309,2.922,2.92,2.922C15.768,16.093,17.074,14.786,17.074,13.171z"/>
</g>
</svg>
