<?xml version="1.0" encoding="utf-8"?>
<!-- Generator: Adobe Illustrator 16.0.0, SVG Export Plug-In . SVG Version: 6.00 Build 0)  -->
<!DOCTYPE svg PUBLIC "-//W3C//DTD SVG 1.1//EN" "http://www.w3.org/Graphics/SVG/1.1/DTD/svg11.dtd">
<svg version="1.1" id="Layer_1" xmlns="http://www.w3.org/2000/svg" xmlns:xlink="http://www.w3.org/1999/xlink" x="0px" y="0px"
	 width="28.35px" height="28.35px" viewBox="0 0 28.35 28.35" enable-background="new 0 0 28.35 28.35" xml:space="preserve">
<g>
	<path fill="#808080" d="M11.233,2.367c-2.456,0-4.785,0.3-6.896,0.83c0.877-0.132,1.784-0.205,2.717-0.205
		c7.146,0,12.937,4.084,12.937,9.121c0,5.038-5.791,9.12-12.937,9.12c-0.935,0-1.844-0.074-2.722-0.205
		c2.113,0.529,4.444,0.83,6.901,0.83c9.452,0,17.115-4.363,17.115-9.745C28.348,6.73,20.685,2.367,11.233,2.367z"/>
	<path fill="#808080" d="M0.025,20.826c0.019,0.006,6.634,2.809,13.296,7.523c-3.897-4.545-3.328-6.912-3.328-6.912
		s-0.12-2.578,4.147-6.456C6.944,18.854,0.025,20.826,0.025,20.826z"/>
</g>
</svg>
