<?xml version="1.0" encoding="utf-8"?>
<!-- Generator: Adobe Illustrator 16.0.0, SVG Export Plug-In . SVG Version: 6.00 Build 0)  -->
<!DOCTYPE svg PUBLIC "-//W3C//DTD SVG 1.1//EN" "http://www.w3.org/Graphics/SVG/1.1/DTD/svg11.dtd">
<svg version="1.1" id="Layer_1" xmlns="http://www.w3.org/2000/svg" xmlns:xlink="http://www.w3.org/1999/xlink" x="0px" y="0px"
	 width="800px" height="800px" viewBox="0 0 800 800" enable-background="new 0 0 800 800" xml:space="preserve">
<path fill="#808285" d="M81.142,166.214v451.117c208.836,0,232.404,25.155,305.827,62.77V228.984
	C350.257,191.377,310.575,166.214,81.142,166.214z"/>
<path fill="#808285" d="M720.918,166.214c-229.451,0-269.134,25.163-305.832,62.771V680.1c73.41-37.614,96.978-62.77,305.832-62.77
	V166.214z"/>
<path fill="#808285" d="M415.086,754.884c85.938-37.615,132.252-62.771,376.69-62.771V240.997c-9.211,0-18.174,0.03-26.913,0.089
	v421.958c-226.975,0-269.979,25.155-349.777,62.771c0,0-5.366,2.236-14.059,2.236c-8.692,0-14.059-2.236-14.059-2.236
	c-79.8-37.615-122.804-62.771-349.778-62.771V241.086c-8.74-0.059-17.702-0.089-26.913-0.089v451.116
	c244.438,0,290.751,25.155,376.69,62.771c0,0,4.928,2.236,14.059,2.236S415.086,754.884,415.086,754.884z"/>
</svg>
