<?xml version="1.0" encoding="utf-8"?>
<!-- Generator: Adobe Illustrator 16.0.0, SVG Export Plug-In . SVG Version: 6.00 Build 0)  -->
<!DOCTYPE svg PUBLIC "-//W3C//DTD SVG 1.1//EN" "http://www.w3.org/Graphics/SVG/1.1/DTD/svg11.dtd">
<svg version="1.1" id="Layer_1" xmlns="http://www.w3.org/2000/svg" xmlns:xlink="http://www.w3.org/1999/xlink" x="0px" y="0px"
	 width="28.35px" height="28.35px" viewBox="0 0 28.35 28.35" enable-background="new 0 0 28.35 28.35" xml:space="preserve">
<g>
	<path fill="#FFFFFF" stroke="#808285" stroke-miterlimit="10" d="M7.96,14.164l6.214,6.214l6.214-6.214
		c0,0-0.631-0.561-0.951-0.865c-3.375-3.181-5.263-6.593-5.263-6.593s-1.89,3.416-5.261,6.591C8.591,13.602,7.96,14.164,7.96,14.164
		z"/>
	<path fill="#808285" d="M14.175,22.491l-5.48-5.48c-1.844,1.506-3.414,2.331-3.414,2.331s2.627,1.374,5.074,3.822
		c2.449,2.454,3.82,5.083,3.82,5.083s1.372-2.631,3.82-5.081c2.448-2.451,5.075-3.824,5.075-3.824
		c-0.002-0.003-1.572-0.825-3.416-2.331L14.175,22.491z"/>
</g>
</svg>
