<?xml version="1.0" encoding="utf-8"?>
<!-- Generator: Adobe Illustrator 16.0.0, SVG Export Plug-In . SVG Version: 6.00 Build 0)  -->
<!DOCTYPE svg PUBLIC "-//W3C//DTD SVG 1.1//EN" "http://www.w3.org/Graphics/SVG/1.1/DTD/svg11.dtd">
<svg version="1.1" id="Layer_1" xmlns="http://www.w3.org/2000/svg" xmlns:xlink="http://www.w3.org/1999/xlink" x="0px" y="0px"
	 width="28.35px" height="28.35px" viewBox="0 0 28.35 28.35" enable-background="new 0 0 28.35 28.35" xml:space="preserve">
<path fill-rule="evenodd" clip-rule="evenodd" fill="#707070" d="M1.939,3.695c0.717-0.048,1.404-0.08,2.089-0.142
	c2.365-0.212,4.647-0.775,6.823-1.721c1.057-0.458,2.071-1.012,3.099-1.534c0.152-0.077,0.258-0.104,0.419-0.01
	c2.465,1.438,5.083,2.474,7.904,2.972c1.312,0.231,2.63,0.388,3.963,0.406c0.047,0,0.095,0.007,0.174,0.013
	c0,0.121,0.001,0.233-0.001,0.346c-0.038,1.797-0.159,3.587-0.394,5.371c-0.67,5.087-2.559,9.667-5.695,13.726
	c-0.957,1.238-2.155,2.234-3.354,3.226c-0.781,0.644-1.604,1.224-2.521,1.665c-0.205,0.1-0.362,0.104-0.562-0.004
	c-1.607-0.874-3.034-1.979-4.334-3.268c-2.659-2.636-4.473-5.786-5.744-9.277c-0.626-1.718-1.037-3.49-1.339-5.289
	C2.121,8.131,1.97,6.071,1.939,4C1.938,3.904,1.939,3.808,1.939,3.695z"/>
</svg>
