<?xml version="1.0" encoding="utf-8"?>
<svg width="auto" height="auto" xmlns="http://www.w3.org/2000/svg">
	<svg x="0" y="0" width="51%" height="100%" viewBox="0 0 2000 2000" preserveAspectRatio="xMinYMax slice">
	<path fill="#909090" d="M2000,2000H9.056c-2.501-3.281-9.032,0-9.032,0s3.25-6.563,0-9.125L0,0h2l0.023,1988.892
	c3.25,2.563,0,9.125,0,9.125s6.531-3.281,9.032,0H2000V2000z"/>
	</svg>

	<svg x="49%" y="0" width="51%" height="100%" viewBox="0 0 2000 2000" preserveAspectRatio="xMaxYMax slice">
	<path fill="#909090" d="M0,2000h1990.945c2.5-3.281,9.031,0,9.031,0s-3.25-6.563,0-9.125L2000,0h-2l-0.023,1988.892
	c-3.25,2.563,0,9.125,0,9.125s-6.531-3.281-9.031,0H0V2000z"/>
	</svg>
</svg>
