<svg height="100px" width="100px"  fill="#ffffff" xmlns="http://www.w3.org/2000/svg" data-name="Layer 1" viewBox="0 0 100 100" x="0px" y="0px"><path d="M87.99988,27H79V10a5.00588,5.00588,0,0,0-5-5H26a5.00588,5.00588,0,0,0-5,5V27H11.99988a7.0077,7.0077,0,0,0-7,7V66a7.0077,7.0077,0,0,0,7,7H21V90a5.00588,5.00588,0,0,0,5,5H74a5.00588,5.00588,0,0,0,5-5V73h8.99988a7.00771,7.00771,0,0,0,7-7V34A7.00771,7.00771,0,0,0,87.99988,27ZM25,10a1.0013,1.0013,0,0,1,1-1H74a1.0013,1.0013,0,0,1,1,1V27H25ZM75,90a1.0013,1.0013,0,0,1-1,1H26a1.0013,1.0013,0,0,1-1-1V61.55566H75Zm6.99988-45a5,5,0,1,1,5-5A5,5,0,0,1,81.99988,45Z"></path></svg>