<svg height="100px" width="100px"  fill="#303030" xmlns="http://www.w3.org/2000/svg" data-name="Layer 1" viewBox="0 0 100 100" x="0px" y="0px"><path d="M9.29,97.5H22.86V63.57a6.77,6.77,0,0,1,6.78-6.78h47.5a6.78,6.78,0,0,1,6.79,6.78V97.5h6.78a6.79,6.79,0,0,0,6.79-6.79V16.07L83.93,2.5H77.14V36.43c0,4.22-2.56,6.78-6.78,6.78H22.86c-4.22,0-6.79-2.56-6.79-6.78V2.5H9.29A6.79,6.79,0,0,0,2.5,9.29V90.71A6.79,6.79,0,0,0,9.29,97.5Zm0-13.57h6.78v6.78H9.29Z"></path><rect x="56.79" y="9.29" width="13.57" height="27.14"></rect><rect x="29.64" y="83.93" width="47.5" height="6.79"></rect><rect x="29.64" y="70.36" width="47.5" height="6.79"></rect></svg>