<?xml version="1.0" encoding="utf-8"?>
<!-- Generator: Adobe Illustrator 16.0.0, SVG Export Plug-In . SVG Version: 6.00 Build 0)  -->
<!DOCTYPE svg PUBLIC "-//W3C//DTD SVG 1.1//EN" "http://www.w3.org/Graphics/SVG/1.1/DTD/svg11.dtd">
<svg version="1.1" id="Layer_1" xmlns="http://www.w3.org/2000/svg" xmlns:xlink="http://www.w3.org/1999/xlink" x="0px" y="0px"
	 width="283.46px" height="283.46px" viewBox="0 0 283.46 283.46" enable-background="new 0 0 283.46 283.46" xml:space="preserve">
<path fill="--c-accent" d="M230.596,194.356c-16.525-15.839-38.895-33.425-64.744-50.222c-30.274-19.672-59.608-34.558-82.702-42.801
	c-28.148,17.084-46.955,48.024-46.955,83.357c0,53.814,43.625,97.441,97.439,97.441
	C184.188,282.133,225.742,243.633,230.596,194.356z"/>
<path fill="#808080" d="M222.414,87.251c1.164-0.457,6.35-0.389,7.301-0.601c0.953-0.212,8.678-10.899,8.678-10.899v-4.974
	c-0.105-0.847-5.186-4.55-5.186-4.55s-9.313-3.492-17.354-8.465c-8.043-4.974-16.721-12.381-16.721-12.381s-3.703-3.492-5.078-4.444
	c-1.377-0.952-6.455,1.375-6.455,1.375s-4.34,13.439-4.232,14.498c0.105,1.058,0.951,8.783,0.951,9.418s-9.027,17.884-9.646,18.201
	c-0.617,0.317-6.967,2.963-9.93,3.598s-18.158,0.111-18.158,0.111s-8.695-0.886-13.192-0.886c-16.226,0-31.513,3.989-44.97,11.005
	c22.209,8.539,49.415,22.637,77.43,40.841c25.912,16.839,48.326,34.47,64.863,50.336c0.076-1.572,0.121-3.151,0.121-4.742
	c0-21.878-7.213-42.073-19.389-58.336c0,0-3.002-7.007-3.531-11.239c-0.527-4.233-0.422-11.746,0.105-14.603
	C208.551,97.655,221.25,87.708,222.414,87.251z"/>
<path fill="#808080" d="M201.428,43.335c0,0,7.479-14.251,9.311-18.907c1.834-4.656,7.76-21.728,7.76-21.728
	s16.51,9.735,22.717,13.404c6.207,3.668,21.445,12.557,21.445,12.557s-13.545,14.815-16.225,17.778
	c-2.682,2.963-13.123,17.496-13.123,17.496s-11.709-5.362-17.213-9.03C210.598,51.236,201.428,43.335,201.428,43.335z"/>
<path fill="#FFFFFF" d="M108.231,149.954c0,0-0.569-1.635,0.769-0.454c2.833,2.5,34.5,25.833,65.667,37.417
	c19.692,7.319,33.3,4.75,38.666,9.666c2.115,1.938,1.244,6.021-2.36,5.85c-5.35-0.255-25.814-4.971-39.723-11.766
	C118.487,164.89,108.231,149.954,108.231,149.954z"/>
</svg>
