<?xml version="1.0" encoding="utf-8"?>
<!-- Generator: Adobe Illustrator 16.0.0, SVG Export Plug-In . SVG Version: 6.00 Build 0)  -->
<!DOCTYPE svg PUBLIC "-//W3C//DTD SVG 1.1//EN" "http://www.w3.org/Graphics/SVG/1.1/DTD/svg11.dtd">
<svg version="1.1" id="Layer_1" xmlns="http://www.w3.org/2000/svg" xmlns:xlink="http://www.w3.org/1999/xlink" x="0px" y="0px"
	 width="283.46px" height="283.46px" viewBox="0 0 283.46 283.46" enable-background="new 0 0 283.46 283.46" xml:space="preserve">
<ellipse transform="matrix(0.9382 -0.3461 0.3461 0.9382 -75.4848 57.5861)" fill="#808080" cx="123.495" cy="240.146" rx="6.506" ry="8.843"/>
<ellipse transform="matrix(0.9382 -0.3461 0.3461 0.9382 -23.9716 14.2272)" fill="#808080" cx="27.849" cy="74.232" rx="6.506" ry="8.843"/>
<circle fill="#808080" cx="11.89" cy="77.986" r="9.395"/>
<circle fill="#808080" cx="183.173" cy="30.741" r="9.395"/>
<rect x="6.471" y="49.828" transform="matrix(0.9636 -0.2673 0.2673 0.9636 -11.0538 27.8459)" fill="#808080" width="180.57" height="9.395"/>
<circle fill="#808080" cx="107.164" cy="246.52" r="9.395"/>
<circle fill="#808080" cx="271.747" cy="179.572" r="9.395"/>
<rect x="98.419" y="208.599" transform="matrix(0.9257 -0.3781 0.3781 0.9257 -66.6452 87.196)" fill="#808080" width="180.571" height="9.396"/>
<path fill="#FFFFFF" stroke="#808080" stroke-width="3" stroke-miterlimit="10" d="M26.228,67.355l0.479-0.371l130.867-37.666
	c0,0,2.238-0.798,3.926,0c0.935,0.442,20.991,7.958,30.522,43.903c9.529,35.944-6.807,52.012,13.888,80.059
	s49.257,25.636,49.257,25.636s4.735-0.599,6.787,4.66c2.129,5.457-2.178,7.264-2.178,7.264l-133.724,56.286
	c-0.001,0-1.001,0.155,0.291-1.537c1.745-2.285,3.332-5.771,1.141-9.526c-3.812-6.537-7.352-3.813-7.352-3.813
	s-29.804-8.797-49.016-45.476c-20.968-40.029-7.654-53.645-18.547-81.692C41.678,77.034,29.054,82.565,29.961,81.185
	c1.007-1.533,2.285-3.705,1.275-7.533C29.713,67.875,26.228,67.355,26.228,67.355z"/>
<g>
	<path fill-rule="evenodd" clip-rule="evenodd" fill="--c-accent" d="M83.713,123.55c1.723,0,3.653,0,6.12,0
		c-2.246-1.408-3.965-2.489-6.12-3.841c0,1.786,0,2.915-0.19,4.935c-0.005-0.365-0.011-0.731-0.016-1.097c-1.129,0-2.258,0-3.361,0
		c-0.199-1.257-0.366-2.31-0.571-3.597c-0.848,0.848-1.408,1.408-1.836,1.837c0,1.062,0,1.993,0,2.856
		C79.795,124.644,81.659,124.644,83.713,123.55z"/>
	<path fill-rule="evenodd" clip-rule="evenodd" fill="--c-accent" d="M101.355,196.335c0.454,0.255,0.881,0.598,1.367,0.75
		c1.639,0.523,3.339,1.214,4.767-0.753c2.752-0.056,5.854,0.546,8.145-2.088c-0.725-3.339-0.725-3.339-3.575-3.397
		c0.095,0.549,0.138,1.086,0.292,1.59c0.136,0.447,0.394,0.855,1.144,2.42c-2.624-1.639-4.094-2.557-6.004-3.748
		c0,2.181,0,3.704-0.185,5.227c-1.74-1.284-3.48-2.565-5.949-4.388c0,2.131,0,3.26,0.414,4.585
		c-4.193-2.008-4.193-2.008-6.403,1.427c1.039,0.604,2.083,1.213,3.103,1.809C99.427,198.828,100.397,197.878,101.355,196.335z"/>
	<path fill-rule="evenodd" clip-rule="evenodd" fill="--c-accent" d="M76.533,138.471c-1.141-1.24-1.988-2.161-3.261-3.545
		c-0.383,1.927-0.625,3.141-0.911,4.578c-1.197-0.499-2.075-0.864-3.213-1.336c0.133,0.944,0.209,1.479,0.299,2.119
		c1.833,0,3.548,0,5.246,0c0.566-0.559,1.124-1.109,1.872-2.203c1.282,0.57,2.627,2.036,4.293,0.779
		c-0.839-1.409-1.609-2.842-2.546-4.158c-0.201-0.282-1.008-0.13-1.748-0.197C76.566,135.785,76.566,136.907,76.533,138.471z"/>
	<path fill-rule="evenodd" clip-rule="evenodd" fill="--c-accent" d="M74.984,151.641c-1.229-1.566-2.282-2.906-3.296-4.197
		c-0.529,0.272-0.852,0.439-1.428,0.737c0.973,2.091,1.914,4.222,2.991,6.282c0.13,0.251,1.001,0.112,1.733,0.172
		c0-1.077,0-2.001-0.248-3.9c1.874,0.686,3.234,1.181,4.853,1.771c0-1.813,0-3.387,0-5.811
		C77.678,148.287,76.389,149.361,74.984,151.641z"/>
	<path fill-rule="evenodd" clip-rule="evenodd" fill="--c-accent" d="M185.887,199.589c-0.018-0.293-0.035-0.584-0.053-0.874
		c-0.981,0-1.961,0-3.574,0c-0.389-0.579-1.032-1.534-1.523-2.265c-1.26,0.642-2.227,1.136-3.054,1.556c0,0.996,0,1.922,0,3.414
		c2.928-0.653,5.567-1.244,7.456-3.228c4.134,1.884,5.075-2.078,7.605-2.29c-0.642-1.254-1.108-2.168-1.534-3
		C189.286,194.577,187.413,196.209,185.887,199.589z"/>
	<path fill-rule="evenodd" clip-rule="evenodd" fill="--c-accent" d="M138.293,82.982c-0.018-0.291-0.036-0.583-0.053-0.873
		c-0.981,0-1.959,0-3.341,0c-0.522-0.675-1.219-1.577-1.751-2.265c-1.266,0.644-2.231,1.136-3.059,1.558c0,0.996,0,1.922,0,3.414
		c2.928-0.654,5.567-1.244,6.735-2.599c4.63-0.353,5.978-0.984,8.18-3.209c-0.494-0.964-0.96-1.877-1.388-2.71
		C141.694,77.972,139.818,79.604,138.293,82.982z"/>
	<path fill-rule="evenodd" clip-rule="evenodd" fill="--c-accent" d="M164.084,71.233c1.238-2.394,3.28,0.202,4.909-0.83
		c1.525-0.964,4.07-0.311,6.316-0.373c-0.219-1-0.338-1.539-0.53-2.415c-1.503,0.39-2.833,0.733-4.16,1.078
		c-0.018-0.189-0.037-0.378-0.055-0.567c-1.089,0.126-2.18,0.252-3.666,0.424c0.058,0.051-0.352-0.306-1.021-0.891
		c-0.644,1.282-1.218,2.428-1.32,4.041c-1.229-0.47-2.236-0.855-4.111-1.572c-0.242,0.516-0.735,1.566-1.186,2.525
		c-0.748-0.577-1.128-0.873-1.982-1.534c0,1.266,0.131,2.036-0.035,2.737c-0.176,0.732-0.637,1.395-0.971,2.088
		c0.244,0.207,0.484,0.411,0.729,0.618c1.522-1.283,3.044-2.564,4.377-3.686c0.898,0.383,1.691,0.722,2.718,1.161
		C164.281,73.086,164.389,72.547,164.084,71.233z"/>
	<path fill-rule="evenodd" clip-rule="evenodd" fill="--c-accent" d="M119.405,87.176c2.437-0.648,4.555-2.024,6.656-4.071
		c0.203,1.436,0.356,2.522,0.582,4.117c0.901-1.004,1.503-1.648,2.064-2.328c0.097-0.117,0.014-0.383,0.014-0.58
		c-2.945-3.053-2.945-3.053-6.482-0.114c-0.898-0.382-1.691-0.72-2.834-1.208c0,1.621,0,2.748-0.244,4.411
		c-0.581-0.935-1.198-1.925-1.675-2.693c-1.467,0-2.775,0-4.314,0c0.136,1.269,0.246,2.292,0.403,3.751
		C115.485,85.83,117.672,89.938,119.405,87.176z"/>
	<path fill-rule="evenodd" clip-rule="evenodd" fill="--c-accent" d="M170.365,96.129c-0.7,0.521-1.274,0.951-1.813,1.353
		c-0.459-0.371-0.894-0.752-1.357-1.091c-1.107-0.808-2.047,2.352-3.227,0.144c-1.066,1.196-2.134,2.391-3.564,3.993
		c0.96,0.269,1.576,0.458,2.201,0.616c0.603,0.152,0.666,1.559,1.671,0.789c0.141-0.604,0.265-1.144,0.413-1.779
		c1.888-0.646,3.792-1.297,5.676-1.941c0-0.638,0-1.231-0.431-1.999c3.922,0,7.414,0,11.184,0c-0.084-1.259-0.154-2.328-0.232-3.503
		c-3.917,1.369-7.585,1.927-8.85,1.423C171.477,94.688,170.917,95.241,170.365,96.129z"/>
	<path fill-rule="evenodd" clip-rule="evenodd" fill="--c-accent" d="M94.083,159.596c-1.805-0.162-2.537-0.227-3.209-0.285
		c-0.22-1.325-0.396-2.388-0.586-3.535c-4.967,2.489-5.002,2.515-6.371,4.681c-0.273-0.672-0.547-1.344-1.024-2.518
		c-0.667,0.823-1.2,1.48-1.619,1.997c0.391,0.661,0.67,1.129,1.584,2.668c-2.365-1.1-3.5-1.629-5.108-2.377
		c-0.09,1.486-0.155,2.559-0.231,3.814c2.002,0,3.721,0,4.324,0c4.351-1.581,7.759-2.818,11.184-4.624
		c0.974,0.479,1.938,0.95,2.58,1.267c1.435-1.796,2.652-3.318,3.746-4.688c2.854,1.815,5.38,0.942,8.275,0.802
		c-0.938-0.938-1.493-1.494-2.299-2.299c-1.046,0.305-2.257,0.655-3.643,1.061c-0.912-0.515-2.167-1.219-3.434-1.93
		c-0.661,0.659-1.355,1.355-2.048,2.052c-1.075,0.188-2.148,0.377-3.177,0.556C93.026,157.485,93.026,158.467,94.083,159.596z"/>
	<path fill-rule="evenodd" clip-rule="evenodd" fill="--c-accent" d="M139.43,186.815c3.348-0.512,6.694-1.025,9.952-1.524
		c1.961-1.182,3.962-2.385,6.024-3.627c0.563,1.271,0.879,1.985,1.667,3.765c0-2.651,0-4.108,0-5.793
		c-1.683,0.096-3.13,0.174-4.375,0.243c-0.214,0.979-0.331,1.514-0.457,2.098c-0.901-0.507-1.649-0.931-2.519-1.419
		c-0.51,1.051-0.894,1.844-1.304,2.688c-0.847-0.802-1.663-1.573-2.479-2.346c-1.105,1.357-3.403,1.411-3.483,3.712
		c-1.419-0.582-2.548-1.044-4.216-1.727c0,1.28,0,2.011,0,2.74c-1.917-0.345-3.833-0.688-6.081-1.094
		c2.811,3.055,2.811,3.055,7.271,4.043C139.43,187.987,139.43,187.399,139.43,186.815z"/>
	<path fill-rule="evenodd" clip-rule="evenodd" fill="--c-accent" d="M161.826,127.561c2.079,3.062,3.809-1.411,5.698,0.858
		c0.948-0.994,1.955-1.937,2.81-3.001c0.302-0.376,0.237-1.045,0.355-1.655c0.739,0.504,1.318,0.901,1.85,1.264
		c4.636-3.019,6.442-4.212,11.896-2.574c0-1.132,0-2.2,0-2.948c-1.785-1.828-3.188,1.119-5.206-0.24
		c-0.965-0.65-3.351,0.807-5.092,1.312c-0.234,0.678-0.468,1.356-0.758,2.199c-2.206,0-4.323,0-6.347,0
		c-0.275,0.864-0.482,1.514-0.709,2.223c-0.576-0.492-0.98-0.837-1.15-0.981c-1.19,1.26-2.309,2.444-3.138,5.096
		c-0.621-1-1.235-1.991-1.71-2.757c-1.072,0-1.988,0-3.625,0c0.797,1.841,1.398,3.229,1.942,4.482
		C160.11,130.093,161.075,129.601,161.826,127.561z"/>
	<path fill-rule="evenodd" clip-rule="evenodd" fill="--c-accent" d="M128.722,164.208c2.22,0.624,2.899-1.551,4.378-2.415
		c1.895,0,3.851,0,5.742,0c1.697-1.145,3.33-2.243,4.965-3.346c0.575,1.019,0.284,3.08,2.509,1.873c0-1.444,0-2.897,0-4.287
		c-4.244-1.09-6.542,2.649-10.089,3.162c-1.375-1.584-3.219-0.917-4.807-0.748c-0.368,1.002-0.604,1.647-0.868,2.37
		c-1.408-0.577-2.539-1.042-4.211-1.732c0,1.277,0,2.011,0,2.744c-1.886-0.431-3.773-0.86-5.957-1.359
		c1.774,1.879,3.174,3.359,4.65,4.924C127.052,165.32,127.052,165.32,128.722,164.208z"/>
	<path fill-rule="evenodd" clip-rule="evenodd" fill="--c-accent" d="M101.95,166.588c-0.561,0.562-1.121,1.122-1.557,1.556
		c0.374,0.981,0.721,1.895,1.111,2.922c-3.63,1.067-2.12-3.125-4.432-3.227c-0.616,0.76-1.292,1.594-1.892,2.332
		c0.583,0.883,0.939,1.425,1.6,2.426c-1.6-0.096-2.674-0.164-3.526-0.215c-0.273-1.455-0.466-2.478-0.879-4.675
		c-1.669,2.151-2.636,3.402-3.454,4.457c-2.065,0.528-4.045,1.035-6.023,1.545c0.033-0.186,0.066-0.372,0.099-0.559
		c-1.356-0.207-2.714-0.414-3.938-0.6c1.086,2.291,1.989,4.27,2.973,6.208c0.183,0.358,0.688,0.554,1.263,0.993
		c0.191-1.906,0.341-3.39,0.528-5.261c1.378,0.685,2.36,1.168,3.53,1.747c0.957-0.848,1.944-1.721,2.314-2.049
		c5.087-0.632,9.433-1.174,13.911-1.731c0-1.528,0-2.857,0-4.244C103.07,167.71,102.51,167.149,101.95,166.588z"/>
	<path fill-rule="evenodd" clip-rule="evenodd" fill="--c-accent" d="M173.291,146.337c-0.379,0.817-0.755,1.63-1.214,2.621
		c-2.115,0-4.225,0-6.946,0c0.796,2.211,1.453,4.029,2.056,5.696c2.818,0.266,2.758-2.229,3.854-3.454
		c0.423,0.425,0.762,0.979,0.969,0.936c1.756-0.387,3.485-0.879,4.858-1.243c0.864-1.311,1.574-2.383,1.918-2.902
		c3.121-0.736,5.636-1.325,8.102-1.906c0-1.116,0-2.044,0-3.05c-2.53-0.614-4.245-0.153-4.653,2.663
		c-0.028,0.2-0.483,0.335-0.661,0.448c-1.513-1.401-3.219-0.987-4.854-0.786c-0.738,0.741-1.433,1.436-2.153,2.155
		C174.154,147.135,173.743,146.752,173.291,146.337z"/>
	<path fill-rule="evenodd" clip-rule="evenodd" fill="--c-accent" d="M136.521,148.858c2.9-0.618,5.916-0.657,7.659-1.68
		c2.482,0.174,4.092,0.288,5.879,0.413c-0.254-3.907,3.304-3.105,5.021-4.283c-0.797-2.766-2.379-3.295-4.561-2.685
		c-0.319,0.778-0.641,1.557-1.099,2.672c-1.031-0.704-1.639-1.12-1.817-1.24c-2.064,0.406-3.845,0.759-5.583,1.104
		c-1.198,2.027-3.049,3.338-3.439,2.946c-0.392-0.98-0.644-1.614-0.96-2.407c-1.573,0.789-2.839,1.425-3.983,1.995
		C134.603,146.755,135.532,147.772,136.521,148.858z"/>
	<path fill-rule="evenodd" clip-rule="evenodd" fill="--c-accent" d="M165.364,165.771c-0.313-0.488-2.454-2.411-3.092-2.563
		c-0.157,1.095-0.314,2.178-0.474,3.289c-4.78-1.395-4.78-1.395-11.112,2.426c-1.541-1.794-3.386-1.129-5.673-0.874
		c0.851,1.765,1.531,3.172,2.28,4.728c1.167-0.588,2.136-1.073,3.025-1.522c0.903,0.578,1.665,1.065,2.603,1.662
		c0.89-1.123,1.615-2.036,2.181-2.75c1.938,0,3.508,0,4.857,0C161.842,168.634,163.59,167.215,165.364,165.771z"/>
	<path fill-rule="evenodd" clip-rule="evenodd" fill="--c-accent" d="M118.623,136.572c-0.527,1.226-0.865,2.008-1.199,2.785
		c-1.463-0.572-2.585-1.01-3.95-1.543c-0.097,1.037-0.148,1.573-0.203,2.159c1.845,0.38,3.637,0.75,5.769,1.189
		c1.387-0.435,3.261-1.22,5.215-1.578c2.072-0.382,4.218-0.36,6.215-0.507c1.472-1.274,2.9-2.511,4.025-3.485
		c1.922,0.2,0.866,3.771,3.484,2.105c0.911-1.974-0.071-3.271-1.548-4.365c-0.408,0.358-0.818,0.716-1.192,1.046
		c-0.457-0.375-0.856-0.704-1.246-1.024c-0.787,0.787-1.483,1.484-2.065,2.067c-0.973-0.374-1.884-0.722-2.813-1.079
		c-0.393,1.168-0.625,1.854-0.885,2.63c-1.632-2.014-3.509-1.26-5.166-1.146c-0.341,0.981-0.569,1.638-0.88,2.53
		C120.94,137.732,119.966,137.245,118.623,136.572z"/>
	<path fill-rule="evenodd" clip-rule="evenodd" fill="--c-accent" d="M193.306,168.986c-1.132-0.448-2.267-0.897-3.412-1.348
		c-0.375,1.064-0.615,1.749-0.866,2.461c-0.633-0.393-1.131-0.702-1.681-1.044c-0.323,0.959-0.555,1.646-0.798,2.376
		c-0.527-0.479-0.941-0.856-1.461-1.329c-0.272,0.775-0.512,1.461-0.896,2.556c-2.111,0-4.371,0-6.871,0
		c0.223,1.863,0.391,3.28,0.557,4.687c2.825-1,5.432-1.514,7.578-2.799c2.031-1.216,5.026-1.379,5.746-4.252
		c0.568,0.409,1.165,0.838,1.645,1.186c1.508-0.943,2.694-2.213,4.034-2.4c2.112-0.299,3.12-1.103,3.307-3.771
		c-1.387,0.375-2.416,0.651-3.401,0.916c-0.332-0.29-0.61-0.532-1.013-0.884C194.938,166.576,194.126,167.773,193.306,168.986z"/>
	<path fill-rule="evenodd" clip-rule="evenodd" fill="--c-accent" d="M179.533,185.717c-4.446-2.293-7.848-0.405-10.916,1.972
		c-1.837-1.159-3.58-1.141-6.017-0.244c1.318,1.587,2.388,2.873,2.961,3.563c2.678-0.349,4.839-0.633,6.949-0.907
		c0.254-0.78,0.474-1.449,0.735-2.247c1.377,2.057,3.265,1.153,4.639,1.276c1.893-1.546,3.616-2.954,5.349-4.369
		c-0.648-0.854-1.459-1.922-2.772-3.651C180.04,183.208,179.795,184.421,179.533,185.717z"/>
	<path fill-rule="evenodd" clip-rule="evenodd" fill="--c-accent" d="M135.219,122.626c1.906,2.201,4.249,0.625,5.594,1.007
		c1.324-1.555,2.083-2.553,2.96-3.431c0.527-0.527,1.245-0.863,2.208-1.506c-1.639-0.812-2.716-1.345-3.923-1.944
		c-0.169,1.157-0.33,2.242-0.553,3.754c-1.098-0.514-1.889-0.885-2.654-1.242c-1.331,0.661-2.81,2.012-4.239,1.962
		c-2.155-0.075-2.781,1.755-4.251,2.41c-0.363-0.834-0.704-1.618-1.102-2.532c-1.08,0.542-1.818,0.914-2.075,1.043
		c-0.954-0.227-1.432-0.341-3.292-0.783c2.029,2.331,3.104,3.563,4.212,4.837c1.717-2.308,3.375-1,5.183-0.205
		C133.936,124.867,134.579,123.745,135.219,122.626z"/>
	<path fill-rule="evenodd" clip-rule="evenodd" fill="--c-accent" d="M131.67,190.552c0.441-2.839,0.441-2.839-1.081-4.632
		c-1.745,0.62-3.396,1.211-4.841,1.725c-0.882-0.347-1.672-0.657-2.472-0.971c-0.381,1.046-0.629,1.725-0.862,2.365
		c-1.951,0.521-4.481-0.735-5.603,2.452c2.643-1.041,4.326,2.546,7.42,0.646C126.279,190.88,129.191,191.025,131.67,190.552z"/>
	<path fill-rule="evenodd" clip-rule="evenodd" fill="--c-accent" d="M101.315,182.94c-0.584,0.103-1.257,0.221-1.823,0.32
		c-0.729-1.174-0.39-3.284-2.67-2.069c-0.159,1.021-0.326,2.106-0.505,3.267c-0.769-0.089-1.303-0.146-1.775-0.199
		c-0.285-0.826-0.52-1.511-1.014-2.948c-0.376,1.946-0.609,3.154-0.9,4.656c-1.458-0.676-2.582-1.199-3.573-1.659
		c-0.629,0.55-1.037,0.905-1.113,0.973c-1.234-0.3-2.171-0.527-3.051-0.741c0,1.404,0,2.331,0,4.448
		c3.191-2.816,6.898-1.107,9.79-3.231c6.92-0.677,8.715-1.133,9.127-2.536c-0.688-1.192-1.442-2.502-2.449-4.249
		c-0.651,0.99-1.207,1.462-1.134,1.802C100.373,181.465,100.858,182.083,101.315,182.94z"/>
	<path fill-rule="evenodd" clip-rule="evenodd" fill="--c-accent" d="M147.771,159.334c4.192,0.472,7.427-0.967,10.313-3.242
		c0.42,0.42,0.7,0.7,0.813,0.813c1.862-0.937,3.658-1.84,5.464-2.75c-0.943-1.398-1.886-2.795-3.212-4.761
		c-0.388,4.704-4.801,4.008-6.021,6.867c-2.711-0.584-4.839-2.9-7.357-1.001C147.771,156.436,147.771,157.613,147.771,159.334z"/>
	<path fill-rule="evenodd" clip-rule="evenodd" fill="--c-accent" d="M120.186,167.777c0-1.927,0-3.255,0-4.145
		c-1.394-1.796-2.76,1.844-3.908-0.564c-1.273,1.777-3.164,0.973-3.572,1.016c-2.866,1.434-4.678,2.338-6.336,3.168
		c1.332,0.88,2.855,1.901,4.397,2.893c0.139,0.093,0.387,0.013,0.637,0.013c0.807-0.765,1.642-1.558,2.4-2.273
		c0.643,0.451,1.243,0.877,1.86,1.31c0.803-0.565,1.356-1.163,2.03-1.367C118.395,167.611,119.211,167.777,120.186,167.777z"/>
	<path fill-rule="evenodd" clip-rule="evenodd" fill="--c-accent" d="M140.432,136.949c5.621-2.607,11.322-3.036,14.8-6.104
		c-0.754-1.298-1.538-2.647-2.501-4.304c-1.276,1.783-1.924,3.675-2.968,3.928c-1.776,0.43-1.851,1.991-3.281,3.174
		c-1.376-0.771-2.889-1.62-4.12-2.311c-1.018,0.419-1.856,0.764-3.13,1.29C139.59,133.916,139.964,135.264,140.432,136.949z"/>
	<path fill-rule="evenodd" clip-rule="evenodd" fill="--c-accent" d="M136.063,106.271c0,1.556,0,2.882,0,4.641
		c2.937-0.76,6.057-0.796,8.094-2.299c2.276-1.681,5.546-1.092,7.229-3.79c-0.604-1.169-1.233-2.381-1.698-3.28
		c-2.617,2.347-5.188,4.654-7.772,6.972C139.873,107.65,138.985,104.616,136.063,106.271z"/>
	<path fill-rule="evenodd" clip-rule="evenodd" fill="--c-accent" d="M159.686,182.533c4.515-1.083,8.474-2.035,12.65-3.04
		c0.79-0.794,1.767-1.773,2.742-2.754c-0.797-1.137-1.555-2.214-2.416-3.44c-1.013,1.472-1.517,2.864-2.505,3.471
		c-1.256,0.771-2.503,1.315-2.94,3.484c-1.737-0.935-3.297-1.774-4.785-2.576c-0.86,0.449-1.827,0.951-2.746,1.431
		C159.686,179.954,159.686,180.736,159.686,182.533z"/>
	<path fill-rule="evenodd" clip-rule="evenodd" fill="--c-accent" d="M131.958,69.037c-1.908-0.489-3.597-0.923-5.245-1.346
		c-0.407,1.207-0.629,1.867-0.879,2.607c-0.406-0.408-0.685-0.686-1.3-1.3c-0.929,1.48-3.031,1.922-2.972,4.608
		c0.941,0.059,1.855,0.167,2.766,0.141c0.256-0.008,0.5-0.414,0.671-0.568c-0.333-0.482-0.653-0.948-1.338-1.942
		c2.776,0.684,4.761,1.173,6.318,1.556c2.149-1.753,3.896-3.18,4.988-4.071c-0.724-0.685-1.753-1.661-2.537-2.404
		C132.337,66.857,132.149,67.938,131.958,69.037z"/>
	<path fill-rule="evenodd" clip-rule="evenodd" fill="--c-accent" d="M134.938,99.194c2.011-2.394,4.456-3.999,6.167-6.899
		c-0.994-0.366-1.621-0.597-2.363-0.871c-0.315,0.906-0.554,1.593-0.723,2.079c-2.654,0.582-5.223,1.033-7.723,1.724
		c-2.566,0.71-2.591,0.923-2.282,5.074c1.167-0.758,2.136-1.387,2.924-1.898c-0.393-0.794-0.636-1.282-0.878-1.771
		c0.242-0.181,0.484-0.361,0.726-0.541C131.967,96.974,133.147,97.856,134.938,99.194z"/>
	<path fill-rule="evenodd" clip-rule="evenodd" fill="--c-accent" d="M110.145,176.922c-2.01,1.372-3.643,2.488-5.307,3.624
		c0.128,0.967,0.249,1.857,0.331,2.476c1.338,0,2.259,0,3.116,0c0.25-0.896,0.437-1.566,0.665-2.379c3.154,0,6.043,0,9.081,0
		c-0.046-2.323-1.044-3.308-3.166-3.363c-0.295,0.811-0.544,1.493-0.792,2.175C112.751,178.604,111.428,177.75,110.145,176.922z"/>
	<path fill-rule="evenodd" clip-rule="evenodd" fill="--c-accent" d="M102.55,206.913c6.156-0.492,15.381-3.134,15.224-4.271
		c-0.684-0.249-1.369-0.501-2.073-0.755c0.369-0.596,0.685-1.103,1.162-1.869c-0.94,0-1.476,0-2.183,0
		c-0.158,1.116-0.313,2.211-0.505,3.575c-1.097-0.938-1.974-1.686-3-2.56c-0.284,1.514-0.486,2.592-0.75,3.992
		c-1.253-0.622-2.229-1.107-3.301-1.64c-0.571,0.374-1.156,0.757-1.347,0.883c-1.261-0.268-2.195-0.465-3.228-0.681
		C102.55,204.885,102.55,205.673,102.55,206.913z"/>
	<path fill-rule="evenodd" clip-rule="evenodd" fill="--c-accent" d="M180.277,137.884c-3.907-3.653-7.438-0.985-10.892-0.532
		c-0.614,0.081-1.037,1.625-1.788,2.9c2.377,0,4.098,0,5.588,0c1.409-0.728,2.665-1.376,3.921-2.025
		C178.168,139.393,179.142,139.729,180.277,137.884z"/>
	<path fill-rule="evenodd" clip-rule="evenodd" fill="--c-accent" d="M170.809,198.835c-0.361,0.837-0.7,1.623-1.098,2.541
		c-1.102-0.561-1.834-0.932-2.582-1.313c-0.293,0.845-0.533,1.535-0.778,2.241c-3.434-1.67-5.113-1.722-5.637,0.289
		c0.994,0.594,2.121,1.267,2.827,1.688c2.154-0.555,4.001-0.839,5.687-1.525c1.582-0.644,2.996-1.708,4.511-2.603
		c0.187,1.234,0.34,2.257,0.494,3.278c0.216-0.017,0.433-0.036,0.647-0.052c0-1.474,0-2.947,0-4.545
		C173.444,198.835,172.115,198.835,170.809,198.835z"/>
	<path fill-rule="evenodd" clip-rule="evenodd" fill="--c-accent" d="M184.335,162.964c2.336-1.191,4.136-2.11,5.839-2.977
		c-0.785-0.726-1.817-1.677-2.847-2.626c-0.62,0.62-1.321,1.321-1.591,1.588c-2.653,0.695-4.8,1.257-7.013,1.839
		c0.724,1.335,1.3,2.398,2.152,3.971c0.761-1.055,1.329-1.842,1.944-2.696C183.269,162.329,183.854,162.679,184.335,162.964z"/>
	<path fill-rule="evenodd" clip-rule="evenodd" fill="--c-accent" d="M162.349,117.685c2.467-1.238,5.223-2.623,7.498-3.765
		c-0.376-0.702-0.835-1.552-0.936-1.739c-3.014,0.466-5.37,0.831-7.873,1.219c-0.49,0.576-1.081,1.273-2.053,2.414
		C160.145,116.458,160.997,116.932,162.349,117.685z"/>
	<path fill-rule="evenodd" clip-rule="evenodd" fill="--c-accent" d="M165.631,162.398c-0.493,2.388,3.289,1.741,2.845,4.086
		c1.73,0.414,3.463,0.828,5.512,1.318c-0.104-2.285-0.192-4.145-0.299-6.447c-1.514,0.75-2.481,1.229-3.409,1.691
		C168.739,162.359,167.376,160.815,165.631,162.398z"/>
	<path fill-rule="evenodd" clip-rule="evenodd" fill="--c-accent" d="M197.164,180.035c0.851,0.763,1.904,1.705,2.787,2.498
		c0.088-0.258,0.324-0.937,0.595-1.717c0.518,0.463,0.923,0.825,1.331,1.19c1.175-1.177,3.471-1.209,3.468-3.225
		c1.003,0.312,1.925,0.6,3.438,1.074c-1.675-1.434-2.746-2.354-3.806-3.259c-0.448,0.448-1.14,1.14-1.854,1.853
		c-0.409-0.377-0.82-0.756-1.224-1.127c-0.398,0.369-0.812,0.753-1.203,1.114c-0.425-0.373-0.83-0.731-0.962-0.847
		C198.7,178.573,197.737,179.488,197.164,180.035z"/>
	<path fill-rule="evenodd" clip-rule="evenodd" fill="--c-accent" d="M133.325,107.807c-2.99,0.781-5.517,1.364-7.974,2.163
		c-0.388,0.126-0.459,1.226-0.749,2.094c-0.528-1.061-0.922-1.853-1.406-2.825c-0.897,0.452-1.658,0.836-2.123,1.069
		c-0.71-0.25-1.201-0.423-3.06-1.079c1.56,2.104,2.221,2.995,2.83,3.816c1.735,0,3.319,0,4.904,0
		c1.712-1.747,3.393-3.551,6.071-3.578c0.376,0.911,0.66,1.6,0.945,2.29c0.187-0.061,0.374-0.122,0.562-0.184
		C133.325,110.639,133.325,109.707,133.325,107.807z"/>
	<path fill-rule="evenodd" clip-rule="evenodd" fill="--c-accent" d="M125.355,209.724c0,2.534,0,3.991,0,5.549c1.906,0,3.62,0,4.323,0
		c1.728-1.229,2.815-2.004,3.74-2.661c-0.766-1.311-1.37-2.348-1.902-3.255c-3.71,0.619,0.338,2.699-1.417,3.868
		C128.859,212.308,127.55,211.345,125.355,209.724z"/>
	<path fill-rule="evenodd" clip-rule="evenodd" fill="--c-accent" d="M120.404,175.501c0.381,0.413,0.762,0.824,0.992,1.075
		c-0.431,0.891-0.813,1.681-1.198,2.483c3.875,2.362,5.106-3.424,9.099-1.365c-1.788-1.827-2.801-2.863-3.822-3.909
		c-1.087,0-2.251,0-3.356,0C121.504,174.399,120.948,174.956,120.404,175.501z"/>
	<path fill-rule="evenodd" clip-rule="evenodd" fill="--c-accent" d="M154.6,88.775c1.943,2.481,1.943,2.481,3.694,2.211
		c-0.33-0.467-0.644-0.913-0.955-1.358c0.218-0.187,0.436-0.375,0.654-0.562c0.955,0.466,1.91,0.932,2.733,1.333
		c2.032-1.06,3.98-2.075,5.868-3.059c-0.874-0.433-1.937-0.958-2.438-1.206c-1.425,0.327-2.327,0.471-3.186,0.751
		c-0.767,0.251-1.482,0.655-2.112,0.942c-0.473-0.42-0.752-0.667-0.886-0.784C156.924,87.582,155.942,88.085,154.6,88.775z"/>
	<path fill-rule="evenodd" clip-rule="evenodd" fill="--c-accent" d="M121.712,56.306c-2.199-0.208-3.104-0.193-3.954-0.404
		c-0.672-0.168-1.276-0.613-2.351-1.158c0,1.59,0,2.507,0,3.425c-0.239,0.072-0.48,0.145-0.72,0.217
		c-0.698-1.579-1.395-3.158-2.138-4.842c-0.385,0.058-0.918,0.136-1.742,0.259c0.616,2.022,1.181,3.875,1.626,5.336
		c1.504,0.7,2.621,1.22,3.599,1.674C117.878,59.518,118.073,56.996,121.712,56.306z"/>
	<path fill-rule="evenodd" clip-rule="evenodd" fill="--c-accent" d="M98.534,61.729c-0.42-2.094-0.772-3.855-1.122-5.601
		c-2.188-0.549-3.798-0.073-4.424,2.228c1.035,2.022,2.026,3.959,3.02,5.899C96.986,63.276,97.958,62.303,98.534,61.729z"/>
	<path fill-rule="evenodd" clip-rule="evenodd" fill="--c-accent" d="M160.199,62.858c-0.737-0.967-1.597-2.095-2.46-3.224
		c-0.699,0.699-1.396,1.397-1.591,1.59c-2.791,0.829-4.992,1.481-7.297,2.165c0.822,0.931,1.336,1.513,1.779,2.013
		c0.68-0.493,1.274-0.924,1.784-1.293c1.049,0.577,1.849,1.017,2.928,1.611c0.929-1.281,1.804-2.489,2.569-3.545
		c0.679,0.368,1.143,0.723,1.663,0.861C159.868,63.115,160.259,62.838,160.199,62.858z"/>
	<path fill-rule="evenodd" clip-rule="evenodd" fill="--c-accent" d="M96.004,147.261c-1.161-2.032-1.921-3.362-2.625-4.596
		c-3.345,1.003-0.19,2.372-0.696,3.443c0,0-5.605-0.299-6.017-0.32c0.753,1.117,1.368,2.031,2.227,3.31
		C91.006,148.551,93.124,148.006,96.004,147.261z"/>
	<path fill-rule="evenodd" clip-rule="evenodd" fill="--c-accent" d="M117.249,154.134c-0.753-1.146-1.347-2.054-1.912-2.914
		c-1.86,0-3.559,0-5.23,0c-0.427,1.565-0.824,3.028-1.307,4.802C111.603,155.396,114.229,154.811,117.249,154.134z"/>
	<path fill-rule="evenodd" clip-rule="evenodd" fill="--c-accent" d="M147.333,115.254c-0.335,0.358-0.671,0.717-1.007,1.076
		c1.212,2.94,3.941,4.033,6.51,5.204c1.676-1.295,2.719-2.576,1.619-5.02c-1.594,0.202-3.328,0.422-5.892,0.747
		C148.498,117.156,147.916,116.205,147.333,115.254z"/>
	<path fill-rule="evenodd" clip-rule="evenodd" fill="--c-accent" d="M183.585,181.33c1.373,1.37,2.746,2.744,4.117,4.116
		c1.197,0,2.522,0,4.114,0c-0.08-1.664-0.149-3.131-0.253-5.305C188.879,184.63,185.92,178.945,183.585,181.33z"/>
	<path fill-rule="evenodd" clip-rule="evenodd" fill="--c-accent" d="M104.218,52.723c-0.491,3.281-0.833,5.564-1.177,7.87
		c0.399,0.398,0.817,0.817,1.309,1.309c0.384-0.828,0.752-1.622,1.12-2.417c0.458,0.416,0.871,0.791,1.574,1.429
		c0-2.145,0-4.005,0-5.927C106.325,54.41,105.608,53.837,104.218,52.723z"/>
	<path fill-rule="evenodd" clip-rule="evenodd" fill="--c-accent" d="M106.606,131.238c-0.822-1.58-1.557-2.991-2.234-4.295
		c-3.185,1.341-3.44,3.746-4.742,6.777C102.723,132.62,104.874,131.854,106.606,131.238z"/>
	<path fill-rule="evenodd" clip-rule="evenodd" fill="--c-accent" d="M205.337,188.054c-0.327,0.802-0.604,1.476-0.883,2.156
		c-0.536-0.297-1.06-0.586-1.625-0.897c-0.147,0.542-0.438,1.03-0.306,1.228c0.604,0.886,1.325,1.688,2.293,2.873
		c1.644-1.644,2.933-2.93,4.22-4.217c0.488,0.487,0.768,0.765,1.271,1.271c0.615-0.575,1.23-1.149,2.004-1.872
		c-1.135-0.453-1.825-0.694-2.484-1.001c-0.643-0.301-1.256-0.664-1.932-1.027c-0.499,1.044-0.865,1.811-1.229,2.57
		C206.169,188.729,205.77,188.406,205.337,188.054z"/>
	<path fill-rule="evenodd" clip-rule="evenodd" fill="--c-accent" d="M175.829,109.579c0.318,0.689,0.692,1.501,1.118,2.428
		c2.622-0.991,5.165-1.952,7.967-3.012c-1.343-0.66-2.401-1.181-3.468-1.705c-0.255,0.726-0.495,1.409-0.839,2.386
		c-0.487-1.015-0.848-1.764-1.264-2.627c-1.783,0.604-3.544,1.202-6.009,2.039C174.628,109.342,175.165,109.448,175.829,109.579z"/>
	<path fill-rule="evenodd" clip-rule="evenodd" fill="--c-accent" d="M130.917,198.075c-2.735-2.252-2.813-2.259-5.038-0.688
		c-1.027,0.725-2.071,1.429-3.152,2.171c0.072,0.896,0.145,1.806,0.251,3.149C125.921,200.99,128.443,199.52,130.917,198.075z"/>
	<path fill-rule="evenodd" clip-rule="evenodd" fill="--c-accent" d="M138.44,198.396c2.412,1.22,1.895-1.089,2.595-1.883
		c1.46-0.152,2.925-0.305,5.543-0.579c-2.121-1.547-3.334-2.434-4.486-3.274c-1.345,0.627-2.503,1.166-3.182,1.484
		C138.73,195.775,138.582,197.118,138.44,198.396z"/>
	<path fill-rule="evenodd" clip-rule="evenodd" fill="--c-accent" d="M75.006,81.638c0.27,1.848,0.435,2.979,0.645,4.411
		c2.891-1.736,5.308-3.188,8.262-4.961c-1.752-0.687-3.094-1.212-4.526-1.771c-0.999,1.511-1.776,2.687-2.53,3.828
		C76.466,82.826,76.072,82.506,75.006,81.638z"/>
	<path fill-rule="evenodd" clip-rule="evenodd" fill="--c-accent" d="M163.902,143.834c-0.825-1.992-1.372-3.314-1.746-4.215
		c-2.387,0.475-4.26,0.845-6.53,1.295C157.522,144.07,160.108,144.126,163.902,143.834z"/>
	<path fill-rule="evenodd" clip-rule="evenodd" fill="--c-accent" d="M137.816,64.088c-0.73,3.095,1.412,3.65,2.11,4.789
		c1.697,0,2.827,0,4.087,0c0.539-0.964,1.047-1.875,2.161-3.875c-2.03,0.729-2.943,1.056-3.975,1.426
		c-0.195-0.182-0.604-0.565-0.996-0.931c-0.425,0.377-0.831,0.734-1.654,1.463C138.962,65.988,138.39,65.038,137.816,64.088z"/>
	<path fill-rule="evenodd" clip-rule="evenodd" fill="--c-accent" d="M83.734,136.342c3.326,0.3,3.256,0.226,4.552-0.994
		c1.29-1.217,2.855-1.885,5.646-1.225c-1.45-1.577-2.361-2.567-3.247-3.53C88.365,132.511,86.425,134.116,83.734,136.342z"/>
	<path fill-rule="evenodd" clip-rule="evenodd" fill="--c-accent" d="M173.926,81.41c-0.449,0.308-1.546,1.061-2.801,1.922
		c0.971,1.029,1.592,1.688,1.93,2.045c2.862-0.935,5.442-1.778,8.127-2.654c-1.169-0.574-2.239-1.099-3.309-1.625
		c-0.033,0.22-0.064,0.438-0.094,0.658C176.694,81.66,175.612,81.562,173.926,81.41z"/>
	<path fill-rule="evenodd" clip-rule="evenodd" fill="--c-accent" d="M93.437,202.405c0.743-0.151,1.286-0.261,1.872-0.379
		c-0.389-1.761-0.443-3.51-1.166-4.908c-0.947-1.835-2.546-2.937-5.062-1.132C90.877,197.934,93.147,199.53,93.437,202.405z"/>
	<path fill-rule="evenodd" clip-rule="evenodd" fill="--c-accent" d="M104.307,104.475c-3.139-2.22-5.4-2.666-6.522-1.544
		c0,0.475,0.124,1.09-0.03,1.625c-0.221,0.779-0.643,1.5-1.277,2.91C99.284,106.394,101.457,105.564,104.307,104.475z"/>
	<path fill-rule="evenodd" clip-rule="evenodd" fill="--c-accent" d="M222.613,184.371c-3.252,0.296-6.569-0.752-9.217,1.953
		c0.53,0.573,1.048,1.139,1.572,1.709c2.109-2.642,5.224-0.198,7.645-1.667C222.613,185.901,222.613,185.374,222.613,184.371z"/>
	<path fill-rule="evenodd" clip-rule="evenodd" fill="--c-accent" d="M85.882,96.064c-0.673-1.168-1.244-2.156-1.857-3.218
		c-0.679,0.736-1.173,1.271-1.627,1.762c0.402,0.506,0.715,0.899,1.042,1.312c-1.742,0.991-3.013,0.417-4.287-0.675
		c-0.248-0.212-1.025,0.193-2.053,0.425c0.857,1.212,1.516,2.144,2.212,3.127c0.554-0.554,0.833-0.833,1.163-1.162
		c0.406,0.357,0.817,0.717,1.19,1.043C83.077,97.804,84.499,96.921,85.882,96.064z"/>
	<path fill-rule="evenodd" clip-rule="evenodd" fill="--c-accent" d="M150.139,206.05c-2.077,0-3.913,0-5.666,0c0,1.664,0,3.1,0,5.041
		C145.95,208.457,150.144,210.478,150.139,206.05z"/>
	<path fill-rule="evenodd" clip-rule="evenodd" fill="--c-accent" d="M105.047,143.264c-0.189-0.95-0.389-1.95-0.633-3.168
		c-2.497,1.247-4.52,2.26-6.783,3.392c2.112,0.63,3.852,1.147,5.54,1.652C103.665,144.646,104.085,144.227,105.047,143.264z"/>
	<path fill-rule="evenodd" clip-rule="evenodd" fill="--c-accent" d="M195.478,191.714c-0.341,2.186-0.133,3.735,2.077,4.459
		c0.633-1.107,1.275-2.229,1.816-3.174c0.935,0.353,1.848,0.694,2.76,1.04c0.165-0.27,0.331-0.543,0.497-0.814
		c-0.667-0.337-1.335-0.673-2.998-1.511C199.272,191.714,197.549,191.714,195.478,191.714z"/>
	<path fill-rule="evenodd" clip-rule="evenodd" fill="--c-accent" d="M154.571,77.45c0.124-0.73,0.239-1.407,0.38-2.236
		c-2.569,0-4.831,0-7.83,0c0.848,1.84,1.474,3.196,2.317,5.024c1.202-1.843,1.98-3.037,2.912-4.464
		C153.17,76.392,153.762,76.838,154.571,77.45z"/>
	<path fill-rule="evenodd" clip-rule="evenodd" fill="--c-accent" d="M91.179,79.569c0.396,1.02,0.73,1.879,1.23,3.163
		c0.555-1.603,0.792-2.287,0.987-2.851c1.546-0.176,2.931-0.335,3.366-0.384c-0.623-1.127-1.38-2.497-2.429-4.394
		C92.728,77.378,91.687,78.851,91.179,79.569z"/>
	<path fill-rule="evenodd" clip-rule="evenodd" fill="--c-accent" d="M96.777,89.353c0,1.824,0,3.124,0,4.078c1.135,0,2.089,0,3.418,0
		c1.018-0.881,1.881-2.217,0.693-4.078C99.584,89.353,98.282,89.353,96.777,89.353z"/>
	<path fill-rule="evenodd" clip-rule="evenodd" fill="--c-accent" d="M71.793,95.298c0,1.807,0,3.121,0,4.381c1.64,0,3.09,0,4.236,0
		c-0.45-1.548-0.848-2.916-1.274-4.381C73.864,95.298,72.943,95.298,71.793,95.298z"/>
	<path fill-rule="evenodd" clip-rule="evenodd" fill="--c-accent" d="M106.226,144.607c1.962-0.767,3.351-1.194,4.615-1.859
		c0.591-0.313,0.937-1.087,1.79-2.141c-2.608,0-4.451,0-6.404,0C106.226,141.703,106.226,142.627,106.226,144.607z"/>
	<path fill-rule="evenodd" clip-rule="evenodd" fill="--c-accent" d="M120.68,152.264c2.47,0.353,4-0.322,4.576-2.877
		c-1.382-0.682-2.777-1.369-4.576-2.255C120.68,148.992,120.68,150.445,120.68,152.264z"/>
	<path fill-rule="evenodd" clip-rule="evenodd" fill="--c-accent" d="M106.932,114.022c-1.045,0.423-1.946,0.788-2.811,1.137
		c-0.384-0.286-0.754-0.563-1.312-0.978c0,1.837,0,3.293,0,5.043c0.704-0.647,1.117-1.027,1.52-1.397
		c0.402,0.37,0.815,0.75,1.231,1.132C107.018,117.063,107.018,117.063,106.932,114.022z"/>
	<path fill-rule="evenodd" clip-rule="evenodd" fill="--c-accent" d="M95.269,90.17c-2.457,1.03-4.474,1.859-6.465,2.742
		c-0.178,0.079-0.195,0.52-0.283,0.78c1.43,0.383,2.795,0.749,4.126,1.105c0.876-0.46,1.835-0.965,2.794-1.469
		C95.387,92.334,95.336,91.41,95.269,90.17z"/>
	<path fill-rule="evenodd" clip-rule="evenodd" fill="--c-accent" d="M131.237,174.459c0.424,0.424,0.984,0.983,1.161,1.16
		c1.543-0.27,2.804-0.393,3.991-0.759c0.372-0.112,0.54-0.882,0.939-1.6c-1.582-0.753-2.997-1.426-4.383-2.085
		C132.287,172.44,131.775,173.425,131.237,174.459z"/>
	<path fill-rule="evenodd" clip-rule="evenodd" fill="--c-accent" d="M81.914,111.028c2.225-1.537,4.315-2.981,6.435-4.445
		c-0.686-0.686-1.237-1.238-1.732-1.732c-1.836,1.489-3.666,2.972-5.594,4.536C81.258,109.821,81.504,110.274,81.914,111.028z"/>
	<path fill-rule="evenodd" clip-rule="evenodd" fill="--c-accent" d="M72.902,114.078c-1.241-1.691-2.246-3.06-3.378-4.602
		c-0.244,1.392-0.435,2.484-0.657,3.748c-0.764-0.238-1.303-0.361-1.803-0.578c-0.375-0.163-0.699-0.445-1.402-0.909
		c0.081,1.118,0.119,1.656,0.168,2.34C68.055,114.078,70.18,114.078,72.902,114.078z"/>
	<path fill-rule="evenodd" clip-rule="evenodd" fill="--c-accent" d="M81.229,148.281c2.587,1.809,2.587,1.809,5.623,0.831
		c-0.667-0.247-1.334-0.496-1.804-0.67c-0.367-1.264-0.681-2.35-1.281-4.416C82.597,145.988,81.997,146.995,81.229,148.281z"/>
	<path fill-rule="evenodd" clip-rule="evenodd" fill="--c-accent" d="M130.265,55.256c-0.956-1.825-1.381-3.098-2.195-4.034
		c-0.578-0.666-1.678-0.876-3.661-1.821c3.481,4.189,3.481,4.189,2.165,8.224C128.035,56.687,129.05,56.035,130.265,55.256z"/>
	<path fill-rule="evenodd" clip-rule="evenodd" fill="--c-accent" d="M117.183,71.33c-0.368-0.057-0.41-1.507-1.654-0.511
		c0.237,2,1.967,2.809,3.05,4.15c1.669-1.493,2.661-2.831,1.098-4.966C118.916,70.408,118.126,70.828,117.183,71.33z"/>
	<path fill-rule="evenodd" clip-rule="evenodd" fill="--c-accent" d="M149.43,203.358c1.664,1.664,2.616,2.621,3.741,3.741
		c1.276-0.095,2.709-0.198,4.098-0.304c0-0.789,0-1.174,0-1.659C155.046,204.633,152.803,204.123,149.43,203.358z"/>
	<path fill-rule="evenodd" clip-rule="evenodd" fill="--c-accent" d="M115.452,113.234c-0.876-0.055-1.979-0.021-3.038-0.22
		c-0.893-0.168-1.734-0.607-2.759-0.985c0.009,4.414,4.099,2.551,5.797,4.777C115.452,115.478,115.452,114.56,115.452,113.234z"/>
	<path fill-rule="evenodd" clip-rule="evenodd" fill="--c-accent" d="M111.605,129.063c0.929,0.352,1.442,0.546,1.97,0.746
		c0.995-1.206,1.932-2.339,2.795-3.387c-0.735-0.354-1.703-0.819-3.064-1.475C112.775,126.233,112.216,127.586,111.605,129.063z"/>
	<path fill-rule="evenodd" clip-rule="evenodd" fill="--c-accent" d="M182.379,134.934c0.669-0.296,1.475-0.653,3.096-1.372
		c-2.42,0-3.996,0-6.009,0c0.886,1.794,1.572,3.185,2.297,4.651c0.72-0.274,1.219-0.464,2.007-0.764
		C183.263,136.533,182.834,135.757,182.379,134.934z"/>
	<path fill-rule="evenodd" clip-rule="evenodd" fill="--c-accent" d="M61.769,97.413c-0.384,0.314-0.768,0.629-1.151,0.943
		c0.751,0.993,1.669,1.904,2.208,3.001c0.52,1.058,0.649,2.308,1,3.673c0.923-0.428,1.406-0.652,2.359-1.093
		C64.634,101.645,63.201,99.529,61.769,97.413z"/>
	<path fill-rule="evenodd" clip-rule="evenodd" fill="--c-accent" d="M150.329,189.898c0,2.134,0,3.568,0,5.26
		c1.719-1.014,3.207-1.887,4.88-2.873C153.601,191.498,152.334,190.88,150.329,189.898z"/>
	<path fill-rule="evenodd" clip-rule="evenodd" fill="--c-accent" d="M145.491,93.3c1.118,1.94,2.598,2.411,4.686,1.452
		c-0.101-1.421-0.202-2.851-0.356-5.028c-0.738,1.519-1.106,2.27-1.47,3.015c-0.509-0.405-0.902-0.717-1.28-1.019
		C146.535,92.256,146.116,92.676,145.491,93.3z"/>
	<path fill-rule="evenodd" clip-rule="evenodd" fill="--c-accent" d="M143.217,206.926c-2.89,0.69-5.027,1.2-7.179,1.713
		c1.391,1.002,2.774,1.995,3.968,2.854C140.946,210.154,141.886,208.817,143.217,206.926z"/>
	<path fill-rule="evenodd" clip-rule="evenodd" fill="--c-accent" d="M101.95,166.588c0.56,0.562,1.12,1.122,1.627,1.626
		c0,1.387,0,2.716,0,4.244c-4.478,0.558-8.824,1.1-13.911,1.731c-0.37,0.328-1.357,1.201-2.314,2.049
		c-1.169-0.579-2.151-1.063-3.53-1.747c-0.187,1.871-0.336,3.354-0.528,5.261c-0.575-0.439-1.08-0.635-1.263-0.993
		c-0.983-1.938-1.886-3.917-2.973-6.208c1.224,0.186,2.581,0.393,3.938,0.6c-0.033,0.187-0.066,0.373-0.099,0.559
		c1.979-0.51,3.958-1.017,6.023-1.545c0.818-1.055,1.785-2.306,3.454-4.457c0.413,2.197,0.606,3.22,0.879,4.675
		c0.852,0.051,1.927,0.119,3.526,0.215c-0.661-1.001-1.018-1.543-1.6-2.426c0.599-0.738,1.275-1.572,1.892-2.332
		c2.313,0.102,0.802,4.294,4.432,3.227c-0.39-1.027-0.737-1.94-1.111-2.922C100.829,167.71,101.39,167.149,101.95,166.588z"/>
	<path fill-rule="evenodd" clip-rule="evenodd" fill="--c-accent" d="M173.291,146.337c0.452,0.415,0.863,0.798,1.275,1.178
		c0.721-0.72,1.415-1.414,2.153-2.155c1.635-0.201,3.341-0.615,4.854,0.786c0.178-0.113,0.633-0.248,0.661-0.448
		c0.408-2.816,2.123-3.277,4.653-2.663c0,1.006,0,1.934,0,3.05c-2.466,0.581-4.98,1.17-8.102,1.906
		c-0.344,0.52-1.054,1.592-1.918,2.902c-1.373,0.364-3.103,0.856-4.858,1.243c-0.207,0.044-0.546-0.511-0.969-0.936
		c-1.097,1.226-1.036,3.72-3.854,3.454c-0.603-1.667-1.26-3.485-2.056-5.696c2.722,0,4.831,0,6.946,0
		C172.536,147.967,172.912,147.154,173.291,146.337z"/>
	<path fill-rule="evenodd" clip-rule="evenodd" fill="--c-accent" d="M136.521,148.858c-0.989-1.086-1.918-2.104-2.884-3.164
		c1.145-0.57,2.411-1.206,3.983-1.995c0.316,0.793,0.568,1.427,0.96,2.407c0.39,0.392,2.241-0.919,3.439-2.946
		c1.738-0.345,3.519-0.698,5.583-1.104c0.179,0.12,0.786,0.536,1.817,1.24c0.458-1.115,0.779-1.894,1.099-2.671
		c2.182-0.612,3.764-0.082,4.561,2.684c-1.717,1.178-5.274,0.376-5.021,4.283c-1.787-0.125-3.396-0.239-5.879-0.413
		C142.437,148.201,139.421,148.24,136.521,148.858z"/>
	<path fill-rule="evenodd" clip-rule="evenodd" fill="--c-accent" d="M165.364,165.771c-1.774,1.443-3.522,2.862-5.404,4.395
		c-1.35,0-2.919,0-4.857,0c-0.565,0.714-1.291,1.627-2.181,2.75c-0.938-0.597-1.699-1.084-2.603-1.662
		c-0.89,0.449-1.858,0.935-3.025,1.522c-0.749-1.556-1.43-2.963-2.28-4.728c2.287-0.255,4.132-0.92,5.673,0.874
		c6.332-3.82,6.332-3.82,11.112-2.426c0.159-1.111,0.316-2.194,0.474-3.289C162.91,163.36,165.052,165.283,165.364,165.771z"/>
	<path fill-rule="evenodd" clip-rule="evenodd" fill="--c-accent" d="M118.623,136.572c1.343,0.672,2.318,1.16,3.563,1.783
		c0.311-0.893,0.539-1.549,0.88-2.53c1.657-0.114,3.533-0.868,5.166,1.146c0.26-0.776,0.492-1.461,0.885-2.63
		c0.929,0.357,1.841,0.705,2.813,1.079c0.582-0.583,1.278-1.28,2.065-2.067c0.39,0.321,0.789,0.649,1.246,1.024
		c0.374-0.33,0.784-0.688,1.192-1.046c1.477,1.094,2.459,2.391,1.548,4.365c-2.618,1.666-1.562-1.905-3.484-2.105
		c-1.125,0.974-2.553,2.211-4.025,3.485c-1.997,0.146-4.143,0.125-6.215,0.507c-1.954,0.358-3.828,1.143-5.215,1.578
		c-2.132-0.44-3.924-0.809-5.769-1.189c0.055-0.586,0.105-1.123,0.203-2.159c1.365,0.534,2.487,0.972,3.95,1.543
		C117.758,138.58,118.096,137.798,118.623,136.572z"/>
	<path fill-rule="evenodd" clip-rule="evenodd" fill="--c-accent" d="M193.306,168.986c0.82-1.213,1.632-2.41,2.467-3.646
		c0.402,0.352,0.681,0.594,1.013,0.884c0.985-0.265,2.015-0.541,3.401-0.916c-0.187,2.668-1.194,3.472-3.307,3.771
		c-1.34,0.188-2.526,1.457-4.034,2.4c-0.479-0.348-1.076-0.776-1.645-1.186c-0.72,2.873-3.715,3.036-5.746,4.252
		c-2.146,1.285-4.753,1.799-7.578,2.799c-0.166-1.406-0.334-2.823-0.557-4.687c2.5,0,4.76,0,6.871,0
		c0.385-1.095,0.624-1.78,0.896-2.556c0.52,0.473,0.934,0.851,1.461,1.329c0.243-0.73,0.475-1.417,0.798-2.376
		c0.55,0.342,1.048,0.651,1.681,1.044c0.251-0.712,0.491-1.396,0.866-2.461C191.039,168.089,192.174,168.538,193.306,168.986z"/>
	<path fill-rule="evenodd" clip-rule="evenodd" fill="--c-accent" d="M179.533,185.717c0.262-1.296,0.507-2.509,0.928-4.607
		c1.313,1.729,2.124,2.798,2.772,3.651c-1.732,1.415-3.456,2.823-5.349,4.369c-1.374-0.123-3.262,0.78-4.639-1.276
		c-0.262,0.798-0.481,1.467-0.735,2.247c-2.11,0.274-4.271,0.559-6.949,0.907c-0.573-0.69-1.643-1.977-2.961-3.563
		c2.437-0.896,4.18-0.915,6.017,0.244C171.686,185.312,175.087,183.424,179.533,185.717z"/>
	<path fill-rule="evenodd" clip-rule="evenodd" fill="--c-accent" d="M126.341,161.829c0-0.733,0-1.467,0-2.744
		c1.672,0.69,2.803,1.155,4.211,1.732c0.265-0.723,0.5-1.368,0.868-2.37c1.588-0.169,3.432-0.836,4.807,0.748
		c3.546-0.513,5.845-4.252,10.089-3.162c0,1.39,0,2.843,0,4.287c-2.225,1.207-1.934-0.854-2.509-1.873
		c-1.635,1.103-3.268,2.201-4.965,3.346c-1.891,0-3.847,0-5.742,0c-1.479,0.864-2.158,3.039-4.378,2.415
		c-0.3-0.396-0.559-0.835-0.911-1.179C127.361,162.589,126.834,162.225,126.341,161.829z"/>
	<path fill-rule="evenodd" clip-rule="evenodd" fill="--c-accent" d="M161.826,127.561c1.038-1.099,2.156-2.283,3.347-3.543
		c0.17,0.145,0.574,0.489,1.15,0.981c0.227-0.709,0.434-1.359,0.709-2.223c2.023,0,4.141,0,6.347,0
		c0.29-0.843,0.523-1.521,0.757-2.199c1.742-0.504,4.128-1.962,5.093-1.312c2.019,1.358,3.421-1.588,5.206,0.24
		c0,0.748,0,1.816,0,2.948c-5.453-1.638-7.26-0.445-11.896,2.574c-0.531-0.363-1.11-0.76-1.85-1.264
		c-0.118,0.61-0.054,1.279-0.355,1.655c-0.854,1.064-1.861,2.007-2.81,3.001C165.635,126.149,163.905,130.623,161.826,127.561z"/>
	<path fill-rule="evenodd" clip-rule="evenodd" fill="--c-accent" d="M135.219,122.626c-0.64,1.119-1.283,2.24-1.93,3.371
		c-1.808-0.795-3.466-2.103-5.183,0.205c-1.108-1.274-2.183-2.506-4.212-4.837c1.86,0.442,2.338,0.556,3.292,0.783
		c0.257-0.129,0.995-0.501,2.075-1.043c0.397,0.914,0.739,1.698,1.102,2.532c1.47-0.655,2.096-2.485,4.251-2.41
		c1.429,0.049,2.908-1.302,4.239-1.962c0.765,0.357,1.557,0.728,2.654,1.242c0.223-1.513,0.384-2.598,0.553-3.754
		c1.207,0.599,2.284,1.132,3.923,1.944c-0.963,0.644-1.681,0.979-2.208,1.506c-0.878,0.878-1.636,1.876-2.96,3.431
		C139.468,123.251,137.125,124.827,135.219,122.626z"/>
	<path fill-rule="evenodd" clip-rule="evenodd" fill="--c-accent" d="M138.24,185.625c0-0.729,0-1.46,0-2.74
		c1.668,0.683,2.797,1.145,4.216,1.727c0.08-2.301,2.377-2.354,3.483-3.712c0.816,0.772,1.633,1.544,2.479,2.346
		c0.41-0.844,0.794-1.637,1.304-2.688c0.869,0.488,1.617,0.912,2.519,1.419c0.126-0.584,0.243-1.119,0.457-2.098
		c1.245-0.069,2.692-0.147,4.375-0.243c0,1.685,0,3.142,0,5.793c-0.788-1.779-1.104-2.493-1.667-3.765
		c-2.063,1.242-4.063,2.445-6.024,3.627c-3.258,0.499-6.604,1.013-9.952,1.524C139.032,186.42,138.636,186.022,138.24,185.625z"/>
	<path fill-rule="evenodd" clip-rule="evenodd" fill="--c-accent" d="M131.67,190.552c-2.479,0.474-5.391,0.328-7.439,1.585
		c-3.094,1.9-4.777-1.687-7.42-0.646c1.122-3.188,3.652-1.931,5.603-2.452c0.233-0.641,0.481-1.319,0.862-2.365
		c0.799,0.313,1.589,0.624,2.472,0.971c1.445-0.514,3.097-1.104,4.841-1.725C132.111,187.713,132.111,187.713,131.67,190.552z"/>
	<path fill-rule="evenodd" clip-rule="evenodd" fill="--c-accent" d="M101.315,182.94c-0.457-0.857-0.942-1.476-1.09-2.168
		c-0.072-0.34,0.483-0.812,1.134-1.802c1.007,1.747,1.761,3.057,2.449,4.249c-0.412,1.403-2.207,1.859-9.127,2.536
		c-2.892,2.124-6.599,0.415-9.79,3.231c0-2.117,0-3.044,0-4.448c0.879,0.214,1.817,0.441,3.051,0.741
		c0.076-0.067,0.483-0.423,1.113-0.973c0.992,0.46,2.115,0.983,3.573,1.659c0.291-1.502,0.524-2.71,0.9-4.656
		c0.495,1.438,0.729,2.122,1.014,2.948c0.472,0.053,1.006,0.11,1.775,0.199c0.179-1.16,0.346-2.245,0.505-3.267
		c2.28-1.215,1.941,0.896,2.67,2.069C100.058,183.161,100.73,183.043,101.315,182.94z"/>
	<path fill-rule="evenodd" clip-rule="evenodd" fill="--c-accent" d="M147.771,159.334c0-1.721,0-2.898,0-4.074
		c2.519-1.899,4.646,0.417,7.357,1.001c1.22-2.859,5.633-2.163,6.021-6.867c1.326,1.966,2.269,3.362,3.212,4.761
		c-1.806,0.91-3.602,1.813-5.464,2.75c-0.113-0.112-0.394-0.393-0.813-0.813C155.198,158.367,151.964,159.806,147.771,159.334z"/>
	<path fill-rule="evenodd" clip-rule="evenodd" fill="--c-accent" d="M120.186,167.777c-0.975,0-1.792-0.166-2.492,0.049
		c-0.674,0.204-1.227,0.802-2.03,1.367c-0.617-0.433-1.217-0.858-1.86-1.31c-0.758,0.716-1.593,1.509-2.4,2.273
		c-0.25,0-0.498,0.08-0.637-0.013c-1.542-0.991-3.066-2.013-4.397-2.893c1.658-0.83,3.47-1.734,6.336-3.168
		c0.408-0.043,2.299,0.762,3.572-1.016c1.148,2.408,2.515-1.231,3.908,0.564C120.186,164.522,120.186,165.851,120.186,167.777z"/>
	<path fill-rule="evenodd" clip-rule="evenodd" fill="--c-accent" d="M94.083,159.596c-4.482,1.627-7.89,2.864-12.241,4.445
		c-0.603,0-2.322,0-4.324,0c0.076-1.256,0.141-2.328,0.231-3.814c1.608,0.748,2.744,1.277,5.108,2.377
		c-0.914-1.539-1.193-2.007-1.584-2.668c0.419-0.517,0.952-1.174,1.619-1.997c0.477,1.174,0.75,1.846,1.025,2.518
		c1.368-2.166,1.402-2.191,6.37-4.681c0.19,1.147,0.366,2.21,0.586,3.535C91.546,159.369,92.278,159.434,94.083,159.596z"/>
	<path fill-rule="evenodd" clip-rule="evenodd" fill="--c-accent" d="M140.432,136.949c-0.468-1.685-0.842-3.033-1.2-4.327
		c1.273-0.525,2.112-0.871,3.13-1.29c1.231,0.691,2.744,1.54,4.12,2.311c1.431-1.183,1.505-2.744,3.281-3.174
		c1.044-0.253,1.691-2.146,2.968-3.928c0.963,1.656,1.747,3.006,2.501,4.304C151.754,133.913,146.053,134.341,140.432,136.949z"/>
	<path fill-rule="evenodd" clip-rule="evenodd" fill="--c-accent" d="M136.063,106.271c2.921-1.655,3.809,1.379,5.852,2.245
		c2.584-2.318,5.155-4.625,7.772-6.972c0.465,0.898,1.094,2.111,1.698,3.28c-1.683,2.698-4.952,2.108-7.229,3.79
		c-2.037,1.503-5.157,1.539-8.094,2.299C136.063,109.153,136.063,107.827,136.063,106.271z"/>
	<path fill-rule="evenodd" clip-rule="evenodd" fill="--c-accent" d="M159.686,182.533c0-1.797,0-2.579,0-3.425
		c0.919-0.479,1.886-0.981,2.746-1.431c1.488,0.802,3.048,1.642,4.785,2.576c0.438-2.169,1.685-2.713,2.94-3.484
		c0.988-0.606,1.492-1.999,2.505-3.471c0.861,1.227,1.619,2.304,2.416,3.44c-0.976,0.98-1.952,1.96-2.742,2.754
		C168.159,180.498,164.2,181.45,159.686,182.533z"/>
	<path fill-rule="evenodd" clip-rule="evenodd" fill="--c-accent" d="M131.958,69.037c0.192-1.1,0.379-2.18,0.472-2.719
		c0.783,0.743,1.813,1.719,2.537,2.404c-1.092,0.891-2.839,2.318-4.988,4.071c-1.557-0.383-3.542-0.872-6.318-1.556
		c0.686,0.995,1.006,1.46,1.338,1.942c-0.171,0.154-0.415,0.56-0.671,0.568c-0.91,0.026-1.824-0.082-2.766-0.141
		c-0.059-2.686,2.043-3.128,2.972-4.608c0.615,0.615,0.894,0.893,1.3,1.3c0.25-0.74,0.473-1.4,0.879-2.607
		C128.361,68.114,130.049,68.548,131.958,69.037z"/>
	<path fill-rule="evenodd" clip-rule="evenodd" fill="--c-accent" d="M134.938,99.194c-1.79-1.338-2.971-2.221-4.152-3.104
		c-0.241,0.18-0.484,0.36-0.726,0.541c0.242,0.489,0.485,0.977,0.878,1.771c-0.788,0.511-1.756,1.14-2.924,1.898
		c-0.31-4.151-0.285-4.363,2.282-5.074c2.5-0.691,5.068-1.142,7.723-1.724c0.169-0.486,0.408-1.173,0.723-2.079
		c0.743,0.274,1.369,0.505,2.363,0.871C139.394,95.196,136.949,96.8,134.938,99.194z"/>
	<path fill-rule="evenodd" clip-rule="evenodd" fill="--c-accent" d="M110.145,176.922c1.284,0.828,2.607,1.682,3.926,2.532
		c0.249-0.682,0.497-1.364,0.792-2.175c2.122,0.056,3.119,1.04,3.166,3.363c-3.038,0-5.927,0-9.081,0
		c-0.228,0.813-0.415,1.483-0.665,2.379c-0.856,0-1.777,0-3.116,0c-0.082-0.618-0.202-1.509-0.331-2.476
		C106.502,179.41,108.134,178.294,110.145,176.922z"/>
	<path fill-rule="evenodd" clip-rule="evenodd" fill="--c-accent" d="M93.026,159.417c0-0.95,0-1.932,0-3.18
		c1.028-0.179,2.102-0.367,3.176-0.558c0.694-0.694,1.388-1.391,2.049-2.05c1.267,0.711,2.521,1.415,3.434,1.93
		c1.386-0.405,2.597-0.756,3.643-1.061c0.806,0.805,1.361,1.36,2.299,2.299c-2.895,0.141-5.421,1.014-8.275-0.802
		c-1.094,1.369-2.312,2.892-3.746,4.688C94.964,160.367,94,159.896,93.026,159.417z"/>
	<path fill-rule="evenodd" clip-rule="evenodd" fill="--c-accent" d="M102.55,206.913c0-1.24,0-2.028,0-3.324
		c1.032,0.216,1.966,0.413,3.228,0.681c0.191-0.126,0.776-0.509,1.347-0.883c1.072,0.532,2.047,1.018,3.301,1.64
		c0.263-1.4,0.466-2.479,0.75-3.992c1.025,0.874,1.902,1.621,3,2.56c0.192-1.364,0.348-2.459,0.505-3.575c0.708,0,1.243,0,2.183,0
		c-0.477,0.767-0.793,1.273-1.162,1.869c0.704,0.254,1.389,0.506,2.073,0.752C117.931,203.779,108.706,206.421,102.55,206.913z"/>
	<path fill-rule="evenodd" clip-rule="evenodd" fill="--c-accent" d="M180.277,137.884c-1.136,1.845-2.109,1.509-3.173,0.343
		c-1.254,0.649-2.51,1.298-3.919,2.025c-1.49,0-3.211,0-5.588,0c0.751-1.275,1.174-2.819,1.788-2.9
		C172.84,136.899,176.37,134.231,180.277,137.884z"/>
	<path fill-rule="evenodd" clip-rule="evenodd" fill="--c-accent" d="M170.809,198.835c1.307,0,2.636,0,4.071,0
		c0,1.598,0,3.071,0,4.545c-0.215,0.016-0.432,0.035-0.647,0.052c-0.154-1.021-0.308-2.044-0.494-3.278
		c-1.515,0.895-2.929,1.959-4.511,2.603c-1.686,0.687-3.532,0.971-5.687,1.525c-0.706-0.421-1.833-1.094-2.827-1.688
		c0.523-2.011,2.203-1.959,5.637-0.289c0.245-0.706,0.485-1.396,0.778-2.241c0.748,0.381,1.48,0.752,2.582,1.313
		C170.108,200.458,170.447,199.672,170.809,198.835z"/>
	<path fill-rule="evenodd" clip-rule="evenodd" fill="--c-accent" d="M184.335,162.964c-0.48-0.285-1.066-0.635-1.515-0.901
		c-0.615,0.854-1.184,1.642-1.944,2.696c-0.853-1.572-1.429-2.636-2.152-3.971c2.213-0.582,4.359-1.144,7.013-1.839
		c0.27-0.267,0.971-0.968,1.591-1.588c1.029,0.949,2.062,1.9,2.847,2.626C188.471,160.854,186.671,161.772,184.335,162.964z"/>
	<path fill-rule="evenodd" clip-rule="evenodd" fill="--c-accent" d="M162.349,117.685c-1.352-0.753-2.204-1.228-3.363-1.872
		c0.972-1.141,1.563-1.838,2.053-2.414c2.503-0.388,4.859-0.752,7.873-1.219c0.101,0.188,0.56,1.037,0.936,1.739
		C167.571,115.063,164.815,116.447,162.349,117.685z"/>
	<path fill-rule="evenodd" clip-rule="evenodd" fill="--c-accent" d="M165.631,162.398c1.745-1.583,3.108-0.039,4.648,0.648
		c0.928-0.462,1.896-0.941,3.409-1.691c0.106,2.303,0.194,4.162,0.299,6.447c-2.049-0.49-3.781-0.904-5.512-1.318
		C168.92,164.14,165.138,164.786,165.631,162.398z"/>
	<path fill-rule="evenodd" clip-rule="evenodd" fill="--c-accent" d="M107.489,196.332c0-1.52,0-3.043,0-5.224
		c1.91,1.191,3.38,2.109,6.004,3.748c-0.75-1.564-1.008-1.973-1.144-2.42c-0.154-0.504-0.196-1.041-0.292-1.59
		c2.85,0.059,2.85,0.059,3.575,3.397C113.343,196.878,110.241,196.276,107.489,196.332z"/>
	<path fill-rule="evenodd" clip-rule="evenodd" fill="--c-accent" d="M197.164,180.035c0.573-0.547,1.536-1.462,2.569-2.444
		c0.132,0.115,0.537,0.474,0.962,0.847c0.392-0.361,0.805-0.745,1.203-1.114c0.403,0.371,0.814,0.75,1.224,1.127
		c0.715-0.713,1.406-1.404,1.854-1.853c1.06,0.904,2.131,1.825,3.806,3.259c-1.513-0.475-2.435-0.763-3.438-1.074
		c0.003,2.016-2.293,2.048-3.468,3.225c-0.408-0.365-0.813-0.728-1.331-1.19c-0.271,0.78-0.507,1.459-0.595,1.717
		C199.068,181.74,198.015,180.798,197.164,180.035z"/>
	<path fill-rule="evenodd" clip-rule="evenodd" fill="--c-accent" d="M133.325,107.807c0,1.9,0,2.833,0,3.765
		c-0.188,0.062-0.375,0.123-0.562,0.184c-0.285-0.69-0.569-1.379-0.945-2.29c-2.678,0.027-4.359,1.832-6.071,3.578
		c-1.584,0-3.169,0-4.904,0c-0.609-0.821-1.27-1.712-2.83-3.816c1.859,0.656,2.35,0.83,3.06,1.079
		c0.464-0.233,1.226-0.617,2.123-1.069c0.484,0.972,0.878,1.764,1.406,2.825c0.29-0.868,0.361-1.968,0.749-2.094
		C127.808,109.17,130.335,108.587,133.325,107.807z"/>
	<path fill-rule="evenodd" clip-rule="evenodd" fill="--c-accent" d="M125.355,209.724c2.195,1.621,3.504,2.584,4.743,3.501
		c1.755-1.169-2.293-3.249,1.417-3.868c0.532,0.907,1.137,1.944,1.902,3.255c-0.925,0.657-2.012,1.432-3.74,2.661
		c-0.703,0-2.417,0-4.323,0C125.355,213.715,125.355,212.258,125.355,209.724z"/>
	<path fill-rule="evenodd" clip-rule="evenodd" fill="--c-accent" d="M120.404,175.501c0.544-0.545,1.1-1.102,1.715-1.716
		c1.105,0,2.269,0,3.356,0c1.021,1.046,2.034,2.082,3.822,3.909c-3.992-2.059-5.224,3.728-9.099,1.365
		c0.386-0.803,0.767-1.593,1.198-2.483C121.166,176.325,120.785,175.914,120.404,175.501z"/>
	<path fill-rule="evenodd" clip-rule="evenodd" fill="--c-accent" d="M154.6,88.775c1.343-0.69,2.324-1.193,3.373-1.731
		c0.134,0.117,0.413,0.364,0.886,0.784c0.63-0.287,1.346-0.691,2.112-0.942c0.858-0.28,1.761-0.424,3.186-0.751
		c0.502,0.248,1.564,0.773,2.438,1.206c-1.888,0.983-3.836,1.999-5.868,3.059c-0.823-0.402-1.778-0.868-2.733-1.333
		c-0.219,0.187-0.437,0.375-0.654,0.562c0.312,0.446,0.625,0.891,0.955,1.358C156.543,91.256,156.543,91.256,154.6,88.775z"/>
	<path fill-rule="evenodd" clip-rule="evenodd" fill="--c-accent" d="M121.712,56.306c-3.639,0.69-3.834,3.211-5.68,4.508
		c-0.978-0.455-2.094-0.974-3.599-1.674c-0.446-1.461-1.01-3.313-1.626-5.336c0.824-0.123,1.357-0.202,1.742-0.259
		c0.743,1.684,1.44,3.263,2.138,4.842c0.24-0.072,0.481-0.145,0.72-0.217c0-0.917,0-1.835,0-3.425
		c1.075,0.545,1.679,0.989,2.351,1.158C118.608,56.113,119.513,56.099,121.712,56.306z"/>
	<path fill-rule="evenodd" clip-rule="evenodd" fill="--c-accent" d="M98.534,61.729c-0.575,0.574-1.547,1.547-2.526,2.526
		c-0.994-1.939-1.985-3.877-3.02-5.899c0.626-2.301,2.237-2.777,4.424-2.228C97.761,57.874,98.114,59.634,98.534,61.729z"/>
	<path fill-rule="evenodd" clip-rule="evenodd" fill="--c-accent" d="M160.199,62.858c0.06-0.021-0.331,0.256-0.624,0.178
		c-0.521-0.138-0.984-0.493-1.663-0.861c-0.766,1.056-1.641,2.264-2.569,3.545c-1.079-0.595-1.879-1.034-2.928-1.611
		c-0.51,0.37-1.104,0.801-1.784,1.293c-0.443-0.5-0.957-1.082-1.779-2.013c2.305-0.684,4.506-1.335,7.297-2.165
		c0.194-0.192,0.892-0.891,1.592-1.59C158.603,60.763,159.462,61.892,160.199,62.858z"/>
	<path fill-rule="evenodd" clip-rule="evenodd" fill="--c-accent" d="M96.004,147.261c-2.88,0.745-4.998,1.29-7.112,1.837
		c-0.859-1.278-1.473-2.192-2.227-3.31c0.412,0.021,6.017,0.32,6.017,0.32c0.506-1.071-2.648-2.44,0.696-3.443
		C94.083,143.898,94.843,145.229,96.004,147.261z"/>
	<path fill-rule="evenodd" clip-rule="evenodd" fill="--c-accent" d="M117.249,154.134c-3.021,0.677-5.646,1.263-8.449,1.888
		c0.482-1.773,0.88-3.236,1.307-4.802c1.671,0,3.371,0,5.23,0C115.902,152.08,116.496,152.987,117.249,154.134z"/>
	<path fill-rule="evenodd" clip-rule="evenodd" fill="--c-accent" d="M147.333,115.254c0.583,0.95,1.165,1.901,1.23,2.007
		c2.563-0.325,4.298-0.545,5.892-0.747c1.1,2.443,0.057,3.725-1.619,5.02c-2.568-1.171-5.298-2.264-6.51-5.204
		C146.662,115.972,146.998,115.612,147.333,115.254z"/>
	<path fill-rule="evenodd" clip-rule="evenodd" fill="--c-accent" d="M183.585,181.33c2.335-2.385,5.294,3.3,7.979-1.188
		c0.104,2.174,0.173,3.641,0.253,5.305c-1.592,0-2.917,0-4.114,0C186.331,184.074,184.958,182.7,183.585,181.33z"/>
	<path fill-rule="evenodd" clip-rule="evenodd" fill="--c-accent" d="M170.365,96.129c0,0.852,0,1.444,0,2.083
		c-1.884,0.644-3.788,1.295-5.676,1.941c-0.148,0.635-0.272,1.175-0.413,1.779c-1.005,0.77-1.068-0.637-1.671-0.789
		c-0.625-0.158-1.241-0.347-2.201-0.616c1.431-1.602,2.498-2.797,3.564-3.993c1.18,2.208,2.119-0.951,3.227-0.144
		c0.464,0.339,0.898,0.721,1.357,1.091C169.091,97.08,169.665,96.65,170.365,96.129z"/>
	<path fill-rule="evenodd" clip-rule="evenodd" fill="--c-accent" d="M104.218,52.723c1.391,1.114,2.107,1.687,2.826,2.263
		c0,1.922,0,3.783,0,5.927c-0.703-0.638-1.115-1.013-1.574-1.429c-0.368,0.795-0.736,1.589-1.12,2.417
		c-0.492-0.492-0.91-0.91-1.309-1.309C103.385,58.287,103.727,56.004,104.218,52.723z"/>
	<path fill-rule="evenodd" clip-rule="evenodd" fill="--c-accent" d="M119.405,87.176c0-1.435,0-2.562,0-4.183
		c1.144,0.488,1.936,0.825,2.834,1.208c3.537-2.939,3.537-2.939,6.482,0.114c0,0.197,0.083,0.463-0.014,0.58
		c-0.561,0.679-1.163,1.324-2.064,2.328c-0.226-1.594-0.379-2.681-0.582-4.117C123.96,85.152,121.842,86.528,119.405,87.176z"/>
	<path fill-rule="evenodd" clip-rule="evenodd" fill="--c-accent" d="M106.606,131.238c-1.732,0.616-3.883,1.381-6.976,2.482
		c1.302-3.032,1.557-5.436,4.742-6.777C105.049,128.247,105.784,129.658,106.606,131.238z"/>
	<path fill-rule="evenodd" clip-rule="evenodd" fill="--c-accent" d="M205.337,188.054c0.433,0.353,0.832,0.676,1.328,1.083
		c0.364-0.76,0.73-1.526,1.229-2.57c0.676,0.363,1.289,0.727,1.932,1.027c0.659,0.307,1.35,0.548,2.484,1.001
		c-0.773,0.723-1.389,1.297-2.004,1.872c-0.503-0.506-0.782-0.783-1.271-1.271c-1.287,1.287-2.576,2.573-4.22,4.217
		c-0.968-1.186-1.689-1.987-2.293-2.873c-0.133-0.197,0.158-0.686,0.306-1.228c0.565,0.312,1.089,0.601,1.625,0.897
		C204.732,189.529,205.01,188.855,205.337,188.054z"/>
	<path fill-rule="evenodd" clip-rule="evenodd" fill="--c-accent" d="M169.935,96.212c0.982-0.972,1.542-1.525,2.102-2.08
		c1.265,0.503,4.933-0.054,8.85-1.423c0.078,1.175,0.148,2.244,0.232,3.503C177.349,96.212,173.856,96.212,169.935,96.212z"/>
	<path fill-rule="evenodd" clip-rule="evenodd" fill="--c-accent" d="M175.829,109.579c-0.664-0.13-1.201-0.237-2.494-0.492
		c2.465-0.837,4.226-1.434,6.009-2.039c0.416,0.864,0.776,1.613,1.264,2.627c0.344-0.977,0.584-1.66,0.839-2.386
		c1.066,0.524,2.125,1.045,3.468,1.705c-2.802,1.06-5.345,2.021-7.967,3.012C176.521,111.08,176.147,110.268,175.829,109.579z"/>
	<path fill-rule="evenodd" clip-rule="evenodd" fill="--c-accent" d="M130.917,198.075c-2.473,1.444-4.995,2.915-7.938,4.633
		c-0.107-1.344-0.18-2.254-0.251-3.149c1.081-0.742,2.125-1.446,3.152-2.171C128.103,195.816,128.182,195.823,130.917,198.075z"/>
	<path fill-rule="evenodd" clip-rule="evenodd" fill="--c-accent" d="M164.084,71.233c0.575-1.146,1.149-2.292,1.793-3.574
		c0.67,0.585,1.079,0.942,1.021,0.891c1.486-0.172,2.577-0.298,3.666-0.424c0.018,0.189,0.037,0.378,0.055,0.567
		c1.327-0.344,2.657-0.688,4.16-1.078c0.192,0.876,0.312,1.414,0.53,2.415c-2.246,0.063-4.791-0.591-6.316,0.373
		C167.364,71.435,165.322,68.839,164.084,71.233z"/>
	<path fill-rule="evenodd" clip-rule="evenodd" fill="--c-accent" d="M138.44,198.396c0.141-1.278,0.29-2.621,0.47-4.252
		c0.679-0.318,1.836-0.857,3.182-1.484c1.152,0.841,2.365,1.728,4.486,3.274c-2.618,0.274-4.083,0.427-5.543,0.579
		C140.335,197.308,140.852,199.616,138.44,198.396z"/>
	<path fill-rule="evenodd" clip-rule="evenodd" fill="--c-accent" d="M75.006,81.638c1.066,0.868,1.46,1.188,1.851,1.505
		c0.754-1.141,1.531-2.317,2.53-3.828c1.432,0.56,2.774,1.085,4.526,1.771c-2.954,1.773-5.371,3.225-8.262,4.961
		C75.441,84.617,75.276,83.486,75.006,81.638z"/>
	<path fill-rule="evenodd" clip-rule="evenodd" fill="--c-accent" d="M163.902,143.834c-3.794,0.292-6.38,0.236-8.276-2.92
		c2.271-0.45,4.144-0.82,6.53-1.295C162.53,140.52,163.077,141.842,163.902,143.834z"/>
	<path fill-rule="evenodd" clip-rule="evenodd" fill="--c-accent" d="M137.816,64.088c0.574,0.95,1.146,1.9,1.734,2.873
		c0.824-0.729,1.229-1.086,1.654-1.463c0.392,0.365,0.801,0.749,0.996,0.931c1.031-0.37,1.944-0.697,3.975-1.426
		c-1.114,1.999-1.622,2.911-2.161,3.875c-1.261,0-2.39,0-4.087,0C139.228,67.738,137.086,67.183,137.816,64.088z"/>
	<path fill-rule="evenodd" clip-rule="evenodd" fill="--c-accent" d="M83.734,136.342c2.691-2.227,4.631-3.831,6.951-5.75
		c0.886,0.963,1.796,1.953,3.247,3.53c-2.791-0.66-4.355,0.008-5.646,1.225C86.99,136.568,87.06,136.642,83.734,136.342z"/>
	<path fill-rule="evenodd" clip-rule="evenodd" fill="--c-accent" d="M138.293,82.982c-2.638,0.59-5.277,1.18-8.205,1.833
		c0-1.492,0-2.418,0-3.414c0.828-0.421,1.793-0.914,3.059-1.558c0.532,0.688,1.229,1.59,1.751,2.265c1.382,0,2.36,0,3.341,0
		C138.258,82.399,138.275,82.691,138.293,82.982z"/>
	<path fill-rule="evenodd" clip-rule="evenodd" fill="--c-accent" d="M173.926,81.41c1.687,0.152,2.769,0.25,3.854,0.346
		c0.029-0.219,0.061-0.438,0.094-0.658c1.069,0.526,2.14,1.051,3.309,1.625c-2.685,0.876-5.265,1.719-8.127,2.654
		c-0.338-0.357-0.959-1.016-1.93-2.045C172.38,82.471,173.477,81.718,173.926,81.41z"/>
	<path fill-rule="evenodd" clip-rule="evenodd" fill="--c-accent" d="M126.341,161.829c0.493,0.396,1.02,0.76,1.47,1.2
		c0.352,0.344,0.61,0.782,0.911,1.179c-1.67,1.112-1.67,1.112-3.688,1.186c-1.476-1.564-2.875-3.045-4.65-4.924
		C122.568,160.969,124.455,161.398,126.341,161.829z"/>
	<path fill-rule="evenodd" clip-rule="evenodd" fill="--c-accent" d="M185.887,199.589c-2.637,0.587-5.276,1.178-8.204,1.831
		c0-1.492,0-2.418,0-3.414c0.827-0.42,1.794-0.914,3.054-1.556c0.491,0.73,1.135,1.686,1.523,2.265c1.613,0,2.593,0,3.574,0
		C185.852,199.005,185.869,199.296,185.887,199.589z"/>
	<path fill-rule="evenodd" clip-rule="evenodd" fill="--c-accent" d="M93.437,202.405c-0.289-2.875-2.56-4.472-4.356-6.419
		c2.515-1.805,4.115-0.703,5.062,1.132c0.723,1.398,0.777,3.147,1.166,4.908C94.723,202.145,94.18,202.254,93.437,202.405z"/>
	<path fill-rule="evenodd" clip-rule="evenodd" fill="--c-accent" d="M104.307,104.475c-2.85,1.089-5.023,1.919-7.829,2.991
		c0.634-1.41,1.056-2.131,1.277-2.91c0.153-0.536,0.03-1.15,0.03-1.625C98.907,101.809,101.168,102.255,104.307,104.475z"/>
	<path fill-rule="evenodd" clip-rule="evenodd" fill="--c-accent" d="M164.557,71.7c-0.168,0.847-0.275,1.386-0.462,2.336
		c-1.026-0.439-1.819-0.778-2.718-1.161c-1.333,1.122-2.854,2.403-4.377,3.686c-0.244-0.207-0.484-0.411-0.729-0.618
		c0.334-0.693,0.795-1.356,0.971-2.088c0.166-0.701,0.035-1.471,0.035-2.737c0.854,0.661,1.234,0.957,1.982,1.534
		c0.45-0.958,0.943-2.009,1.186-2.525C162.32,70.845,163.327,71.23,164.557,71.7z"/>
	<path fill-rule="evenodd" clip-rule="evenodd" fill="--c-accent" d="M222.613,184.371c0,1.003,0,1.53,0,1.995
		c-2.421,1.469-5.535-0.975-7.645,1.667c-0.524-0.57-1.042-1.136-1.572-1.709C216.044,183.619,219.361,184.667,222.613,184.371z"/>
	<path fill-rule="evenodd" clip-rule="evenodd" fill="--c-accent" d="M85.882,96.064c-1.383,0.857-2.806,1.74-4.217,2.614
		c-0.374-0.326-0.784-0.687-1.19-1.043c-0.329,0.329-0.608,0.608-1.163,1.162c-0.696-0.983-1.354-1.915-2.212-3.127
		c1.028-0.232,1.805-0.637,2.053-0.425c1.274,1.092,2.544,1.666,4.287,0.675c-0.327-0.413-0.64-0.806-1.042-1.312
		c0.454-0.492,0.948-1.026,1.627-1.762C84.639,93.908,85.209,94.896,85.882,96.064z"/>
	<path fill-rule="evenodd" clip-rule="evenodd" fill="--c-accent" d="M136.823,82.217c2.995-2.612,4.871-4.245,6.792-5.92
		c0.428,0.833,0.894,1.747,1.388,2.71C142.801,81.232,141.453,81.864,136.823,82.217z"/>
	<path fill-rule="evenodd" clip-rule="evenodd" fill="--c-accent" d="M150.139,206.05c0.005,4.428-4.188,2.407-5.666,5.041
		c0-1.941,0-3.377,0-5.041C146.226,206.05,148.062,206.05,150.139,206.05z"/>
	<path fill-rule="evenodd" clip-rule="evenodd" fill="--c-accent" d="M105.047,143.264c-0.961,0.963-1.382,1.383-1.876,1.876
		c-1.688-0.505-3.427-1.022-5.54-1.652c2.263-1.132,4.286-2.145,6.783-3.392C104.658,141.314,104.857,142.313,105.047,143.264z"/>
	<path fill-rule="evenodd" clip-rule="evenodd" fill="--c-accent" d="M195.478,191.714c2.071,0,3.795,0,4.152,0
		c1.663,0.838,2.331,1.174,2.998,1.511c-0.166,0.271-0.332,0.545-0.497,0.814c-0.912-0.346-1.825-0.688-2.76-1.04
		c-0.541,0.944-1.184,2.066-1.816,3.174C195.345,195.449,195.137,193.899,195.478,191.714z"/>
	<path fill-rule="evenodd" clip-rule="evenodd" fill="--c-accent" d="M185.139,198.192c2.274-1.983,4.147-3.615,6.071-5.29
		c0.426,0.832,0.893,1.746,1.534,3C190.214,196.114,189.272,200.076,185.139,198.192z"/>
	<path fill-rule="evenodd" clip-rule="evenodd" fill="--c-accent" d="M154.571,77.45c-0.81-0.612-1.401-1.058-2.221-1.676
		c-0.932,1.428-1.71,2.622-2.912,4.464c-0.844-1.829-1.47-3.185-2.317-5.024c2.999,0,5.261,0,7.83,0
		C154.811,76.043,154.695,76.72,154.571,77.45z"/>
	<path fill-rule="evenodd" clip-rule="evenodd" fill="--c-accent" d="M91.179,79.569c0.507-0.719,1.548-2.191,3.155-4.467
		c1.049,1.897,1.806,3.267,2.429,4.394c-0.435,0.049-1.82,0.208-3.366,0.384c-0.196,0.564-0.432,1.249-0.987,2.851
		C91.909,81.448,91.575,80.589,91.179,79.569z"/>
	<path fill-rule="evenodd" clip-rule="evenodd" fill="--c-accent" d="M96.777,89.353c1.505,0,2.807,0,4.111,0
		c1.188,1.861,0.325,3.197-0.693,4.078c-1.33,0-2.283,0-3.418,0C96.777,92.477,96.777,91.177,96.777,89.353z"/>
	<path fill-rule="evenodd" clip-rule="evenodd" fill="--c-accent" d="M74.984,151.641c0,0.993,0,1.917,0,2.994
		c-0.732-0.06-1.603,0.079-1.733-0.172c-1.078-2.061-2.018-4.191-2.991-6.282c0.577-0.298,0.899-0.465,1.428-0.737
		C72.703,148.734,73.755,150.074,74.984,151.641z"/>
	<path fill-rule="evenodd" clip-rule="evenodd" fill="--c-accent" d="M71.793,95.298c1.15,0,2.071,0,2.962,0
		c0.426,1.465,0.824,2.833,1.274,4.381c-1.146,0-2.597,0-4.236,0C71.793,98.419,71.793,97.105,71.793,95.298z"/>
	<path fill-rule="evenodd" clip-rule="evenodd" fill="--c-accent" d="M76.533,138.471c-0.716,0.706-1.273,1.256-1.839,1.815
		c-1.698,0-3.413,0-5.246,0c-0.09-0.639-0.166-1.175-0.299-2.119c1.138,0.472,2.016,0.837,3.213,1.336
		c0.286-1.437,0.528-2.65,0.911-4.578C74.545,136.31,75.392,137.231,76.533,138.471z"/>
	<path fill-rule="evenodd" clip-rule="evenodd" fill="--c-accent" d="M106.226,144.607c0-1.98,0-2.904,0-4c1.954,0,3.796,0,6.404,0
		c-0.853,1.054-1.199,1.829-1.79,2.141C109.577,143.413,108.188,143.841,106.226,144.607z"/>
	<path fill-rule="evenodd" clip-rule="evenodd" fill="--c-accent" d="M107.304,196.335c-1.243,1.964-2.943,1.273-4.582,0.75
		c-0.485-0.152-0.913-0.495-1.367-0.75c0-1.128,0-2.257,0-4.388C103.824,193.77,105.564,195.051,107.304,196.335z"/>
	<path fill-rule="evenodd" clip-rule="evenodd" fill="--c-accent" d="M120.68,152.264c0-1.818,0-3.271,0-5.132
		c1.798,0.886,3.193,1.573,4.576,2.255C124.679,151.941,123.15,152.616,120.68,152.264z"/>
	<path fill-rule="evenodd" clip-rule="evenodd" fill="--c-accent" d="M106.932,114.022c0.086,3.041,0.086,3.041-1.371,4.937
		c-0.416-0.382-0.829-0.762-1.231-1.132c-0.403,0.37-0.816,0.75-1.52,1.397c0-1.75,0-3.206,0-5.043
		c0.557,0.415,0.928,0.691,1.312,0.978C104.985,114.811,105.886,114.446,106.932,114.022z"/>
	<path fill-rule="evenodd" clip-rule="evenodd" fill="--c-accent" d="M95.269,90.17c0.068,1.239,0.118,2.164,0.173,3.158
		c-0.959,0.504-1.918,1.009-2.794,1.469c-1.331-0.356-2.696-0.722-4.126-1.105c0.088-0.26,0.105-0.701,0.283-0.78
		C90.794,92.029,92.812,91.201,95.269,90.17z"/>
	<path fill-rule="evenodd" clip-rule="evenodd" fill="--c-accent" d="M101.77,196.532c-1.373,1.346-2.342,2.296-3.3,3.235
		c-1.021-0.596-2.064-1.204-3.103-1.809C97.577,194.524,97.577,194.524,101.77,196.532z"/>
	<path fill-rule="evenodd" clip-rule="evenodd" fill="--c-accent" d="M131.237,174.459c0.538-1.034,1.049-2.019,1.708-3.283
		c1.387,0.659,2.801,1.332,4.383,2.085c-0.399,0.718-0.568,1.487-0.939,1.6c-1.187,0.366-2.448,0.489-3.991,0.759
		C132.221,175.442,131.661,174.883,131.237,174.459z"/>
	<path fill-rule="evenodd" clip-rule="evenodd" fill="--c-accent" d="M81.914,111.028c-0.41-0.754-0.656-1.208-0.892-1.642
		c1.929-1.564,3.758-3.047,5.594-4.536c0.495,0.494,1.046,1.046,1.732,1.732C86.229,108.047,84.139,109.491,81.914,111.028z"/>
	<path fill-rule="evenodd" clip-rule="evenodd" fill="--c-accent" d="M119.162,87.404c-1.49,2.534-3.676-1.575-5.586,1.058
		c-0.157-1.459-0.268-2.482-0.403-3.751c1.539,0,2.847,0,4.314,0C117.964,85.479,118.581,86.47,119.162,87.404z"/>
	<path fill-rule="evenodd" clip-rule="evenodd" fill="--c-accent" d="M72.902,114.078c-2.722,0-4.847,0-7.073,0
		c-0.049-0.685-0.087-1.222-0.168-2.34c0.703,0.464,1.027,0.746,1.402,0.909c0.5,0.216,1.039,0.34,1.803,0.578
		c0.222-1.264,0.413-2.356,0.657-3.748C70.657,111.018,71.661,112.387,72.902,114.078z"/>
	<path fill-rule="evenodd" clip-rule="evenodd" fill="--c-accent" d="M162.035,129.113c-0.96,0.488-1.925,0.979-3.393,1.726
		c-0.544-1.253-1.146-2.642-1.942-4.482c1.637,0,2.553,0,3.625,0C160.8,127.123,161.414,128.113,162.035,129.113z"/>
	<path fill-rule="evenodd" clip-rule="evenodd" fill="--c-accent" d="M74.736,150.734c1.652-1.373,2.942-2.447,4.853-4.04
		c0,2.424,0,3.997,0,5.811C77.97,151.915,76.61,151.42,74.736,150.734z"/>
	<path fill-rule="evenodd" clip-rule="evenodd" fill="--c-accent" d="M138.24,185.625c0.396,0.397,0.792,0.795,1.19,1.19
		c0,0.584,0,1.172,0,1.759c-4.459-0.988-4.459-0.988-7.271-4.043C134.408,184.937,136.324,185.28,138.24,185.625z"/>
	<path fill-rule="evenodd" clip-rule="evenodd" fill="--c-accent" d="M81.229,148.281c0.768-1.286,1.369-2.293,2.538-4.255
		c0.6,2.066,0.914,3.152,1.281,4.416c0.47,0.174,1.137,0.423,1.805,0.67C83.816,150.09,83.816,150.09,81.229,148.281z"/>
	<path fill-rule="evenodd" clip-rule="evenodd" fill="--c-accent" d="M130.265,55.256c-1.214,0.779-2.23,1.431-3.69,2.369
		c1.316-4.035,1.316-4.035-2.165-8.224c1.983,0.945,3.083,1.156,3.661,1.821C128.884,52.158,129.309,53.431,130.265,55.256z"/>
	<path fill-rule="evenodd" clip-rule="evenodd" fill="--c-accent" d="M117.183,71.33c0.943-0.501,1.733-0.921,2.494-1.327
		c1.563,2.136,0.571,3.473-1.098,4.966c-1.083-1.341-2.813-2.15-3.05-4.15C116.773,69.822,116.814,71.272,117.183,71.33z"/>
	<path fill-rule="evenodd" clip-rule="evenodd" fill="--c-accent" d="M149.43,203.358c3.373,0.765,5.616,1.274,7.839,1.778
		c0,0.485,0,0.87,0,1.659c-1.389,0.105-2.821,0.209-4.098,0.304C152.046,205.979,151.094,205.022,149.43,203.358z"/>
	<path fill-rule="evenodd" clip-rule="evenodd" fill="--c-accent" d="M115.452,113.234c0,1.326,0,2.244,0,3.572
		c-1.698-2.227-5.788-0.363-5.797-4.777c1.025,0.378,1.867,0.817,2.759,0.985C113.473,113.213,114.576,113.18,115.452,113.234z"/>
	<path fill-rule="evenodd" clip-rule="evenodd" fill="--c-accent" d="M111.605,129.063c0.61-1.477,1.169-2.83,1.701-4.116
		c1.361,0.656,2.329,1.122,3.064,1.475c-0.864,1.048-1.8,2.181-2.795,3.387C113.048,129.609,112.535,129.415,111.605,129.063z"/>
	<path fill-rule="evenodd" clip-rule="evenodd" fill="--c-accent" d="M182.379,134.934c0.455,0.823,0.884,1.599,1.391,2.516
		c-0.788,0.3-1.287,0.49-2.007,0.764c-0.725-1.467-1.411-2.857-2.297-4.651c2.013,0,3.589,0,6.009,0
		C183.854,134.281,183.048,134.638,182.379,134.934z"/>
	<path fill-rule="evenodd" clip-rule="evenodd" fill="--c-accent" d="M61.769,97.413c1.433,2.117,2.865,4.232,4.416,6.524
		c-0.953,0.441-1.436,0.665-2.359,1.093c-0.351-1.365-0.48-2.615-1-3.673c-0.539-1.098-1.456-2.009-2.208-3.001
		C61,98.042,61.384,97.727,61.769,97.413z"/>
	<path fill-rule="evenodd" clip-rule="evenodd" fill="--c-accent" d="M76.566,138.083c0-1.176,0-2.299,0-3.577
		c0.739,0.067,1.546-0.084,1.748,0.197c0.937,1.316,1.707,2.75,2.546,4.158C79.193,140.119,77.848,138.653,76.566,138.083z"/>
	<path fill-rule="evenodd" clip-rule="evenodd" fill="--c-accent" d="M150.329,189.898c2.005,0.981,3.271,1.6,4.88,2.387
		c-1.673,0.986-3.161,1.859-4.88,2.873C150.329,193.467,150.329,192.032,150.329,189.898z"/>
	<path fill-rule="evenodd" clip-rule="evenodd" fill="--c-accent" d="M83.713,123.55c0-0.926,0-2.055,0-3.841
		c2.155,1.352,3.875,2.433,6.12,3.841C87.367,123.55,85.436,123.55,83.713,123.55z"/>
	<path fill-rule="evenodd" clip-rule="evenodd" fill="--c-accent" d="M83.523,124.644c-1.864,0-3.728,0-5.784,0
		c0-0.863,0-1.795,0-2.856c0.429-0.429,0.988-0.989,1.836-1.837c0.205,1.287,0.372,2.34,0.571,3.597c1.103,0,2.232,0,3.361,0
		C83.513,123.913,83.518,124.279,83.523,124.644z"/>
	<path fill-rule="evenodd" clip-rule="evenodd" fill="--c-accent" d="M145.491,93.3c0.625-0.624,1.044-1.043,1.579-1.58
		c0.378,0.301,0.771,0.614,1.28,1.019c0.363-0.746,0.731-1.496,1.47-3.015c0.154,2.177,0.256,3.607,0.356,5.028
		C148.089,95.71,146.609,95.24,145.491,93.3z"/>
	<path fill-rule="evenodd" clip-rule="evenodd" fill="--c-accent" d="M143.217,206.926c-1.331,1.892-2.271,3.229-3.211,4.567
		c-1.194-0.859-2.578-1.853-3.968-2.854C138.19,208.126,140.327,207.616,143.217,206.926z"/>
</g>
<path fill-rule="evenodd" clip-rule="evenodd" fill="--c-accent" d="M157.574,29.319"/>
</svg>
