<?xml version="1.0" encoding="utf-8"?>
<!-- Generator: Adobe Illustrator 16.0.0, SVG Export Plug-In . SVG Version: 6.00 Build 0)  -->
<!DOCTYPE svg PUBLIC "-//W3C//DTD SVG 1.1//EN" "http://www.w3.org/Graphics/SVG/1.1/DTD/svg11.dtd">
<svg version="1.1" id="Layer_1" xmlns="http://www.w3.org/2000/svg" xmlns:xlink="http://www.w3.org/1999/xlink" x="0px" y="0px"
	 width="283.46px" height="283.46px" viewBox="0 0 283.46 283.46" enable-background="new 0 0 283.46 283.46" xml:space="preserve">
<path fill="--c-accent" d="M29.215,48.888c0.489,2.423,2.25,8.52,4.167,9.084c1.919,0.564,2.721-1.664,3.847-2.24
	c0.66-0.337,1.382,0.039,1.869,0.408l-0.458,2.706l2.506,3.392l2.032,0.343l-0.35,2.071l2.506,3.392l2.032,0.343l-0.35,2.072
	l2.506,3.393l2.031,0.343l-0.35,2.072l2.507,3.392l2.032,0.343l-0.35,2.071l2.505,3.393l0.367,0.062l-1.089,0.952
	c0,0,1.218,0.61,1.074,1.465c-0.146,0.856-5.511,9.186-6.906,10.93c-1.394,1.743-13.687,14.622-13.687,14.622l1.741,2.713
	c0,0,10.066-6.216,14.744-9.165c2.216-1.397,6.889-3.908,11.195-6.165l78.707,122.302c0,0,12.883,10.973,21.636,17.731
	c8.754,6.757,29.107,24.272,29.107,24.272s-10.241-24.822-13.909-35.256s-10.045-26.108-10.045-26.108L79.312,90.58
	c3.348-3.145,6.887-6.396,8.801-7.929c4.315-3.459,13.477-10.945,13.477-10.945l-1.997-2.531c0,0-16.186,7.416-18.29,8.164
	c-2.103,0.75-11.729,3.102-12.584,2.958c-0.855-0.142-1.035-1.491-1.035-1.491l-1.799,1.029l0.299-1.764l-2.151-2.893l-2.459-0.416
	l0.423-2.499l-2.15-2.893l-2.46-0.416l0.422-2.499l-2.151-2.893l-2.458-0.416l0.422-2.499l-2.15-2.893l-2.459-0.415l0.423-2.5
	l-2.15-2.892l-2.779-0.47l-0.253,0.211c-0.173-0.517-0.24-1.136,0.157-1.601c0.823-0.961,3.177-1.223,3.074-3.22
	c-0.103-1.997-5.621-5.128-7.865-6.167c-2.244-1.039-7.748-2.958-8.603-3.103c-0.746-0.126-1.533,0.493-1.724,0.653l-0.008-0.011
	c0,0-1.025,0.691-1.083,1.557C28.141,40.664,28.728,46.464,29.215,48.888z"/>
<g>
	<path fill="#808080" d="M135.891,73.212l-7.018,74.715l25.884,32.028l-1.511-106.218c4.575-0.406,9.366-0.778,11.819-0.804
		c5.529-0.056,17.358-0.289,17.358-0.289l-0.007-3.223c0,0-7.98-1.918-13.767-3.372c1.264-4.456,1.512-12.464,1.934-16.133
		c0.584-5.083,0.666-14.5-1-20.5c-1.188-4.275-9.607-7.999-14.352-9.788c1.048-1.719-1.307-7.46-2.415-9.635
		c-1.124-2.203-4.269-7.111-4.852-7.752c-0.51-0.56-1.511-0.559-1.76-0.55l0.001-0.014c0,0-1.233-0.088-1.813,0.556
		c-0.58,0.645-3.7,5.57-4.814,7.777c-1.111,2.208-3.489,8.091-2.33,9.718c1.162,1.629,3.167,0.372,4.409,0.614
		c0.728,0.142,1.064,0.884,1.219,1.475l-2.032,1.846l-0.124,4.216l1.387,1.524l-1.554,1.414l-0.124,4.215l1.386,1.525l-1.555,1.413
		l-0.125,4.216l1.386,1.524l-1.554,1.414l-0.123,4.216l1.387,1.524l-1.556,1.414l-0.123,4.215l0.251,0.275l-1.444,0.076
		c0,0,0.582,1.231-0.061,1.816c-0.643,0.583-10.006,3.822-12.181,4.333c-2.172,0.511-19.794,3.052-19.794,3.052l-0.306,3.209
		c0,0,11.758,1.326,17.256,1.894C125.883,71.417,131.11,72.329,135.891,73.212z M150.293,20.581l-0.459,0.561
		C149.947,20.924,150.102,20.731,150.293,20.581z M149.351,43.19l1.874-1.706l0.095-3.603l-1.679-1.845l1.877-1.704l0.094-3.604
		l-1.679-1.845l1.877-1.705l0.056-2.145c3.43,1.329,7.979,3.341,9.135,5.05c1.787,2.643,1.327,29.271-0.229,33.588
		c-3.44-1.454-9.051-4.062-9.508-4.563c-0.586-0.64,0.106-1.812,0.106-1.812l-2.051-0.302l1.323-1.203l0.095-3.603l-1.678-1.845
		l1.876-1.705l0.093-3.603L149.351,43.19z"/>
	<path fill="#808080" d="M142.421,225.087l-0.281-0.239l-0.2-0.312l-17.682-27.476l-1.968,20.952c0,0,3.359,16.587,6.071,27.308
		c2.715,10.72,7.911,37.064,7.911,37.064s7.27-25.848,10.826-36.319c1.375-4.048,2.914-8.959,4.286-13.464
		C146.419,228.489,142.492,225.147,142.421,225.087z"/>
</g>
<g>
	<path fill="#808080" d="M142.421,225.087l-0.281-0.239l-0.2-0.312l-16.528-25.682l-5.368,6.62c0,0-6.401,15.664-10.087,26.09
		c-3.685,10.427-13.966,35.232-13.966,35.232s20.381-17.482,29.146-24.226c6.489-4.991,15.235-12.284,19.346-15.739
		C143.221,225.768,142.452,225.113,142.421,225.087z"/>
	<path fill="#808080" d="M261.04,40.136c-0.113-0.748-0.946-1.302-1.159-1.433l0.009-0.012c0,0-0.978-0.757-1.817-0.542
		c-0.841,0.214-6.167,2.583-8.317,3.803c-2.149,1.221-7.392,4.798-7.328,6.795c0.063,2,2.43,2.065,3.329,2.956
		c0.526,0.521,0.395,1.325,0.195,1.903l-2.714,0.411l-2.44,3.439l0.311,2.038l-2.078,0.314l-2.44,3.44l0.31,2.037l-2.077,0.315
		l-2.439,3.439l0.306,2.036l-2.077,0.315l-2.438,3.441l0.309,2.037l-2.077,0.314l-2.44,3.439l0.057,0.368l-1.245-0.737
		c0,0-0.199,1.348-1.057,1.478c-0.858,0.129-10.446-2.366-12.539-3.147c-2.092-0.779-21.603-4.319-21.603-4.319l-1.194,1.764
		c0,0,11.646,4.243,15.908,7.765c2.021,1.668,5.864,5.324,9.354,8.71l-63.886,78.79l18.702,23.143l59.336-91.872
		c4.032,2.199,8.226,4.545,10.281,5.884c4.633,3.019,12.01,12.762,12.01,12.762l0.942-1.95c0,0-8.664-17.176-10.033-18.941
		c-1.368-1.763-6.61-10.173-6.741-11.03c-0.132-0.857,1.095-1.45,1.095-1.45l-1.54-1.387l1.769-0.267l2.076-2.946l-0.374-2.467
		l2.506-0.378l2.077-2.946l-0.373-2.466l2.506-0.379l2.077-2.946l-0.374-2.466l2.505-0.379l2.076-2.946l-0.373-2.466l2.507-0.379
		l2.075-2.946l-0.421-2.788l-0.28-0.175c0.438-0.325,1.005-0.583,1.57-0.35c1.171,0.482,2.153,2.635,4.019,1.914
		c1.866-0.721,3.116-6.942,3.403-9.398C261.064,46.822,261.169,40.994,261.04,40.136z"/>
</g>
</svg>
