<?xml version="1.0" encoding="UTF-8" standalone="no"?>
<!DOCTYPE svg PUBLIC "-//W3C//DTD SVG 1.1//EN" "http://www.w3.org/Graphics/SVG/1.1/DTD/svg11.dtd">
<svg width="100%" height="100%" viewBox="0 0 134 134" version="1.1" xmlns="http://www.w3.org/2000/svg" xmlns:xlink="http://www.w3.org/1999/xlink" xml:space="preserve" xmlns:serif="http://www.serif.com/" style="fill-rule:evenodd;clip-rule:evenodd;stroke-linejoin:round;stroke-miterlimit:2;">
    <g transform="matrix(1.58622,0,0,1.58183,-55.1507,-36.0768)">
        <path fill="--c-accent" d="M42.57,30.907C42.57,30.907 37.27,36.707 35.97,43.307C34.67,49.907 34.77,55.307 34.77,55.307L37.47,56.507L43.17,51.107C43.17,51.107 40.77,45.807 40.97,41.207C41.17,36.607 42.57,30.907 42.57,30.907Z"/>
        <path fill="--c-accent" d="M46.17,52.207C46.17,52.207 49.67,57.207 51.17,56.507C52.67,55.807 55.07,52.607 55.07,52.607C55.07,52.607 53.77,44.707 55.57,37.107C57.37,29.507 61.67,22.807 61.67,22.807C61.67,22.807 53.743,28.812 49.67,38.007C46.57,45.007 46.17,52.207 46.17,52.207Z"/>
        <path fill="--c-accent" d="M58.47,55.307C58.47,55.307 61.67,52.007 63.17,44.807C64.67,37.607 63.77,32.507 63.77,32.507C63.77,32.507 69.47,38.007 68.77,47.907C68.07,57.807 64.87,60.807 64.87,60.807C64.87,60.807 62.07,60.307 60.77,58.607C59.47,56.907 58.47,55.307 58.47,55.307Z"/>
        <path fill="--c-accent" d="M70.87,71.207C70.87,71.207 68.841,77.078 67.93,78.807C66.77,81.007 64.67,84.207 64.67,84.207C64.67,84.207 67.69,91.607 68.83,90.607C69.97,89.607 70.57,84.207 71.17,81.407C71.77,78.607 70.87,71.207 70.87,71.207Z"/>
        <path fill="--c-accent" d="M59.87,107.407C59.87,107.407 57.37,102.807 57.07,98.807C56.77,94.807 56.97,80.107 56.97,80.107C56.97,80.107 54.07,76.8 51.87,80.953C49.67,85.107 48.37,96.107 48.37,96.107C48.37,96.107 50.62,101.207 53.92,104.007C57.22,106.807 59.67,107.607 59.87,107.407Z"/>
        <path fill="--c-accent" d="M34.769,60.807C34.769,60.807 37.769,62.007 38.97,60.807C40.17,59.607 40.477,54.673 43.57,55.607C48.87,57.207 45.625,60.485 48.37,61.807C51.594,63.36 50.97,60.107 52.07,59.007C53.17,57.907 55.57,55.707 57.07,57.807C58.57,59.907 62.67,62.407 61.67,63.907C60.67,65.407 65.47,64.662 64.67,66.934C63.87,69.207 63.87,71.907 61.67,72.207C59.47,72.507 53.173,73.141 49.27,77.807C45.021,82.888 46.17,90.7 46.17,90.7C46.17,90.7 41.007,81.36 38.87,75.407C36.07,67.607 34.769,60.807 34.769,60.807Z"/>
    </g>
    <g transform="matrix(1.58622,0,0,1.58183,-40.7161,-36.0768)">
        <path fill="#808080" d="M96.042,50.813C99.562,50.429 101.61,52.413 103.722,53.821C105.834,55.229 108.65,56.316 108.65,59.133C108.65,63.037 106.388,64.358 104.81,68.861C103.604,72.304 105.73,81.431 103.21,84.029C101.253,86.047 95.715,88.205 94.186,82.813C93.108,79.008 95.723,75.627 96.362,73.789C96.874,72.317 98.41,67.837 95.786,64.573C93.162,61.309 91.178,59.409 91.178,55.677C91.178,52.925 93.56,51.084 96.042,50.813Z"/>
        <path fill="#808080" d="M93.467,41.525C93.467,41.525 90.616,41.46 90.518,45.982C90.446,49.294 91.173,50.471 92.713,50.471C94.254,50.471 95.765,48.027 95.99,45.982C96.515,41.23 93.467,41.525 93.467,41.525Z"/>
        <path fill="#808080" d="M97.072,45.996C97.072,47.587 97.629,48.734 98.776,48.636C99.922,48.537 100.873,46.568 100.873,45.636C100.873,44.704 100.643,43.163 99.103,43.196C97.563,43.229 97.072,44.405 97.072,45.996Z"/>
        <path fill="#808080" d="M102.872,45.162C101.757,45.162 100.807,47.128 100.873,48.046C100.938,48.963 101.495,50.045 102.216,50.045C102.937,50.045 104.182,48.668 104.182,47.423C104.182,46.178 103.953,45.162 102.872,45.162Z"/>
        <path fill="#808080" d="M103.822,50.765C103.822,52.207 103.887,52.83 104.805,52.83C105.722,52.83 106.836,51.093 106.836,49.684C106.836,48.275 106.607,47.604 105.69,47.604C104.772,47.604 103.822,49.289 103.822,50.765Z"/>
        <path fill="#808080" d="M107.23,52.83C107.23,54.206 107.679,56.074 108.65,56.074C109.622,56.074 110.081,54.96 110.081,53.649C110.081,52.339 109.458,51.028 108.606,51.028C107.754,51.028 107.23,51.781 107.23,52.83Z"/>
    </g>
</svg>
