<?xml version="1.0" encoding="utf-8"?>
<!-- Generator: Adobe Illustrator 16.0.0, SVG Export Plug-In . SVG Version: 6.00 Build 0)  -->
<!DOCTYPE svg PUBLIC "-//W3C//DTD SVG 1.1//EN" "http://www.w3.org/Graphics/SVG/1.1/DTD/svg11.dtd">
<svg version="1.1" id="Layer_1" xmlns="http://www.w3.org/2000/svg" xmlns:xlink="http://www.w3.org/1999/xlink" x="0px" y="0px"
	 width="283.465px" height="283.464px" viewBox="0 0 283.465 283.464" enable-background="new 0 0 283.465 283.464"
	 xml:space="preserve">
<g>
	<path fill="--c-accent" d="M229.892,236.253c-1.032,0.871-2.063,1.741-2.997,2.531
		c-2.781-3.093-5.589-6.222-8.402-9.354c-0.45,0.188-0.902,0.371-1.354,0.558c0.49,2.056,0.454,4.465,1.562,6.106
		c4.658,6.897,9.438,13.745,14.684,20.194c1.299,1.594,4.467,1.841,6.852,2.341c5.576,1.17,11.309,1.743,16.748,3.347
		c2.021,0.596,3.399,3.386,5.456,5.588c-1.065,1.587-2.199,3.774-3.828,5.496c-0.843,0.89-2.767,1.606-3.85,1.271
		c-8.377-2.583-16.565-5.841-25.027-8.059c-4.462-1.168-9.376-1.036-14.055-0.838c-5.558,0.236-10.326-1.016-15.077-5.103
		c9.644-3.413,18.961-1.071,29.132-1.976c-3.766-4.113-6.659-7.828-10.113-10.918c-5.454-4.879-7.409-11.283-6.601-17.857
		c0.539-4.391,3.906-8.436,6.028-12.625c3.047-6.018,6.011-12.081,9.194-18.023c2.489-4.642,1.104-9.148,0.381-13.149
		c-2.399,1.011-5.167,1.447-6.8,3.044c-2.313,2.26-3.742,5.409-5.638,8.116c-1.392,1.983-2.93,3.868-4.401,5.797
		c-0.432-0.196-0.864-0.396-1.294-0.593c0.479-1.861,0.962-3.721,1.443-5.581c-0.21-0.167-0.416-0.337-0.626-0.506
		c-3.457,4.17-6.914,8.34-10.37,12.51c-0.263-0.156-0.523-0.313-0.786-0.468c0.96-2.412,1.921-4.825,2.882-7.236
		c-0.179-0.161-0.354-0.319-0.533-0.478c-2.498,2.354-4.885,4.843-7.534,7.013c-2.063,1.691-5.289,2.488-6.53,4.561
		c-2.914,4.863-4.946,10.258-7.35,15.431c-0.697,1.502-1.451,2.977-2.82,4.287c-1.608-4.471,1.484-8.13,1.486-12.516
		c-2.745,4.455-5.488,8.915-8.731,14.181c0.234-1.852,0.349-2.745,0.609-4.784c-1.681,2.544-2.552,4.363-3.867,5.77
		c-9.521,10.178-13.352,23.204-18.111,35.774c-0.288,0.754-0.905,1.391-2.372,1.999c0-1.643-0.314-3.361,0.067-4.909
		c0.755-3.048,1.607-6.139,2.93-8.973c4.28-9.158,8.392-18.437,13.394-27.194c2.374-4.151,6.914-7,9.94-10.857
		c3.138-3.994,5.634-8.493,8.556-12.993c1.921,1.969,3.372,0.473,5.113-1.535c2.763-3.19,5.892-6.063,8.864-9.07
		c0.347,0.281,0.694,0.563,1.038,0.847c-1.342,2.042-2.681,4.083-4.02,6.124c0.118,0.134,0.235,0.268,0.355,0.401
		c2.297-2.157,4.454-4.492,6.935-6.41c1.938-1.493,4.356-2.347,6.416-3.708c1.132-0.746,2.092-1.856,2.906-2.971
		c2.905-3.967,3.646-3.978,6.102,0.153c4.822-5.992,9.35-12.252,14.582-17.856c2.675-2.865,4.833-5.784,6.893-9.114
		c4.037-6.531,4.943-13.677,5.758-20.91c0.242-2.162-0.781-4.434-0.927-6.673c-0.474-7.463-0.305-15.01-1.389-22.377
		c-0.67-4.539-3.171-8.808-5.056-13.736c-2.868,2.603-5.423,4.92-8.369,7.592c-0.263-1.087-0.465-1.926-0.667-2.762
		c0,0.002-0.052,0.059-0.052,0.059c2.365-3.793,4.903-7.491,7.03-11.41c1.411-2.594,2.563-5.427,3.25-8.292
		c1.277-5.321,0.803-10.528-2.016-15.431c-0.734-1.274-0.832-2.914-1.223-4.388c0.506-0.187,1.012-0.375,1.521-0.563
		c2.07,5.054,4.138,10.108,5.999,14.655c0.59-4.709,1.395-10.4,1.944-16.116c0.109-1.121-0.449-2.646-1.239-3.457
		c-4.777-4.898-6.987-10.942-7.651-17.506c-0.235-2.33,0.954-4.805,1.597-7.696c-0.061-0.023-0.85-0.33-1.73-0.671
		c-0.582,7.919-2.662,9.941-10.611,9.591c-3.39-0.149-6.713-1.468-10.115-1.903c-2.268-0.29-4.873-0.593-6.883,0.214
		c-6.092,2.448-12.228,4.995-17.858,8.323c-7.31,4.318-12.235,11.052-16.276,18.479c-3.044,5.596-7.374,9.917-13.472,12.076
		c-0.382-0.319-0.762-0.64-1.144-0.96c4.111-5.007,8.227-10.016,12.406-15.104c-6.147-2.965-10.605-0.156-15.214,1.635
		c-4.616,1.792-8.949,3.247-14.179,0.921c-2.363-1.051-5.964,0.635-6.861-1.672c0.528-2.749,0.308-4.882,1.199-5.566
		c1.993-1.53,4.528-2.365,6.871-3.417c0.503-0.225,1.135-0.209,1.707-0.224c7.095-0.176,13.698-2.168,20.308-4.682
		c2.626-1,6.276-0.661,9.029,0.302c4.869,1.707,5.493,1.84,8.664-3.517c-4.241-0.621-8.301-1.083-12.304-1.848
		c-3.162-0.603-6.216-1.922-9.389-2.266c-2.1-0.226-4.657,0.162-6.434,1.232c-5.534,3.333-10.607,7.485-17.403,8.122
		c-2.85,0.268-5.747,0.479-8.514,1.16c-12.189,3.001-22.703,9.366-32.679,16.727c-0.911,0.671-1.569,1.677-2.394,2.476
		c-4.526,4.385-9.066,8.752-14.19,12.588c1.718-8.948,8.348-14.475,13.716-20.78c-4.931-4.421-12.677-5.801-17.001,1.032
		c-2.205,3.483-3.36,7.657-5.708,11.017c-4.139,5.923-1.274,11.249,1.691,17.638c-7.596-1.396-8.927,4.291-12.513,7.633
		c-3.882,3.617-4.87,8.004-7.099,12.472c-1.245-0.862-2.248-1.554-3.524-2.437c-1.398,3.35-2.789,6.687-4.181,10.023
		c-0.398-0.086-0.797-0.173-1.196-0.259c0.254-2.086,0.508-4.17,0.764-6.257c-0.206-0.109-0.411-0.22-0.617-0.331
		c-3.498,6.449-6.996,12.896-10.951,20.188c-0.678-1.892-0.972-2.712-1.68-4.693c-0.474,2.415-1.292,3.941-0.896,5.023
		c1.712,4.693-0.563,8.366-3.381,11.226c-7.413,7.519-12.155,15.926-13.164,26.716c-0.501,5.35-3.138,10.5-4.915,16.078
		c-1.959-1.622-2.998-2.483-4.037-3.343c0.385-0.097,0.77-0.194,1.155-0.293c-1.001-4.058-1.883-8.152-3.044-12.165
		c-0.744-2.569,2.935-10.622,5.976-13.234c1.568-1.346,2.632-3.278,3.72-4.681c-1.809-1.724-3.854-2.99-3.674-3.635
		c0.411-1.461,1.811-2.723,3.004-3.859c1.109-1.059,3.023-1.577,3.628-2.805c2.965-6.015,7.818-10.079,12.842-14.273
		c2.813-2.346,4.274-6.327,6.294-9.601c4.742-7.675,9.015-15.692,14.364-22.914c2.61-3.521,7.318-5.438,10.832-8.373
		c1.011-0.846,1.94-2.936,1.604-4.07c-3.578-12.068,2.976-20.682,10.09-28.725c4.772-5.397,14.024-4.175,18.524,1.282
		c0.791,0.96,2.983,0.623,4.251,1.359c6.885,4.008,12.118-0.779,16.766-4.04c6.039-4.239,12.75-5.124,19.412-6.152
		c6.585-1.019,12.69-2.526,17.623-7.145c5.127-4.796,11.003-5.164,17.579-4.051c6.88,1.164,14.146,0.666,20.757,2.581
		c5.621,1.63,9.014-2.049,13.076-3.485c4.602-1.627,8.767-3.913,13.795-2.777c2.178,0.492,4.656,0.718,6.376,1.942
		c3.044,2.167,6.124,1.666,8.404-0.102c1.747-1.356,2.613-4.235,3.197-6.604c0.698-2.82-1.04-4.07-3.871-4.355
		c-6.135-0.62-10.127,2.951-14.118,6.726c-0.761,0.72-1.828,1.118-2.754,1.665c-0.314-1.167-1.269-2.774-0.822-3.419
		c1.664-2.418,3.367-5.336,5.814-6.582c6.604-3.36,14.788-3.446,20.074,2.915c1.299,1.561,3.484,2.592,5.463,3.342
		c9.456,3.591,14.083,9.503,10.434,18.434c-3.047,7.453-0.569,14.976-3.435,22.012c-1.878,4.604-2.429,9.944-5.053,13.997
		c-3.177,4.903-2.515,9.657-0.825,14.021c1.749,4.515,5.349,8.291,7.94,12.514c1.063,1.734,1.348,3.959,2.467,5.643
		c0.935,1.407,2.568,2.352,3.354,4.334c-1.69-0.692-3.38-1.385-5.069-2.078c-0.111,0.21-0.223,0.42-0.331,0.63
		c1.301,0.998,2.606,1.996,3.977,3.044c-1.524,0.755-4.021,1.297-4.165,2.212c-0.307,1.923,0.453,4.1,1.093,6.069
		c0.608,1.875,1.622,3.621,1.871,5.872c-1.405-1.818-2.813-3.635-4.798-6.204c1.012,7.055,5.88,12.836,2.307,19.668
		c-0.127-0.018-0.51,0.006-0.823-0.127c-0.356-0.15-0.653-0.442-0.865-0.592c0,3.758,0,7.507,0,11.755
		c-1.288-0.911-2.167-1.534-3.355-2.374c-8.318,9.761-5.419,20.479-2.334,31.216c-0.429,0.114-0.856,0.225-1.285,0.338
		c-1.231-2.534-2.462-5.066-3.691-7.598c-0.335,0.063-0.669,0.124-1.002,0.186c0.587,2.242,1.209,4.476,1.749,6.729
		c0.556,2.335,1.03,4.689,1.628,7.423c-1.889-1.881-3.539-3.522-5.188-5.163c-0.338,0.296-0.679,0.591-1.02,0.887
		c0.299,1.346,0.599,2.69,0.897,4.027c-1.441,0.371-1.441,0.371-1.446,9.135c-1.007-1.91-1.689-3.199-2.382-4.513
		c-4.839,5.124-4.192,8.778,1.916,11.862c11.015,5.561,22.07,11.044,32.943,16.862c3.603,1.928,7.127,3.857,8.384,8.896
		c0.784,3.138,4.753,5.478,7.624,8.524c-2.641,2.077-4.959,3.9-7.784,6.122c-7.611-7.76-14.915-15.634-22.729-22.962
		c-2.942-2.759-6.893-4.716-10.706-6.203c-4.489-1.744-8.072-4.091-10.618-8.257c-0.969-1.581-2.898-2.57-5.088-4.421
		c-1.657,3.575-3.291,6.42-4.231,9.48c-0.346,1.127,0.621,3.06,1.566,4.099c1.627,1.787,3.819,3.051,5.551,4.758
		c0.991,0.977,1.536,2.403,2.283,3.627L229.892,236.253z M244.394,53.423c3.948-4.993,2.306-12.177-3.481-16.096
		C235.518,44.019,241.755,48.126,244.394,53.423z"/>
	<path fill="--c-accent" d="M225.103,115.799c-0.609,1.172-1.139,2.4-1.853,3.508
		c-4.979,7.751-9.389,15.672-11.604,24.818c-0.79,3.263-3.987,5.942-5.935,8.674c0.491,0.778,1.741,1.856,1.786,2.981
		c0.28,7.146-2.28,13.471-6.909,18.728c-2.797,3.178-14.435,2.16-18.337-1.637c-3.113-3.032-5.362-6.936-8.251-10.229
		c-1.25-1.427-2.999-2.707-4.774-3.31c-2.532-0.858-6.021,0.056-4.174-4.913c1.04-2.805,0.789-6.179,0.683-9.281
		c-0.047-1.352-0.837-3.247-1.901-3.894c-3.832-2.331-3.893-5.323-1.573-8.358c2.908-3.806,3.568-8.072,3.631-12.566
		c0.167-11.714,4.089-21.709,10.727-31.61c6.487-9.683,14.621-17.311,23.145-24.671c6.686-5.776,14.931-7.806,23.813-5.239
		c0.482,0.141,0.889,0.562,2.344,1.515c-2.135-0.143-3.117-0.208-4.948-0.332c4.492,2.481,8.235,4.546,11.979,6.611
		c-0.224,0.401-0.446,0.801-0.666,1.202c-3.679-1.892-7.401-3.708-11.034-5.691c-8.099-4.424-20.108,1.863-20.38,10.999
		c-0.31,10.355-5.621,18.896-9.452,27.983c-0.325,0.771-1.662,1.115-2.528,1.658c-0.22-1.021-0.752-2.087-0.607-3.054
		c0.937-6.253,2.053-12.481,3.03-18.728c0.235-1.5,0.164-3.047,0.237-4.572c-0.444-0.269-0.885-0.535-1.328-0.803
		c-2.249,2.738-4.542,5.443-6.736,8.224c-2.051,2.598-3.833,5.425-6.034,7.887c-4.28,4.796-6.623,10.259-7.16,16.69
		c-0.297,3.558-1.646,7.024-1.975,10.582c-0.296,3.194,0.722,6.569,0.109,9.655c-0.594,2.991-2.523,5.717-3.994,8.827
		c5.139,2.28,5.989,6.194,4.655,11.31c-1.196,4.584-0.171,5.412,7.457,6.676c-0.563-4.07-1.076-7.803-1.602-11.533
		c-0.061-0.424-0.428-0.954-0.277-1.236c3.916-7.332,4.275-16.449,11.043-22.317c1.194-1.037,2.943-1.436,4.436-2.13
		c0.295,0.391,0.589,0.78,0.883,1.169c-1.035,1.615-2.216,3.155-3.069,4.858c-1.281,2.551-2.706,5.122-3.404,7.853
		c-1.438,5.609-0.288,7.332,4.878,9.613c2.836,1.256,5.377,3.257,8.277,4.271c1.202,0.42,3.781-0.398,4.398-1.443
		c3.637-6.161,4.184-12.966,3.873-20.391c1.778,3.056,3.56,6.111,4.825,8.289c4.202-5.75,8.524-11.664,12.849-17.577
		C224.136,115.177,224.619,115.488,225.103,115.799z M182.15,153.522c0.229,6.955,4.386,11.613,8.322,16.301
		c0.777,0.922,2.56,1.326,3.906,1.386c5.006,0.227,8.768-4.396,8.367-9.271c-2.31,1.065-4.724,2.578-7.354,3.26
		c-1.997,0.517-3.449-0.525-3.22-3.22C192.719,155.547,188.91,152.377,182.15,153.522z M198.654,158.622
		c3.309-4.4,2.942-6.101-1.889-8.686c-0.496-0.268-1.078-0.531-1.39-0.962c-4.09-5.672-9.964-5.077-16.325-4.852
		c0.577,1.979,1.039,3.557,1.644,5.63C190.148,146.083,193.68,153.696,198.654,158.622z"/>
	<path fill="--c-accent" d="M226.649,105.23c0,0,0.052-0.057,0.052-0.059
		c-1.771,2.86-1.748,7.208-7.472,8.462c1.327-4.166,2.299-7.36,3.363-10.526c1.817-5.397,3.722-10.595,2.546-16.655
		c-0.52-2.676,1.544-5.854,2.433-8.801c0,0.004-0.143,0.163-0.143,0.163c4.466-2.903,5.256-2.703,5.907,2.652
		c0.334,2.747-0.029,5.761-0.842,8.423C230.814,94.417,228.628,99.792,226.649,105.23z"/>
	<path fill="--c-accent" d="M214.492,65.679c2.448-1.544,4.523-1.541,6.851,0.643
		c1.866,1.751,4.479,2.684,6.562,4.247c0.621,0.464,0.864,1.867,0.754,2.773c-0.188,1.521-0.798,2.991-1.229,4.477
		c0-0.004,0.143-0.163,0.143-0.167c-2.264,2.324-2.177,2.212-4.916,0.13c-0.69-0.526-2.123-0.078-3.581-0.078
		c0.586-2.654,1.136-5.144,1.688-7.633c-0.274-0.126-0.548-0.251-0.818-0.378c-1.988,2.092-3.979,4.185-5.967,6.276
		c-0.256-0.278-0.509-0.559-0.765-0.837c0.466-3.195,0.929-6.391,1.394-9.585L214.492,65.679z"/>
	<path fill="--c-accent" d="M214.605,65.545c-2.351,2.566-4.7,5.132-7.05,7.698
		c-0.414-0.206-0.826-0.414-1.24-0.621c0.902-3.021,1.808-6.043,2.809-9.398c2.104,0.093,4.828-1.444,5.364,2.458
		C214.492,65.679,214.605,65.545,214.605,65.545z"/>
	<path fill="--c-accent" d="M229.801,236.349c2.788,0.447,5.573,0.924,8.368,1.333
		s5.597,0.746,8.319,1.558c-5.746,0.271-11.354-0.222-16.591-2.993C229.892,236.253,229.801,236.349,229.801,236.349z"/>
</g>
</svg>
