<?xml version="1.0" encoding="UTF-8" standalone="no"?>
<!DOCTYPE svg PUBLIC "-//W3C//DTD SVG 1.1//EN" "http://www.w3.org/Graphics/SVG/1.1/DTD/svg11.dtd">
<svg width="100%" height="100%" viewBox="0 0 1182 1182" version="1.1" xmlns="http://www.w3.org/2000/svg" xmlns:xlink="http://www.w3.org/1999/xlink" xml:space="preserve" xmlns:serif="http://www.serif.com/" fill="#808080" style="fill-rule:evenodd;clip-rule:evenodd;stroke-linejoin:round;stroke-miterlimit:2;">
    <g transform="matrix(1.61911,0,0,1.61911,-434.338,-6.63222)">
        <path d="M453.431,130.887C453.431,130.887 445.121,161.012 448.237,176.594C451.354,192.176 457.021,212.66 457.021,212.66C457.021,212.66 451.354,312.675 483.556,349.033C515.758,385.39 580,430.058 580,430.058C580,430.058 563.543,461.222 553.155,469.532C542.767,477.843 468.165,506.757 422.394,539.178C392.09,560.644 366.857,589.337 365.41,590.551C320.293,628.382 270.245,733.318 270.245,733.318L951.11,733.571C951.11,733.571 1003.67,650.268 994.719,502.797C988.625,402.332 923.11,290.598 918.808,257.62C915.692,233.727 906.343,199.447 906.343,199.447C906.343,199.447 931.268,110.858 898.033,84.142C862.079,55.241 801.425,68.56 801.425,68.56C801.425,68.56 738.059,36.358 651.84,58.172C565.62,79.987 524.069,114.267 524.069,114.267C524.069,114.267 510.182,110.682 493.561,112.76C476.941,114.838 453.431,130.887 453.431,130.887Z"/>
    </g>
</svg>
