<?xml version="1.0" encoding="UTF-8" standalone="no"?>
<!DOCTYPE svg PUBLIC "-//W3C//DTD SVG 1.1//EN" "http://www.w3.org/Graphics/SVG/1.1/DTD/svg11.dtd">
<svg width="100%" height="100%" viewBox="0 0 1182 1182" version="1.1" xmlns="http://www.w3.org/2000/svg" xmlns:xlink="http://www.w3.org/1999/xlink" xml:space="preserve" xmlns:serif="http://www.serif.com/" style="fill-rule:evenodd;clip-rule:evenodd;stroke-linejoin:round;stroke-miterlimit:2;">
    <g transform="matrix(1.23904,0,0,1.23904,-141.017,-141.233)">
        <path d="M481.697,1022.59C509.886,1049.77 548.223,1066.48 590.433,1066.48C632.642,1066.48 670.979,1049.77 699.168,1022.59C705.645,1018.21 713.995,1011.14 723.413,1001.31C744.984,978.794 776.098,939.271 808.367,891.634C878.477,788.136 952.318,646.296 952.318,558.162C952.318,311.614 787.921,114.732 590.433,114.732C392.944,114.732 228.547,311.614 228.547,558.162C228.547,646.296 302.388,788.136 372.498,891.634C404.767,939.271 435.881,978.794 457.452,1001.31C466.869,1011.14 475.218,1018.21 481.697,1022.59ZM526.688,972.504C524.209,969.986 521.349,967.874 518.213,966.247C513.583,963.845 506.832,956.039 497.508,945.512C478.414,923.957 453.743,891.65 428.181,853.914C365.635,761.583 295.804,636.786 295.804,558.162C295.804,352.336 425.563,181.988 590.433,181.988C755.302,181.988 885.061,352.336 885.061,558.162C885.061,636.786 815.23,761.583 752.684,853.914C727.122,891.65 702.451,923.957 683.357,945.512C674.033,956.039 667.282,963.845 662.652,966.247C659.516,967.874 656.656,969.986 654.177,972.504C637.945,988.99 615.375,999.225 590.433,999.225C565.49,999.225 542.92,988.99 526.688,972.504Z" fill="#808080"/>
    </g>
    <g transform="matrix(1.33547,0,0,1.33547,-176.545,-128.109)">
        <g transform="matrix(1,0,0,1,7.01626,0)">
            <path d="M582.771,210.877C585.3,210.716 587.857,210.634 590.433,210.634C656.137,210.634 709.481,263.978 709.481,329.682C709.481,395.387 656.137,448.731 590.433,448.731C524.728,448.731 471.384,395.387 471.384,329.682C471.384,327.107 471.466,324.55 471.627,322.021C475.307,376.204 520.49,419.083 575.608,419.083C633.132,419.083 679.833,372.382 679.833,314.858C679.833,259.74 636.954,214.557 582.771,210.877Z" fill="--c-accent"/>
        </g>
        <g transform="matrix(-0.500574,0.865694,-0.865694,-0.500574,1132.38,30.3691)">
            <path d="M582.771,210.877C585.3,210.716 587.857,210.634 590.433,210.634C656.137,210.634 709.481,263.978 709.481,329.682C709.481,395.387 656.137,448.731 590.433,448.731C524.728,448.731 471.384,395.387 471.384,329.682C471.384,327.107 471.466,324.55 471.627,322.021C475.307,376.204 520.49,419.083 575.608,419.083C633.132,419.083 679.833,372.382 679.833,314.858C679.833,259.74 636.954,214.557 582.771,210.877Z" fill="--c-accent"/>
        </g>
        <g transform="matrix(-0.499318,-0.866419,0.866419,-0.499318,545.222,991.969)">
            <path d="M582.771,210.877C585.3,210.716 587.857,210.634 590.433,210.634C656.137,210.634 709.481,263.978 709.481,329.682C709.481,395.387 656.137,448.731 590.433,448.731C524.728,448.731 471.384,395.387 471.384,329.682C471.384,327.107 471.466,324.55 471.627,322.021C475.307,376.204 520.49,419.083 575.608,419.083C633.132,419.083 679.833,372.382 679.833,314.858C679.833,259.74 636.954,214.557 582.771,210.877Z" fill="--c-accent"/>
        </g>
    </g>
</svg>
