<?xml version="1.0" encoding="utf-8"?>
<!-- Generator: Adobe Illustrator 16.0.0, SVG Export Plug-In . SVG Version: 6.00 Build 0)  -->
<!DOCTYPE svg PUBLIC "-//W3C//DTD SVG 1.1//EN" "http://www.w3.org/Graphics/SVG/1.1/DTD/svg11.dtd">
<svg version="1.1" id="Layer_1" xmlns="http://www.w3.org/2000/svg" xmlns:xlink="http://www.w3.org/1999/xlink" x="0px" y="0px"
	 width="595.276px" height="595.28px" viewBox="0 0 595.276 595.28" enable-background="new 0 0 595.276 595.28"
	 xml:space="preserve">
<path fill="#808080" d="M26.984,537.047l13.245-3.565c0,0,11.971-14.519,37.951-38.717c21.237-19.779,45.527-39.211,53.693-45.649
	c-3.245-4.481-14.422-22.082,0.814-33.564c4.325-3.26,9.679-2.547,18.085,7.132c8.405,9.679-2.802,14.519-2.802,14.519l39.989,43.3
	c0,0,4.839,5.35,0,10.698c-6.597,7.291-14.773,0.764-14.773,0.764l-12.256-12.642c-9.144,4.913-36.864,20.619-58.044,41.17
	c-25.726,24.961-38.461,45.338-38.461,45.338s-4.33,22.924-12.48,24.197c-8.151,1.273-42.91-2.572-46.612-27.254
	C3.042,547.49,25.456,539.085,26.984,537.047z"/>
<path fill="--c-accent" d="M68.339,5.129c0,0-44.735,103.699,101.884,258.784c51.181,54.137,119.543,110.714,119.543,110.714
	l123.958,92.714l27.849-30.225c0,0-80.588-47.242-207.246-172.127c-87.199-85.978-91.953-148.467-91.953-148.467
	s-20.376-15.622-41.432-47.545C79.885,37.053,68.339,5.129,68.339,5.129z"/>
<g>
	<path fill="#808080" d="M286.578,378.479c-0.261-0.216-10.325-8.564-25.484-21.777c-67.524,57.117-107.265,80.415-107.265,80.415
		l27.849,30.225l111.854-83.66L286.578,378.479z"/>
	<path fill="#808080" d="M334.301,350.087c24.588-21.52,60.714-54.269,90.878-86.174C571.797,108.828,527.062,5.129,527.062,5.129
		s-11.546,31.924-32.603,63.849c-21.056,31.923-41.433,47.545-41.433,47.545s-4.754,62.489-91.953,148.467
		c-21.226,20.929-41.149,39.666-59.625,56.376C312.998,331.735,323.962,341.298,334.301,350.087z"/>
</g>
<path fill="#808080" d="M568.417,537.047l-13.245-3.565c0,0-11.971-14.519-37.951-38.717
	c-21.237-19.779-45.527-39.211-53.693-45.649c3.245-4.481,14.422-22.082-0.814-33.564c-4.325-3.26-9.679-2.547-18.085,7.132
	c-8.405,9.679,2.802,14.519,2.802,14.519l-39.989,43.3c0,0-4.839,5.35,0,10.698c6.597,7.291,14.773,0.764,14.773,0.764
	l12.256-12.642c9.144,4.913,36.864,20.619,58.044,41.17c25.726,24.961,38.461,45.338,38.461,45.338s4.33,22.924,12.48,24.197
	c8.151,1.273,42.91-2.572,46.612-27.254C592.36,547.49,569.946,539.085,568.417,537.047z"/>
</svg>
