<?xml version="1.0" encoding="UTF-8" standalone="no"?>
<!DOCTYPE svg PUBLIC "-//W3C//DTD SVG 1.1//EN" "http://www.w3.org/Graphics/SVG/1.1/DTD/svg11.dtd">
<svg width="100%" height="100%" viewBox="0 0 151 150" version="1.1" xmlns="http://www.w3.org/2000/svg" xmlns:xlink="http://www.w3.org/1999/xlink" xml:space="preserve" xmlns:serif="http://www.serif.com/" style="fill-rule:evenodd;clip-rule:evenodd;stroke-linejoin:round;stroke-miterlimit:2;">
    <g transform="matrix(2.05231,0,0,2.05231,-104.289,-87.4436)">
        <path d="M52.53,45.956L52.53,74.961C52.38,86.354 63.431,99.147 77.428,112.309C91.194,101.17 103.459,89.647 103.386,74.961L103.386,45.956L52.53,45.956Z" fill="#808080"/>
        <g transform="matrix(0.959091,-0.283097,0.283097,0.959091,-26.4894,24.7317)">
            <ellipse cx="79.481" cy="100.455" rx="3.112" ry="8.277" fill="--c-accent"/>
        </g>
        <g transform="matrix(0.959091,-0.283097,0.283097,0.959091,13.7721,9.1039)">
            <path d="M38.995,96.403C51.424,98.998 64.858,97.55 79.262,92.198C79.335,92.185 79.408,92.178 79.481,92.178C81.199,92.178 82.593,95.887 82.593,100.455C82.593,104.951 81.243,108.615 79.562,108.73C66.219,104.431 52.842,105.652 39.439,111.083C40.323,109.622 40.912,107.016 40.912,104.047C40.912,100.605 40.12,97.651 38.995,96.403Z" fill="--c-accent"/>
        </g>
    </g>
    <g transform="matrix(1.75284,0,0,1.78285,-80.9433,-68.4381)">
        <path d="M103.386,47.294L54.079,47.294L54.079,77.791C54.037,80.978 54.822,84.268 56.271,87.642C53.848,83.268 52.476,79.025 52.53,74.961L52.53,45.956L103.386,45.956L103.386,47.294Z" fill="white"/>
    </g>
</svg>
