<?xml version="1.0" encoding="UTF-8" standalone="no"?>
<!DOCTYPE svg PUBLIC "-//W3C//DTD SVG 1.1//EN" "http://www.w3.org/Graphics/SVG/1.1/DTD/svg11.dtd">
<svg width="100%" height="100%" viewBox="0 0 2000 2828" version="1.1" xmlns="http://www.w3.org/2000/svg" xmlns:svg="http://www.w3.org/2000/svg" xmlns:xlink="http://www.w3.org/1999/xlink" style="fill-rule:evenodd;clip-rule:evenodd;stroke-linecap:round;">

<svg:style>
.l {
    font-family: "Merriweather", Georgia, "Times New Roman", Times, serif;
    font-size: 32px;
    font-weight: bold;
    fill: #808080;
}
</svg:style>

<g style="display: none;">
    <g id="hex"><path d="M99.488,0L198.974,57.439L198.974,172.323L99.488,229.763L0,172.323L0,57.439L99.488,0Z" style="fill:none;stroke:#808080;stroke-width:2.5px;stroke-linecap:round;stroke-miterlimit:1.5;stroke-dasharray:0,11.49,0,0;"/></g>
</g>

<!--     x: +99.5 / +199     y: +172.3 / +344.6     -->

<g style="opacity: 0.3">
    <g id="bgrow2">
        <g id="bgrow">
            <use xlink:href="#hex" x="-98" y="-44.6"/>
            <use xlink:href="#hex" x="101" y="-44.6"/>
            <use xlink:href="#hex" x="300" y="-44.6"/>
            <use xlink:href="#hex" x="499" y="-44.6"/>
            <use xlink:href="#hex" x="698" y="-44.6"/>
            <use xlink:href="#hex" x="897" y="-44.6"/>
            <use xlink:href="#hex" x="1096" y="-44.6"/>
            <use xlink:href="#hex" x="1295" y="-44.6"/>
            <use xlink:href="#hex" x="1494" y="-44.6"/>
            <use xlink:href="#hex" x="1693" y="-44.6"/>
            <use xlink:href="#hex" x="1892" y="-44.6"/>
        </g>
        <use xlink:href="#bgrow" x="99.5" y="172.3"/>
    </g>
    <use xlink:href="#bgrow2" x="0" y="344.6"/>
    <use xlink:href="#bgrow2" x="0" y="689.2"/>
    <use xlink:href="#bgrow2" x="0" y="1033.8"/>
    <use xlink:href="#bgrow2" x="0" y="1378.4"/>
    <use xlink:href="#bgrow2" x="0" y="1723"/>
    <use xlink:href="#bgrow2" x="0" y="2067.6"/>
    <use xlink:href="#bgrow2" x="0" y="2412.2"/>
    <use xlink:href="#bgrow2" x="0" y="2756.8"/>
    <use xlink:href="#bgrow2" x="0" y="3101.4"/>
</g>
    
<g id="row2">
    <g id="row">
        <use xlink:href="#hex" x="300" y="300"/>
        <use xlink:href="#hex" x="499" y="300"/>
        <use xlink:href="#hex" x="698" y="300"/>
        <use xlink:href="#hex" x="897" y="300"/>
        <use xlink:href="#hex" x="1096" y="300"/>
        <use xlink:href="#hex" x="1295" y="300"/>
        <use xlink:href="#hex" x="1494" y="300"/>
    </g>
    <use xlink:href="#row" x="99.5" y="172.3"/>
</g>
<use xlink:href="#row2" x="0" y="344.6"/>
<use xlink:href="#row2" x="0" y="689.2"/>
<use xlink:href="#row2" x="0" y="1033.8"/>
<use xlink:href="#row2" x="0" y="1378.4"/>
<use xlink:href="#row2" x="0" y="1723"/>

<text x="399.5" y="280" text-anchor="middle" class="l">A</text>
<text x="598.5" y="280" text-anchor="middle" class="l">B</text>
<text x="797.5" y="280" text-anchor="middle" class="l">C</text>
<text x="996.5" y="280" text-anchor="middle" class="l">D</text>
<text x="1195.5" y="280" text-anchor="middle" class="l">E</text>
<text x="1394.5" y="280" text-anchor="middle" class="l">F</text>
<text x="1593.5" y="280" text-anchor="middle" class="l">G</text>

<text x="280" y="425" text-anchor="end" class="l">1</text>
<text x="280" y="597.3" text-anchor="end" class="l">2</text>
<text x="280" y="769.6" text-anchor="end" class="l">3</text>
<text x="280" y="941.9" text-anchor="end" class="l">4</text>
<text x="280" y="1114.2" text-anchor="end" class="l">5</text>
<text x="280" y="1286.5" text-anchor="end" class="l">6</text>
<text x="280" y="1458.8" text-anchor="end" class="l">7</text>
<text x="280" y="1631.1" text-anchor="end" class="l">8</text>
<text x="280" y="1803.4" text-anchor="end" class="l">9</text>
<text x="280" y="1975.7" text-anchor="end" class="l">10</text>
<text x="280" y="2148" text-anchor="end" class="l">11</text>
<text x="280" y="2320.3" text-anchor="end" class="l">12</text>

</svg>
