<?xml version="1.0" encoding="utf-8"?>
<!-- Generator: Adobe Illustrator 16.0.0, SVG Export Plug-In . SVG Version: 6.00 Build 0)  -->
<!DOCTYPE svg PUBLIC "-//W3C//DTD SVG 1.1//EN" "http://www.w3.org/Graphics/SVG/1.1/DTD/svg11.dtd">
<svg version="1.1" id="Layer_1" xmlns="http://www.w3.org/2000/svg" xmlns:xlink="http://www.w3.org/1999/xlink" x="0px" y="0px"
	 width="595.275px" height="595.28px" viewBox="0 0 595.275 595.28" enable-background="new 0 0 595.275 595.28"
	 xml:space="preserve">
<g>
	<path fill-rule="evenodd" clip-rule="evenodd" fill="#808080" d="M57.799,13.271c68.446,10.86,134.168,20.448,199.387,32.616
		c8.947,1.671,21.801,16.022,22.028,24.775c4.409,168.576,7.205,337.2,10.246,505.812c0.019,1.081-1.211,2.186-1.855,3.274
		C170.085,556.956,21.472,193.864,57.799,13.271z"/>
	<path fill-rule="evenodd" clip-rule="evenodd" fill="#808080" d="M307.757,579.748c-0.645-1.088-1.875-2.193-1.856-3.274
		c3.041-168.612,5.836-337.236,10.246-505.812c0.228-8.753,13.081-23.104,22.028-24.775
		c65.219-12.167,130.941-21.755,199.387-32.616C573.89,193.864,425.276,556.956,307.757,579.748z"/>
</g>
</svg>
