<?xml version="1.0" encoding="utf-8"?>
<!-- Generator: Adobe Illustrator 16.0.0, SVG Export Plug-In . SVG Version: 6.00 Build 0)  -->
<!DOCTYPE svg PUBLIC "-//W3C//DTD SVG 1.1//EN" "http://www.w3.org/Graphics/SVG/1.1/DTD/svg11.dtd">
<svg version="1.1" id="Layer_1" xmlns="http://www.w3.org/2000/svg" xmlns:xlink="http://www.w3.org/1999/xlink" x="0px" y="0px"
	 width="451.334px" height="453.333px" viewBox="0 0 451.334 453.333" enable-background="new 0 0 451.334 453.333"
	 xml:space="preserve">
<polygon fill="--c-accent" points="431.474,45.148 442.787,9.462 407.101,20.775 397.77,50.207 118.92,329.057 123.615,333.753 
	403.283,54.085 "/>
<path fill="#808080" d="M381.241,135.778l46.791-46.791c2.214-2.214,2.214-5.804,0-8.018l-22.154-22.154l-5.99,5.99l16.498,16.498
	c2.214,2.214,2.214,5.803-0.001,8.018l-37.554,37.554l-22.507-22.506l-232.75,232.75l-8.021-8.021l232.75-232.75l-22.506-22.506
	l37.555-37.555c2.214-2.214,5.803-2.214,8.018,0l16.497,16.497l5.99-5.99l-22.154-22.154c-2.214-2.214-5.804-2.214-8.018,0
	L316.98,71.346c-63.6-42.381-143.718-49.563-212.911-21.529v10.398c10.662-3.404,21.526-5.993,32.494-7.798v210.659L7.877,391.762
	l0.001,0.002H7.877v53.031H60.91l128.686-128.686H399.76c-1.825,10.97-4.436,21.833-7.862,32.494h10.359
	C430.418,279.498,423.408,199.426,381.241,135.778z M140.606,259.033V51.784c54.925-8.034,112.205,3.899,160.113,35.822
	l-6.799,6.798c-2.214,2.214-2.214,5.804,0,8.018l1.648,1.648L140.606,259.033z M193.64,312.065l154.963-154.962l1.648,1.648
	c2.214,2.214,5.803,2.214,8.017,0l6.711-6.711c31.751,47.929,43.552,105.167,35.424,160.025H193.64z"/>
</svg>
