<?xml version="1.0" encoding="UTF-8" standalone="no"?>
<!DOCTYPE svg PUBLIC "-//W3C//DTD SVG 1.1//EN" "http://www.w3.org/Graphics/SVG/1.1/DTD/svg11.dtd">
<svg width="100%" height="100%" viewBox="0 0 2481 3249" version="1.1" xmlns="http://www.w3.org/2000/svg" xmlns:xlink="http://www.w3.org/1999/xlink" xml:space="preserve" xmlns:serif="http://www.serif.com/" style="fill-rule:evenodd;clip-rule:evenodd;stroke-miterlimit:1.5;">
    <g transform="matrix(1.15404,0,0,1.15404,-191.654,-405.68)">
        <path d="M1240.55,3126.94C1226.26,3126.76 1351.33,3033.06 1496.92,2974.81C1904.48,2811.75 2287.88,2552.54 2288.27,2092.8L2288.27,680.652C2288.27,680.652 2046.97,692.053 1756.87,612.991C1443.08,527.471 1240.55,380.937 1240.55,380.937M1239.04,3126.94C1253.33,3126.76 1128.26,3033.06 982.671,2974.81C575.105,2811.75 191.712,2552.54 191.316,2092.8L191.316,680.652C191.316,680.652 432.618,692.053 722.716,612.991C1036.52,527.471 1239.04,380.937 1239.04,380.937" stroke="#808080" fill="white" style="stroke-width:18.05px;"/>
    </g>
    <g transform="matrix(2e-06,0,0,1.22617,1237.12,-525.196)">
        <path d="M1240.16,488C1240.16,488 1243.93,3016 1240.16,3016" stroke="#e0e0e0" style="stroke-width:14.42px;stroke-linecap:square;stroke-dasharray:14.42,57.67,0,0;"/>
    </g>
    <g transform="matrix(1.22465e-22,0.933471,-2e-06,5.71586e-17,2862.1,1618.44)">
        <path d="M1240.16,488C1240.16,488 1243.93,3016 1240.16,3016" stroke="#e0e0e0" style="stroke-width:18.94px;stroke-linecap:square;stroke-dasharray:18.94,75.75,0,0;"/>
    </g>
</svg>
