<?xml version="1.0" encoding="utf-8"?>
<!-- Generator: Adobe Illustrator 16.0.0, SVG Export Plug-In . SVG Version: 6.00 Build 0)  -->
<!DOCTYPE svg PUBLIC "-//W3C//DTD SVG 1.1//EN" "http://www.w3.org/Graphics/SVG/1.1/DTD/svg11.dtd">
<svg version="1.1" id="Layer_1" xmlns="http://www.w3.org/2000/svg" xmlns:xlink="http://www.w3.org/1999/xlink" x="0px" y="0px"
	 width="56.69px" height="56.69px" viewBox="0 0 56.69 56.69" enable-background="new 0 0 56.69 56.69" xml:space="preserve">
<g>
	<path fill="#FFFFFF" d="M30.331,19.858c2.182,2.344,4.152,4.316,6.5,6.501c2.752-2.469,5.137-4.424,6.793-5.732
		c-2.785-2.366-5.182-4.763-7.566-7.561C34.751,14.721,32.796,17.107,30.331,19.858z"/>
	<path fill="#FFFFFF" d="M45.942,22.522c-1.664,1.307-4.113,3.3-6.936,5.824c2.822,2.524,5.271,4.52,6.936,5.826
		c3.822-2.995,7.152-4.996,8.613-5.826C53.095,27.515,49.765,25.514,45.942,22.522z"/>
	<path fill="#FFFFFF" d="M10.736,22.523c-3.817,2.992-7.145,4.992-8.602,5.823c1.468,0.834,4.757,2.81,8.604,5.826
		c1.668-1.31,4.121-3.307,6.935-5.822C14.849,25.823,12.399,23.829,10.736,22.523z"/>
	<path fill="#FFFFFF" d="M20.623,13.066c-1.188,1.396-2.406,2.717-3.625,3.936c-1.221,1.222-2.544,2.439-3.94,3.629
		c1.672,1.321,4.068,3.287,6.796,5.731c1.155-1.08,2.269-2.152,3.31-3.194c1.053-1.051,2.123-2.164,3.189-3.307
		C23.91,17.136,21.944,14.739,20.623,13.066z"/>
	<!-- <path fill="#FFFFFF" d="M22.517,10.744c1.307,1.663,3.301,4.112,5.826,6.938c2.525-2.826,4.52-5.275,5.824-6.936
		c-2.992-3.82-4.994-7.148-5.825-8.606C27.511,3.605,25.538,6.886,22.517,10.744z"/> -->
	<path fill="#FFFFFF" d="M30.327,36.836c2.445,2.725,4.408,5.122,5.73,6.793c1.188-1.396,2.406-2.718,3.627-3.938
		c1.219-1.221,2.543-2.437,3.939-3.627c-1.66-1.309-4.051-3.268-6.797-5.73c-1.143,1.067-2.254,2.141-3.309,3.192
		C32.479,34.567,31.405,35.68,30.327,36.836z"/>
	<path fill="#FFFFFF" d="M22.517,45.948c2.992,3.821,4.994,7.152,5.825,8.609c0.831-1.457,2.833-4.785,5.823-8.606
		c-1.307-1.665-3.303-4.115-5.826-6.937C25.815,41.836,23.823,44.286,22.517,45.948z"/>
	<path fill="#FFFFFF" d="M25.238,31.447c1.017,1.019,2.058,2.097,3.103,3.214c1.057-1.133,2.076-2.188,3.102-3.214
		c1.025-1.023,2.08-2.041,3.213-3.1c-2.234-2.09-4.227-4.081-6.314-6.314c-1.057,1.131-2.074,2.186-3.1,3.212
		c-1.025,1.026-2.082,2.043-3.215,3.102C23.144,29.393,24.224,30.435,25.238,31.447z"/>
	<path fill="#FFFFFF" d="M16.998,39.69c1.221,1.221,2.438,2.543,3.624,3.938c1.313-1.66,3.27-4.045,5.729-6.791
		c-2.184-2.343-4.153-4.314-6.5-6.502c-2.744,2.46-5.131,4.419-6.789,5.73C14.458,37.256,15.78,38.472,16.998,39.69z"/>
	<path fill="#FFFFFF" d="M22.52,10.744c1.305,1.663,3.301,4.112,5.826,6.938c2.523-2.826,4.52-5.275,5.824-6.936
		c-2.994-3.82-4.996-7.148-5.826-8.606C27.514,3.605,25.539,6.886,22.52,10.744z"/>

	<path fill="#707070" d="M32.826,23.86c-1.156-1.158-2.31-2.356-3.52-3.665l-0.304-0.329l0.298-0.331
		c2.84-3.148,5.024-5.841,6.359-7.547l0.372-0.475l0.39,0.462c2.593,3.099,5.214,5.712,8.289,8.288l0.466,0.389l-0.479,0.373
		c-1.704,1.333-4.396,3.518-7.547,6.359l-0.332,0.3l-0.327-0.304C35.183,26.169,33.985,25.019,32.826,23.86z M30.33,19.858
		c2.182,2.344,4.153,4.316,6.5,6.501c2.753-2.469,5.138-4.424,6.793-5.732c-2.785-2.366-5.181-4.763-7.565-7.561
		C34.751,14.721,32.795,17.107,30.33,19.858z"/>
	<path fill="#707070" d="M37.541,28.347l0.405-0.365c3.19-2.873,5.946-5.104,7.697-6.468l0.302-0.237l0.302,0.239
		c5.175,4.091,9.5,6.375,9.541,6.397l0.829,0.434l-0.829,0.434c-0.041,0.021-4.364,2.301-9.541,6.397l-0.302,0.239l-0.304-0.236
		c-1.749-1.364-4.505-3.596-7.695-6.47L37.541,28.347z M45.942,22.522c-1.665,1.307-4.114,3.3-6.936,5.824
		c2.821,2.524,5.271,4.52,6.936,5.826c3.821-2.995,7.152-4.996,8.612-5.826C53.095,27.515,49.764,25.514,45.942,22.522z"/>
	<path fill="#707070" d="M0.077,28.348l0.819-0.435c0.043-0.021,4.366-2.303,9.536-6.396l0.302-0.238l0.304,0.236
		c1.747,1.362,4.5,3.591,7.697,6.47l0.405,0.364l-0.404,0.365c-3.182,2.866-5.942,5.098-7.695,6.467l-0.305,0.236l-0.301-0.239
		c-4.995-3.953-9.086-6.158-9.537-6.395L0.077,28.348z M10.736,22.523c-3.818,2.992-7.145,4.992-8.602,5.823
		c1.467,0.834,4.757,2.81,8.605,5.826c1.668-1.31,4.121-3.307,6.934-5.822C14.848,25.823,12.398,23.829,10.736,22.523z"/>
	<path fill="#707070" d="M11.504,20.657l0.464-0.389c1.543-1.292,3.003-2.625,4.336-3.959c1.333-1.333,2.663-2.79,3.955-4.333
		l0.388-0.464l0.373,0.477c1.35,1.725,3.55,4.436,6.358,7.549l0.301,0.332l-0.305,0.329c-1.175,1.269-2.36,2.501-3.521,3.662
		c-1.149,1.149-2.381,2.334-3.665,3.523l-0.328,0.303l-0.333-0.299c-3.116-2.811-5.826-5.008-7.55-6.359L11.504,20.657z
		 M20.623,13.066c-1.188,1.396-2.406,2.717-3.625,3.936c-1.221,1.222-2.543,2.439-3.94,3.629c1.671,1.321,4.068,3.287,6.795,5.731
		c1.156-1.08,2.268-2.152,3.31-3.194c1.052-1.051,2.123-2.164,3.189-3.307C23.91,17.136,21.944,14.739,20.623,13.066z"/>
	<path fill="#707070" d="M28.341,19.146l-0.362-0.405c-2.878-3.195-5.108-5.949-6.471-7.696l-0.237-0.304l0.24-0.303
		c4.088-5.165,6.372-9.494,6.396-9.537l0.432-0.833l0.437,0.831c0.022,0.043,2.304,4.367,6.397,9.541l0.239,0.301l-0.236,0.304
		c-1.361,1.747-3.59,4.5-6.469,7.698L28.341,19.146z M22.517,10.744c1.306,1.663,3.301,4.112,5.826,6.938
		c2.524-2.826,4.52-5.275,5.824-6.936c-2.993-3.82-4.995-7.148-5.826-8.606C27.511,3.605,25.537,6.886,22.517,10.744z"/>
	<path fill="#707070" d="M36.032,45.183l-0.372-0.476c-1.351-1.726-3.551-4.435-6.359-7.55l-0.3-0.332l0.303-0.327
		c1.189-1.283,2.374-2.518,3.522-3.663c1.161-1.161,2.393-2.349,3.663-3.522l0.327-0.305l0.333,0.299
		c3.141,2.832,5.84,5.021,7.549,6.359l0.479,0.372l-0.466,0.39c-1.543,1.291-3,2.621-4.335,3.956
		c-1.333,1.336-2.666,2.793-3.954,4.336L36.032,45.183z M30.327,36.836c2.444,2.725,4.408,5.122,5.73,6.793
		c1.188-1.396,2.406-2.718,3.627-3.938c1.219-1.221,2.543-2.437,3.938-3.627c-1.66-1.309-4.05-3.268-6.796-5.73
		c-1.144,1.067-2.255,2.141-3.31,3.192C32.479,34.567,31.405,35.68,30.327,36.836z"/>
	<path fill="#707070" d="M28.341,56.623l-0.434-0.829c-0.022-0.041-2.305-4.369-6.397-9.541l-0.24-0.299l0.238-0.307
		c1.363-1.749,3.591-4.502,6.467-7.695l0.364-0.402l0.363,0.402c2.877,3.193,5.107,5.949,6.473,7.697l0.236,0.305l-0.239,0.301
		c-4.091,5.17-6.375,9.498-6.396,9.539L28.341,56.623z M22.516,45.948c2.992,3.821,4.995,7.152,5.826,8.609
		c0.831-1.457,2.833-4.785,5.823-8.606c-1.307-1.665-3.302-4.115-5.825-6.937C25.815,41.836,23.822,44.286,22.516,45.948z"/>
	<path fill="#707070" d="M28.34,36.101l-0.359-0.388c-2.308-2.491-4.513-4.694-7.007-7.005l-0.387-0.36l0.387-0.358
		c1.271-1.179,2.442-2.304,3.574-3.437c1.132-1.131,2.255-2.299,3.434-3.57l0.358-0.387l0.36,0.387
		c2.308,2.494,4.514,4.698,7.007,7.006l0.385,0.36l-0.385,0.359c-1.272,1.18-2.441,2.302-3.574,3.435
		c-1.13,1.13-2.255,2.299-3.434,3.571L28.34,36.101z M25.238,31.447c1.016,1.019,2.058,2.097,3.102,3.214
		c1.058-1.133,2.076-2.188,3.102-3.214c1.026-1.023,2.081-2.041,3.214-3.1c-2.234-2.09-4.227-4.081-6.315-6.314
		c-1.057,1.131-2.074,2.186-3.1,3.212c-1.025,1.026-2.082,2.043-3.214,3.102C23.143,29.393,24.223,30.435,25.238,31.447z"/>
	<path fill="#707070" d="M20.647,45.183l-0.387-0.466c-2.577-3.075-5.193-5.696-8.289-8.289l-0.463-0.39l0.475-0.372
		c1.709-1.338,4.406-3.527,7.544-6.356l0.331-0.301l0.329,0.304c2.62,2.426,4.763,4.569,7.187,7.188l0.303,0.328l-0.299,0.332
		c-2.832,3.141-5.021,5.835-6.358,7.547L20.647,45.183z M16.998,39.69c1.221,1.221,2.438,2.543,3.625,3.938
		c1.312-1.66,3.269-4.045,5.729-6.791c-2.184-2.343-4.154-4.314-6.501-6.502c-2.743,2.46-5.13,4.419-6.789,5.73
		C14.458,37.256,15.78,38.472,16.998,39.69z"/>
</g>
</svg>
