<?xml version="1.0" encoding="utf-8"?>
<!-- Generator: Adobe Illustrator 16.0.0, SVG Export Plug-In . SVG Version: 6.00 Build 0)  -->
<!DOCTYPE svg PUBLIC "-//W3C//DTD SVG 1.1//EN" "http://www.w3.org/Graphics/SVG/1.1/DTD/svg11.dtd">
<svg version="1.1" id="Layer_1" xmlns="http://www.w3.org/2000/svg" xmlns:xlink="http://www.w3.org/1999/xlink" x="0px" y="0px"
	 width="16.952px" height="12.838px" viewBox="0 0 16.952 12.838" enable-background="new 0 0 16.952 12.838" xml:space="preserve">
<path fill="#FFFFFF" d="M13.54,3.593c-0.828-1.495-1.451-2.843-1.451-2.843H0.75v11.338h11.338c0,0,0.481-1.348,1.31-2.843
	c0.929-1.677,2.407-2.826,2.407-2.826S14.468,5.27,13.54,3.593z"/>
<path fill="#797979" d="M12.672,12.838H0V0h12.671c0,0,0.758,1.846,1.524,3.229c0.848,1.531,2.756,3.189,2.756,3.189
	s-1.908,1.66-2.756,3.19C13.423,11.002,12.672,12.838,12.672,12.838z M1.5,11.338h10.031c0.184-0.562,0.527-1.478,1.069-2.456
	c0.593-1.071,1.193-1.935,1.701-2.463c-0.508-0.528-1.108-1.393-1.701-2.463c-0.542-0.979-0.885-1.894-1.069-2.456H1.5V11.338z"/>
</svg>
