<?xml version="1.0" encoding="utf-8"?>
<!-- Generator: Adobe Illustrator 16.0.0, SVG Export Plug-In . SVG Version: 6.00 Build 0)  -->
<!DOCTYPE svg PUBLIC "-//W3C//DTD SVG 1.1//EN" "http://www.w3.org/Graphics/SVG/1.1/DTD/svg11.dtd">
<svg version="1.1" id="Layer_1" xmlns="http://www.w3.org/2000/svg" xmlns:xlink="http://www.w3.org/1999/xlink" x="0px" y="0px"
	 width="92.331px" height="185.018px" viewBox="0 0 92.331 185.018" enable-background="new 0 0 92.331 185.018"
	 xml:space="preserve">
<circle fill="#D1D3D4" cx="51.393" cy="21.396" r="21.396"/>
<path fill="#D1D3D4" d="M45.02,67.514c0,0-8.107-1.352-12.162-2.928s-10.135-4.279-10.135-4.279s-6.081,2.703-10.135,4.279
	S0.426,67.514,0.426,67.514s-0.958,15.647,0,22.297c1.092,7.582,4.217,18.332,9.91,25.9c5.869,7.803,12.388,11.712,12.388,11.712
	s6.52-3.909,12.388-11.712c5.692-7.568,8.817-18.318,9.909-25.9C45.979,83.161,45.02,67.514,45.02,67.514z"/>
<path fill="#D1D3D4" d="M78.002,45.781h-4.359H51.456h-0.063h-0.063H29.143h-4.359c-7.523,0-13.68,6.991-14.27,15.873
	c0.33-0.112,0.646-0.226,0.941-0.341c4.507-1.752,11.268-4.757,11.268-4.757s6.761,3.005,11.268,4.757
	c4.508,1.753,13.521,3.255,13.521,3.255s1.066,17.396,0,24.789c-1.214,8.43-4.688,20.381-11.017,28.795
	c-2.494,3.316-5.091,5.995-7.352,8.045v58.82h20.313v-62.688c0-1.07,0.867-1.938,1.938-1.938s1.938,0.867,1.938,1.938v62.688h20.313
	V66.295c0.32-0.089,0.651-0.152,1-0.152c2.071,0,3.75,1.679,3.75,3.75v42.125h13.938V63.046
	C92.331,53.511,85.916,45.781,78.002,45.781z"/>
</svg>
