<?xml version="1.0" encoding="utf-8"?>
<!-- Generator: Adobe Illustrator 16.0.0, SVG Export Plug-In . SVG Version: 6.00 Build 0)  -->
<!DOCTYPE svg PUBLIC "-//W3C//DTD SVG 1.1//EN" "http://www.w3.org/Graphics/SVG/1.1/DTD/svg11.dtd">
<svg version="1.1" id="Layer_1" xmlns="http://www.w3.org/2000/svg" xmlns:xlink="http://www.w3.org/1999/xlink" x="0px" y="0px"
	 width="51.969px" height="28.35px" viewBox="0 0 51.969 28.35" enable-background="new 0 0 51.969 28.35" xml:space="preserve">
<path fill="#B1B0B1" d="M32.071,8.087c-3.902-3.902-6.086-8.086-6.086-8.086c-0.002,0.004-1.674,3.201-4.701,6.61
	c0.151,0.157,0.303,0.314,0.457,0.471c2.709-3.084,4.206-5.943,4.208-5.946c0,0,2.007,3.849,5.597,7.437
	c3.59,3.589,7.439,5.598,7.439,5.598s-3.848,2.007-7.439,5.598c-3.586,3.589-5.597,7.44-5.597,7.44s-1.5-2.863-4.208-5.948
	c-0.154,0.157-0.307,0.314-0.458,0.473c3.027,3.41,4.703,6.613,4.703,6.613s2.188-4.188,6.086-8.088
	c3.904-3.903,8.088-6.086,8.088-6.086S35.973,11.989,32.071,8.087z"/>
<path fill="#B1B0B1" d="M20.262,8.087c-3.902-3.902-6.086-8.086-6.086-8.086c-0.002,0.004-1.674,3.201-4.701,6.61
	c0.151,0.157,0.303,0.314,0.457,0.471c2.709-3.084,4.206-5.943,4.208-5.946c0,0,2.007,3.849,5.597,7.437
	c3.59,3.589,7.439,5.598,7.439,5.598s-3.848,2.007-7.439,5.598c-3.586,3.589-5.597,7.44-5.597,7.44s-1.5-2.863-4.208-5.948
	c-0.154,0.157-0.307,0.314-0.458,0.473c3.027,3.41,4.703,6.613,4.703,6.613s2.188-4.188,6.086-8.088
	c3.904-3.903,8.088-6.086,8.088-6.086S24.164,11.989,20.262,8.087z"/>
<path fill="#B1B0B1" d="M43.881,8.087c-3.902-3.902-6.086-8.086-6.086-8.086c-0.002,0.004-1.674,3.201-4.701,6.61
	c0.152,0.157,0.305,0.314,0.457,0.471c2.709-3.084,4.207-5.943,4.209-5.946c0,0,2.008,3.849,5.596,7.437
	c3.59,3.589,7.441,5.598,7.441,5.598s-3.85,2.007-7.441,5.598c-3.586,3.589-5.596,7.44-5.596,7.44s-1.5-2.863-4.209-5.948
	c-0.154,0.157-0.307,0.314-0.459,0.473c3.027,3.41,4.703,6.613,4.703,6.613s2.188-4.188,6.086-8.088
	c3.904-3.903,8.088-6.086,8.088-6.086S47.784,11.989,43.881,8.087z"/>
<path fill="#B1B0B1" d="M8.613,19.775c-3.59-3.589-7.439-5.598-7.439-5.598s3.848-2.007,7.439-5.598
	c0.016-0.016,0.03-0.032,0.046-0.047C8.506,8.385,8.353,8.24,8.201,8.088C8.182,8.069,8.164,8.05,8.145,8.031
	c-0.02,0.02-0.038,0.04-0.058,0.06C4.188,11.988,0.01,14.17,0,14.176c0.01,0.005,4.19,2.188,8.087,6.086
	c0.02,0.02,0.037,0.039,0.057,0.059c0.019-0.02,0.037-0.039,0.057-0.059c0.151-0.151,0.304-0.295,0.456-0.441
	C8.642,19.806,8.628,19.79,8.613,19.775z"/>
<path fill="#B1B0B1" d="M12.942,19.775c-3.59-3.589-7.439-5.598-7.439-5.598s3.848-2.007,7.439-5.598
	c0.016-0.016,0.03-0.032,0.046-0.047c-0.152-0.147-0.306-0.292-0.458-0.443c-0.02-0.019-0.037-0.039-0.057-0.058
	c-0.02,0.02-0.038,0.04-0.058,0.06c-3.899,3.897-8.077,6.08-8.087,6.085c0.01,0.005,4.19,2.188,8.087,6.086
	c0.02,0.02,0.037,0.039,0.057,0.059c0.019-0.02,0.037-0.039,0.057-0.059c0.151-0.151,0.304-0.295,0.456-0.441
	C12.971,19.806,12.958,19.79,12.942,19.775z"/>
<path fill="#B1B0B1" d="M16.299,14.174c-0.01-0.005-4.195-2.188-8.096-6.085C8.184,8.069,8.166,8.05,8.146,8.031
	c-0.02,0.02-0.038,0.04-0.058,0.06C7.939,8.239,7.79,8.381,7.64,8.525c0.016,0.016,0.03,0.032,0.046,0.048
	c3.59,3.589,7.439,5.598,7.439,5.598s-3.848,2.007-7.439,5.598c-0.018,0.018-0.034,0.035-0.051,0.053
	c0.151,0.146,0.303,0.289,0.454,0.439c0.02,0.02,0.037,0.039,0.057,0.059c0.02-0.02,0.038-0.039,0.058-0.059
	c1.954-1.951,3.979-3.474,5.515-4.508C15.249,14.722,16.294,14.176,16.299,14.174z"/>
<path fill="#B1B0B1" d="M20.63,14.174c-0.01-0.005-4.195-2.188-8.096-6.085c-0.02-0.019-0.037-0.039-0.057-0.058
	c-0.02,0.02-0.038,0.04-0.058,0.06c-0.149,0.149-0.299,0.291-0.449,0.435c0.016,0.016,0.03,0.032,0.046,0.048
	c3.59,3.589,7.439,5.598,7.439,5.598s-3.848,2.007-7.439,5.598c-0.018,0.018-0.034,0.035-0.051,0.053
	c0.151,0.146,0.303,0.289,0.454,0.439c0.02,0.02,0.037,0.039,0.057,0.059c0.02-0.02,0.038-0.039,0.058-0.059
	c1.954-1.951,3.979-3.474,5.515-4.508C19.581,14.722,20.625,14.176,20.63,14.174z"/>
<path fill="#B1B0B1" d="M32.68,14.174c-0.01-0.005-4.194-2.188-8.095-6.085c-0.02-0.019-0.037-0.039-0.057-0.058
	c-0.02,0.02-0.038,0.04-0.058,0.06c-0.149,0.149-0.299,0.291-0.449,0.435c0.016,0.016,0.03,0.032,0.046,0.048
	c3.59,3.589,7.439,5.598,7.439,5.598s-3.848,2.007-7.439,5.598c-0.018,0.018-0.034,0.035-0.051,0.053
	c0.151,0.146,0.303,0.289,0.454,0.439c0.02,0.02,0.037,0.039,0.057,0.059c0.02-0.02,0.038-0.039,0.058-0.059
	c1.954-1.951,3.978-3.474,5.515-4.508C31.631,14.722,32.676,14.176,32.68,14.174z"/>
<path fill="#B1B0B1" d="M44.49,14.174c-0.01-0.005-4.194-2.188-8.095-6.085c-0.02-0.019-0.037-0.039-0.057-0.058
	c-0.02,0.02-0.038,0.04-0.059,0.06c-0.148,0.149-0.299,0.291-0.449,0.435c0.016,0.016,0.031,0.032,0.047,0.048
	c3.59,3.589,7.439,5.598,7.439,5.598s-3.848,2.007-7.439,5.598c-0.018,0.018-0.033,0.035-0.051,0.053
	c0.151,0.146,0.303,0.289,0.453,0.439c0.02,0.02,0.037,0.039,0.057,0.059c0.02-0.02,0.038-0.039,0.059-0.059
	c1.953-1.951,3.978-3.474,5.515-4.508C43.441,14.722,44.486,14.176,44.49,14.174z"/>
</svg>
