<?xml version="1.0" encoding="utf-8"?>
<!-- Generator: Adobe Illustrator 16.0.0, SVG Export Plug-In . SVG Version: 6.00 Build 0)  -->
<!DOCTYPE svg PUBLIC "-//W3C//DTD SVG 1.1//EN" "http://www.w3.org/Graphics/SVG/1.1/DTD/svg11.dtd">
<svg version="1.1" id="Layer_1" xmlns="http://www.w3.org/2000/svg" xmlns:xlink="http://www.w3.org/1999/xlink" x="0px" y="0px"
	 width="28.35px" height="28.35px" viewBox="0 0 28.35 28.35" enable-background="new 0 0 28.35 28.35" xml:space="preserve">
<path fill-rule="evenodd" clip-rule="evenodd" fill="#707070" d="M14.22,6.492c2.342-2.454,5.012-3.7,8.318-2.852
	c4.456,1.144,6.672,5.806,5.026,10.483c-0.915,2.605-2.767,4.509-4.767,6.296c-2.481,2.216-4.984,4.41-7.442,6.65
	c-0.729,0.662-1.423,0.883-2.191,0.189c-3.167-2.861-6.378-5.681-9.459-8.634c-2.374-2.279-3.807-5.057-3.392-8.483
	C1.039,4.154,7.39,1.394,12.295,4.92C12.923,5.37,13.494,5.896,14.22,6.492z"/>
</svg>
