<?xml version="1.0" encoding="utf-8"?>
<!-- Generator: Adobe Illustrator 16.0.0, SVG Export Plug-In . SVG Version: 6.00 Build 0)  -->
<!DOCTYPE svg PUBLIC "-//W3C//DTD SVG 1.1//EN" "http://www.w3.org/Graphics/SVG/1.1/DTD/svg11.dtd">
<svg version="1.1" id="Layer_1" xmlns="http://www.w3.org/2000/svg" xmlns:xlink="http://www.w3.org/1999/xlink" x="0px" y="0px"
	 width="646.87px" height="646.87px" viewBox="0 0 646.87 646.87" enable-background="new 0 0 646.87 646.87" xml:space="preserve">
<path fill="#8C8E90" d="M638.398,603.076c-2.832-7.381-11.629-25.66-17.977-26.417c-6.348-0.759-7.69,6.693-10.931,9.108
	c-1.904,1.417-4.383,0.612-6.111-0.293v-8.772l-9.707-9.359h-6.585v-6.717l-9.707-9.359h-6.586v-6.716l-9.705-9.361h-6.587v-6.715
	l-9.707-9.361h-6.587v-6.716l-9.706-9.359h-1.189l2.923-3.577c0,0-4.159-1.275-4.159-4.049c0-2.772,12.479-31.893,15.945-38.133
	c3.467-6.239,35.358-53.383,35.358-53.383l-6.934-7.628c0,0-28.425,24.96-41.597,36.746c-6.243,5.584-19.635,15.987-32.007,25.393
	l-313.26-343.62c0,0-46.451-27.732-77.65-44.372C74.735,53.776,1.245,9.405,1.245,9.405s45.505,72.793,62.626,103.73
	c17.12,30.937,45.569,76.954,45.569,76.954l348.825,308.242c-8.878,11.692-18.305,23.827-23.52,29.683
	c-11.759,13.201-36.653,41.682-36.653,41.682l7.642,6.914c0,0,47.076-31.996,53.306-35.476c6.232-3.482,35.324-16.026,38.096-16.032
	c2.774-0.005,4.059,4.152,4.059,4.152l5.123-4.203v5.72l8.319,7.974h7.974v8.104l8.319,7.973h7.973v8.103l8.319,7.973h7.974v8.104
	l8.32,7.972h7.973v8.104l8.32,7.974h9.012l0.685-0.801c0.823,1.537,1.362,3.456,0.355,5.134c-2.08,3.466-9.358,5.547-7.973,11.786
	s20.452,13.173,28.079,15.252c7.627,2.08,25.998,5.2,28.771,5.2c2.418,0,4.57-2.367,5.082-2.976l0.035,0.03
	c0,0,2.862-2.727,2.586-5.484C646.165,628.43,641.226,610.457,638.398,603.076z"/>
</svg>
