<?xml version="1.0" encoding="UTF-8" standalone="no"?>
<!DOCTYPE svg PUBLIC "-//W3C//DTD SVG 1.1//EN" "http://www.w3.org/Graphics/SVG/1.1/DTD/svg11.dtd">
<svg width="100%" height="100%" viewBox="0 0 119 119" version="1.1" xmlns="http://www.w3.org/2000/svg" xmlns:xlink="http://www.w3.org/1999/xlink" xml:space="preserve" xmlns:serif="http://www.serif.com/" style="fill-rule:evenodd;clip-rule:evenodd;stroke-linecap:round;stroke-linejoin:round;stroke-miterlimit:10;">
    <g id="Layer-1" serif:id="Layer 1" transform="matrix(4.16667,0,0,4.16667,0,0)">
        <g transform="matrix(1,0,0,1,2.2456,7.323)">
            <path d="M0,13.76C0,13.76 2.725,14.697 6.233,16.724C9.744,18.751 11.917,20.642 11.917,20.642C11.917,20.642 14.09,18.751 17.601,16.724C21.112,14.697 23.835,13.76 23.835,13.76C23.835,13.76 23.285,10.933 23.285,6.879C23.285,2.827 23.835,0 23.835,0C23.835,0 21.11,-0.937 17.601,-2.965C14.09,-4.991 11.917,-6.882 11.917,-6.882C11.917,-6.882 9.743,-4.991 6.233,-2.965C2.724,-0.937 0,0 0,0C0,0 0.55,2.827 0.55,6.881C0.55,10.933 0,13.76 0,13.76Z" fill="white" style="fill-rule:nonzero;stroke:rgb(112,113,113);stroke-width:0.6px;"/>
        </g>
        <g transform="matrix(1,0,0,1,5.1118,18.8624)">
            <path d="M0,0.369C0,0.369 0.274,0.306 0.765,0.221C1.257,0.155 1.962,-0.006 2.812,-0.078C3.66,-0.144 4.65,-0.292 5.714,-0.321C6.779,-0.355 7.915,-0.39 9.051,-0.426C10.184,-0.389 11.318,-0.352 12.38,-0.317C13.44,-0.286 14.439,-0.136 15.288,-0.069C16.14,0.005 16.837,0.165 17.331,0.231C17.822,0.317 18.104,0.383 18.104,0.383C18.208,0.407 18.273,0.512 18.249,0.616C18.225,0.716 18.127,0.778 18.028,0.764C18.028,0.764 17.754,0.722 17.266,0.675C16.774,0.64 16.077,0.557 15.236,0.516C14.392,0.48 13.422,0.398 12.362,0.382C11.305,0.363 10.178,0.344 9.051,0.324C7.926,0.346 6.801,0.366 5.746,0.387C4.691,0.404 3.711,0.488 2.868,0.525C2.024,0.568 1.334,0.649 0.842,0.685C0.353,0.732 0.071,0.776 0.071,0.777C-0.042,0.795 -0.147,0.718 -0.165,0.604C-0.182,0.497 -0.113,0.396 -0.009,0.371L0,0.369Z" fill="#808080" style="fill-rule:nonzero;"/>
        </g>
        <g transform="matrix(1,0,0,1,23.0195,3.7044)">
            <path d="M0,15.864C-0.001,15.864 -0.193,15.658 -0.512,15.276C-0.815,14.883 -1.307,14.352 -1.795,13.653C-2.276,12.951 -2.899,12.169 -3.457,11.261C-4.021,10.353 -4.62,9.384 -5.221,8.415C-5.754,7.418 -6.287,6.421 -6.787,5.486C-7.29,4.552 -7.66,3.612 -8.026,2.843C-8.388,2.069 -8.597,1.383 -8.786,0.924C-8.958,0.455 -9.042,0.178 -9.041,0.178C-9.072,0.075 -9.014,-0.033 -8.911,-0.064C-8.813,-0.094 -8.71,-0.04 -8.674,0.053C-8.674,0.053 -8.574,0.312 -8.37,0.759C-8.155,1.201 -7.878,1.847 -7.493,2.596C-7.103,3.344 -6.689,4.226 -6.173,5.152C-5.659,6.079 -5.11,7.068 -4.562,8.057C-3.982,9.018 -3.403,9.979 -2.86,10.88C-2.316,11.784 -1.755,12.591 -1.301,13.302C-0.841,14.011 -0.425,14.569 -0.148,14.976C0.138,15.377 0.316,15.598 0.316,15.598C0.389,15.687 0.375,15.817 0.286,15.889C0.201,15.958 0.079,15.948 0.006,15.871L0,15.864Z" fill="#808080" style="fill-rule:nonzero;"/>
        </g>
        <g transform="matrix(1,0,0,1,14.3564,19.3446)">
            <path d="M0,-15.454C0,-15.454 -0.081,-15.184 -0.252,-14.717C-0.442,-14.258 -0.654,-13.566 -1.016,-12.794C-1.383,-12.026 -1.749,-11.094 -2.256,-10.158C-2.761,-9.216 -3.3,-8.211 -3.838,-7.207C-4.436,-6.247 -5.033,-5.287 -5.593,-4.386C-6.149,-3.484 -6.779,-2.694 -7.262,-1.992C-7.752,-1.292 -8.241,-0.767 -8.545,-0.375C-8.866,0.009 -9.063,0.219 -9.063,0.219C-9.137,0.297 -9.26,0.301 -9.338,0.228C-9.413,0.157 -9.418,0.041 -9.355,-0.037C-9.355,-0.037 -9.181,-0.253 -8.896,-0.652C-8.62,-1.06 -8.199,-1.623 -7.743,-2.331C-7.29,-3.043 -6.733,-3.841 -6.188,-4.751C-5.643,-5.66 -5.06,-6.629 -4.478,-7.599C-3.935,-8.581 -3.393,-9.563 -2.884,-10.484C-2.373,-11.407 -1.956,-12.297 -1.567,-13.047C-1.183,-13.799 -0.909,-14.438 -0.694,-14.882C-0.491,-15.33 -0.389,-15.596 -0.389,-15.596C-0.348,-15.702 -0.228,-15.755 -0.122,-15.715C-0.02,-15.676 0.033,-15.565 0.002,-15.463L0,-15.454Z" fill="#808080" style="fill-rule:nonzero;"/>
        </g>
        <g transform="matrix(1,0,0,1,5.2583,27.5456)">
            <path d="M0,-8.322C0,-8.322 0.167,-8.235 0.454,-8.066C0.732,-7.884 1.151,-7.644 1.621,-7.316C2.079,-6.976 2.627,-6.596 3.192,-6.159C3.736,-5.697 4.316,-5.204 4.896,-4.711C5.479,-4.2 5.99,-3.662 6.507,-3.172C7.023,-2.691 7.459,-2.176 7.849,-1.759C8.243,-1.344 8.527,-0.957 8.741,-0.701C8.951,-0.443 9.059,-0.275 9.059,-0.275C9.117,-0.184 9.091,-0.064 9,-0.006C8.92,0.046 8.815,0.03 8.752,-0.037C8.752,-0.037 8.242,-0.576 7.425,-1.347C7.021,-1.738 6.551,-2.186 6.024,-2.665C5.504,-3.138 4.955,-3.678 4.395,-4.155C3.833,-4.651 3.271,-5.146 2.745,-5.611C2.202,-6.057 1.696,-6.473 1.262,-6.83C0.387,-7.521 -0.222,-7.972 -0.222,-7.972C-0.313,-8.041 -0.333,-8.171 -0.265,-8.262C-0.203,-8.345 -0.089,-8.368 0,-8.322" fill="#808080" style="fill-rule:nonzero;"/>
        </g>
        <g transform="matrix(1,0,0,1,14.002,19.5318)">
            <path d="M0,7.727C0,7.727 0.1,7.569 0.312,7.309C0.527,7.052 0.816,6.661 1.209,6.25C1.599,5.834 2.031,5.325 2.553,4.841C2.809,4.593 3.072,4.337 3.341,4.078C3.604,3.827 3.887,3.538 4.176,3.299C4.752,2.811 5.328,2.323 5.868,1.866C6.436,1.428 6.988,1.045 7.448,0.706C7.919,0.378 8.334,0.142 8.613,-0.041C8.902,-0.21 9.074,-0.299 9.074,-0.299C9.17,-0.349 9.287,-0.311 9.337,-0.216C9.381,-0.13 9.355,-0.027 9.28,0.03L9.275,0.033C9.275,0.033 8.678,0.478 7.798,1.176C7.366,1.532 6.863,1.948 6.324,2.392C5.795,2.862 5.229,3.363 4.664,3.864C4.373,4.109 4.119,4.353 3.841,4.611C3.57,4.863 3.304,5.111 3.047,5.351C2.526,5.827 2.053,6.279 1.648,6.671C0.834,7.444 0.32,7.989 0.32,7.989C0.242,8.072 0.111,8.076 0.027,7.998C-0.046,7.928 -0.058,7.818 -0.005,7.735L0,7.727Z" fill="#808080" style="fill-rule:nonzero;"/>
        </g>
        <g transform="matrix(1,0,0,1,22.9697,7.6368)">
            <path d="M0,11.789C0,11.789 -0.009,11.601 -0.005,11.268C0.013,10.935 0.011,10.454 0.061,9.883C0.125,9.316 0.181,8.65 0.276,7.943C0.405,7.241 0.542,6.492 0.679,5.743C0.829,4.983 1.04,4.271 1.206,3.579C1.364,2.892 1.592,2.256 1.759,1.71C1.921,1.162 2.114,0.721 2.229,0.409C2.348,0.098 2.438,-0.08 2.438,-0.08C2.488,-0.175 2.605,-0.213 2.701,-0.164C2.786,-0.12 2.825,-0.021 2.798,0.067C2.798,0.067 2.587,0.778 2.327,1.872C2.19,2.417 2.038,3.048 1.886,3.743C1.737,4.431 1.543,5.176 1.411,5.899C1.263,6.634 1.113,7.368 0.974,8.057C0.859,8.75 0.753,9.396 0.661,9.95C0.499,11.054 0.413,11.807 0.413,11.807C0.399,11.92 0.298,12.002 0.184,11.988C0.081,11.976 0.005,11.89 0,11.789" fill="#808080" style="fill-rule:nonzero;"/>
        </g>
        <g transform="matrix(1,0,0,1,25.5566,3.6159)">
            <path d="M0,4.22C0,4.22 -0.187,4.212 -0.52,4.158C-0.848,4.1 -1.332,4.046 -1.884,3.911C-2.438,3.782 -3.098,3.662 -3.776,3.452C-4.119,3.354 -4.473,3.253 -4.831,3.151C-5.181,3.049 -5.572,2.949 -5.923,2.817C-6.633,2.563 -7.344,2.308 -8.011,2.069C-8.674,1.797 -9.281,1.509 -9.806,1.28C-10.324,1.036 -10.737,0.795 -11.034,0.644C-11.326,0.479 -11.489,0.374 -11.489,0.374C-11.579,0.316 -11.605,0.196 -11.547,0.106C-11.495,0.024 -11.393,-0.005 -11.307,0.032L-11.301,0.034C-11.301,0.034 -10.617,0.33 -9.572,0.742C-9.049,0.938 -8.438,1.166 -7.782,1.41C-7.111,1.634 -6.395,1.873 -5.678,2.112C-5.32,2.241 -4.982,2.34 -4.619,2.451C-4.266,2.559 -3.918,2.666 -3.581,2.769C-2.908,2.982 -2.281,3.166 -1.738,3.32C-0.662,3.639 0.066,3.812 0.066,3.812C0.178,3.838 0.246,3.949 0.22,4.061C0.196,4.159 0.106,4.225 0.01,4.22L0,4.22Z" fill="#808080" style="fill-rule:nonzero;"/>
        </g>
        <g transform="matrix(1,0,0,1,14.2705,7.4194)">
            <path d="M0,-3.416C0,-3.416 -0.158,-3.314 -0.448,-3.151C-0.745,-3 -1.162,-2.758 -1.681,-2.515C-2.204,-2.288 -2.808,-2.002 -3.469,-1.732C-4.141,-1.492 -4.857,-1.237 -5.574,-0.981C-6.309,-0.731 -7.03,-0.558 -7.713,-0.355C-8.387,-0.149 -9.051,-0.028 -9.607,0.1C-10.163,0.235 -10.641,0.288 -10.97,0.344C-11.298,0.397 -11.497,0.407 -11.497,0.407C-11.604,0.412 -11.696,0.329 -11.701,0.222C-11.706,0.126 -11.64,0.043 -11.55,0.022C-11.55,0.022 -10.829,-0.15 -9.751,-0.472C-9.211,-0.627 -8.588,-0.81 -7.91,-1.027C-7.24,-1.241 -6.498,-1.446 -5.806,-1.693C-5.095,-1.931 -4.385,-2.17 -3.719,-2.394C-3.062,-2.641 -2.448,-2.871 -1.922,-3.069C-0.887,-3.48 -0.191,-3.783 -0.191,-3.782C-0.087,-3.828 0.035,-3.78 0.081,-3.675C0.122,-3.58 0.085,-3.47 0,-3.416" fill="#808080" style="fill-rule:nonzero;"/>
        </g>
        <g transform="matrix(1,0,0,1,2.9404,19.4811)">
            <path d="M0,-11.923C0,-11.923 0.087,-11.757 0.206,-11.443C0.32,-11.129 0.516,-10.682 0.674,-10.137C0.84,-9.591 1.065,-8.962 1.223,-8.268C1.31,-7.923 1.398,-7.567 1.489,-7.204C1.576,-6.85 1.685,-6.462 1.746,-6.092C1.881,-5.349 2.016,-4.606 2.143,-3.91C2.237,-3.2 2.293,-2.53 2.356,-1.961C2.405,-1.39 2.402,-0.912 2.42,-0.58C2.423,-0.244 2.414,-0.05 2.414,-0.05C2.409,0.057 2.317,0.14 2.211,0.135C2.114,0.13 2.037,0.056 2.026,-0.037L2.025,-0.043C2.025,-0.043 1.939,-0.783 1.774,-1.894C1.682,-2.445 1.573,-3.089 1.458,-3.778C1.315,-4.471 1.164,-5.212 1.013,-5.951C0.946,-6.327 0.862,-6.669 0.777,-7.038C0.694,-7.399 0.613,-7.753 0.534,-8.096C0.382,-8.785 0.228,-9.421 0.09,-9.967C-0.172,-11.059 -0.387,-11.776 -0.387,-11.776C-0.42,-11.885 -0.357,-12.001 -0.248,-12.034C-0.151,-12.063 -0.05,-12.018 -0.005,-11.931L0,-11.923Z" fill="#808080" style="fill-rule:nonzero;"/>
        </g>
        <g transform="matrix(1,0,0,1,14.3696,3.808)">
            <path d="M0,-2.808C0,-2.808 0.055,-2.632 0.096,-2.368C0.143,-2.103 0.157,-1.75 0.168,-1.398C0.154,-1.046 0.136,-0.693 0.087,-0.429C0.043,-0.164 -0.013,0.012 -0.013,0.012C-0.047,0.119 -0.162,0.178 -0.27,0.144C-0.334,0.123 -0.381,0.072 -0.401,0.012C-0.401,0.012 -0.458,-0.164 -0.501,-0.429C-0.55,-0.693 -0.568,-1.046 -0.582,-1.398C-0.571,-1.75 -0.557,-2.103 -0.51,-2.368C-0.469,-2.632 -0.414,-2.808 -0.414,-2.808C-0.378,-2.922 -0.256,-2.986 -0.142,-2.95C-0.072,-2.928 -0.021,-2.873 0,-2.808" fill="#808080" style="fill-rule:nonzero;"/>
        </g>
        <g transform="matrix(1,0,0,1,23.2803,20.9737)">
            <path d="M0,-1.754C0,-1.754 0.18,-1.714 0.43,-1.617C0.682,-1.525 0.994,-1.362 1.305,-1.195C1.603,-1.007 1.898,-0.816 2.104,-0.641C2.311,-0.471 2.435,-0.334 2.435,-0.334C2.511,-0.251 2.504,-0.122 2.421,-0.046C2.371,-0.001 2.303,0.015 2.241,0.002C2.241,0.002 2.06,-0.037 1.81,-0.132C1.557,-0.222 1.242,-0.382 0.93,-0.546C0.63,-0.732 0.332,-0.92 0.127,-1.093C-0.082,-1.26 -0.207,-1.397 -0.207,-1.397C-0.288,-1.484 -0.282,-1.621 -0.194,-1.702C-0.14,-1.752 -0.066,-1.769 0,-1.754" fill="#808080" style="fill-rule:nonzero;"/>
        </g>
        <g transform="matrix(1,0,0,1,2.6025,19.5899)">
            <path d="M0,1.04C0,1.04 0.125,0.903 0.333,0.736C0.539,0.563 0.837,0.374 1.137,0.189C1.449,0.024 1.763,-0.136 2.017,-0.226C2.267,-0.32 2.448,-0.359 2.448,-0.359C2.558,-0.384 2.667,-0.314 2.69,-0.203C2.705,-0.137 2.684,-0.07 2.642,-0.023C2.642,-0.023 2.518,0.114 2.311,0.283C2.106,0.458 1.81,0.65 1.512,0.838C1.201,1.006 0.889,1.169 0.637,1.261C0.387,1.357 0.207,1.397 0.207,1.397C0.09,1.424 -0.026,1.351 -0.052,1.233C-0.068,1.162 -0.045,1.09 0,1.04" fill="#808080" style="fill-rule:nonzero;"/>
        </g>
        <g id="_20" serif:id="20" transform="matrix(0.24,0,0,0.24,-0.564791,-0.72)">
            <path d="M45.081,72.59C46.869,71.579 48.512,70.418 50.01,69.105C51.507,67.793 52.698,66.436 53.583,65.036C54.467,63.636 54.91,62.314 54.91,61.07C54.91,60 54.589,59.149 53.947,58.518C53.306,57.886 52.392,57.57 51.206,57.57C50.097,57.57 49.144,57.788 48.347,58.226C47.55,58.663 46.811,59.203 46.131,59.845L45.197,58.532C45.878,57.735 46.85,57.011 48.114,56.359C49.378,55.708 50.729,55.382 52.168,55.382C53.529,55.382 54.676,55.63 55.61,56.126C56.543,56.622 57.233,57.268 57.681,58.065C58.128,58.863 58.351,59.738 58.351,60.69C58.351,62.615 57.428,64.594 55.581,66.626C53.733,68.658 51.419,70.481 48.639,72.095L57.681,71.424L58.701,68.915L60.189,69.207L59.431,73.815L45.518,73.815L45.081,72.59Z" fill="--c-accent" style="fill-rule:nonzero;"/>
            <path d="M70.397,74.078C67.908,74.078 66.047,73.218 64.812,71.497C63.577,69.776 62.96,67.554 62.96,64.832C62.96,62.927 63.31,61.259 64.01,59.83C64.71,58.401 65.662,57.307 66.868,56.549C68.074,55.79 69.396,55.411 70.835,55.411C73.362,55.411 75.21,56.223 76.376,57.847C77.543,59.47 78.126,61.692 78.126,64.511C78.126,66.397 77.791,68.065 77.12,69.513C76.449,70.962 75.526,72.085 74.349,72.882C73.173,73.679 71.856,74.078 70.397,74.078ZM70.514,72.59C73.411,72.59 74.86,69.995 74.86,64.803C74.86,62.275 74.534,60.331 73.883,58.97C73.231,57.608 72.137,56.928 70.601,56.928C69.104,56.928 67.996,57.574 67.276,58.868C66.557,60.161 66.197,62.013 66.197,64.424C66.197,66.893 66.542,68.872 67.233,70.359C67.923,71.847 69.017,72.59 70.514,72.59Z" fill="--c-accent" style="fill-rule:nonzero;"/>
        </g>
    </g>
</svg>
