<?xml version="1.0" encoding="UTF-8" standalone="no"?>
<!DOCTYPE svg PUBLIC "-//W3C//DTD SVG 1.1//EN" "http://www.w3.org/Graphics/SVG/1.1/DTD/svg11.dtd">
<svg width="100%" height="100%" viewBox="0 0 119 119" version="1.1" xmlns="http://www.w3.org/2000/svg" xmlns:xlink="http://www.w3.org/1999/xlink" xml:space="preserve" xmlns:serif="http://www.serif.com/" style="fill-rule:evenodd;clip-rule:evenodd;stroke-linejoin:round;stroke-miterlimit:2;">
    <g id="Layer-1" serif:id="Layer 1" transform="matrix(4.16667,0,0,4.16667,0,0)">
        <g transform="matrix(0.24,0,0,0.24,0,0)">
            <path d="M17.171,2.855C15.372,48.387 10.594,79.209 3.917,100.639C36.814,99.99 69.409,104.326 101.732,113.145C101.762,79.858 105.856,46.992 114.206,14.566C114.206,14.566 93.361,15.023 63.803,11.319C33.78,7.558 17.171,2.855 17.171,2.855Z" style="fill:white;"/>
            <path d="M17.739,0.851C17.125,0.677 16.465,0.794 15.948,1.169C15.431,1.544 15.115,2.135 15.09,2.773C14.171,26.023 12.474,45.424 10.141,61.688C7.933,77.085 5.156,89.659 1.928,100.02C1.729,100.659 1.849,101.355 2.251,101.891C2.653,102.426 3.288,102.735 3.958,102.722C20.381,102.398 36.728,103.324 53.003,105.437C69.133,107.532 85.192,110.791 101.184,115.155C101.81,115.325 102.48,115.195 102.996,114.801C103.512,114.407 103.815,113.796 103.815,113.147C103.83,96.566 104.859,80.09 106.925,63.722C108.985,47.402 112.077,31.189 116.224,15.085C116.387,14.454 116.244,13.782 115.839,13.271C115.434,12.76 114.813,12.469 114.161,12.483C114.161,12.483 104.53,12.692 89.094,11.659C81.884,11.177 73.411,10.423 64.062,9.252C55.032,8.121 47.22,6.904 40.716,5.756C25.757,3.118 17.739,0.851 17.739,0.851ZM19.147,5.525C22.648,6.401 29.708,8.046 39.992,9.86C46.554,11.017 54.434,12.245 63.544,13.386C72.982,14.569 81.537,15.329 88.816,15.816C99.599,16.538 107.591,16.66 111.523,16.667C107.665,32.08 104.761,47.592 102.791,63.2C100.816,78.847 99.779,94.591 99.66,110.43C84.348,106.368 68.976,103.31 53.539,101.305C38.004,99.288 22.404,98.34 6.736,98.512C9.668,88.521 12.211,76.602 14.266,62.279C16.528,46.504 18.2,27.8 19.147,5.525L19.147,5.525Z" fill="--c-accent"/>
        </g>
        <g transform="matrix(0.24,0,0,0.24,0,0)">
            <path d="M16.31,3.353C16.31,3.353 20.44,11.448 25.969,21.633C28.048,25.463 30.312,29.591 32.676,33.664C35.041,37.738 37.514,41.745 39.798,45.457C45.869,55.326 50.773,62.976 50.773,62.976C51.048,63.451 51.657,63.614 52.132,63.339C52.608,63.064 52.771,62.455 52.496,61.98C52.496,61.98 48.316,53.912 42.794,43.725C40.717,39.894 38.479,35.751 36.13,31.669C33.78,27.587 31.333,23.564 29.052,19.851C22.986,9.976 18.033,2.357 18.033,2.357C17.758,1.882 17.149,1.719 16.673,1.994C16.198,2.269 16.035,2.878 16.31,3.353Z" fill="--c-accent"/>
        </g>
        <g transform="matrix(0.24,0,0,0.24,0,0)">
            <path d="M113.601,13.776C113.601,13.776 105.064,19.714 94.352,27.526C90.324,30.464 85.982,33.655 81.708,36.938C77.434,40.222 73.24,43.605 69.354,46.73C59.025,55.039 51.03,61.688 51.03,61.688C50.594,62.022 50.511,62.647 50.844,63.083C51.178,63.519 51.803,63.602 52.239,63.268C52.239,63.268 60.743,57.283 71.458,49.478C75.489,46.542 79.848,43.375 84.133,40.105C88.417,36.835 92.63,33.476 96.517,30.353C106.852,22.049 114.811,15.356 114.811,15.356C115.247,15.022 115.33,14.397 114.996,13.961C114.663,13.525 114.037,13.442 113.601,13.776Z" fill="--c-accent"/>
        </g>
        <g transform="matrix(0.24,0,0,0.24,0,0)">
            <path d="M4.538,101.416C4.538,101.416 11.121,96.761 19.344,90.581C22.435,88.259 25.763,85.733 29.021,83.116C32.28,80.499 35.456,77.785 38.4,75.277C46.23,68.61 52.256,63.255 52.256,63.255C52.685,62.912 52.755,62.285 52.412,61.856C52.069,61.427 51.442,61.358 51.013,61.701C51.013,61.701 44.464,66.403 36.239,72.575C33.146,74.896 29.8,77.397 26.53,80.001C23.261,82.604 20.065,85.296 17.12,87.8C9.284,94.464 3.295,99.862 3.295,99.862C2.867,100.205 2.797,100.832 3.14,101.261C3.483,101.69 4.11,101.759 4.538,101.416Z" fill="--c-accent"/>
        </g>
        <g transform="matrix(0.24,0,0,0.24,0,0)">
            <path d="M102.44,112.445C102.44,112.445 96.176,105.434 87.969,96.693C84.883,93.406 81.533,89.868 78.101,86.409C74.669,82.95 71.148,79.582 67.894,76.461C59.243,68.163 52.342,61.778 52.342,61.778C51.956,61.388 51.325,61.384 50.935,61.77C50.544,62.156 50.541,62.787 50.927,63.177C50.927,63.177 57.233,70.15 65.433,78.894C68.518,82.183 71.845,85.742 75.265,89.213C78.685,92.684 82.185,96.074 85.437,99.197C94.084,107.501 101.024,113.844 101.024,113.844C101.411,114.235 102.041,114.238 102.432,113.852C102.822,113.466 102.826,112.836 102.44,112.445Z" fill="--c-accent"/>
        </g>
    </g>
</svg>
