<?xml version="1.0" encoding="utf-8"?>
<!-- Generator: Adobe Illustrator 16.0.0, SVG Export Plug-In . SVG Version: 6.00 Build 0)  -->
<!DOCTYPE svg PUBLIC "-//W3C//DTD SVG 1.1//EN" "http://www.w3.org/Graphics/SVG/1.1/DTD/svg11.dtd">
<svg version="1.1" id="Layer_1" xmlns="http://www.w3.org/2000/svg" xmlns:xlink="http://www.w3.org/1999/xlink" x="0px" y="0px"
	 width="28.35px" height="28.35px" viewBox="0 0 28.35 28.35" enable-background="new 0 0 28.35 28.35" xml:space="preserve">
<path fill="#707070" d="M21.7,11.204c0,0,0.016-0.387,0.188-0.578c0.172-0.191,0.493-0.167,0.493-0.167l0.864,0.231l2.823-6.229
	l-1.616-1.57c0,0-0.693-0.563-1.125-0.813c-0.444-0.257-1.271-0.574-1.271-0.574l-2.888-0.987c0,0-0.589,0.708-2.12,1.55
	c-1.279,0.702-2.353,0.802-2.353,0.802l-0.544,1.63l-0.544-1.63c0,0-1.073-0.1-2.353-0.802c-1.531-0.842-2.12-1.55-2.12-1.55
	L6.248,1.504c0,0-0.827,0.317-1.271,0.574c-0.432,0.25-1.125,0.813-1.125,0.813l-1.616,1.57l2.823,6.229l0.864-0.231
	c0,0,0.321-0.025,0.493,0.167c0.173,0.191,0.188,0.578,0.188,0.578c-0.167,3.529-0.335,5.505-0.591,7.681
	C5.559,22.756,4.5,26.039,4.5,26.039s2.01,1.162,4.504,1.449c2.494,0.285,4.46,0.344,4.46,0.344l0.688-2.119l0.688,2.119
	c0,0,1.966-0.059,4.46-0.344c2.494-0.287,4.504-1.449,4.504-1.449s-1.059-3.283-1.514-7.154
	C22.035,16.709,21.867,14.733,21.7,11.204z"/>
</svg>
