<?xml version="1.0" encoding="UTF-8" standalone="no"?>
<!DOCTYPE svg PUBLIC "-//W3C//DTD SVG 1.1//EN" "http://www.w3.org/Graphics/SVG/1.1/DTD/svg11.dtd">
<svg width="100%" height="100%" viewBox="0 0 119 119" version="1.1" xmlns="http://www.w3.org/2000/svg" xmlns:xlink="http://www.w3.org/1999/xlink" xml:space="preserve" xmlns:serif="http://www.serif.com/" style="fill-rule:evenodd;clip-rule:evenodd;stroke-linecap:round;stroke-linejoin:round;stroke-miterlimit:10;">
    <g id="Layer-1" serif:id="Layer 1" transform="matrix(4.16667,0,0,4.16667,0,0)">
        <g transform="matrix(1,0,0,1,27.8379,13.6393)">
            <path d="M0,1.037C0,1.037 -1.38,-1.382 -2.749,-5.215C-4.037,-8.822 -4.582,-11.623 -4.641,-11.938L-4.619,-11.969C-4.619,-11.969 -4.631,-11.967 -4.646,-11.965L-4.646,-11.969L-4.65,-11.964C-4.967,-11.913 -7.788,-11.478 -11.617,-11.474C-15.686,-11.466 -18.429,-11.949 -18.429,-11.949C-18.429,-11.949 -19.836,-9.545 -22.47,-6.442C-25.1,-3.346 -27.361,-1.428 -27.369,-1.422L-27.372,-1.422C-27.372,-1.422 -25.48,0.873 -23.442,4.393C-21.402,7.912 -20.449,10.529 -20.449,10.529C-20.449,10.529 -17.662,10.544 -13.659,11.275C-9.91,11.957 -7.221,12.88 -6.896,12.995L-6.89,13.006C-6.89,13.006 -6.887,12.999 -6.887,12.997C-6.875,13.002 -6.861,13.006 -6.861,13.006L-6.877,12.974C-6.754,12.65 -5.718,9.998 -3.818,6.698C-1.789,3.169 0,1.037 0,1.037" style="fill:white;fill-rule:nonzero;"/>
        </g>
        <g transform="matrix(-0.00144833,-0.999999,-0.999999,0.00144833,6.53963,-4.42295)">
            <path d="M-6.117,-16.657C-6.117,-16.657 -6.603,-13.724 -6.602,-9.658C-6.603,-5.59 -6.117,-2.848 -6.117,-2.848C-6.117,-2.848 -8.519,-1.437 -11.618,1.202C-14.715,3.839 -16.633,6.109 -16.633,6.109" stroke="--c-accent" style="fill:none;fill-rule:nonzero;stroke-width:0.75px;"/>
        </g>
        <g transform="matrix(0.866711,0.498811,0.498811,-0.866711,15.2063,23.2638)">
            <path d="M6.689,-0.054C6.689,-0.054 6.202,2.88 6.203,6.947C6.201,11.017 6.689,13.757 6.689,13.757C6.689,13.757 4.286,15.168 1.187,17.806C-1.911,20.443 -3.829,22.712 -3.829,22.712" stroke="--c-accent" style="fill:none;fill-rule:nonzero;stroke-width:0.75px;"/>
        </g>
        <g transform="matrix(-0.865296,0.501262,0.501262,0.865296,23.211,20.5331)">
            <path d="M15.513,-18.597C15.513,-18.597 15.026,-15.664 15.027,-11.596C15.026,-7.529 15.513,-4.788 15.513,-4.788C15.513,-4.788 13.108,-3.378 10.012,-0.738C6.915,1.899 4.997,4.169 4.997,4.169" stroke="--c-accent" style="fill:none;fill-rule:nonzero;stroke-width:0.75px;"/>
        </g>
        <g transform="matrix(0.575389,-0.81788,-0.81788,-0.575389,21.4854,14.405)">
            <path d="M-3.074,5.921L11.405,5.921" style="fill:none;fill-rule:nonzero;"/>
        </g>
        <g transform="matrix(1,0,0,1,14.6597,1.8383)">
            <path d="M0,11.523C0,11.523 0.463,10.743 1.203,9.603C1.579,9.038 2,8.367 2.484,7.669C2.964,6.97 3.478,6.225 3.992,5.48C4.521,4.746 5.051,4.012 5.547,3.324C6.043,2.636 6.533,2.012 6.939,1.468C7.765,0.39 8.344,-0.31 8.344,-0.31C8.431,-0.415 8.586,-0.429 8.692,-0.342C8.787,-0.264 8.807,-0.129 8.747,-0.026C8.747,-0.026 8.285,0.755 7.548,1.897C7.173,2.462 6.751,3.134 6.271,3.834C5.792,4.533 5.28,5.28 4.768,6.026C4.24,6.761 3.712,7.496 3.217,8.185C2.724,8.876 2.235,9.5 1.83,10.044C1.006,11.125 0.428,11.825 0.428,11.825C0.336,11.937 0.17,11.952 0.059,11.86C-0.042,11.776 -0.065,11.632 0,11.523" fill="--c-accent" style="fill-rule:nonzero;"/>
        </g>
        <g transform="matrix(0.420578,0.907257,0.907257,-0.420578,22.596,14.5554)">
            <path d="M-4.194,-6.568L10.283,-6.568" style="fill:none;fill-rule:nonzero;"/>
        </g>
        <g transform="matrix(1,0,0,1,15.1113,26.7408)">
            <path d="M0,-13.339C0,-13.339 0.444,-12.547 1.062,-11.338C1.363,-10.729 1.733,-10.028 2.096,-9.261C2.46,-8.495 2.849,-7.678 3.237,-6.861C3.608,-6.035 3.979,-5.21 4.326,-4.435C4.675,-3.662 4.97,-2.926 5.238,-2.302C5.759,-1.047 6.074,-0.197 6.074,-0.197C6.122,-0.069 6.057,0.073 5.929,0.12C5.813,0.163 5.687,0.114 5.629,0.01C5.629,0.01 5.183,-0.781 4.562,-1.989C4.26,-2.597 3.889,-3.297 3.523,-4.063C3.157,-4.829 2.767,-5.645 2.376,-6.462C2.004,-7.286 1.631,-8.111 1.282,-8.883C0.931,-9.656 0.635,-10.392 0.365,-11.015C-0.159,-12.268 -0.476,-13.118 -0.476,-13.118C-0.526,-13.255 -0.457,-13.406 -0.321,-13.456C-0.198,-13.502 -0.062,-13.45 0,-13.339" fill="--c-accent" style="fill-rule:nonzero;"/>
        </g>
        <g transform="matrix(0.995997,0.0893835,0.0893835,-0.995997,0.552989,11.5765)">
            <path d="M-0.029,-0.647L14.448,-0.647" style="fill:none;fill-rule:nonzero;"/>
        </g>
        <g transform="matrix(1,0,0,1,0.4897,13.7565)">
            <path d="M0,-1.799C0,-1.799 0.907,-1.788 2.264,-1.718C2.941,-1.675 3.733,-1.645 4.579,-1.576C5.425,-1.508 6.327,-1.436 7.229,-1.364C8.129,-1.272 9.029,-1.18 9.873,-1.094C10.717,-1.009 11.502,-0.897 12.176,-0.818C13.523,-0.641 14.418,-0.489 14.418,-0.489C14.552,-0.466 14.643,-0.339 14.62,-0.205C14.599,-0.084 14.493,0.002 14.374,0.001C14.374,0 13.466,-0.009 12.11,-0.076C11.432,-0.117 10.64,-0.147 9.794,-0.213C8.948,-0.278 8.046,-0.348 7.144,-0.419C6.244,-0.508 5.343,-0.598 4.499,-0.682C3.655,-0.764 2.87,-0.876 2.195,-0.954C0.848,-1.127 -0.047,-1.278 -0.047,-1.278C-0.19,-1.301 -0.287,-1.437 -0.262,-1.58C-0.241,-1.71 -0.127,-1.801 0,-1.799" fill="--c-accent" style="fill:fill-rule:nonzero;"/>
        </g>
    </g>
</svg>
