<?xml version="1.0" encoding="utf-8"?>
<!-- Generator: Adobe Illustrator 16.0.0, SVG Export Plug-In . SVG Version: 6.00 Build 0)  -->
<!DOCTYPE svg PUBLIC "-//W3C//DTD SVG 1.1//EN" "http://www.w3.org/Graphics/SVG/1.1/DTD/svg11.dtd">
<svg version="1.1" id="Layer_1" xmlns="http://www.w3.org/2000/svg" xmlns:xlink="http://www.w3.org/1999/xlink" x="0px" y="0px"
	 width="28.35px" height="28.35px" viewBox="0 0 28.35 28.35" enable-background="new 0 0 28.35 28.35" xml:space="preserve">
<path fill="#808080" d="M-23.522,14.175c0.01,0.006,3.51,1.836,7.094,5.131c3.59-3.3,7.095-5.132,7.095-5.132
	s-3.508-1.833-7.095-5.132C-20.017,12.341-23.522,14.175-23.522,14.175z"/>
<path fill="--c-accent" d="M20.262,8.087c-3.902-3.902-6.086-8.086-6.086-8.086c-0.002,0.004-1.674,3.201-4.701,6.61
	c0.193,0.201,0.385,0.402,0.584,0.603c4.459,4.461,9.244,6.959,9.244,6.959s-4.781,2.496-9.246,6.959
	c-0.199,0.199-0.391,0.4-0.584,0.602c3.027,3.41,4.703,6.613,4.703,6.613s2.188-4.188,6.086-8.088
	c3.904-3.902,8.088-6.086,8.088-6.086S24.164,11.989,20.262,8.087z"/>
<path fill="#808080" d="M8.202,20.262c3.908-3.903,8.097-6.088,8.097-6.088s-4.191-2.185-8.097-6.086
  C8.183,8.069,8.165,8.049,8.146,8.03c-0.02,0.02-0.038,0.04-0.058,0.06C4.184,11.992,0,14.176,0,14.176s4.186,2.185,8.088,6.086
  c0.02,0.02,0.037,0.039,0.057,0.059C8.164,20.301,8.182,20.281,8.202,20.262z"/>
</svg>
