<?xml version="1.0" encoding="utf-8"?>
<!-- Generator: Adobe Illustrator 16.0.0, SVG Export Plug-In . SVG Version: 6.00 Build 0)  -->
<!DOCTYPE svg PUBLIC "-//W3C//DTD SVG 1.1//EN" "http://www.w3.org/Graphics/SVG/1.1/DTD/svg11.dtd">
<svg version="1.1" id="Layer_1" xmlns="http://www.w3.org/2000/svg" xmlns:xlink="http://www.w3.org/1999/xlink" x="0px" y="0px"
	 width="283.46px" height="283.46px" viewBox="0 0 283.46 283.46" enable-background="new 0 0 283.46 283.46" xml:space="preserve">
<path fill="--c-accent" d="M208.595,5.43c-9.304-4.722-21.067-0.229-26.275,10.035c-2.354,4.645,3.278,12.235,12.583,16.955
	c9.303,4.72,18.758,4.781,21.113,0.138C221.221,22.293,217.9,10.148,208.595,5.43z"/>
<g>
	<path fill="#808080" d="M220.658,37.014c-3.135,6.181-15.676,6.122-28.005-0.134c-12.333-6.255-19.785-16.336-16.652-22.52
		l-8.802,16.815c-3.042,6.004,4.194,15.795,16.173,21.87c11.973,6.075,24.148,6.134,27.194,0.129L220.658,37.014z"/>
</g>
<path fill="--c-accent" d="M69.317,253.571c-4.132-2.097-7.588-4.804-10.174-7.738c-0.013,0.024-0.031,0.044-0.043,0.068
	c-3.15,6.213-1.14,13.562,4.49,16.415c5.43,2.757,12.235,0.313,15.538-5.436C75.939,256.321,72.6,255.236,69.317,253.571z"/>
<ellipse transform="matrix(0.8918 0.4524 -0.4524 0.8918 55.049 -178.0765)" fill="none" stroke="#000000" stroke-miterlimit="10" cx="399.865" cy="26.064" rx="20.146" ry="11.439"/>
<path fill="#808080" d="M217.233,71.916c-10.816-5.474-26.519-6.669-35.905-11.687c-17.136-9.161-26.873-23.516-22.252-33.47
	c2.199-4.212,5.998-4.979,11.576-4.526c-5.484-0.75-9.817,0.049-11.949,3.842v-0.01L57.338,226.278
	c-3.51,6.921,3.659,17.282,15.711,23.726c6.519,3.484,17.424,4.313,24.935,8.115c12.194,6.17,19.221,16.804,15.711,23.727
	l126.161-175.767C244.912,96.113,234.791,80.801,217.233,71.916z"/>
</svg>
