<?xml version="1.0" encoding="UTF-8" standalone="no"?>
<!DOCTYPE svg PUBLIC "-//W3C//DTD SVG 1.1//EN" "http://www.w3.org/Graphics/SVG/1.1/DTD/svg11.dtd">
<svg width="100%" height="100%" viewBox="0 0 119 119" version="1.1" xmlns="http://www.w3.org/2000/svg" xmlns:xlink="http://www.w3.org/1999/xlink" xml:space="preserve" xmlns:serif="http://www.serif.com/" style="fill-rule:evenodd;clip-rule:evenodd;stroke-miterlimit:10;">
    <g id="Layer-1" serif:id="Layer 1" transform="matrix(4.16667,0,0,4.16667,0,0)">
        <g transform="matrix(1,-0.000241109,-0.000241109,-1,15.6321,12.761)">
            <path d="M-0.001,0.001L8.294,0.001C8.294,5.316 9.66,9.659 9.66,9.659C9.653,9.657 5.315,8.296 0.002,8.298L-0.001,0.001Z" style="fill:rgb(118,120,123);fill-rule:nonzero;stroke:rgb(118,120,123);stroke-width:0.75px;"/>
        </g>
        <g transform="matrix(-1,0.000120525,0.000120525,1,3.05888,25.3315)">
            <path d="M-9.66,-9.658L-1.363,-9.658C-1.365,-4.343 0.001,-0.001 0.001,-0.001C-0.007,-0.003 -4.345,-1.363 -9.657,-1.362L-9.66,-9.658Z" style="fill:white;fill-rule:nonzero;stroke:rgb(118,120,123);stroke-width:0.75px;"/>
        </g>
        <g transform="matrix(1,0,0,1,12.7192,11.3939)">
            <path d="M0,-6.932C-5.316,-6.931 -9.659,-8.295 -9.659,-8.295C-9.657,-8.288 -8.296,-3.952 -8.296,1.363" style="fill:none;fill-rule:nonzero;stroke:rgb(198,200,202);stroke-width:0.75px;"/>
        </g>
        <g transform="matrix(0.000241109,1,1,-0.000241109,25.2862,15.6692)">
            <path d="M0,-9.657L8.295,-9.657C8.298,-4.343 9.66,0 9.66,0C9.656,-0.002 5.319,-1.362 0.002,-1.36L0,-9.657Z" style="fill:rgb(118,120,123);fill-rule:nonzero;stroke:rgb(118,120,123);stroke-width:0.75px;"/>
        </g>
    </g>
</svg>
