<?xml version="1.0" encoding="utf-8"?>
<!-- Generator: Adobe Illustrator 16.0.0, SVG Export Plug-In . SVG Version: 6.00 Build 0)  -->
<!DOCTYPE svg PUBLIC "-//W3C//DTD SVG 1.1//EN" "http://www.w3.org/Graphics/SVG/1.1/DTD/svg11.dtd">
<svg version="1.1" id="Layer_1" xmlns="http://www.w3.org/2000/svg" xmlns:xlink="http://www.w3.org/1999/xlink" x="0px" y="0px"
	 width="51.785px" height="28.35px" viewBox="0 0 51.785 28.35" enable-background="new 0 0 51.785 28.35" xml:space="preserve">
<g>
	<path fill="#BCBEC0" d="M9.361,9.811c2.485,2.281,4.898,3.776,5.919,4.363c-1.026,0.594-3.458,2.107-5.919,4.361
		c0.162,0.141,0.322,0.279,0.485,0.424c3.136-2.861,6.204-4.486,6.238-4.502l0.542-0.284l-0.542-0.283
		c-0.034-0.018-3.095-1.633-6.238-4.501C9.683,9.533,9.522,9.672,9.361,9.811z"/>
	<path fill="#BCBEC0" d="M18.536,21.082c-2.282,2.486-3.777,4.898-4.364,5.92c-0.594-1.025-2.105-3.457-4.361-5.918
		c-0.139,0.162-0.278,0.322-0.423,0.484c2.86,3.137,4.485,6.205,4.503,6.238l0.283,0.541l0.283-0.541
		c0.018-0.035,1.634-3.096,4.501-6.238C18.814,21.406,18.674,21.244,18.536,21.082z"/>
	<path fill="#BCBEC0" d="M9.81,7.266c2.281-2.485,3.776-4.897,4.363-5.919c0.594,1.025,2.106,3.457,4.361,5.919
		c0.14-0.162,0.278-0.322,0.424-0.485c-2.861-3.136-4.486-6.204-4.503-6.237l-0.284-0.542l-0.283,0.542
		c-0.018,0.034-1.633,3.096-4.501,6.238C9.532,6.944,9.671,7.105,9.81,7.266z"/>
	<path fill="#BCBEC0" d="M21.08,9.811c2.485,2.281,4.898,3.776,5.919,4.363c-1.026,0.594-3.458,2.107-5.918,4.361
		c0.161,0.141,0.322,0.279,0.484,0.424c3.137-2.861,6.204-4.486,6.239-4.502l0.541-0.284l-0.543-0.283
		c-0.033-0.018-3.094-1.633-6.238-4.501C21.402,9.533,21.241,9.672,21.08,9.811z"/>
	<path fill="#BCBEC0" d="M7.265,18.537c-2.485-2.281-4.897-3.777-5.919-4.364c1.025-0.594,3.457-2.106,5.919-4.361
		c-0.162-0.14-0.322-0.278-0.485-0.424c-3.136,2.861-6.204,4.486-6.237,4.503L0,14.175l0.542,0.283
		c0.034,0.018,3.096,1.633,6.238,4.5C6.942,18.814,7.104,18.676,7.265,18.537z"/>
	<path fill="#BCBEC0" d="M9.035,16.537c-1.088-1.176-1.897-1.777-2.919-2.364c1.779-1.304,1.025-0.594,2.919-2.361
		c-0.162-0.14-0.322-0.278-0.485-0.424c-2.395,2.266-3.779,2.787-3.779,2.787s1.322,0.479,3.78,2.784
		C8.712,16.814,8.874,16.676,9.035,16.537z"/>
	<path fill="#BCBEC0" d="M19.311,11.811c1.088,1.175,1.897,1.776,2.919,2.363c-1.779,1.304-1.025,0.594-2.919,2.361
		c0.162,0.141,0.322,0.279,0.485,0.424c2.395-2.265,3.779-2.787,3.779-2.787s-1.322-0.479-3.78-2.784
		C19.633,11.533,19.472,11.672,19.311,11.811z"/>
	<path fill="#BCBEC0" d="M30.255,21.082c-2.281,2.486-3.776,4.898-4.363,5.92c-0.594-1.025-2.106-3.457-4.361-5.918
		c-0.139,0.162-0.278,0.322-0.423,0.484c2.861,3.137,4.486,6.205,4.503,6.238l0.284,0.541l0.283-0.541
		c0.018-0.035,1.633-3.096,4.501-6.238C30.535,21.406,30.394,21.244,30.255,21.082z"/>
	<path fill="#BCBEC0" d="M21.53,7.266c2.281-2.485,3.776-4.897,4.363-5.919C26.487,2.373,28,4.804,30.254,7.266
		c0.14-0.162,0.278-0.322,0.424-0.485c-2.861-3.136-4.486-6.204-4.503-6.237l-0.284-0.542l-0.283,0.542
		c-0.018,0.034-1.633,3.096-4.501,6.238C21.251,6.944,21.391,7.105,21.53,7.266z"/>
	<path fill="#BCBEC0" d="M32.8,9.811c2.485,2.281,4.898,3.776,5.92,4.363c-1.026,0.594-3.458,2.107-5.92,4.361
		c0.162,0.141,0.322,0.279,0.485,0.424c3.136-2.861,6.204-4.486,6.237-4.502l0.543-0.284l-0.543-0.283
		c-0.033-0.018-3.096-1.633-6.238-4.501C33.123,9.533,32.961,9.672,32.8,9.811z"/>
	<path fill="#BCBEC0" d="M41.976,21.082c-2.282,2.486-3.777,4.898-4.364,5.92c-0.594-1.025-2.106-3.457-4.361-5.918
		c-0.14,0.162-0.278,0.322-0.423,0.484c2.86,3.137,4.485,6.205,4.502,6.238l0.284,0.541l0.283-0.541
		c0.018-0.035,1.634-3.096,4.501-6.238C42.253,21.406,42.114,21.244,41.976,21.082z"/>
	<path fill="#BCBEC0" d="M33.25,7.266c2.281-2.485,3.776-4.897,4.363-5.919c0.594,1.025,2.106,3.457,4.361,5.919
		c0.14-0.162,0.278-0.322,0.424-0.485c-2.861-3.136-4.486-6.204-4.503-6.237l-0.284-0.542l-0.283,0.542
		c-0.018,0.034-1.633,3.096-4.501,6.238C32.971,6.944,33.111,7.105,33.25,7.266z"/>
	<path fill="#BCBEC0" d="M44.52,9.811c2.485,2.281,4.897,3.776,5.919,4.363c-1.025,0.594-3.457,2.107-5.918,4.361
		c0.161,0.141,0.322,0.279,0.484,0.424c3.137-2.861,6.204-4.486,6.238-4.502l0.541-0.284l-0.542-0.283
		c-0.034-0.018-3.095-1.633-6.238-4.501C44.842,9.533,44.681,9.672,44.52,9.811z"/>
</g>
</svg>
