<?xml version="1.0" encoding="utf-8"?>
<!-- Generator: Adobe Illustrator 16.0.0, SVG Export Plug-In . SVG Version: 6.00 Build 0)  -->
<!DOCTYPE svg PUBLIC "-//W3C//DTD SVG 1.1//EN" "http://www.w3.org/Graphics/SVG/1.1/DTD/svg11.dtd">
<svg version="1.1" id="Layer_1" xmlns="http://www.w3.org/2000/svg" xmlns:xlink="http://www.w3.org/1999/xlink" x="0px" y="0px"
	 width="28.35px" height="28.35px" viewBox="0 0 28.35 28.35" enable-background="new 0 0 28.35 28.35" xml:space="preserve">
<g>
	<path fill-rule="evenodd" clip-rule="evenodd" fill="#707070" d="M9.033,1.415c0.553,0.252,0.372,1.241,0.705,1.714
		c0.203,0,0.403,0,0.604,0c0.396-0.378,0.352-1.194,0.605-1.714c0.775,0.065,1.46,0.223,2.12,0.403c0,0.639-0.067,1.213-0.203,1.716
		c0.084,0.216,0.441,0.164,0.604,0.302c0.593-0.249,0.767-0.917,1.211-1.313c0.694,0.313,1.303,0.716,1.815,1.212
		c-0.224,0.517-0.495,0.985-0.807,1.411c0.036,0.335,0.302,0.438,0.505,0.606c0.641-0.166,1.002-0.61,1.613-0.808
		c0.338,0.605,0.797,1.086,1.11,1.716c-0.249,0.591-0.916,0.765-1.313,1.211c-0.016,0.318,0.271,0.336,0.203,0.705
		c0.651-0.023,1.166-0.181,1.816-0.204c0.197,0.676,0.432,1.318,0.401,2.221c-0.646,0.06-1.068,0.345-1.714,0.403
		c0,0.234,0,0.471,0,0.707c0.486,0.253,1.098,0.382,1.714,0.505c0.03,0.903-0.204,1.543-0.401,2.22
		c-0.593-0.048-1.104-0.176-1.714-0.203c-0.204,0.065-0.067,0.471-0.306,0.505c0.217,0.659,0.972,0.776,1.313,1.313
		c-0.234,0.74-0.785,1.165-1.11,1.815c-0.564-0.21-0.977-0.569-1.512-0.809c-0.336,0.035-0.439,0.302-0.606,0.503
		c0.287,0.452,0.506,0.978,0.807,1.416c-0.349,0.655-1.152,0.865-1.717,1.309c-0.539-0.3-0.687-0.99-1.208-1.309
		c-0.287,0.016-0.42,0.185-0.706,0.201c0.108,0.563,0.208,1.132,0.203,1.814c-0.66,0.18-1.345,0.338-2.12,0.403
		c-0.196-0.542-0.296-1.182-0.504-1.715c-0.236,0-0.471,0-0.706,0c-0.228,0.512-0.337,1.141-0.505,1.715
		c-0.855-0.02-1.46-0.289-2.22-0.403c0.104-0.536,0.225-1.053,0.204-1.717c-0.028-0.305-0.533-0.136-0.606-0.4
		c-0.378,0.46-0.751,0.929-1.109,1.41c-0.696-0.311-1.302-0.716-1.817-1.208c0.212-0.566,0.524-1.026,0.809-1.517
		c-0.441-1.08-1.328-0.032-2.018,0.306c-0.533-0.444-0.846-1.105-1.209-1.718c0.22-0.65,0.997-0.748,1.311-1.31
		c-0.059-0.21-0.252-0.287-0.203-0.605c-0.668,0.005-1.189,0.157-1.814,0.203c-0.241-0.637-0.442-1.309-0.405-2.22
		c0.606-0.066,1.045-0.301,1.614-0.405c0-0.235,0-0.47,0-0.705c-0.427-0.346-1.212-0.333-1.715-0.606
		c0.138-0.703,0.291-1.39,0.404-2.119c0.625,0.014,1.149,0.129,1.715,0.204c0.295-0.041,0.197-0.476,0.404-0.605
		C2.181,7.524,1.726,7.14,1.162,6.863c0.294-0.75,0.804-1.283,1.212-1.918C2.913,5.213,3.461,5.47,3.886,5.853
		c0.267-0.104,0.34-0.401,0.607-0.503c-0.227-0.55-0.535-1.014-0.809-1.514C4.06,3.167,4.796,2.862,5.501,2.523
		C5.869,2.964,6.149,3.49,6.61,3.836c0.237-0.035,0.416-0.121,0.606-0.202C7.22,2.99,7.178,2.393,7.013,1.92
		C7.5,1.563,8.359,1.583,9.033,1.415z M4.796,13.52c2,5.09,10.272,4.36,10.894-1.412c0.429-3.971-2.744-6.664-6.255-6.254
		C5.924,6.263,3.344,9.826,4.796,13.52z"/>
	<path fill-rule="evenodd" clip-rule="evenodd" fill="#707070" d="M9.536,9.484c3.212-0.783,3.393,4.224,0.303,3.934
		C7.756,13.224,7.417,10.001,9.536,9.484z"/>
	<path fill-rule="evenodd" clip-rule="evenodd" fill="#707070" d="M21.842,16.849c0.407,0,0.807,0,1.21,0
		c0.337-0.474,0.638-0.979,0.909-1.514c0.563,0.145,1.042,0.37,1.514,0.604c-0.036,0.672-0.202,1.214-0.406,1.715
		c0.254,0.32,0.686,0.46,0.81,0.908c0.644-0.095,1.087-0.392,1.819-0.402c0.229,0.468,0.458,0.949,0.6,1.513
		c-0.515,0.289-1.017,0.594-1.511,0.909c0,0.367,0,0.74,0,1.107c0.445,0.362,0.939,0.675,1.511,0.909
		c-0.107,0.631-0.432,1.048-0.6,1.613c-0.591-0.087-1.078-0.27-1.617-0.402c-0.495,0.108-0.6,0.609-1.012,0.809
		c0.231,0.476,0.212,1.199,0.507,1.613c-0.368,0.402-0.967,0.577-1.614,0.705c-0.313-0.493-0.618-0.999-0.909-1.514
		c-0.264,0.096-0.861,0.196-1.107,0c-0.338,0.471-0.635,0.978-0.909,1.514c-0.698-0.044-1.091-0.39-1.611-0.604
		c0.131-0.541,0.27-1.075,0.4-1.616c-0.146-0.422-0.549-0.594-0.807-0.906c-0.614,0.09-1.133,0.277-1.715,0.402
		c-0.241-0.498-0.525-0.952-0.604-1.613c0.58-0.193,0.933-0.612,1.512-0.806c0.038-0.558-0.107-0.702,0-1.11
		c-0.393-0.449-1.038-0.643-1.512-1.01c0.057-0.65,0.399-1.012,0.604-1.513c0.607,0.068,1.147,0.198,1.615,0.402
		c0.344-0.256,0.646-0.561,0.906-0.908c-0.089-0.615-0.276-1.13-0.4-1.715c0.493-0.177,0.948-0.395,1.41-0.604
		C21.346,15.665,21.541,16.307,21.842,16.849z M22.144,24.111c4.432,0.397,4.087-6.787-0.399-5.75
		C18.77,19.05,18.887,23.82,22.144,24.111z"/>
	<path fill-rule="evenodd" clip-rule="evenodd" fill="#707070" d="M22.249,20.177c0.686-0.163,1.271,0.122,1.309,0.908
		c0.073,1.56-2.335,1.486-2.118-0.101C21.474,20.727,21.555,20.346,22.249,20.177z"/>
</g>
</svg>
