<?xml version="1.0" encoding="utf-8"?>
<!-- Generator: Adobe Illustrator 16.0.0, SVG Export Plug-In . SVG Version: 6.00 Build 0)  -->
<!DOCTYPE svg PUBLIC "-//W3C//DTD SVG 1.1//EN" "http://www.w3.org/Graphics/SVG/1.1/DTD/svg11.dtd">
<svg version="1.1" id="Layer_1" xmlns="http://www.w3.org/2000/svg" xmlns:xlink="http://www.w3.org/1999/xlink" x="0px" y="0px"
	 width="28.35px" height="28.35px" viewBox="0 0 28.35 28.35" enable-background="new 0 0 28.35 28.35" xml:space="preserve">
<path fill="#FFFFFF" stroke="#595959" stroke-width="0.75" stroke-linecap="round" stroke-miterlimit="10" d="M18.714,4.831
	c-2.813-1.695-4.54-4.177-4.54-4.177s-1.728,2.482-4.54,4.177l4.541,7.862L18.714,4.831z"/>
<path fill="#FFFFFF" stroke="#595959" stroke-width="0.75" stroke-linecap="round" stroke-miterlimit="10" d="M8.351,5.569
	c-2.875,1.59-5.887,1.845-5.887,1.845s1.285,2.738,1.346,6.018h9.08L8.351,5.569z"/>
<path fill="#FFFFFF" stroke="#595959" stroke-width="0.75" stroke-linecap="round" stroke-miterlimit="10" d="M3.811,14.917
	C3.75,18.2,2.465,20.939,2.465,20.939s3.014,0.252,5.886,1.841l4.54-7.863H3.811z"/>
<path fill="#FFFFFF" stroke="#595959" stroke-width="0.75" stroke-linecap="round" stroke-miterlimit="10" d="M9.634,23.52
	c2.812,1.696,4.541,4.178,4.541,4.178s1.727-2.483,4.54-4.178l-4.54-7.863L9.634,23.52z"/>
<path fill="#FFFFFF" stroke="#595959" stroke-width="0.75" stroke-linecap="round" stroke-miterlimit="10" d="M19.999,22.78
	c2.873-1.587,5.887-1.845,5.887-1.845s-1.286-2.737-1.348-6.018h-9.081L19.999,22.78z"/>
<path fill="#FFFFFF" stroke="#595959" stroke-width="0.75" stroke-linecap="round" stroke-miterlimit="10" d="M24.538,13.432
	c0.063-3.283,1.345-6.018,1.345-6.018s-3.014-0.255-5.885-1.845l-4.54,7.863H24.538z"/>
</svg>
