<?xml version="1.0" encoding="utf-8"?>
<!-- Generator: Adobe Illustrator 16.0.0, SVG Export Plug-In . SVG Version: 6.00 Build 0)  -->
<!DOCTYPE svg PUBLIC "-//W3C//DTD SVG 1.1//EN" "http://www.w3.org/Graphics/SVG/1.1/DTD/svg11.dtd">
<svg version="1.1" id="Layer_1" xmlns="http://www.w3.org/2000/svg" xmlns:xlink="http://www.w3.org/1999/xlink" x="0px" y="0px"
	 width="28.35px" height="28.35px" viewBox="0 0 28.35 28.35" enable-background="new 0 0 28.35 28.35" xml:space="preserve">
<path fill-rule="evenodd" clip-rule="evenodd" fill="#F2F2F2" d="M1.939,3.712c0.717-0.048,1.404-0.08,2.089-0.142
	c2.365-0.212,4.647-0.775,6.823-1.721c1.057-0.458,2.071-1.012,3.1-1.534c0.151-0.077,0.258-0.104,0.418-0.01
	c2.466,1.438,5.083,2.474,7.904,2.972c1.312,0.231,2.63,0.388,3.963,0.406c0.047,0,0.095,0.007,0.174,0.013
	c0,0.121,0.001,0.233-0.001,0.346c-0.038,1.797-0.159,3.587-0.394,5.371c-0.67,5.087-2.559,9.667-5.695,13.726
	c-0.957,1.238-2.155,2.234-3.354,3.226c-0.781,0.644-1.604,1.224-2.521,1.665c-0.205,0.1-0.362,0.104-0.563-0.004
	c-1.607-0.874-3.034-1.979-4.334-3.268c-2.659-2.636-4.473-5.786-5.744-9.277c-0.626-1.718-1.037-3.49-1.339-5.289
	C2.121,8.148,1.97,6.087,1.939,4.017C1.938,3.92,1.939,3.824,1.939,3.712z"/>
<path fill-rule="evenodd" clip-rule="evenodd" fill="#999999" d="M26.236,3.666c-1.333-0.018-2.651-0.174-3.963-0.406
	c-2.821-0.498-5.438-1.533-7.904-2.972c-0.16-0.094-0.267-0.066-0.418,0.01c-1.028,0.522-2.043,1.076-3.1,1.534
	C8.676,2.778,6.394,3.342,4.028,3.554C3.344,3.615,2.656,3.647,1.939,3.695c0,0.112-0.001,0.208,0,0.305
	c0.031,2.07,0.182,4.131,0.525,6.174c0.303,1.799,0.714,3.571,1.34,5.289c1.271,3.491,3.086,6.642,5.744,9.277
	c1.3,1.289,2.727,2.394,4.334,3.268c0.2,0.107,0.357,0.104,0.563,0.004c0.917-0.441,1.739-1.021,2.521-1.665
	c1.199-0.991,2.397-1.987,3.354-3.226c3.137-4.059,5.025-8.639,5.695-13.726c0.234-1.784,0.355-3.574,0.394-5.371
	C26.411,3.913,26.41,3.8,26.41,3.679C26.331,3.673,26.283,3.667,26.236,3.666z M24.488,5.617c-0.032,1.515-0.135,3.023-0.332,4.527
	c-0.564,4.288-2.157,8.149-4.801,11.571c-0.807,1.043-1.817,1.883-2.828,2.719c-0.658,0.542-1.352,1.031-2.125,1.403
	c-0.172,0.084-0.305,0.087-0.474-0.003c-1.354-0.737-2.558-1.668-3.653-2.755c-2.241-2.222-3.771-4.877-4.842-7.82
	C4.906,13.811,4.56,12.317,4.305,10.8C4.014,9.078,3.887,7.341,3.861,5.596c-0.002-0.082,0-0.163,0-0.257
	c0.604-0.041,1.184-0.067,1.76-0.119c1.994-0.179,3.918-0.654,5.752-1.451c0.891-0.387,1.746-0.853,2.613-1.293
	c0.127-0.064,0.217-0.088,0.353-0.008c2.078,1.212,4.284,2.085,6.663,2.505c1.105,0.195,2.217,0.327,3.34,0.342
	c0.04,0,0.08,0.006,0.146,0.011C24.488,5.426,24.489,5.521,24.488,5.617z"/>
</svg>
