<?xml version="1.0" encoding="UTF-8" standalone="no"?>
<!DOCTYPE svg PUBLIC "-//W3C//DTD SVG 1.1//EN" "http://www.w3.org/Graphics/SVG/1.1/DTD/svg11.dtd">
<svg width="100%" height="100%" viewBox="0 0 119 119" version="1.1" xmlns="http://www.w3.org/2000/svg" xmlns:xlink="http://www.w3.org/1999/xlink" xml:space="preserve" xmlns:serif="http://www.serif.com/" style="fill-rule:evenodd;clip-rule:evenodd;stroke-linecap:round;stroke-linejoin:round;stroke-miterlimit:1.5;">
    <g id="Layer-1" serif:id="Layer 1" transform="matrix(4.16667,0,0,4.16667,0,0)">
        <g transform="matrix(0.246667,0,0,0.246057,-0.351997,-0.147489)">
            <path d="M34.165,9.145C33.253,9.277 32.405,9.688 31.734,10.322C28.785,13.108 20.389,21.042 18.338,22.981C18.038,23.264 17.805,23.612 17.656,23.998C15.986,28.323 5.588,55.259 3.806,59.876C3.636,60.315 3.6,60.794 3.702,61.253C3.889,62.103 4.225,63.623 4.589,65.268C5.607,69.879 7.74,74.169 10.798,77.761C18.661,86.995 33.72,104.679 33.72,104.679C33.72,104.679 37.069,107.414 39.588,109.47C41.333,110.895 43.586,111.539 45.818,111.25C52.091,110.441 65.381,108.725 73.74,107.647C78.583,107.021 83.227,105.32 87.331,102.666C92.586,99.268 99.256,94.955 99.256,94.955C99.256,94.955 111.486,62.703 114.168,55.629C114.489,54.784 114.346,53.832 113.793,53.119C109.07,47.024 86.851,18.356 78.381,7.427C76.346,4.802 73.062,3.476 69.781,3.954C60.009,5.378 39.671,8.342 34.165,9.145Z" stroke="--c-accent" style="fill:white;stroke-width:4.06px;"/>
        </g>
        <g transform="matrix(0.246667,0,0,0.246057,-0.351997,-0.147489)">
            <path d="M25.483,41.348C25.483,41.348 30.285,43.244 36.489,45.468C38.819,46.304 41.341,47.197 43.892,48.006C46.443,48.815 49.02,49.533 51.404,50.199C57.75,51.971 62.756,53.227 62.756,53.227C63.16,53.355 63.592,53.131 63.721,52.726C63.849,52.322 63.625,51.888 63.222,51.76C63.222,51.76 58.411,49.887 52.21,47.66C49.879,46.823 47.362,45.918 44.813,45.102C42.264,44.286 39.691,43.555 37.307,42.888C30.96,41.113 25.948,39.881 25.948,39.881C25.544,39.753 25.112,39.977 24.984,40.382C24.855,40.786 25.079,41.22 25.483,41.348Z" fill="--c-accent"/>
        </g>
        <g transform="matrix(0.256566,-0.00703449,-0.00705191,0.251068,-0.60535,0.0325504)">
            <path d="M92.035,30.857C92.035,30.857 87.952,33.338 82.851,36.684C80.934,37.94 78.869,39.307 76.854,40.747C74.839,42.187 72.88,43.703 71.066,45.105C66.24,48.835 62.544,51.866 62.544,51.866C62.219,52.098 62.153,52.567 62.399,52.914C62.644,53.26 63.108,53.353 63.434,53.12C63.434,53.12 67.504,50.618 72.606,47.276C74.524,46.02 76.596,44.665 78.615,43.231C80.635,41.796 82.601,40.291 84.415,38.89C89.244,35.161 92.925,32.111 92.925,32.111C93.251,31.879 93.316,31.41 93.07,31.064C92.825,30.717 92.361,30.625 92.035,30.857Z" fill="--c-accent"/>
        </g>
        <g transform="matrix(0.246667,0,0,0.246057,-0.351997,-0.147489)">
            <path d="M70.436,92.233C70.436,92.233 69.898,86.926 69.003,80.176C68.667,77.64 68.294,74.901 67.833,72.174C67.372,69.448 66.818,66.739 66.307,64.232C64.946,57.562 63.746,52.365 63.746,52.365C63.676,51.947 63.28,51.664 62.862,51.734C62.444,51.805 62.162,52.202 62.232,52.621C62.232,52.621 62.794,57.925 63.686,64.674C64.021,67.211 64.381,69.952 64.835,72.68C65.289,75.407 65.831,78.118 66.341,80.625C67.699,87.297 68.922,92.489 68.922,92.489C68.992,92.907 69.389,93.19 69.807,93.12C70.224,93.049 70.507,92.652 70.436,92.233Z" fill="--c-accent"/>
        </g>
        <g transform="matrix(0.246667,0,0,0.246057,-0.351997,-0.147489)">
            <path d="M26.463,40.791C26.463,40.791 27.752,36.813 29.201,31.668C29.744,29.736 30.322,27.647 30.813,25.535C31.305,23.423 31.704,21.292 32.075,19.32C33.062,14.067 33.699,9.934 33.699,9.934C33.796,9.521 33.54,9.106 33.127,9.009C32.715,8.912 32.301,9.169 32.204,9.582C32.204,9.582 30.938,13.567 29.487,18.71C28.942,20.642 28.353,22.727 27.854,24.838C27.355,26.948 26.944,29.076 26.572,31.048C25.581,36.302 24.968,40.439 24.968,40.439C24.871,40.852 25.127,41.267 25.54,41.364C25.952,41.461 26.366,41.204 26.463,40.791Z" fill="--c-accent"/>
        </g>
        <g transform="matrix(0.246667,0,0,0.246057,-0.351997,-0.147489)">
            <path d="M25.078,40.185C25.078,40.185 22.185,43.871 18.656,48.707C17.331,50.522 15.907,52.49 14.556,54.51C13.204,56.53 11.933,58.599 10.755,60.515C7.619,65.614 5.281,69.676 5.281,69.676C5.045,70.029 5.138,70.507 5.489,70.744C5.841,70.982 6.319,70.888 6.555,70.536C6.555,70.536 9.429,66.835 12.96,62.002C14.286,60.187 15.72,58.227 17.078,56.211C18.435,54.196 19.717,52.132 20.896,50.218C24.036,45.119 26.352,41.044 26.352,41.044C26.589,40.692 26.496,40.213 26.144,39.976C25.793,39.739 25.315,39.833 25.078,40.185Z" fill="--c-accent"/>
        </g>
        <g transform="matrix(0.246667,0,0,0.246057,-0.351997,-0.147489)">
            <path d="M69.644,93.13C69.644,93.13 73.503,93.657 78.464,94.122C80.325,94.297 82.336,94.476 84.355,94.566C86.373,94.655 88.392,94.651 90.262,94.647C95.243,94.639 99.135,94.495 99.135,94.495C99.558,94.515 99.918,94.186 99.937,93.762C99.957,93.337 99.629,92.977 99.206,92.957C99.206,92.957 95.343,92.454 90.384,91.986C88.523,91.81 86.513,91.619 84.495,91.522C82.477,91.424 80.458,91.417 78.589,91.419C73.606,91.424 69.715,91.592 69.715,91.592C69.291,91.572 68.932,91.901 68.912,92.325C68.893,92.75 69.22,93.11 69.644,93.13Z" fill="--c-accent"/>
        </g>
        <g transform="matrix(0.246667,0,0,0.246057,-0.351997,-0.147489)">
            <path d="M69.429,91.633C69.429,91.633 64.697,92.904 58.712,94.727C56.464,95.412 54.038,96.162 51.638,96.996C49.239,97.831 46.873,98.754 44.683,99.608C38.853,101.879 34.339,103.785 34.339,103.785C33.939,103.924 33.726,104.362 33.864,104.764C34.003,105.165 34.44,105.379 34.841,105.24C34.841,105.24 39.566,103.947 45.551,102.126C47.799,101.442 50.229,100.705 52.631,99.877C55.032,99.049 57.403,98.138 59.593,97.286C65.425,95.017 69.93,93.088 69.93,93.088C70.33,92.95 70.543,92.511 70.405,92.11C70.267,91.708 69.829,91.495 69.429,91.633Z" fill="--c-accent"/>
        </g>
    </g>
</svg>
