<?xml version="1.0" encoding="utf-8"?>
<!-- Generator: Adobe Illustrator 16.0.0, SVG Export Plug-In . SVG Version: 6.00 Build 0)  -->
<!DOCTYPE svg PUBLIC "-//W3C//DTD SVG 1.1//EN" "http://www.w3.org/Graphics/SVG/1.1/DTD/svg11.dtd">
<svg version="1.1" id="Layer_1" xmlns="http://www.w3.org/2000/svg" xmlns:xlink="http://www.w3.org/1999/xlink" x="0px" y="0px"
	 width="39.192px" height="28.35px" viewBox="0 0 39.192 28.35" enable-background="new 0 0 39.192 28.35" xml:space="preserve">
<path fill="#808080" d="M-0.002,14.173c0.01,0.005,3.505,1.836,7.086,5.133c3.585-3.302,7.086-5.133,7.086-5.133
	s-3.503-1.834-7.086-5.132C3.5,12.339-0.002,14.173-0.002,14.173z"/>
<path fill="--c-accent" d="M31.913,8.696c-3.512-3.512-5.478-7.277-5.478-7.277c-0.002,0.003-1.507,2.881-4.229,5.949
	c0.172,0.181,0.345,0.362,0.525,0.542c4.013,4.015,8.319,6.263,8.319,6.263s-4.304,2.247-8.321,6.262
	c-0.181,0.181-0.353,0.361-0.525,0.543c2.723,3.068,4.231,5.951,4.231,5.951s1.969-3.768,5.478-7.278
	c3.515-3.513,7.279-5.478,7.279-5.478S35.424,12.208,31.913,8.696z"/>
<path fill="#808080" d="M20.257,8.086C16.354,4.185,14.171,0,14.171,0c-0.002,0.004-1.674,3.201-4.702,6.61
	c0.193,0.201,0.385,0.402,0.584,0.603c4.459,4.461,9.245,6.959,9.245,6.959s-4.781,2.496-9.247,6.959
	c-0.199,0.199-0.391,0.4-0.584,0.602c3.028,3.41,4.704,6.613,4.704,6.613s2.188-4.188,6.086-8.088
	c3.904-3.902,8.087-6.086,8.087-6.086S24.159,11.988,20.257,8.086z"/>
<g>
	<path fill="#808080" d="M8.197,20.261c3.908-3.903,8.097-6.088,8.097-6.088s-4.191-2.185-8.097-6.086
		C8.177,8.068,8.16,8.048,8.14,8.029c-0.02,0.02-0.038,0.04-0.058,0.06c-3.904,3.902-8.088,6.086-8.088,6.086
		s4.186,2.185,8.088,6.086c0.02,0.02,0.037,0.039,0.057,0.059C8.159,20.3,8.177,20.28,8.197,20.261z"/>
</g>
</svg>
