<?xml version="1.0" encoding="utf-8"?>
<!-- Generator: Adobe Illustrator 16.0.0, SVG Export Plug-In . SVG Version: 6.00 Build 0)  -->
<!DOCTYPE svg PUBLIC "-//W3C//DTD SVG 1.1//EN" "http://www.w3.org/Graphics/SVG/1.1/DTD/svg11.dtd">
<svg version="1.1" id="Layer_1" xmlns="http://www.w3.org/2000/svg" xmlns:xlink="http://www.w3.org/1999/xlink" x="0px" y="0px"
	 width="28.35px" height="28.35px" viewBox="0 0 28.35 28.35" enable-background="new 0 0 28.35 28.35" xml:space="preserve">
<path fill="--c-accent" d="M10.602,4.748C8.313,7.038,5.856,8.32,5.856,8.32c0.002,0,1.879,0.982,3.88,2.758
	c0.118-0.111,0.237-0.224,0.354-0.342c2.618-2.617,4.085-5.426,4.085-5.426s1.465,2.807,4.083,5.427
	c0.119,0.118,0.236,0.23,0.355,0.343c2-1.775,3.881-2.76,3.881-2.76s-2.457-1.284-4.746-3.573C15.457,2.455,14.175,0,14.175,0
	S12.893,2.458,10.602,4.748z"/>
<path fill="#808080" d="M9.576,13.021c-2.948,2.949-6.11,4.598-6.11,4.598c0.004,0.002,2.419,1.266,4.995,3.555
	c0.152-0.146,0.304-0.291,0.457-0.443c3.37-3.367,5.258-6.984,5.258-6.984s1.886,3.613,5.257,6.988
	c0.152,0.148,0.303,0.295,0.457,0.441c2.576-2.287,4.996-3.557,4.996-3.557s-3.164-1.652-6.111-4.598
	c-2.949-2.949-4.599-6.111-4.599-6.111S12.524,10.072,9.576,13.021z"/>
</svg>
