<?xml version="1.0" encoding="UTF-8" standalone="no"?>
<!DOCTYPE svg PUBLIC "-//W3C//DTD SVG 1.1//EN" "http://www.w3.org/Graphics/SVG/1.1/DTD/svg11.dtd">
<svg width="100%" height="100%" viewBox="0 0 119 119" version="1.1" xmlns="http://www.w3.org/2000/svg" xmlns:xlink="http://www.w3.org/1999/xlink" xml:space="preserve" xmlns:serif="http://www.serif.com/" style="fill-rule:evenodd;clip-rule:evenodd;stroke-miterlimit:1.5;">
    <g transform="matrix(0.998223,0,0,0.998223,0.104935,0.104935)">
        <g id="Layer-1" serif:id="Layer 1">
            <path d="M11.296,86.639C11.739,78.406 11.99,69.02 11.99,59.062C11.99,49.103 11.739,39.717 11.296,31.485C18.648,27.751 26.901,23.275 35.526,18.296C44.15,13.317 52.153,8.407 59.061,3.907C65.97,8.407 73.973,13.317 82.598,18.296C91.222,23.275 99.476,27.751 106.827,31.484C106.384,39.717 106.134,49.103 106.134,59.062C106.134,69.02 106.384,78.406 106.827,86.639C99.476,90.372 91.222,94.848 82.598,99.827C73.973,104.806 65.97,109.716 59.062,114.216C52.153,109.717 44.15,104.806 35.526,99.827C26.901,94.848 18.648,90.372 11.296,86.639Z" style="fill:rgb(255,255,255);stroke:#808080;stroke-width:6.26px;"/>
        </g>
    </g>
</svg>
