<?xml version="1.0" encoding="utf-8"?>
<!-- Generator: Adobe Illustrator 16.0.0, SVG Export Plug-In . SVG Version: 6.00 Build 0)  -->
<!DOCTYPE svg PUBLIC "-//W3C//DTD SVG 1.1//EN" "http://www.w3.org/Graphics/SVG/1.1/DTD/svg11.dtd">
<svg version="1.1" id="Layer_1" xmlns="http://www.w3.org/2000/svg" xmlns:xlink="http://www.w3.org/1999/xlink" x="0px" y="0px"
	 width="56.69px" height="28.35px" viewBox="0 0 56.69 28.35" enable-background="new 0 0 56.69 28.35" xml:space="preserve">
<path fill="#808080" d="M48.607,8.087c-3.901-3.902-6.089-8.086-6.089-8.086c-0.002,0.004-2.162,4.141-6.025,8.022
	c0.021,0.022,0.041,0.043,0.063,0.064c3.9,3.902,8.087,6.086,8.087,6.086s-4.183,2.184-8.087,6.087
	c-0.021,0.021-0.041,0.041-0.063,0.062c3.86,3.882,6.025,8.025,6.025,8.025s2.189-4.187,6.087-8.087
	c3.903-3.903,8.089-6.087,8.089-6.087S52.507,11.989,48.607,8.087z"/>
<g>
	<path fill="#808080" d="M8.246,10.975c1.974,1.625,3.742,2.719,4.576,3.2c-0.838,0.484-2.613,1.588-4.574,3.198
		c0.168,0.131,0.338,0.266,0.51,0.405c2.604-2.122,4.839-3.308,4.867-3.322l0.543-0.283l-0.543-0.284
		c-0.028-0.014-2.261-1.194-4.868-3.319C8.584,10.708,8.415,10.843,8.246,10.975z"/>
	<path fill="#808080" d="M7.268,9.813c-2.487,2.281-4.901,3.775-5.923,4.363c1.027,0.594,3.461,2.106,5.923,4.36
		c-0.164,0.139-0.322,0.279-0.484,0.424c-3.14-2.861-6.208-4.486-6.241-4.503l-0.543-0.283l0.543-0.284
		c0.033-0.017,3.096-1.632,6.241-4.501C6.945,9.533,7.107,9.674,7.268,9.813z"/>
</g>
<g>
	<path fill="#808080" d="M18.528,21.081c-2.283,2.486-3.779,4.898-4.366,5.918c-0.594-1.023-2.106-3.457-4.361-5.918
		c-0.141,0.162-0.279,0.322-0.424,0.486c2.861,3.137,4.486,6.203,4.504,6.236l0.283,0.543l0.283-0.543
		c0.018-0.033,1.633-3.096,4.502-6.238C18.806,21.403,18.667,21.243,18.528,21.081z"/>
	<path fill="#808080" d="M9.799,7.266c2.281-2.486,3.777-4.897,4.365-5.919c0.594,1.025,2.106,3.458,4.362,5.919
		c0.141-0.162,0.279-0.322,0.424-0.485c-2.861-3.137-4.487-6.205-4.504-6.238L14.163,0l-0.283,0.542
		c-0.018,0.035-1.634,3.096-4.502,6.239C9.521,6.943,9.661,7.104,9.799,7.266z"/>
	<path fill="#808080" d="M21.074,9.811c2.486,2.281,4.9,3.775,5.922,4.363c-1.027,0.594-3.461,2.106-5.922,4.36
		c0.164,0.139,0.322,0.279,0.484,0.424c3.139-2.861,6.207-4.486,6.24-4.503l0.543-0.283l-0.543-0.284
		c-0.033-0.017-3.096-1.632-6.24-4.501C21.396,9.531,21.234,9.672,21.074,9.811z"/>
</g>
<g>
	<path fill="#808080" d="M32.703,21.08c-2.283,2.486-3.778,4.898-4.365,5.918c-0.594-1.023-2.106-3.457-4.361-5.918
		c-0.141,0.162-0.279,0.322-0.424,0.486c2.861,3.137,4.486,6.203,4.504,6.236l0.283,0.543l0.283-0.543
		c0.018-0.033,1.633-3.096,4.502-6.238C32.98,21.402,32.842,21.242,32.703,21.08z"/>
	<path fill="#808080" d="M23.975,7.265c2.281-2.486,3.777-4.897,4.365-5.919c0.594,1.025,2.105,3.458,4.361,5.919
		c0.141-0.162,0.279-0.322,0.424-0.485c-2.861-3.137-4.486-6.205-4.504-6.238L28.338,0l-0.283,0.542
		c-0.018,0.035-1.634,3.096-4.502,6.239C23.696,6.943,23.836,7.104,23.975,7.265z"/>
	<path fill="#808080" d="M35.249,9.81c2.486,2.281,4.9,3.775,5.922,4.363c-1.027,0.594-3.461,2.106-5.922,4.36
		c0.164,0.139,0.322,0.279,0.484,0.424c3.139-2.861,6.207-4.486,6.24-4.502l0.543-0.283l-0.543-0.284
		c-0.033-0.017-3.096-1.632-6.24-4.501C35.571,9.531,35.409,9.671,35.249,9.81z"/>
</g>
</svg>
