<?xml version="1.0" encoding="utf-8"?>
<!-- Generator: Adobe Illustrator 16.0.0, SVG Export Plug-In . SVG Version: 6.00 Build 0)  -->
<!DOCTYPE svg PUBLIC "-//W3C//DTD SVG 1.1//EN" "http://www.w3.org/Graphics/SVG/1.1/DTD/svg11.dtd">
<svg version="1.1" id="Layer_1" xmlns="http://www.w3.org/2000/svg" xmlns:xlink="http://www.w3.org/1999/xlink" x="0px" y="0px"
	 width="56.69px" height="28.35px" viewBox="0 0 56.69 28.35" enable-background="new 0 0 56.69 28.35" xml:space="preserve">
<g>
	<path fill="#808080" d="M-0.003,14.174c0.01,0.005,3.505,1.837,7.086,5.133c3.585-3.301,7.087-5.133,7.087-5.133
		s-3.504-1.834-7.087-5.131C3.499,12.34-0.003,14.174-0.003,14.174z"/>
	<path fill="#808080" d="M20.255,8.087c-3.901-3.902-6.088-8.086-6.088-8.086c-0.002,0.004-2.163,4.141-6.024,8.022
		c0.021,0.022,0.04,0.043,0.061,0.064c3.901,3.902,8.087,6.086,8.087,6.086s-4.184,2.184-8.087,6.087
		c-0.021,0.021-0.04,0.041-0.06,0.062c3.859,3.882,6.024,8.025,6.024,8.025s2.188-4.187,6.087-8.087
		c3.905-3.903,8.087-6.087,8.087-6.087S24.156,11.989,20.255,8.087z"/>
	<path fill="#808080" d="M34.43,8.087c-3.899-3.902-6.086-8.086-6.086-8.086c-0.002,0.004-2.164,4.141-6.025,8.022
		c0.021,0.022,0.04,0.043,0.061,0.064c3.901,3.902,8.088,6.086,8.088,6.086s-4.185,2.184-8.089,6.087
		c-0.021,0.021-0.04,0.041-0.06,0.062c3.859,3.882,6.025,8.025,6.025,8.025s2.188-4.187,6.086-8.087
		c3.906-3.903,8.087-6.087,8.087-6.087S38.332,11.989,34.43,8.087z"/>
	<path fill="#808080" d="M48.607,8.087c-3.901-3.902-6.089-8.086-6.089-8.086c-0.002,0.004-2.162,4.141-6.025,8.022
		c0.021,0.022,0.041,0.043,0.063,0.064c3.9,3.902,8.087,6.086,8.087,6.086s-4.183,2.184-8.087,6.087
		c-0.021,0.021-0.041,0.041-0.063,0.062c3.86,3.882,6.025,8.025,6.025,8.025s2.189-4.187,6.087-8.087
		c3.903-3.903,8.089-6.087,8.089-6.087S52.507,11.989,48.607,8.087z"/>
</g>
</svg>
