<?xml version="1.0" encoding="utf-8"?>
<!-- Generator: Adobe Illustrator 16.0.0, SVG Export Plug-In . SVG Version: 6.00 Build 0)  -->
<!DOCTYPE svg PUBLIC "-//W3C//DTD SVG 1.1//EN" "http://www.w3.org/Graphics/SVG/1.1/DTD/svg11.dtd">
<svg version="1.1" id="Layer_1" xmlns="http://www.w3.org/2000/svg" xmlns:xlink="http://www.w3.org/1999/xlink" x="0px" y="0px"
	 width="28.35px" height="28.35px" viewBox="0 0 28.35 28.35" enable-background="new 0 0 28.35 28.35" xml:space="preserve">
<path fill="--c-accent" d="M17.748,23.602c2.291-2.291,4.746-3.573,4.746-3.573c-0.002,0-1.879-0.981-3.879-2.757
	c-0.119,0.111-0.238,0.223-0.355,0.342c-2.617,2.617-4.084,5.426-4.084,5.426s-1.465-2.807-4.083-5.428
	c-0.119-0.117-0.236-0.23-0.355-0.342c-2,1.775-3.881,2.759-3.881,2.759s2.457,1.284,4.747,3.573
	c2.291,2.293,3.572,4.748,3.572,4.748S15.458,25.892,17.748,23.602z"/>
<path fill="#808080" d="M18.775,15.064c2.947-2.95,6.109-4.599,6.109-4.599c-0.004-0.002-2.42-1.266-4.994-3.555
	c-0.152,0.146-0.305,0.291-0.457,0.443c-3.369,3.367-5.257,6.984-5.257,6.984s-1.886-3.613-5.257-6.988
	C8.768,7.202,8.616,7.056,8.462,6.909c-2.575,2.287-4.996,3.557-4.996,3.557s3.164,1.652,6.111,4.599
	c2.95,2.949,4.599,6.109,4.599,6.109S15.826,18.012,18.775,15.064z"/>
</svg>
