<?xml version="1.0" encoding="UTF-8" standalone="no"?>
<!DOCTYPE svg PUBLIC "-//W3C//DTD SVG 1.1//EN" "http://www.w3.org/Graphics/SVG/1.1/DTD/svg11.dtd">
<svg width="100%" height="100%" viewBox="0 0 119 119" version="1.1" xmlns="http://www.w3.org/2000/svg" xmlns:xlink="http://www.w3.org/1999/xlink" xml:space="preserve" xmlns:serif="http://www.serif.com/" style="fill-rule:evenodd;clip-rule:evenodd;stroke-linejoin:round;stroke-miterlimit:2;">
    <g transform="matrix(2.11296,0,0,2.37044,-58.1534,-88.4841)">
        <rect x="44.512" y="52.459" width="21.918" height="34.696" fill="#808080"/>
    </g>
    <g transform="matrix(2.55135e-16,-4.16667,4.16667,2.55135e-16,-0.00226378,118.125)">
        <path d="M20.262,8.087C16.36,4.185 14.176,0.001 14.176,0.001C14.174,0.005 13.942,3.202 10.915,6.611C11.108,6.812 11.3,7.013 11.499,7.214C15.958,11.675 19.303,14.173 19.303,14.173C19.303,14.173 15.962,16.669 11.497,21.132C11.298,21.331 11.106,21.532 10.913,21.734C13.94,25.144 14.176,28.347 14.176,28.347C14.176,28.347 16.364,24.159 20.262,20.259C24.166,16.357 28.35,14.173 28.35,14.173C28.35,14.173 24.164,11.989 20.262,8.087Z" fill="#808080"/>
    </g>
</svg>
