<?xml version="1.0" encoding="UTF-8" standalone="no"?>
<!DOCTYPE svg PUBLIC "-//W3C//DTD SVG 1.1//EN" "http://www.w3.org/Graphics/SVG/1.1/DTD/svg11.dtd">
<svg width="100%" height="100%" viewBox="0 0 119 119" version="1.1" xmlns="http://www.w3.org/2000/svg" xmlns:xlink="http://www.w3.org/1999/xlink" xml:space="preserve" xmlns:serif="http://www.serif.com/" style="fill-rule:evenodd;clip-rule:evenodd;stroke-linejoin:round;stroke-miterlimit:2;">
    <g id="Layer-1" serif:id="Layer 1" transform="matrix(4.16667,0,0,4.16667,0,0)">
        <g transform="matrix(-1.31433,1.79924e-16,1.79924e-16,1.31433,16.083,14.1735)">
            <path d="M7.094,-7.093C7.101,-7.083 8.931,-3.583 12.226,0.001C8.926,3.591 7.094,7.095 7.094,7.095C7.094,7.095 5.261,3.588 1.962,0C5.261,-3.588 7.094,-7.093 7.094,-7.093" fill="#808080"/>
        </g>
        <g transform="matrix(0.315439,0,0,0.315439,-0.00440097,-4.45426)">
            <path d="M28.642,87.997C30.25,85.068 37.613,72.192 49.693,59.055C37.62,45.922 30.257,33.057 28.644,30.121C33.713,30.466 39.234,30.656 45.007,30.656C53.619,30.656 61.668,30.234 68.504,29.504C68.663,29.806 76.287,44.261 89.887,59.055C76.271,73.862 68.648,88.338 68.504,88.612L68.504,88.614C61.668,87.884 53.619,87.463 45.007,87.463C39.234,87.463 33.713,87.652 28.642,87.997Z" fill="--c-accent"/>
        </g>
    </g>
</svg>
