<?xml version="1.0" encoding="utf-8"?>
<!-- Generator: Adobe Illustrator 16.0.0, SVG Export Plug-In . SVG Version: 6.00 Build 0)  -->
<!DOCTYPE svg PUBLIC "-//W3C//DTD SVG 1.1//EN" "http://www.w3.org/Graphics/SVG/1.1/DTD/svg11.dtd">
<svg version="1.1" id="Layer_1" xmlns="http://www.w3.org/2000/svg" xmlns:xlink="http://www.w3.org/1999/xlink" x="0px" y="0px"
	 width="28.35px" height="28.35px" viewBox="0 0 28.35 28.35" enable-background="new 0 0 28.35 28.35" xml:space="preserve">
<path fill="none" stroke="#D1D3D4" stroke-width="0.75" stroke-miterlimit="10" d="M19.162,7.418
	c-3.196-3.196-4.988-6.628-4.988-6.628c-0.003,0.005-1.792,3.432-4.989,6.628l0,0"/>
<path fill="#FFFFFF" stroke="#595959" stroke-width="0.75" stroke-miterlimit="10" d="M14.174,15.909l-4.988,4.99
	c3.198,3.195,4.988,6.627,4.988,6.627c0.004-0.006,1.792-3.432,4.988-6.627l0,0L14.174,15.909z"/>
<path fill="#FFFFFF" stroke="#595959" stroke-width="0.75" stroke-miterlimit="10" d="M12.423,14.157L7.435,9.168
	c-3.196,3.197-6.628,4.988-6.628,4.988c0.005,0.003,3.432,1.792,6.628,4.988l0,0L12.423,14.157z"/>
<path fill="#FFFFFF" stroke="#595959" stroke-width="0.75" stroke-miterlimit="10" d="M15.924,14.159l4.989,4.988
	c3.198-3.195,6.628-4.989,6.628-4.989c-0.003-0.001-3.43-1.791-6.628-4.988l0,0L15.924,14.159z"/>
</svg>
