<?xml version="1.0" encoding="utf-8"?>
<!-- Generator: Adobe Illustrator 16.0.0, SVG Export Plug-In . SVG Version: 6.00 Build 0)  -->
<!DOCTYPE svg PUBLIC "-//W3C//DTD SVG 1.1//EN" "http://www.w3.org/Graphics/SVG/1.1/DTD/svg11.dtd">
<svg version="1.1" id="Layer_1" xmlns="http://www.w3.org/2000/svg" xmlns:xlink="http://www.w3.org/1999/xlink" x="0px" y="0px"
	 width="49.538px" height="28.35px" viewBox="0 0 49.538 28.35" enable-background="new 0 0 49.538 28.35" xml:space="preserve">
<path fill="#808080" d="M20.262,8.088c-3.902-3.902-6.086-8.086-6.086-8.086c-0.002,0.004-1.674,3.201-4.701,6.61
	c0.193,0.201,0.385,0.402,0.584,0.603c4.459,4.461,9.244,6.959,9.244,6.959s-4.781,2.496-9.246,6.958
	c-0.199,0.199-0.391,0.4-0.584,0.602c3.027,3.41,4.703,6.613,4.703,6.613s2.188-4.188,6.086-8.088
	c3.904-3.902,8.088-6.085,8.088-6.085S24.164,11.99,20.262,8.088z"/>
<g>
	<path fill="#808080" d="M8.202,20.262c3.908-3.902,8.097-6.087,8.097-6.087s-4.191-2.185-8.097-6.086
		C8.183,8.069,8.165,8.05,8.146,8.031c-0.02,0.02-0.038,0.04-0.058,0.06C4.184,11.993,0,14.176,0,14.176s4.186,2.185,8.088,6.085
		c0.02,0.02,0.037,0.039,0.057,0.059C8.164,20.301,8.182,20.281,8.202,20.262z"/>
</g>
<g>
	<path fill="#B1B0B1" d="M32.043,8.696c-3.512-3.512-5.477-7.277-5.477-7.277c-0.002,0.003-1.506,2.881-4.231,5.949
		c0.136,0.142,0.273,0.283,0.411,0.424c2.438-2.776,3.786-5.349,3.787-5.352c0,0,1.808,3.464,5.038,6.693
		c3.23,3.23,6.697,5.039,6.697,5.039s-3.465,1.807-6.697,5.038c-3.227,3.229-5.038,6.696-5.038,6.696s-1.35-2.576-3.787-5.354
		c-0.139,0.142-0.276,0.283-0.413,0.426c2.725,3.068,4.233,5.951,4.233,5.951s1.968-3.768,5.477-7.278
		c3.514-3.513,7.279-5.478,7.279-5.478S35.555,12.208,32.043,8.696z"/>
	<path fill="#B1B0B1" d="M32.594,14.173c-0.01-0.005-3.777-1.969-7.288-5.477c-0.018-0.017-0.033-0.034-0.051-0.052
		c-0.018,0.018-0.033,0.036-0.053,0.053c-0.133,0.135-0.27,0.262-0.404,0.392c0.014,0.014,0.028,0.029,0.043,0.043
		c3.23,3.23,6.696,5.038,6.696,5.038s-3.463,1.807-6.696,5.039c-0.017,0.016-0.031,0.031-0.046,0.047
		c0.137,0.132,0.272,0.26,0.407,0.396c0.018,0.018,0.033,0.035,0.051,0.053c0.018-0.018,0.035-0.035,0.053-0.053
		c1.758-1.757,3.581-3.126,4.965-4.058C31.648,14.666,32.59,14.175,32.594,14.173z"/>
</g>
<g>
	<path fill="#B1B0B1" d="M42.987,9.244c-3.16-3.161-4.93-6.549-4.93-6.549c-0.001,0.003-1.356,2.593-3.807,5.354
		c0.122,0.127,0.246,0.255,0.369,0.382c2.193-2.499,3.407-4.813,3.409-4.817c0,0,1.626,3.118,4.532,6.024
		c2.908,2.907,6.027,4.535,6.027,4.535s-3.118,1.626-6.027,4.535c-2.904,2.906-4.532,6.025-4.532,6.025s-1.216-2.318-3.409-4.817
		c-0.125,0.128-0.249,0.255-0.371,0.384c2.451,2.761,3.809,5.355,3.809,5.355s1.771-3.391,4.93-6.551
		c3.162-3.161,6.551-4.93,6.551-4.93S46.147,12.404,42.987,9.244z"/>
	<path fill="#B1B0B1" d="M43.481,14.173c-0.01-0.004-3.398-1.772-6.559-4.929c-0.016-0.015-0.03-0.031-0.046-0.046
		c-0.016,0.016-0.03,0.032-0.048,0.048c-0.119,0.121-0.241,0.236-0.363,0.353c0.014,0.013,0.025,0.026,0.039,0.039
		c2.906,2.907,6.025,4.534,6.025,4.534s-3.117,1.626-6.025,4.534c-0.015,0.015-0.027,0.029-0.042,0.043
		c0.122,0.118,0.245,0.233,0.366,0.355c0.016,0.016,0.03,0.031,0.046,0.048c0.017-0.017,0.032-0.032,0.048-0.048
		c1.582-1.581,3.223-2.813,4.469-3.652C42.632,14.617,43.478,14.175,43.481,14.173z"/>
</g>
</svg>
