<?xml version="1.0" encoding="utf-8"?>
<!-- Generator: Adobe Illustrator 16.0.0, SVG Export Plug-In . SVG Version: 6.00 Build 0)  -->
<!DOCTYPE svg PUBLIC "-//W3C//DTD SVG 1.1//EN" "http://www.w3.org/Graphics/SVG/1.1/DTD/svg11.dtd">
<svg version="1.1" id="Layer_1" xmlns="http://www.w3.org/2000/svg" xmlns:xlink="http://www.w3.org/1999/xlink" x="0px" y="0px"
	 width="49.137px" height="28.35px" viewBox="0 0 49.137 28.35" enable-background="new 0 0 49.137 28.35" xml:space="preserve">
<path fill="--c-accent" d="M42.586,9.244c-3.162-3.161-4.93-6.549-4.93-6.549c-0.002,0.003-1.357,2.593-3.809,5.354
	c0.156,0.163,0.312,0.326,0.473,0.488c3.612,3.614,7.488,5.637,7.488,5.637s-3.873,2.022-7.49,5.636
	c-0.16,0.163-0.316,0.325-0.473,0.489c2.452,2.761,3.811,5.355,3.811,5.355s1.771-3.391,4.93-6.551
	c3.162-3.161,6.551-4.93,6.551-4.93S45.746,12.404,42.586,9.244z"/>
<path fill="#B1B0B1" d="M31.631,8.696c-3.513-3.512-5.478-7.277-5.478-7.277c-0.002,0.003-1.507,2.881-4.231,5.949
	c0.137,0.142,0.273,0.283,0.41,0.424c2.439-2.776,3.787-5.349,3.789-5.352c0,0,1.806,3.464,5.038,6.693
	c3.23,3.23,6.695,5.039,6.695,5.039s-3.463,1.807-6.695,5.038c-3.229,3.229-5.038,6.696-5.038,6.696s-1.351-2.576-3.789-5.354
	c-0.139,0.142-0.275,0.283-0.412,0.426c2.725,3.068,4.233,5.951,4.233,5.951s1.969-3.768,5.478-7.278
	c3.514-3.513,7.279-5.478,7.279-5.478S35.143,12.208,31.631,8.696z"/>
<path fill="#B1B0B1" d="M20.262,8.087c-3.902-3.902-6.086-8.086-6.086-8.086c-0.002,0.004-1.674,3.201-4.701,6.61
	c0.151,0.157,0.303,0.314,0.457,0.471c2.709-3.084,4.206-5.943,4.208-5.946c0,0,2.007,3.849,5.597,7.437
	c3.589,3.589,7.439,5.598,7.439,5.598s-3.848,2.007-7.439,5.598c-3.586,3.589-5.597,7.44-5.597,7.44s-1.5-2.863-4.208-5.948
	c-0.154,0.157-0.307,0.314-0.458,0.473c3.027,3.41,4.703,6.613,4.703,6.613s2.188-4.188,6.086-8.088
	c3.904-3.903,8.088-6.086,8.088-6.086S24.164,11.989,20.262,8.087z"/>
<path fill="#B1B0B1" d="M8.613,19.775c-3.59-3.589-7.439-5.598-7.439-5.598s3.848-2.007,7.439-5.598
	c0.016-0.016,0.03-0.032,0.046-0.047C8.506,8.385,8.353,8.24,8.201,8.088C8.182,8.069,8.164,8.05,8.145,8.031
	c-0.02,0.02-0.038,0.04-0.058,0.06C4.188,11.988,0.01,14.17,0,14.176c0.01,0.005,4.19,2.188,8.087,6.086
	c0.02,0.02,0.037,0.039,0.057,0.059c0.019-0.02,0.037-0.039,0.057-0.059c0.151-0.151,0.304-0.295,0.456-0.441
	C8.642,19.806,8.628,19.79,8.613,19.775z"/>
<path fill="#B1B0B1" d="M16.299,14.174c-0.01-0.005-4.195-2.188-8.096-6.085C8.184,8.069,8.166,8.05,8.146,8.031
	c-0.02,0.02-0.038,0.04-0.058,0.06C7.939,8.239,7.79,8.381,7.64,8.525c0.016,0.016,0.03,0.032,0.046,0.048
	c3.59,3.589,7.439,5.598,7.439,5.598s-3.848,2.007-7.439,5.598c-0.018,0.018-0.034,0.035-0.051,0.053
	c0.151,0.146,0.303,0.289,0.454,0.439c0.02,0.02,0.037,0.039,0.057,0.059c0.02-0.02,0.038-0.039,0.058-0.059
	c1.954-1.951,3.979-3.474,5.515-4.508C15.249,14.722,16.294,14.176,16.299,14.174z"/>
</svg>
