<?xml version="1.0" encoding="UTF-8" standalone="no"?>
<!DOCTYPE svg PUBLIC "-//W3C//DTD SVG 1.1//EN" "http://www.w3.org/Graphics/SVG/1.1/DTD/svg11.dtd">
<svg width="100%" height="100%" viewBox="0 0 119 119" version="1.1" xmlns="http://www.w3.org/2000/svg" xmlns:xlink="http://www.w3.org/1999/xlink" xml:space="preserve" xmlns:serif="http://www.serif.com/" style="fill-rule:evenodd;clip-rule:evenodd;stroke-linejoin:round;stroke-miterlimit:2;">
    <g id="Layer-1" serif:id="Layer 1" transform="matrix(4.16667,0,0,4.16667,0,0)">
        <g transform="matrix(0.300782,0,0,0.300782,-0.612791,-0.173549)">
            <path d="M17.171,2.855C16.55,38.17 13.793,60.909 6.133,90.789C32.326,85.56 47.4,84.737 77.738,88.089C80.844,62.18 84.241,48.146 93.274,28.11C66.854,22.864 44.987,16.228 17.171,2.855Z" style="fill:white;"/>
            <path d="M17.892,1.357C17.381,1.112 16.781,1.143 16.299,1.44C15.817,1.738 15.519,2.26 15.509,2.826C15.212,19.709 14.427,33.707 12.845,46.99C11.133,61.37 8.487,74.912 4.523,90.376C4.381,90.93 4.533,91.517 4.927,91.932C5.32,92.347 5.898,92.531 6.459,92.419C20.024,89.711 30.583,88.19 41.859,87.831C52.201,87.502 63.145,88.149 77.555,89.741C78.462,89.841 79.28,89.192 79.388,88.286C80.848,76.115 82.369,66.581 84.519,57.807C86.908,48.058 90.075,39.252 94.79,28.793C94.998,28.331 94.984,27.799 94.752,27.349C94.52,26.898 94.095,26.578 93.598,26.479C79.961,23.772 67.543,20.693 54.885,16.497C43.148,12.607 31.205,7.758 17.892,1.357ZM18.784,5.466C31.309,11.388 42.666,15.95 53.839,19.653C65.993,23.681 77.928,26.693 90.91,29.33C86.566,39.174 83.58,47.671 81.29,57.016C79.209,65.507 77.705,74.702 76.285,86.258C62.485,84.776 51.837,84.187 41.753,84.508C31.029,84.85 20.943,86.219 8.39,88.651C12.037,74.082 14.512,61.111 16.147,47.383C17.659,34.682 18.451,21.332 18.784,5.466L18.784,5.466Z" fill="--c-accent"/>
        </g>
        <g transform="matrix(0.300782,0,0,0.300782,-0.612791,-0.173549)">
            <path d="M16.524,3.315C16.524,3.315 24.204,14.778 34.183,29.248C37.939,34.694 42.011,40.57 46.158,46.394C50.305,52.218 54.534,57.982 58.443,63.318C68.829,77.498 77.091,88.549 77.091,88.549C77.345,88.906 77.841,88.99 78.198,88.736C78.555,88.482 78.639,87.986 78.385,87.629C78.385,87.629 70.668,76.192 60.693,61.719C56.94,56.272 52.888,50.382 48.752,44.55C44.616,38.718 40.406,32.94 36.499,27.602C26.117,13.418 17.819,2.395 17.819,2.395C17.565,2.038 17.069,1.954 16.712,2.208C16.354,2.462 16.27,2.958 16.524,3.315Z" fill="--c-accent"/>
        </g>
    </g>
</svg>
