<?xml version="1.0" encoding="UTF-8" standalone="no"?>
<!DOCTYPE svg PUBLIC "-//W3C//DTD SVG 1.1//EN" "http://www.w3.org/Graphics/SVG/1.1/DTD/svg11.dtd">
<svg width="100%" height="100%" viewBox="0 0 119 119" version="1.1" xmlns="http://www.w3.org/2000/svg" xmlns:xlink="http://www.w3.org/1999/xlink" xml:space="preserve" xmlns:serif="http://www.serif.com/" style="fill-rule:evenodd;clip-rule:evenodd;stroke-linecap:round;stroke-linejoin:round;stroke-miterlimit:1.5;">
    <g id="Layer-1" serif:id="Layer 1" transform="matrix(4.16667,0,0,4.16667,0,0)">
        <g transform="matrix(0.24,0,0,0.24,0,0)">
            <path d="M12.59,11.804C11.673,11.819 10.804,12.217 10.193,12.901C9.582,13.586 9.285,14.494 9.373,15.407C11.898,41.79 12.565,66.935 10.556,90.296C10.434,91.686 10.969,93.054 12.002,93.992C16.726,98.303 20.556,102.915 23.636,107.776C25.555,110.887 29.289,112.368 32.818,111.416C54.55,105.698 77.517,102.122 101.812,100.871C103.159,100.805 104.42,100.187 105.297,99.162C106.174,98.138 106.591,96.797 106.449,95.456C103.934,71.123 104.073,47.577 107.38,24.969C107.937,21.308 106.478,17.63 103.563,15.347C99.798,12.387 96.285,8.777 93.071,4.346C92.422,3.446 91.304,3.013 90.219,3.24C64.603,8.572 38.715,11.317 12.59,11.804Z" stroke="--c-accent" style="fill:white;stroke-width:4.17px;"/>
        </g>
        <g transform="matrix(0.239513,-0.00158427,-0.00158427,0.234847,0.174406,0.567265)">
            <path d="M36.599,98.912C34.939,89.995 33.064,81.034 30.793,72.059C29.305,66.179 27.68,60.288 25.855,54.408C24.058,48.618 22.056,42.846 19.94,37.063C16.832,28.567 13.395,20.085 9.744,11.562C9.579,11.154 9.122,10.954 8.724,11.117C8.326,11.279 8.137,11.743 8.302,12.151C11.579,20.787 14.563,29.399 17.384,37.956C19.3,43.771 21.099,49.57 22.873,55.33C24.674,61.178 26.438,66.986 28.101,72.781C30.642,81.638 33.025,90.431 35.073,99.224C35.163,99.655 35.578,99.935 36,99.848C36.421,99.762 36.689,99.342 36.599,98.912Z" fill="--c-accent"/>
        </g>
        <g transform="matrix(0.24,0,0,0.24,0,0)">
            <path d="M77.811,77.039C77.811,77.039 72.068,79.517 64.837,82.891C62.119,84.158 59.188,85.543 56.296,87.008C53.404,88.473 50.56,90.026 47.924,91.459C40.915,95.27 35.486,98.373 35.486,98.373C35.102,98.566 34.947,99.035 35.141,99.419C35.334,99.802 35.803,99.957 36.187,99.763C36.187,99.763 41.911,97.245 49.143,93.877C51.862,92.611 54.803,91.248 57.701,89.795C60.599,88.342 63.455,86.81 66.091,85.379C73.104,81.572 78.512,78.43 78.512,78.43C78.896,78.237 79.05,77.768 78.857,77.384C78.663,77.001 78.195,76.846 77.811,77.039Z" fill="--c-accent"/>
        </g>
        <g transform="matrix(0.24,0,0,0.24,0,0)">
            <path d="M77.621,77.146C77.579,77.17 77.55,77.196 77.58,77.218C77.457,77.355 77.383,77.536 77.383,77.735C77.383,78.165 77.732,78.513 78.161,78.513C78.305,78.52 78.674,78.451 78.971,77.975C79.133,77.715 79.4,77.128 79.75,76.266C80.458,74.525 81.551,71.611 82.782,68.053C83.651,65.544 84.601,62.724 85.532,59.78C86.108,57.958 86.678,56.09 87.213,54.221C87.753,52.335 88.255,50.448 88.731,48.616C91.11,39.449 92.905,31.697 92.905,31.697C93.023,31.284 92.782,30.853 92.369,30.735C91.956,30.618 91.525,30.858 91.407,31.271C91.407,31.271 89.351,37.309 86.853,45.05C85.913,47.961 84.89,51.103 83.951,54.272C83.111,57.109 82.339,59.965 81.617,62.649C80.187,67.962 79.014,72.61 78.24,75.227C77.964,76.162 77.762,76.826 77.621,77.146ZM77.691,77.111L77.621,77.146L77.606,77.182L77.602,77.194L77.58,77.218L77.588,77.224C77.597,77.229 77.598,77.21 77.602,77.194C77.635,77.16 77.671,77.129 77.71,77.101L77.691,77.111ZM78.052,76.965C77.97,76.974 77.881,76.995 77.794,77.049C77.872,77.006 77.959,76.977 78.052,76.965Z" fill="--c-accent"/>
        </g>
        <g transform="matrix(0.236153,-0.000908229,-0.000908229,0.239786,0.383097,0.0904501)">
            <path d="M92.286,30.716C86.262,29.526 80.259,28.229 74.249,26.89C70.255,26 66.267,25.079 62.273,24.153C58.29,23.229 54.308,22.283 50.319,21.34C47.665,20.713 45.006,20.099 42.347,19.473C36.821,18.17 31.295,16.831 25.767,15.434C20.26,14.042 14.752,12.618 9.248,11.111C8.829,10.985 8.388,11.217 8.264,11.629C8.14,12.04 8.379,12.476 8.798,12.602C16.972,15.253 25.143,17.796 33.361,20.104C38.87,21.652 44.386,23.134 49.931,24.455C55.497,25.78 61.088,26.953 66.686,28.035C75.115,29.665 83.568,31.012 92.026,32.252C92.457,32.326 92.865,32.041 92.937,31.618C93.008,31.194 92.717,30.79 92.286,30.716Z" fill="--c-accent"/>
        </g>
        <g transform="matrix(0.222329,0.0141482,0.0141482,0.228672,1.18302,-0.947193)">
            <path d="M92.643,32.092C92.643,32.092 94.986,30.69 97.887,28.681C98.968,27.932 100.126,27.111 101.231,26.217C102.338,25.322 103.376,24.355 104.342,23.462C106.93,21.07 108.843,19.121 108.843,19.121C109.224,18.816 109.316,18.295 109.047,17.96C108.779,17.624 108.251,17.6 107.869,17.906C107.869,17.906 105.549,19.346 102.65,21.348C101.567,22.095 100.396,22.896 99.281,23.781C98.167,24.664 97.112,25.614 96.145,26.505C93.55,28.896 91.669,30.876 91.669,30.876C91.288,31.182 91.196,31.702 91.465,32.038C91.733,32.373 92.261,32.397 92.643,32.092Z" fill="--c-accent"/>
        </g>
        <g transform="matrix(0.226154,0.0219619,0.0219619,0.205165,-1.67954,2.66402)">
            <path d="M35.177,98.653C35.177,98.653 33.721,100.272 31.995,102.548C31.358,103.388 30.682,104.304 30.079,105.274C29.474,106.246 28.961,107.26 28.478,108.2C27.178,110.734 26.303,112.729 26.303,112.729C26.015,113.185 26.077,113.742 26.441,113.971C26.804,114.2 27.333,114.016 27.62,113.56C27.62,113.56 29.043,111.91 30.769,109.644C31.409,108.803 32.103,107.903 32.719,106.939C33.334,105.976 33.869,104.971 34.352,104.034C35.662,101.495 36.495,99.483 36.495,99.483C36.782,99.027 36.721,98.471 36.357,98.242C35.993,98.013 35.465,98.197 35.177,98.653Z" fill="--c-accent"/>
        </g>
        <g transform="matrix(0.24,-7.99361e-17,-7.99361e-17,0.24,1.7053e-14,1.02318e-14)">
            <path d="M77.682,78.348C77.682,78.348 81.044,81.447 85.496,85.233C87.166,86.654 88.982,88.177 90.854,89.631C92.727,91.086 94.658,92.459 96.443,93.735C101.194,97.132 104.989,99.682 104.989,99.682C105.327,99.946 105.817,99.886 106.082,99.547C106.346,99.209 106.286,98.719 105.947,98.455C105.947,98.455 102.555,95.39 98.11,91.601C96.44,90.178 94.64,88.637 92.776,87.172C90.912,85.707 88.994,84.314 87.211,83.037C82.461,79.634 78.641,77.121 78.641,77.121C78.302,76.857 77.812,76.917 77.548,77.255C77.283,77.594 77.343,78.084 77.682,78.348Z" fill="--c-accent"/>
        </g>
    </g>
</svg>
