<?xml version="1.0" encoding="utf-8"?>
<!-- Generator: Adobe Illustrator 16.0.0, SVG Export Plug-In . SVG Version: 6.00 Build 0)  -->
<!DOCTYPE svg PUBLIC "-//W3C//DTD SVG 1.1//EN" "http://www.w3.org/Graphics/SVG/1.1/DTD/svg11.dtd">
<svg version="1.1" id="Layer_1" xmlns="http://www.w3.org/2000/svg" xmlns:xlink="http://www.w3.org/1999/xlink" x="0px" y="0px"
	 width="28.35px" height="28.35px" viewBox="0 0 28.35 28.35" enable-background="new 0 0 28.35 28.35" xml:space="preserve">
<path fill="#FFFFFF" stroke="#808285" stroke-miterlimit="10" d="M-13.983,14.164l6.214,6.214l6.214-6.214
	c0,0-0.631-0.561-0.951-0.865C-5.881,10.118-7.77,7.706-7.77,7.706s-1.89,2.416-5.261,5.591
	C-13.353,13.602-13.983,14.164-13.983,14.164z"/>
<path fill="#808285" d="M19.654,17.011l-2.728,2.729c0.346,0.362,0.717,0.743,1.126,1.152c-0.02,0.019-0.038,0.036-0.058,0.056
	c-2.448,2.45-3.82,5.081-3.82,5.081s-1.371-2.629-3.82-5.083c-0.019-0.019-0.038-0.036-0.056-0.055
	c0.409-0.407,0.78-0.789,1.125-1.15l-2.729-2.729c-1.844,1.506-3.414,2.331-3.414,2.331s2.627,1.374,5.074,3.822
	c2.449,2.454,3.82,5.083,3.82,5.083s1.372-2.631,3.82-5.081c2.448-2.451,5.075-3.824,5.075-3.824
	C23.068,19.339,21.498,18.517,19.654,17.011z"/>
<path fill="#808285" d="M14.175,18.055l-5.48-5.481c-1.844,1.506-3.414,2.331-3.414,2.331s2.627,1.375,5.074,3.822
	c2.449,2.455,3.82,5.084,3.82,5.084s1.372-2.631,3.82-5.082s5.075-3.824,5.075-3.824c-0.002-0.003-1.572-0.825-3.416-2.331
	L14.175,18.055z"/>
</svg>
