<?xml version="1.0" encoding="utf-8"?>
<!-- Generator: Adobe Illustrator 16.0.0, SVG Export Plug-In . SVG Version: 6.00 Build 0)  -->
<!DOCTYPE svg PUBLIC "-//W3C//DTD SVG 1.1//EN" "http://www.w3.org/Graphics/SVG/1.1/DTD/svg11.dtd">
<svg version="1.1" id="Layer_1" xmlns="http://www.w3.org/2000/svg" xmlns:xlink="http://www.w3.org/1999/xlink" x="0px" y="0px"
	 width="28.35px" height="28.35px" viewBox="0 0 28.35 28.35" enable-background="new 0 0 28.35 28.35" xml:space="preserve">
<path fill="#FFFFFF" stroke="#808285" stroke-miterlimit="10" d="M-13.983,14.164l6.214,6.214l6.214-6.214
	c0,0-0.631-0.561-0.951-0.865C-5.881,10.118-7.77,7.706-7.77,7.706s-1.89,2.416-5.261,5.591
	C-13.353,13.602-13.983,14.164-13.983,14.164z"/>
<path fill="#808285" d="M14.176,10.355l5.48,5.481c1.844-1.506,3.414-2.332,3.414-2.332s-2.627-1.375-5.074-3.822
	c-2.449-2.454-3.82-5.083-3.82-5.083s-1.372,2.631-3.82,5.082s-5.075,3.823-5.075,3.823c0.002,0.003,1.572,0.825,3.416,2.332
	L14.176,10.355z"/>
</svg>
