<?xml version="1.0" encoding="utf-8"?>
<!-- Generator: Adobe Illustrator 16.0.0, SVG Export Plug-In . SVG Version: 6.00 Build 0)  -->
<!DOCTYPE svg PUBLIC "-//W3C//DTD SVG 1.1//EN" "http://www.w3.org/Graphics/SVG/1.1/DTD/svg11.dtd">
<svg version="1.1" id="Layer_1" xmlns="http://www.w3.org/2000/svg" xmlns:xlink="http://www.w3.org/1999/xlink" x="0px" y="0px"
	 width="28.35px" height="28.35px" viewBox="0 0 28.35 28.35" enable-background="new 0 0 28.35 28.35" xml:space="preserve">
<path fill="#808080" d="M9.576,13.021c-2.948,2.948-6.11,4.597-6.11,4.597c0.004,0.002,2.419,1.266,4.995,3.555
	c0.152-0.146,0.304-0.291,0.457-0.443c3.37-3.367,5.258-6.983,5.258-6.983s1.887,3.612,5.258,6.987
	c0.15,0.148,0.303,0.295,0.456,0.441c2.575-2.287,4.997-3.557,4.997-3.557s-3.164-1.652-6.112-4.597
	c-2.949-2.949-4.599-6.111-4.599-6.111S12.524,10.072,9.576,13.021z"/>
</svg>
