<?xml version="1.0" encoding="utf-8"?>
<!-- Generator: Adobe Illustrator 16.0.0, SVG Export Plug-In . SVG Version: 6.00 Build 0)  -->
<!DOCTYPE svg PUBLIC "-//W3C//DTD SVG 1.1//EN" "http://www.w3.org/Graphics/SVG/1.1/DTD/svg11.dtd">
<svg version="1.1" id="Layer_1" xmlns="http://www.w3.org/2000/svg" xmlns:xlink="http://www.w3.org/1999/xlink" x="0px" y="0px"
	 width="28.35px" height="28.35px" viewBox="0 0 28.35 28.35" enable-background="new 0 0 28.35 28.35" xml:space="preserve">
<path fill="#FFFFFF" stroke="#808285" stroke-miterlimit="10" d="M-13.983,14.164l6.214,6.214l6.214-6.214
	c0,0-0.631-0.561-0.951-0.865C-5.881,10.118-7.77,7.706-7.77,7.706s-1.89,2.416-5.261,5.591
	C-13.353,13.602-13.983,14.164-13.983,14.164z"/>
<path fill="#808285" d="M8.697,11.399l2.728-2.729c-0.346-0.362-0.717-0.743-1.126-1.152c0.02-0.019,0.038-0.036,0.058-0.056
	c2.448-2.45,3.82-5.082,3.82-5.082s1.371,2.629,3.82,5.083c0.019,0.02,0.037,0.037,0.057,0.055c-0.41,0.408-0.78,0.79-1.126,1.151
	l2.729,2.729C21.5,9.893,23.07,9.067,23.07,9.067s-2.627-1.373-5.074-3.822c-2.449-2.453-3.82-5.083-3.82-5.083
	s-1.372,2.631-3.82,5.082C7.908,7.695,5.281,9.068,5.281,9.068C5.283,9.071,6.853,9.893,8.697,11.399z"/>
<path fill="#808285" d="M14.176,10.355l5.48,5.481c1.844-1.506,3.414-2.332,3.414-2.332s-2.627-1.375-5.074-3.822
	c-2.449-2.454-3.82-5.083-3.82-5.083s-1.372,2.631-3.82,5.082s-5.075,3.823-5.075,3.823c0.002,0.003,1.572,0.825,3.416,2.332
	L14.176,10.355z"/>
</svg>
