<?xml version="1.0" encoding="utf-8"?>
<!-- Generator: Adobe Illustrator 16.0.0, SVG Export Plug-In . SVG Version: 6.00 Build 0)  -->
<!DOCTYPE svg PUBLIC "-//W3C//DTD SVG 1.1//EN" "http://www.w3.org/Graphics/SVG/1.1/DTD/svg11.dtd">
<svg version="1.1" id="Layer_1" xmlns="http://www.w3.org/2000/svg" xmlns:xlink="http://www.w3.org/1999/xlink" x="0px" y="0px"
	 width="28.35px" height="28.35px" viewBox="0 0 28.35 28.35" enable-background="new 0 0 28.35 28.35" xml:space="preserve">
<path fill="#FFFFFF" d="M27.838,14.676c0,0-1.38-2.419-2.749-6.252c-1.288-3.607-1.833-6.408-1.892-6.723l0.021-0.031
	c0,0-0.012,0.002-0.027,0.004c0,0,0-0.004,0-0.004l-0.004,0.005c-0.316,0.051-3.138,0.486-6.967,0.49
	C12.152,2.173,9.409,1.69,9.409,1.69S8.002,4.095,5.368,7.197c-2.63,3.096-4.891,5.015-4.899,5.021l-0.003,0
	c0,0,1.891,2.295,3.929,5.815c2.04,3.519,2.993,6.136,2.993,6.136s2.788,0.016,6.79,0.746c3.749,0.683,6.438,1.605,6.764,1.72
	l0.006,0.012c0,0,0.003-0.007,0.003-0.009c0.012,0.005,0.025,0.009,0.025,0.009l-0.016-0.032c0.123-0.324,1.159-2.976,3.059-6.276
	C26.049,16.809,27.838,14.676,27.838,14.676z"/>
<path fill="none" stroke="--c-accent" stroke-width="0.75" stroke-linecap="round" stroke-linejoin="round" stroke-miterlimit="10" d="
	M23.205,1.67c0,0-2.932,0.49-6.998,0.495C12.139,2.173,9.396,1.69,9.396,1.69S7.989,4.095,5.354,7.197
	c-2.633,3.101-4.899,5.021-4.899,5.021"/>
<path fill="none" stroke="--c-accent" stroke-width="0.75" stroke-linecap="round" stroke-linejoin="round" stroke-miterlimit="10" d="
	M20.977,26.646c0,0,1.042-2.785,3.071-6.31c2.027-3.528,3.817-5.66,3.817-5.66s-1.379-2.421-2.749-6.253
	c-1.369-3.831-1.899-6.754-1.899-6.754"/>
<path fill="none" stroke="--c-accent" stroke-width="0.75" stroke-linecap="round" stroke-linejoin="round" stroke-miterlimit="10" d="
	M0.466,12.217c0,0,1.891,2.294,3.929,5.814c2.04,3.52,2.993,6.135,2.993,6.135s2.787,0.016,6.789,0.747
	c4.002,0.729,6.799,1.732,6.799,1.732"/>
<g>
	<line fill="#FFFFFF" x1="14.874" y1="13.512" x2="23.205" y2="1.67"/>
	<path fill="--c-accent" d="M14.66,13.361c0,0,0.463-0.78,1.203-1.92c0.376-0.565,0.798-1.236,1.281-1.934
		c0.48-0.699,0.994-1.444,1.508-2.189c0.529-0.734,1.06-1.468,1.556-2.156c0.496-0.688,0.985-1.312,1.392-1.856
		c0.826-1.079,1.405-1.778,1.405-1.778c0.087-0.105,0.242-0.119,0.348-0.032c0.095,0.078,0.115,0.213,0.055,0.315
		c0,0-0.462,0.781-1.198,1.923c-0.375,0.566-0.797,1.238-1.277,1.937c-0.479,0.7-0.991,1.446-1.503,2.192
		c-0.528,0.735-1.056,1.47-1.551,2.159c-0.493,0.69-0.982,1.314-1.388,1.859c-0.823,1.081-1.401,1.78-1.401,1.78
		c-0.092,0.112-0.258,0.127-0.37,0.035C14.617,13.615,14.595,13.471,14.66,13.361z"/>
</g>
<g>
	<line fill="#FFFFFF" x1="14.874" y1="13.512" x2="20.963" y2="26.647"/>
	<path fill="--c-accent" d="M15.111,13.402c0,0,0.444,0.792,1.062,2.001c0.302,0.608,0.672,1.31,1.034,2.076
		c0.364,0.767,0.753,1.583,1.142,2.4c0.371,0.826,0.741,1.651,1.089,2.426c0.349,0.773,0.644,1.509,0.912,2.133
		c0.521,1.255,0.836,2.105,0.836,2.105c0.048,0.128-0.018,0.27-0.146,0.317c-0.115,0.043-0.242-0.007-0.3-0.11
		c0,0-0.446-0.791-1.066-1.999c-0.303-0.608-0.674-1.309-1.039-2.074c-0.366-0.766-0.757-1.582-1.147-2.398
		c-0.372-0.824-0.745-1.649-1.094-2.422c-0.352-0.772-0.647-1.509-0.917-2.132c-0.524-1.253-0.841-2.103-0.841-2.103
		c-0.051-0.136,0.019-0.288,0.155-0.338C14.914,13.239,15.049,13.291,15.111,13.402z"/>
</g>
<g>
	<line fill="#FFFFFF" x1="0.466" y1="12.218" x2="14.886" y2="13.512"/>
	<path fill="--c-accent" d="M0.49,11.958c0,0,0.907,0.011,2.264,0.081c0.678,0.043,1.47,0.073,2.315,0.143
		c0.846,0.068,1.748,0.14,2.649,0.212c0.9,0.092,1.801,0.184,2.645,0.27c0.844,0.085,1.629,0.197,2.303,0.277
		c1.347,0.176,2.242,0.329,2.242,0.328c0.134,0.023,0.225,0.15,0.202,0.285c-0.021,0.121-0.126,0.207-0.246,0.206
		c0,0-0.908-0.01-2.264-0.077c-0.678-0.042-1.47-0.071-2.316-0.137c-0.846-0.065-1.748-0.135-2.65-0.206
		c-0.9-0.089-1.801-0.179-2.645-0.263c-0.844-0.083-1.629-0.194-2.304-0.272c-1.347-0.173-2.242-0.324-2.242-0.324
		c-0.143-0.024-0.24-0.16-0.215-0.303C0.249,12.047,0.362,11.956,0.49,11.958z"/>
</g>
</svg>
