<?xml version="1.0" encoding="utf-8"?>
<!-- Generator: Adobe Illustrator 16.0.0, SVG Export Plug-In . SVG Version: 6.00 Build 0)  -->
<!DOCTYPE svg PUBLIC "-//W3C//DTD SVG 1.1//EN" "http://www.w3.org/Graphics/SVG/1.1/DTD/svg11.dtd">
<svg version="1.1" id="Layer_1" xmlns="http://www.w3.org/2000/svg" xmlns:xlink="http://www.w3.org/1999/xlink" x="0px" y="0px"
	 width="646.87px" height="646.87px" viewBox="0 0 646.87 646.87" enable-background="new 0 0 646.87 646.87" xml:space="preserve">
<path fill-rule="evenodd" clip-rule="evenodd" fill="#666666" d="M630.183,620.214c-2.824,0.282-5.728,1.131-8.459,0.747
	c-10.609-1.496-21.503-0.918-31.765-5.035c-20.009-8.028-39.211-17.361-55.182-32.229C533.961,582.937,53.729,99.791,43.643,91.172
	C27.896,77.716,17.857,61.18,16.635,40.26c-0.269-4.598,2.303-9.399,3.828-14.021c0.229-0.693,2.512-1.521,2.798-1.236
	c1.03,1.027,2.33,2.558,2.236,3.8c-0.362,4.793-0.829,9.651-2.021,14.288c-0.997,3.881-0.202,6.998,1.614,10.299
	c6.743,12.259,17.308,20.364,29.178,27.03c17.755,9.971,37.015,16.259,56.183,22.771c25.875,8.79,52.171,16.621,76.511,29.261
	c17.935,9.315,35.569,19.306,52.76,29.931c14.101,8.715,27.381,18.763,40.941,28.339c2.05,1.448,112.571,104.301,116.087,109.476
	c53.612,58.377,77.385,134.709,85.734,159.954c8.398,25.394,17.733,50.35,31.604,73.474c18.737,31.237,43.913,55.34,77.235,70.06
	c10.567,4.668,22.53,6.17,33.838,9.183c1.721,0.46,3.35,1.261,5.021,1.903C630.183,616.586,630.183,618.4,630.183,620.214z
	 M496.666,534.376c-6.681-15.669-13.802-31.169-19.926-47.053c-9.716-25.2-17.912-51.014-28.313-75.915
	c-12.819-30.691-38.479-66.822-63.35-73.559c-12.745-8.89-134.432-120.633-135.607-122.888
	c-9.879-18.962-21.996-36.104-39.362-49.009c-18.625-13.842-39.624-23.09-61.277-30.891c-24.141-8.698-48.448-16.935-72.632-25.515
	C71.849,108.002,497.114,535.429,496.666,534.376z"/>
<path fill-rule="evenodd" clip-rule="evenodd" fill="#666666" d="M151.874,485.053c-4.333,5.538-8.684,11.063-12.995,16.618
	c-5.712,7.364-11.208,14.908-17.168,22.066c-3.021,3.628-6.866,6.565-10.309,9.848c-0.76,0.723-14.507,11.757-22.611,13.13
	c-3.226,0.545-6.777,1.865-9.196,3.968c-7.42,6.444-14.343,13.46-21.504,20.207c-2.511,2.364-5.426,3.104-7.787,0.093
	c-2.353-2.997,0.077-4.878,2.107-7.073c3.542-3.828,14.45-15.911,16.779-17.718c4.41-3.425,7.306-7.542,7.808-13.398
	c0.729-8.503,5.331-15.355,11.424-20.775c16-14.228,32.263-28.17,48.706-41.886c5.356-4.469,12.367-7.093,17.281-11.922
	c15.877-15.607,409.584-424.656,419.417-433.664c1.398-1.282,4.07-1.177,6.151-1.714c-0.14,2.269,0.57,5.173-0.569,6.688
	c-3.774,5.016-392.998,409.912-412.022,430.271c-3.748,4.01-6.085,9.342-9.052,14.081c-2.279,3.637-4.524,7.294-6.784,10.943
	C151.658,484.896,151.765,484.974,151.874,485.053z"/>
</svg>
