<?xml version="1.0" encoding="utf-8"?>
<!-- Generator: Adobe Illustrator 16.0.0, SVG Export Plug-In . SVG Version: 6.00 Build 0)  -->
<!DOCTYPE svg PUBLIC "-//W3C//DTD SVG 1.1//EN" "http://www.w3.org/Graphics/SVG/1.1/DTD/svg11.dtd">
<svg version="1.1" id="Layer_1" xmlns="http://www.w3.org/2000/svg" xmlns:xlink="http://www.w3.org/1999/xlink" x="0px" y="0px"
	 width="28.35px" height="28.35px" viewBox="0 0 28.35 28.35" enable-background="new 0 0 28.35 28.35" xml:space="preserve">
<path fill-rule="evenodd" clip-rule="evenodd" fill="#F2F2F2" d="M14.22,6.492c2.342-2.454,5.012-3.7,8.318-2.852
	c4.456,1.144,6.672,5.806,5.026,10.483c-0.915,2.605-2.767,4.51-4.767,6.297c-2.481,2.216-4.984,4.41-7.442,6.65
	c-0.729,0.662-1.424,0.883-2.191,0.189c-3.167-2.861-6.377-5.681-9.458-8.634c-2.374-2.279-3.807-5.058-3.392-8.483
	C1.039,4.154,7.39,1.394,12.295,4.92C12.923,5.37,13.494,5.896,14.22,6.492z"/>
<path fill="#A7A9AC" d="M22.798,20.42c2-1.787,3.852-3.691,4.767-6.296c1.646-4.678-0.57-9.34-5.026-10.483
	c-3.307-0.848-5.977,0.398-8.318,2.852c-0.726-0.596-1.297-1.123-1.924-1.572C7.39,1.394,1.039,4.154,0.314,10.143
	c-0.415,3.426,1.018,6.204,3.392,8.483c3.081,2.953,6.292,5.772,9.459,8.634c0.768,0.693,1.462,0.473,2.191-0.189
	C17.813,24.83,20.316,22.636,22.798,20.42z M12.174,23.679c-2.35-2.108-4.78-4.288-7.083-6.495
	c-2.179-2.093-3.092-4.317-2.792-6.801c0.358-2.957,2.554-5.022,5.339-5.022c1.206,0,2.413,0.409,3.492,1.185
	c0.375,0.269,0.727,0.571,1.114,0.9c0.223,0.189,0.456,0.387,0.707,0.593l1.435,1.178l1.282-1.343
	c2.095-2.196,4.03-2.896,6.374-2.296c1.481,0.38,2.683,1.312,3.384,2.624c0.817,1.531,0.907,3.398,0.253,5.259
	c-0.725,2.06-2.208,3.676-4.212,5.467c-0.815,0.728-1.632,1.453-2.449,2.178c-1.627,1.445-3.255,2.89-4.862,4.353
	C13.496,24.863,12.834,24.271,12.174,23.679z"/>
</svg>
