<?xml version="1.0" encoding="utf-8"?>
<!-- Generator: Adobe Illustrator 16.0.0, SVG Export Plug-In . SVG Version: 6.00 Build 0)  -->
<!DOCTYPE svg PUBLIC "-//W3C//DTD SVG 1.1//EN" "http://www.w3.org/Graphics/SVG/1.1/DTD/svg11.dtd">
<svg version="1.1" id="Layer_1" xmlns="http://www.w3.org/2000/svg" xmlns:xlink="http://www.w3.org/1999/xlink" x="0px" y="0px"
	 width="49.229px" height="28.35px" viewBox="0 0 49.229 28.35" enable-background="new 0 0 49.229 28.35" xml:space="preserve">
<path fill="#808080" d="M31.93,8.696c-3.513-3.512-5.478-7.277-5.478-7.277c-0.002,0.003-1.507,2.881-4.231,5.949
	c0.174,0.181,0.347,0.362,0.525,0.542c4.014,4.015,8.32,6.263,8.32,6.263s-4.303,2.247-8.322,6.262
	c-0.179,0.181-0.352,0.361-0.525,0.543c2.725,3.068,4.233,5.951,4.233,5.951s1.969-3.768,5.478-7.278
	c3.514-3.513,7.279-5.478,7.279-5.478S35.441,12.208,31.93,8.696z"/>
<path fill="--c-accent" d="M42.678,9.244c-3.161-3.161-4.93-6.549-4.93-6.549c-0.002,0.003-1.355,2.593-3.807,5.354
	c0.156,0.163,0.311,0.326,0.473,0.488c3.611,3.614,7.487,5.637,7.487,5.637s-3.874,2.022-7.489,5.636
	c-0.162,0.163-0.316,0.325-0.473,0.489c2.452,2.761,3.809,5.355,3.809,5.355s1.772-3.391,4.93-6.551
	c3.162-3.161,6.551-4.93,6.551-4.93S45.839,12.404,42.678,9.244z"/>
<path fill="#808080" d="M20.256,8.088c-3.902-3.902-6.086-8.086-6.086-8.086c-0.002,0.004-1.674,3.201-4.701,6.61
	c0.193,0.201,0.385,0.402,0.584,0.603c4.459,4.461,9.244,6.959,9.244,6.959s-4.781,2.496-9.246,6.958
	c-0.199,0.199-0.391,0.4-0.584,0.602c3.027,3.41,4.703,6.613,4.703,6.613s2.188-4.188,6.086-8.088
	c3.904-3.902,8.088-6.085,8.088-6.085S24.158,11.99,20.256,8.088z"/>
<g>
	<path fill="#808080" d="M8.196,20.262c3.908-3.902,8.097-6.087,8.097-6.087s-4.191-2.185-8.097-6.086
		C8.177,8.069,8.159,8.05,8.14,8.031C8.12,8.05,8.102,8.07,8.082,8.09c-3.904,3.902-8.088,6.086-8.088,6.086
		s4.186,2.185,8.088,6.085c0.02,0.02,0.037,0.039,0.057,0.059C8.158,20.301,8.176,20.281,8.196,20.262z"/>
</g>
</svg>
