<?xml version="1.0" encoding="utf-8"?>
<!-- Generator: Adobe Illustrator 16.0.0, SVG Export Plug-In . SVG Version: 6.00 Build 0)  -->
<!DOCTYPE svg PUBLIC "-//W3C//DTD SVG 1.1//EN" "http://www.w3.org/Graphics/SVG/1.1/DTD/svg11.dtd">
<svg version="1.1" id="Layer_1" xmlns="http://www.w3.org/2000/svg" xmlns:xlink="http://www.w3.org/1999/xlink" x="0px" y="0px"
	 width="28.35px" height="28.35px" viewBox="0 0 28.35 28.35" enable-background="new 0 0 28.35 28.35" xml:space="preserve">
<path fill="#FFFFFF" stroke="#595959" stroke-width="0.75" stroke-miterlimit="10" d="M14.174,12.456l5.01-5.012
	c-3.211-3.21-5.01-6.658-5.01-6.658c-0.003,0.005-1.8,3.448-5.011,6.658l0,0L14.174,12.456z"/>
<path fill="#FFFFFF" stroke="#595959" stroke-width="0.75" stroke-miterlimit="10" d="M14.174,15.975l-5.011,5.013
	c3.212,3.209,5.011,6.656,5.011,6.656c0.004-0.006,1.801-3.447,5.01-6.656l0,0L14.174,15.975z"/>
<path fill="#FFFFFF" stroke="#595959" stroke-width="0.75" stroke-miterlimit="10" d="M12.416,14.213L7.404,9.202
	c-3.21,3.212-6.658,5.011-6.658,5.011c0.005,0.003,3.448,1.8,6.658,5.01l0,0L12.416,14.213z"/>
<path fill="#FFFFFF" stroke="#595959" stroke-width="0.75" stroke-miterlimit="10" d="M15.933,14.215l5.012,5.01
	c3.212-3.21,6.657-5.011,6.657-5.011c-0.003-0.001-3.445-1.799-6.657-5.01l0,0L15.933,14.215z"/>
</svg>
