<?xml version="1.0" encoding="utf-8"?>
<!-- Generator: Adobe Illustrator 16.0.0, SVG Export Plug-In . SVG Version: 6.00 Build 0)  -->
<!DOCTYPE svg PUBLIC "-//W3C//DTD SVG 1.1//EN" "http://www.w3.org/Graphics/SVG/1.1/DTD/svg11.dtd">
<svg version="1.1" id="Layer_1" xmlns="http://www.w3.org/2000/svg" xmlns:xlink="http://www.w3.org/1999/xlink" x="0px" y="0px"
	 width="28.35px" height="28.35px" viewBox="0 0 28.35 28.35" enable-background="new 0 0 28.35 28.35" xml:space="preserve">
<path fill-rule="evenodd" clip-rule="evenodd" fill="#707070" d="M14.085,0.202c1.144,1.51,1.95,3.353,3.011,4.947
	c-0.357,0.155-1.003,0.023-1.471,0.065c-0.159,1.674-0.024,3.635-0.069,5.418c0.768-0.552,1.95-1.883,2.943-2.876
	c0.198-0.198,0.993-0.745,1.001-0.936c0.022-0.507-1.003-0.59-1.001-1.136c2.141-0.547,3.683-0.925,5.48-1.47
	c-0.202,1.845-0.981,3.698-1.337,5.615c-0.484-0.228-0.707-0.719-1.135-1.002c-1.344,1.285-2.657,2.601-3.945,3.945
	c1.851,0,3.699,0,5.549,0c0-0.513,0-1.025,0-1.539c1.695,0.937,3.306,1.955,5.014,2.876c-1.507,1.146-3.354,1.951-4.946,3.009
	c-0.156-0.358-0.023-1.004-0.067-1.471c-1.671-0.158-3.633-0.024-5.417-0.067c1.012,1.263,2.569,2.557,3.746,3.877
	c0.508-0.168,0.753-0.932,1.202-0.934c0.421,1.894,1.013,3.621,1.405,5.546c-1.641-0.44-3.705-0.951-5.483-1.471
	c-0.355-0.214,0.923-0.759,0.936-1.069c0.012-0.216-0.746-0.746-1.001-1.001c-0.944-0.947-2.127-2.228-2.943-2.943
	c0,1.85,0,3.7,0,5.551c0.513,0,1.025,0,1.54,0c-0.938,1.693-1.956,3.303-2.879,5.014c-1.144-1.508-1.949-3.354-3.009-4.948
	c0.359-0.155,1.005-0.022,1.472-0.065c0.158-1.693,0.024-3.679,0.068-5.483c-1.252,1.041-2.624,2.546-3.877,3.812
	c0.174,0.472,0.873,0.772,0.936,1.135c-1.698,0.476-3.839,1.02-5.549,1.471c0.423-1.894,1.006-3.629,1.404-5.546
	c0.418,0.013,0.718,0.698,1.137,0.934c1.321-1.266,2.612-2.558,3.877-3.877c-1.828,0-3.656,0-5.482,0c0,0.513,0,1.022,0,1.538
	c-1.667-1.009-3.477-1.873-5.014-3.009c1.678-0.929,3.325-1.891,4.947-2.876c0.155,0.359,0.023,1.003,0.067,1.472
	c1.694,0.157,3.677,0.023,5.482,0.067c-1.031-1.287-2.613-2.602-3.811-3.945C6.357,8.996,6.112,9.757,5.661,9.763
	C5.255,7.852,4.67,6.116,4.257,4.214c1.836,0.503,3.674,1.004,5.549,1.47C9.74,6.028,9.105,6.357,8.87,6.753
	c1.198,1.412,2.568,2.646,3.877,3.946c0-1.829,0-3.656,0-5.484c-0.512,0-1.024,0-1.54,0C12.146,3.521,13.161,1.908,14.085,0.202z"/>
</svg>
