<?xml version="1.0" encoding="utf-8"?>
<!DOCTYPE svg PUBLIC "-//W3C//DTD SVG 1.1//EN" "http://www.w3.org/Graphics/SVG/1.1/DTD/svg11.dtd">
<svg version="1.1" id="Layer_1" xmlns="http://www.w3.org/2000/svg" xmlns:xlink="http://www.w3.org/1999/xlink" x="0px" y="0px"
	 width="28.35px" height="28.35px" viewBox="0 0 28.35 28.35" enable-background="new 0 0 28.35 28.35" xml:space="preserve">
<path fill="#595959" stroke="#595959" stroke-width="0.75" stroke-miterlimit="10" d="M15.631,12.76l8.295-0.002
	C23.925,7.443,25.29,3.1,25.29,3.1c-0.007,0.002-4.345,1.364-9.658,1.363l0,0L15.631,12.76z"/>
<path fill="#FFFFFF" stroke="#595959" stroke-width="0.75" stroke-miterlimit="10" d="M12.717,15.672L4.42,15.673
	c0.002,5.315-1.362,9.658-1.362,9.658c0.008-0.002,4.345-1.363,9.657-1.363l0,0L12.717,15.672z"/>
<path fill="none" stroke="#BFBFBF" stroke-width="0.75" stroke-miterlimit="10" d="M12.719,4.462
	C7.403,4.463,3.061,3.099,3.061,3.099c0.002,0.007,1.363,4.344,1.363,9.658l0,0"/>
<path fill="#FFFFFF" stroke="#595959" stroke-width="0.75" stroke-miterlimit="10" d="M15.629,15.672l0.002,8.295
	c5.314,0.001,9.658,1.362,9.658,1.362c-0.002-0.004-1.363-4.34-1.363-9.657l0,0H15.629z"/>
</svg>
