<?xml version="1.0" encoding="utf-8"?>
<!-- Generator: Adobe Illustrator 16.0.0, SVG Export Plug-In . SVG Version: 6.00 Build 0)  -->
<!DOCTYPE svg PUBLIC "-//W3C//DTD SVG 1.1//EN" "http://www.w3.org/Graphics/SVG/1.1/DTD/svg11.dtd">
<svg version="1.1" id="Layer_1" xmlns="http://www.w3.org/2000/svg" xmlns:xlink="http://www.w3.org/1999/xlink" x="0px" y="0px"
	 width="113.501px" height="504.697px" viewBox="0 0 113.501 504.697" enable-background="new 0 0 113.501 504.697"
	 xml:space="preserve">
<pattern  x="3" y="-1" width="72" height="72" patternUnits="userSpaceOnUse" id="_x36__lpi_40_x25_" viewBox="72.25 -72 72 72" overflow="visible">
	<g>
		<polygon fill="none" points="72.25,-72 144.25,-72 144.25,0 72.25,0 		"/>
		<g>
			<line fill="none" stroke="#000000" stroke-width="4.8" x1="144" y1="-6" x2="216.5" y2="-6"/>
			<line fill="none" stroke="#000000" stroke-width="4.8" x1="144" y1="-30" x2="216.5" y2="-30"/>
			<line fill="none" stroke="#000000" stroke-width="4.8" x1="144" y1="-54" x2="216.5" y2="-54"/>
			<line fill="none" stroke="#000000" stroke-width="4.8" x1="144" y1="-18" x2="216.5" y2="-18"/>
			<line fill="none" stroke="#000000" stroke-width="4.8" x1="144" y1="-42" x2="216.5" y2="-42"/>
			<line fill="none" stroke="#000000" stroke-width="4.8" x1="144" y1="-66" x2="216.5" y2="-66"/>
		</g>
		<g>
			<line fill="none" stroke="#000000" stroke-width="4.8" x1="72" y1="-6" x2="144.5" y2="-6"/>
			<line fill="none" stroke="#000000" stroke-width="4.8" x1="72" y1="-30" x2="144.5" y2="-30"/>
			<line fill="none" stroke="#000000" stroke-width="4.8" x1="72" y1="-54" x2="144.5" y2="-54"/>
			<line fill="none" stroke="#000000" stroke-width="4.8" x1="72" y1="-18" x2="144.5" y2="-18"/>
			<line fill="none" stroke="#000000" stroke-width="4.8" x1="72" y1="-42" x2="144.5" y2="-42"/>
			<line fill="none" stroke="#000000" stroke-width="4.8" x1="72" y1="-66" x2="144.5" y2="-66"/>
		</g>
		<g>
			<line fill="none" stroke="#000000" stroke-width="4.8" x1="0" y1="-6" x2="72.5" y2="-6"/>
			<line fill="none" stroke="#000000" stroke-width="4.8" x1="0" y1="-30" x2="72.5" y2="-30"/>
			<line fill="none" stroke="#000000" stroke-width="4.8" x1="0" y1="-54" x2="72.5" y2="-54"/>
			<line fill="none" stroke="#000000" stroke-width="4.8" x1="0" y1="-18" x2="72.5" y2="-18"/>
			<line fill="none" stroke="#000000" stroke-width="4.8" x1="0" y1="-42" x2="72.5" y2="-42"/>
			<line fill="none" stroke="#000000" stroke-width="4.8" x1="0" y1="-66" x2="72.5" y2="-66"/>
		</g>
	</g>
</pattern>
<g>
	<g>
		<line fill="none" stroke="#000000" x1="18.554" y1="12.5" x2="18.554" y2="0"/>
		<line fill="none" stroke="#000000" x1="95.253" y1="12.5" x2="95.253" y2="0"/>
		<g>
			
				<pattern  id="SVGID_1_" xlink:href="#_x36__lpi_40_x25_" patternTransform="matrix(0.5303 -0.5303 0.5303 0.5303 245.5391 -7864.1045)">
			</pattern>
			<path opacity="0.05" fill="url(#SVGID_1_)" d="M29.181,370.129c-5.869,0-10.627,4.762-10.627,10.633v55.469
				c0,5.871,4.758,10.633,10.627,10.633h55.445c5.869,0,10.627-4.762,10.627-10.633v-55.469c0-5.871-4.758-10.633-10.627-10.633
				H29.181z"/>
			
				<pattern  id="SVGID_2_" xlink:href="#_x36__lpi_40_x25_" patternTransform="matrix(-0.5303 -0.5303 -0.5303 0.5303 -16211.6865 -7864.1045)">
			</pattern>
			<path opacity="0.05" fill="url(#SVGID_2_)" d="M84.626,370.129c5.869,0,10.627,4.762,10.627,10.633v55.469
				c0,5.871-4.758,10.633-10.627,10.633H29.181c-5.869,0-10.627-4.762-10.627-10.633v-55.469c0-5.871,4.758-10.633,10.627-10.633
				H84.626z"/>
			<line fill="none" stroke="#000000" x1="18.554" y1="504.697" x2="18.554" y2="492.197"/>
			<line fill="none" stroke="#000000" x1="95.253" y1="504.697" x2="95.253" y2="492.197"/>
			<line fill="none" stroke="#000000" x1="0" y1="18.481" x2="12.5" y2="18.481"/>
			<line fill="none" stroke="#000000" x1="101.001" y1="18.481" x2="113.501" y2="18.481"/>
			<line fill="none" stroke="#000000" x1="101.001" y1="485.23" x2="113.501" y2="485.23"/>
			<line fill="none" stroke="#000000" x1="0" y1="485.23" x2="12.5" y2="485.23"/>
			<line fill="none" stroke="#000000" x1="101.001" y1="492.23" x2="113.501" y2="492.23"/>
			<line fill="none" stroke="#000000" x1="0" y1="492.23" x2="12.5" y2="492.23"/>
			
				<pattern  id="SVGID_3_" xlink:href="#_x36__lpi_40_x25_" patternTransform="matrix(0.5303 -0.5303 0.5303 0.5303 245.5391 -7898.0337)">
			</pattern>
			<path opacity="0.05" fill="url(#SVGID_3_)" d="M29.181,18.481c-5.869,0-10.627,4.762-10.627,10.633v24.65h76.699v-24.65
				c0-5.871-4.758-10.633-10.627-10.633H29.181z"/>
			
				<pattern  id="SVGID_4_" xlink:href="#_x36__lpi_40_x25_" patternTransform="matrix(-0.5303 -0.5303 -0.5303 0.5303 -16211.6865 -7898.0337)">
			</pattern>
			<path opacity="0.05" fill="url(#SVGID_4_)" d="M84.626,18.481c5.869,0,10.627,4.762,10.627,10.633v24.65H18.554v-24.65
				c0-5.871,4.758-10.633,10.627-10.633H84.626z"/>
			<line fill="none" stroke="#D1D3D4" stroke-dasharray="1,2" x1="31.181" y1="368.129" x2="83.626" y2="368.129"/>
			<line fill="none" stroke="#D1D3D4" stroke-dasharray="1,2" x1="31.181" y1="193.862" x2="83.626" y2="193.862"/>
			<line fill="none" stroke="#D1D3D4" stroke-dasharray="1,2" x1="83.626" y1="370.129" x2="31.181" y2="370.129"/>
			<line fill="none" stroke="#D1D3D4" stroke-dasharray="1,2" x1="20.554" y1="332.762" x2="44.12" y2="332.762"/>
			<line fill="none" stroke="#D1D3D4" stroke-dasharray="1,2" x1="71.054" y1="332.762" x2="94.62" y2="332.762"/>
			<g>
				<g>
					<polyline fill="none" stroke="#D1D3D4" points="67.187,330.762 68.687,330.762 68.687,332.262 					"/>
					<polyline fill="none" stroke="#D1D3D4" points="68.687,332.262 68.687,333.762 67.187,333.762 					"/>
					<line fill="none" stroke="#D1D3D4" stroke-dasharray="3.4277,4.5703" x1="62.616" y1="333.762" x2="48.905" y2="333.762"/>
					<polyline fill="none" stroke="#D1D3D4" points="46.62,333.762 45.12,333.762 45.12,332.262 					"/>
					<polyline fill="none" stroke="#D1D3D4" points="45.12,332.262 45.12,330.762 46.62,330.762 					"/>
					<line fill="none" stroke="#D1D3D4" stroke-dasharray="3.4277,4.5703" x1="51.19" y1="330.762" x2="64.901" y2="330.762"/>
				</g>
			</g>
			<line fill="none" stroke="#D1D3D4" stroke-dasharray="1,2" x1="93.253" y1="54.848" x2="69.687" y2="54.848"/>
			<line fill="none" stroke="#D1D3D4" stroke-dasharray="1,2" x1="42.753" y1="54.848" x2="19.187" y2="54.848"/>
			<g>
				<g>
					<polyline fill="none" stroke="#D1D3D4" points="46.62,56.848 45.12,56.848 45.12,55.348 					"/>
					<polyline fill="none" stroke="#D1D3D4" points="45.12,55.348 45.12,53.848 46.62,53.848 					"/>
					<line fill="none" stroke="#D1D3D4" stroke-dasharray="3.4277,4.5703" x1="51.19" y1="53.848" x2="64.901" y2="53.848"/>
					<polyline fill="none" stroke="#D1D3D4" points="67.187,53.848 68.687,53.848 68.687,55.348 					"/>
					<polyline fill="none" stroke="#D1D3D4" points="68.687,55.348 68.687,56.848 67.187,56.848 					"/>
					<line fill="none" stroke="#D1D3D4" stroke-dasharray="3.4277,4.5703" x1="62.616" y1="56.848" x2="48.905" y2="56.848"/>
				</g>
			</g>
			<g>
				<g>
					<path fill="none" stroke="#D1D3D4" d="M27.684,368.024c0.489,0.068,0.989,0.104,1.497,0.104v2
						c-0.508,0-1.008,0.036-1.497,0.104"/>
					<path fill="none" stroke="#D1D3D4" stroke-dasharray="2.9268,3.9025" d="M24.005,371.474c-3.252,1.818-5.451,5.297-5.451,9.288
						v55.469c0,4.686,3.03,8.665,7.238,10.08"/>
					<path fill="none" stroke="#D1D3D4" d="M27.684,446.759c0.489,0.068,0.989,0.104,1.497,0.104v2
						c-0.508,0-1.008,0.036-1.497,0.104"/>
					<path fill="none" stroke="#D1D3D4" stroke-dasharray="3.0329,4.0438" d="M23.882,450.277c-3.185,1.837-5.328,5.278-5.328,9.219
						v22.218"/>
					<polyline fill="none" stroke="#D1D3D4" points="18.554,483.73 18.554,485.23 20.054,485.23 					"/>
					<line fill="none" stroke="#D1D3D4" stroke-dasharray="2.948,3.9306" x1="23.984" y1="485.23" x2="42.655" y2="485.23"/>
					<polyline fill="none" stroke="#D1D3D4" points="44.62,485.23 46.12,485.23 46.332,486.716 					"/>
					<polyline fill="none" stroke="#D1D3D4" points="46.908,490.745 47.12,492.23 48.62,492.23 					"/>
					<line fill="none" stroke="#D1D3D4" stroke-dasharray="2.7611,3.6814" x1="52.302" y1="492.23" x2="63.346" y2="492.23"/>
					<polyline fill="none" stroke="#D1D3D4" points="65.187,492.23 66.687,492.23 66.898,490.745 					"/>
					<polyline fill="none" stroke="#D1D3D4" points="67.475,486.716 67.687,485.23 69.187,485.23 					"/>
					<line fill="none" stroke="#D1D3D4" stroke-dasharray="2.948,3.9306" x1="73.117" y1="485.23" x2="91.788" y2="485.23"/>
					<polyline fill="none" stroke="#D1D3D4" points="93.753,485.23 95.253,485.23 95.253,483.73 					"/>
					<path fill="none" stroke="#D1D3D4" stroke-dasharray="3.0329,4.0438" d="M95.253,479.687v-20.19
						c0-4.659-2.996-8.619-7.166-10.056"/>
					<path fill="none" stroke="#D1D3D4" d="M86.123,448.968c-0.489-0.068-0.989-0.104-1.497-0.104v-2
						c0.508,0,1.008-0.036,1.497-0.104"/>
					<path fill="none" stroke="#D1D3D4" stroke-dasharray="2.9268,3.9025" d="M89.802,445.519c3.252-1.818,5.451-5.297,5.451-9.288
						v-55.469c0-4.686-3.03-8.665-7.238-10.08"/>
					<path fill="none" stroke="#D1D3D4" d="M86.123,370.233c-0.489-0.068-0.989-0.104-1.497-0.104v-2
						c0.508,0,1.008-0.036,1.497-0.104"/>
					<path fill="none" stroke="#D1D3D4" stroke-dasharray="2.9576,3.9435" d="M89.837,366.765c3.233-1.824,5.416-5.292,5.416-9.269
						V204.511c0-4.679-3.021-8.652-7.218-10.074"/>
					<path fill="none" stroke="#D1D3D4" d="M86.123,193.982c-0.489-0.068-0.989-0.104-1.497-0.104c0.508,0,1.008-0.036,1.497-0.104"
						/>
					<path fill="none" stroke="#D1D3D4" stroke-dasharray="3.0246,4.0328" d="M89.916,192.469c3.189-1.835,5.337-5.279,5.337-9.224
						V29.114c0-5.871-4.758-10.633-10.627-10.633H29.181c-5.869,0-10.627,4.762-10.627,10.633v154.131
						c0,4.663,3.001,8.626,7.176,10.06"/>
					<path fill="none" stroke="#D1D3D4" d="M27.684,193.773c0.489,0.068,0.989,0.104,1.497,0.104c-0.508,0-1.008,0.036-1.497,0.104"
						/>
					<path fill="none" stroke="#D1D3D4" stroke-dasharray="2.9576,3.9435" d="M23.969,195.242c-3.233,1.824-5.416,5.292-5.416,9.269
						v152.985c0,4.679,3.021,8.652,7.218,10.074"/>
				</g>
			</g>
			<line fill="none" stroke="#D1D3D4" stroke-dasharray="1,2" x1="31.181" y1="446.863" x2="83.626" y2="446.863"/>
			<line fill="none" stroke="#D1D3D4" stroke-dasharray="1,2" x1="31.181" y1="448.863" x2="83.626" y2="448.863"/>
			<path fill="#A7A9AC" d="M106.755,403.07c-0.266-0.73-1.234-0.945-2.049-0.484c-0.986,0.471-2.08,1.303-3.732,1.302l-0.695-0.001
				v-0.622c0.002-1.654,0.836-2.747,1.311-3.732c0.461-0.813,0.248-1.782-0.479-2.05c-0.691-0.313-1.686,0.23-2.162,0.98
				c-0.523,0.727-0.543,1.746,0.09,2.094c0.66,0.361,0.781,0.057,1.043,0.179c0.338,0.157-0.453,1.26-1.023,3.283l-0.016,0.06
				l-5.537,1.607c-0.762,0.272-1.598,0.813-1.934,1.787l7.068-1.934l-1.965,7.125c0.975-0.334,1.516-1.168,1.789-1.931l1.637-5.595
				l0.117-0.031c2.021-0.566,3.127-1.354,3.283-1.018c0.121,0.264-0.184,0.384,0.176,1.044c0.346,0.634,1.363,0.616,2.092,0.095
				C106.521,404.756,107.065,403.761,106.755,403.07z M100.808,399.904c-0.727,0.727-1.807,0.307-1.684-0.66
				c0.084-0.663,0.854-1.434,1.514-1.306C101.487,398.028,101.507,399.269,100.808,399.904z M104.989,405.053
				c-0.967,0.12-1.385-0.961-0.656-1.686c0.637-0.699,1.877-0.677,1.965,0.174C106.425,404.203,105.653,404.97,104.989,405.053z"/>
		</g>
	</g>
	<g>
		<path fill-rule="evenodd" clip-rule="evenodd" fill="#B3B3B3" d="M52.002,40.273c0.449-0.707,0.9-1.413,1.349-2.122
			c0.141-0.222,0.273-0.448,0.396-0.65c0.571,0.604,1.131,1.196,1.707,1.806c-0.615,0.371-1.354,0.809-2.084,1.258
			c-0.218,0.135-0.416,0.301-0.624,0.453c-0.248,0-0.495,0-0.743,0C52.002,40.769,52.002,40.521,52.002,40.273z"/>
		<path fill-rule="evenodd" clip-rule="evenodd" fill="#B3B3B3" d="M65.563,32.602c-0.155,0.254-0.253,0.51-0.427,0.688
			c-1.542,1.564-3.093,3.118-4.65,4.664c-0.443,0.441-0.892,0.431-1.348-0.021c-1.357-1.348-2.71-2.698-4.055-4.057
			c-0.459-0.464-0.464-0.88-0.007-1.342c1.544-1.56,3.095-3.114,4.655-4.659c0.479-0.474,0.901-0.464,1.385,0.015
			c1.348,1.332,2.688,2.672,4.016,4.021C65.309,32.089,65.406,32.343,65.563,32.602z"/>
		<path fill-rule="evenodd" clip-rule="evenodd" fill="#B3B3B3" d="M54.932,35.02c1.039,1.034,2.022,2.013,3.143,3.13
			c-0.183,0.123-0.406,0.241-0.592,0.404c-0.465,0.406-0.867,0.437-1.308,0.015c-0.601-0.572-1.187-1.161-1.761-1.762
			c-0.364-0.379-0.365-0.785-0.033-1.186C54.56,35.406,54.758,35.208,54.932,35.02z"/>
	</g>
</g>
</svg>
