<?xml version="1.0" encoding="utf-8"?>
<!-- Generator: Adobe Illustrator 16.0.0, SVG Export Plug-In . SVG Version: 6.00 Build 0)  -->
<!DOCTYPE svg PUBLIC "-//W3C//DTD SVG 1.1//EN" "http://www.w3.org/Graphics/SVG/1.1/DTD/svg11.dtd">
<svg version="1.1" id="Layer_1" xmlns="http://www.w3.org/2000/svg" xmlns:xlink="http://www.w3.org/1999/xlink" x="0px" y="0px"
	 width="175.699px" height="710.574px" viewBox="0 0 175.699 710.574" enable-background="new 0 0 175.699 710.574"
	 xml:space="preserve">
<pattern  x="3" y="-1" width="72" height="72" patternUnits="userSpaceOnUse" id="_x36__lpi_40_x25_" viewBox="72.25 -72 72 72" overflow="visible">
	<g>
		<polygon fill="none" points="72.25,-72 144.25,-72 144.25,0 72.25,0 		"/>
		<g>
			<line fill="none" stroke="#000000" stroke-width="4.8" x1="144" y1="-6" x2="216.5" y2="-6"/>
			<line fill="none" stroke="#000000" stroke-width="4.8" x1="144" y1="-30" x2="216.5" y2="-30"/>
			<line fill="none" stroke="#000000" stroke-width="4.8" x1="144" y1="-54" x2="216.5" y2="-54"/>
			<line fill="none" stroke="#000000" stroke-width="4.8" x1="144" y1="-18" x2="216.5" y2="-18"/>
			<line fill="none" stroke="#000000" stroke-width="4.8" x1="144" y1="-42" x2="216.5" y2="-42"/>
			<line fill="none" stroke="#000000" stroke-width="4.8" x1="144" y1="-66" x2="216.5" y2="-66"/>
		</g>
		<g>
			<line fill="none" stroke="#000000" stroke-width="4.8" x1="72" y1="-6" x2="144.5" y2="-6"/>
			<line fill="none" stroke="#000000" stroke-width="4.8" x1="72" y1="-30" x2="144.5" y2="-30"/>
			<line fill="none" stroke="#000000" stroke-width="4.8" x1="72" y1="-54" x2="144.5" y2="-54"/>
			<line fill="none" stroke="#000000" stroke-width="4.8" x1="72" y1="-18" x2="144.5" y2="-18"/>
			<line fill="none" stroke="#000000" stroke-width="4.8" x1="72" y1="-42" x2="144.5" y2="-42"/>
			<line fill="none" stroke="#000000" stroke-width="4.8" x1="72" y1="-66" x2="144.5" y2="-66"/>
		</g>
		<g>
			<line fill="none" stroke="#000000" stroke-width="4.8" x1="0" y1="-6" x2="72.5" y2="-6"/>
			<line fill="none" stroke="#000000" stroke-width="4.8" x1="0" y1="-30" x2="72.5" y2="-30"/>
			<line fill="none" stroke="#000000" stroke-width="4.8" x1="0" y1="-54" x2="72.5" y2="-54"/>
			<line fill="none" stroke="#000000" stroke-width="4.8" x1="0" y1="-18" x2="72.5" y2="-18"/>
			<line fill="none" stroke="#000000" stroke-width="4.8" x1="0" y1="-42" x2="72.5" y2="-42"/>
			<line fill="none" stroke="#000000" stroke-width="4.8" x1="0" y1="-66" x2="72.5" y2="-66"/>
		</g>
	</g>
</pattern>
<line fill="none" stroke="#000000" x1="18.554" y1="12.5" x2="18.554" y2="0"/>
<line fill="none" stroke="#000000" x1="157.451" y1="12.5" x2="157.451" y2="0"/>
<pattern  id="SVGID_1_" xlink:href="#_x36__lpi_40_x25_" patternTransform="matrix(0.5303 -0.5303 0.5303 0.5303 136.3564 -7767.4102)">
</pattern>
<path opacity="0.05" fill="url(#SVGID_1_)" d="M29.181,485.006c-5.869,0-10.627,4.762-10.627,10.633v116.469
	c0,5.871,4.758,10.633,10.627,10.633h117.644c5.869,0,10.627-4.762,10.627-10.633V495.639c0-5.871-4.758-10.633-10.627-10.633
	H29.181z"/>
<pattern  id="SVGID_2_" xlink:href="#_x36__lpi_40_x25_" patternTransform="matrix(-0.5303 -0.5303 -0.5303 0.5303 -16102.5039 -7767.4102)">
</pattern>
<path opacity="0.05" fill="url(#SVGID_2_)" d="M146.824,485.006c5.869,0,10.627,4.762,10.627,10.633v116.469
	c0,5.871-4.758,10.633-10.627,10.633H29.181c-5.869,0-10.627-4.762-10.627-10.633V495.639c0-5.871,4.758-10.633,10.627-10.633
	H146.824z"/>
<line fill="none" stroke="#000000" x1="18.554" y1="710.574" x2="18.554" y2="698.074"/>
<line fill="none" stroke="#000000" x1="157.451" y1="710.574" x2="157.451" y2="698.074"/>
<line fill="none" stroke="#000000" x1="0" y1="18.481" x2="12.5" y2="18.481"/>
<line fill="none" stroke="#000000" x1="163.199" y1="18.481" x2="175.699" y2="18.481"/>
<line fill="none" stroke="#000000" x1="163.199" y1="691.107" x2="175.699" y2="691.107"/>
<line fill="none" stroke="#000000" x1="0" y1="691.107" x2="12.5" y2="691.107"/>
<line fill="none" stroke="#000000" x1="163.199" y1="698.107" x2="175.699" y2="698.107"/>
<line fill="none" stroke="#000000" x1="0" y1="698.107" x2="12.5" y2="698.107"/>
<pattern  id="SVGID_3_" xlink:href="#_x36__lpi_40_x25_" patternTransform="matrix(0.5303 -0.5303 0.5303 0.5303 136.3564 -7801.3398)">
</pattern>
<path opacity="0.05" fill="url(#SVGID_3_)" d="M29.181,18.481c-5.869,0-10.627,4.762-10.627,10.633v24.65h138.897v-24.65
	c0-5.871-4.758-10.633-10.627-10.633H29.181z"/>
<pattern  id="SVGID_4_" xlink:href="#_x36__lpi_40_x25_" patternTransform="matrix(-0.5303 -0.5303 -0.5303 0.5303 -16102.5039 -7801.3398)">
</pattern>
<path opacity="0.05" fill="url(#SVGID_4_)" d="M146.824,18.481c5.869,0,10.627,4.762,10.627,10.633v24.65H18.554v-24.65
	c0-5.871,4.758-10.633,10.627-10.633H146.824z"/>
<line fill="none" stroke="#D1D3D4" stroke-dasharray="1,2" x1="31.181" y1="483.006" x2="145.824" y2="483.006"/>
<line fill="none" stroke="#D1D3D4" stroke-dasharray="1,2" x1="31.181" y1="236.249" x2="145.824" y2="236.249"/>
<line fill="none" stroke="#D1D3D4" stroke-dasharray="1,2" x1="145.824" y1="485.006" x2="31.181" y2="485.006"/>
<line fill="none" stroke="#D1D3D4" stroke-dasharray="1,2" x1="19.837" y1="417.639" x2="74.935" y2="417.639"/>
<line fill="none" stroke="#D1D3D4" stroke-dasharray="1,2" x1="101.186" y1="417.639" x2="156.818" y2="417.639"/>
<g>
	<g>
		<polyline fill="none" stroke="#D1D3D4" points="98.286,415.639 99.786,415.639 99.786,417.139 		"/>
		<polyline fill="none" stroke="#D1D3D4" points="99.786,417.139 99.786,418.639 98.286,418.639 		"/>
		<line fill="none" stroke="#D1D3D4" stroke-dasharray="3.4277,4.5703" x1="93.715" y1="418.639" x2="80.004" y2="418.639"/>
		<polyline fill="none" stroke="#D1D3D4" points="77.719,418.639 76.219,418.639 76.219,417.139 		"/>
		<polyline fill="none" stroke="#D1D3D4" points="76.219,417.139 76.219,415.639 77.719,415.639 		"/>
		<line fill="none" stroke="#D1D3D4" stroke-dasharray="3.4277,4.5703" x1="82.29" y1="415.639" x2="96" y2="415.639"/>
	</g>
</g>
<line fill="none" stroke="#D1D3D4" stroke-dasharray="1,2" x1="156.635" y1="54.848" x2="101.261" y2="54.848"/>
<line fill="none" stroke="#D1D3D4" stroke-dasharray="1,2" x1="75.366" y1="54.848" x2="19.187" y2="54.848"/>
<g>
	<g>
		<polyline fill="none" stroke="#D1D3D4" points="78.219,56.848 76.719,56.848 76.719,55.348 		"/>
		<polyline fill="none" stroke="#D1D3D4" points="76.719,55.348 76.719,53.848 78.219,53.848 		"/>
		<line fill="none" stroke="#D1D3D4" stroke-dasharray="3.4277,4.5703" x1="82.79" y1="53.848" x2="96.5" y2="53.848"/>
		<polyline fill="none" stroke="#D1D3D4" points="98.786,53.848 100.286,53.848 100.286,55.348 		"/>
		<polyline fill="none" stroke="#D1D3D4" points="100.286,55.348 100.286,56.848 98.786,56.848 		"/>
		<line fill="none" stroke="#D1D3D4" stroke-dasharray="3.4277,4.5703" x1="94.215" y1="56.848" x2="80.504" y2="56.848"/>
	</g>
</g>
<g>
	<g>
		<path fill="none" stroke="#D1D3D4" d="M27.684,482.901c0.489,0.068,0.989,0.104,1.497,0.104v2c-0.508,0-1.008,0.036-1.497,0.104"
			/>
		<path fill="none" stroke="#D1D3D4" stroke-dasharray="3.0595,4.0793" d="M23.851,486.438c-3.167,1.842-5.297,5.273-5.297,9.201
			v116.469c0,4.654,2.99,8.611,7.154,10.052"/>
		<path fill="none" stroke="#D1D3D4" d="M27.684,622.636c0.489,0.068,0.989,0.104,1.497,0.104v2c-0.508,0-1.008,0.036-1.497,0.104"
			/>
		<path fill="none" stroke="#D1D3D4" stroke-dasharray="3.1087,4.1449" d="M23.794,626.205c-3.136,1.85-5.241,5.264-5.241,9.168
			v52.167"/>
		<polyline fill="none" stroke="#D1D3D4" points="18.554,689.607 18.554,691.107 20.054,691.107 		"/>
		<line fill="none" stroke="#D1D3D4" stroke-dasharray="3.1509,4.2012" x1="24.255" y1="691.107" x2="73.619" y2="691.107"/>
		<polyline fill="none" stroke="#D1D3D4" points="75.719,691.107 77.219,691.107 77.431,692.593 		"/>
		<polyline fill="none" stroke="#D1D3D4" points="78.007,696.622 78.219,698.107 79.719,698.107 		"/>
		<line fill="none" stroke="#D1D3D4" stroke-dasharray="2.7611,3.6814" x1="83.401" y1="698.107" x2="94.445" y2="698.107"/>
		<polyline fill="none" stroke="#D1D3D4" points="96.286,698.107 97.786,698.107 97.998,696.622 		"/>
		<polyline fill="none" stroke="#D1D3D4" points="98.574,692.593 98.786,691.107 100.286,691.107 		"/>
		<line fill="none" stroke="#D1D3D4" stroke-dasharray="3.1509,4.2012" x1="104.487" y1="691.107" x2="153.851" y2="691.107"/>
		<polyline fill="none" stroke="#D1D3D4" points="155.951,691.107 157.451,691.107 157.451,689.607 		"/>
		<path fill="none" stroke="#D1D3D4" stroke-dasharray="3.1087,4.1449" d="M157.451,685.463v-50.09
			c0-4.641-2.973-8.589-7.118-10.039"/>
		<path fill="none" stroke="#D1D3D4" d="M148.321,624.845c-0.489-0.068-0.989-0.104-1.497-0.104v-2c0.508,0,1.008-0.036,1.497-0.104
			"/>
		<path fill="none" stroke="#D1D3D4" stroke-dasharray="3.0595,4.0793" d="M152.154,621.309c3.167-1.842,5.297-5.273,5.297-9.201
			V495.639c0-4.654-2.99-8.611-7.154-10.052"/>
		<path fill="none" stroke="#D1D3D4" d="M148.321,485.11c-0.489-0.068-0.989-0.104-1.497-0.104v-2c0.508,0,1.008-0.036,1.497-0.104"
			/>
		<path fill="none" stroke="#D1D3D4" stroke-dasharray="2.9984,3.9978" d="M152.083,481.614c3.207-1.831,5.368-5.284,5.368-9.241
			V246.897c0-4.669-3.009-8.636-7.192-10.065"/>
		<path fill="none" stroke="#D1D3D4" d="M148.321,236.369c-0.489-0.068-0.989-0.104-1.497-0.104c0.508,0,1.008-0.036,1.497-0.104"/>
		<path fill="none" stroke="#D1D3D4" stroke-dasharray="3.0181,4.0242" d="M152.106,234.86c3.193-1.834,5.345-5.28,5.345-9.229
			V29.114c0-5.871-4.758-10.633-10.627-10.633H29.181c-5.869,0-10.627,4.762-10.627,10.633v196.518c0,4.664,3.003,8.628,7.18,10.061
			"/>
		<path fill="none" stroke="#D1D3D4" d="M27.684,236.16c0.489,0.068,0.989,0.104,1.497,0.104c-0.508,0-1.008,0.036-1.497,0.104"/>
		<path fill="none" stroke="#D1D3D4" stroke-dasharray="2.9984,3.9978" d="M23.922,237.656c-3.207,1.831-5.368,5.284-5.368,9.241
			v225.476c0,4.669,3.009,8.636,7.192,10.065"/>
	</g>
</g>
<line fill="none" stroke="#D1D3D4" stroke-dasharray="1,2" x1="31.181" y1="622.74" x2="145.824" y2="622.74"/>
<line fill="none" stroke="#D1D3D4" stroke-dasharray="1,2" x1="31.181" y1="624.74" x2="145.824" y2="624.74"/>
<path fill="#A7A9AC" d="M168.953,547.947c-0.266-0.73-1.234-0.945-2.049-0.484c-0.986,0.471-2.08,1.303-3.732,1.302l-0.695-0.001
	v-0.622c0.002-1.654,0.836-2.747,1.311-3.732c0.461-0.813,0.248-1.782-0.479-2.05c-0.691-0.313-1.686,0.23-2.162,0.98
	c-0.523,0.727-0.543,1.746,0.09,2.094c0.66,0.361,0.781,0.057,1.043,0.179c0.338,0.157-0.453,1.26-1.023,3.283l-0.016,0.06
	l-5.537,1.607c-0.762,0.272-1.598,0.813-1.934,1.787l7.068-1.934l-1.965,7.125c0.975-0.334,1.516-1.168,1.789-1.931l1.637-5.595
	l0.117-0.031c2.021-0.566,3.127-1.354,3.283-1.018c0.121,0.264-0.184,0.384,0.176,1.044c0.346,0.634,1.363,0.616,2.092,0.095
	C168.719,549.633,169.264,548.638,168.953,547.947z M163.006,544.781c-0.727,0.727-1.807,0.307-1.684-0.66
	c0.084-0.663,0.854-1.434,1.514-1.306C163.686,542.905,163.705,544.146,163.006,544.781z M167.188,549.93
	c-0.967,0.12-1.385-0.961-0.656-1.686c0.637-0.699,1.877-0.677,1.965,0.174C168.623,549.08,167.852,549.847,167.188,549.93z"/>
<g>
	<path fill-rule="evenodd" clip-rule="evenodd" fill="#B3B3B3" d="M81.722,40.273c0.449-0.707,0.9-1.413,1.349-2.122
		c0.141-0.222,0.273-0.448,0.396-0.65c0.571,0.604,1.131,1.196,1.707,1.806c-0.615,0.371-1.354,0.809-2.084,1.258
		c-0.218,0.135-0.416,0.301-0.624,0.453c-0.248,0-0.495,0-0.743,0C81.722,40.769,81.722,40.521,81.722,40.273z"/>
	<path fill-rule="evenodd" clip-rule="evenodd" fill="#B3B3B3" d="M95.283,32.602c-0.155,0.254-0.253,0.51-0.427,0.688
		c-1.542,1.564-3.093,3.118-4.65,4.664c-0.443,0.441-0.892,0.431-1.348-0.021c-1.357-1.348-2.71-2.698-4.055-4.057
		c-0.459-0.464-0.464-0.88-0.007-1.342c1.544-1.56,3.095-3.114,4.655-4.659c0.479-0.474,0.901-0.464,1.385,0.015
		c1.348,1.332,2.688,2.672,4.016,4.021C95.028,32.089,95.126,32.343,95.283,32.602z"/>
	<path fill-rule="evenodd" clip-rule="evenodd" fill="#B3B3B3" d="M84.651,35.02c1.039,1.034,2.022,2.013,3.143,3.13
		c-0.183,0.123-0.406,0.241-0.592,0.404c-0.465,0.406-0.867,0.437-1.308,0.015c-0.601-0.572-1.187-1.161-1.761-1.762
		c-0.364-0.379-0.365-0.785-0.033-1.186C84.279,35.406,84.478,35.208,84.651,35.02z"/>
</g>
</svg>
