<?xml version="1.0" encoding="utf-8"?>
<!-- Generator: Adobe Illustrator 16.0.0, SVG Export Plug-In . SVG Version: 6.00 Build 0)  -->
<!DOCTYPE svg PUBLIC "-//W3C//DTD SVG 1.1//EN" "http://www.w3.org/Graphics/SVG/1.1/DTD/svg11.dtd">
<svg version="1.1" id="Layer_1" xmlns="http://www.w3.org/2000/svg" xmlns:xlink="http://www.w3.org/1999/xlink" x="0px" y="0px"
	 width="107.501px" height="405.08px" viewBox="0 0 107.501 405.08" enable-background="new 0 0 107.501 405.08"
	 xml:space="preserve">
<pattern  width="72" height="72" patternUnits="userSpaceOnUse" id="_x36__lpi_40_x25_" viewBox="72.25 -72 72 72" overflow="visible">
	<g>
		<polygon fill="none" points="72.25,-72 144.25,-72 144.25,0 72.25,0 		"/>
		<g>
			<line fill="none" stroke="#000000" stroke-width="4.8" x1="144" y1="-6" x2="216.5" y2="-6"/>
			<line fill="none" stroke="#000000" stroke-width="4.8" x1="144" y1="-30" x2="216.5" y2="-30"/>
			<line fill="none" stroke="#000000" stroke-width="4.8" x1="144" y1="-54" x2="216.5" y2="-54"/>
			<line fill="none" stroke="#000000" stroke-width="4.8" x1="144" y1="-18" x2="216.5" y2="-18"/>
			<line fill="none" stroke="#000000" stroke-width="4.8" x1="144" y1="-42" x2="216.5" y2="-42"/>
			<line fill="none" stroke="#000000" stroke-width="4.8" x1="144" y1="-66" x2="216.5" y2="-66"/>
		</g>
		<g>
			<line fill="none" stroke="#000000" stroke-width="4.8" x1="72" y1="-6" x2="144.5" y2="-6"/>
			<line fill="none" stroke="#000000" stroke-width="4.8" x1="72" y1="-30" x2="144.5" y2="-30"/>
			<line fill="none" stroke="#000000" stroke-width="4.8" x1="72" y1="-54" x2="144.5" y2="-54"/>
			<line fill="none" stroke="#000000" stroke-width="4.8" x1="72" y1="-18" x2="144.5" y2="-18"/>
			<line fill="none" stroke="#000000" stroke-width="4.8" x1="72" y1="-42" x2="144.5" y2="-42"/>
			<line fill="none" stroke="#000000" stroke-width="4.8" x1="72" y1="-66" x2="144.5" y2="-66"/>
		</g>
		<g>
			<line fill="none" stroke="#000000" stroke-width="4.8" x1="0" y1="-6" x2="72.5" y2="-6"/>
			<line fill="none" stroke="#000000" stroke-width="4.8" x1="0" y1="-30" x2="72.5" y2="-30"/>
			<line fill="none" stroke="#000000" stroke-width="4.8" x1="0" y1="-54" x2="72.5" y2="-54"/>
			<line fill="none" stroke="#000000" stroke-width="4.8" x1="0" y1="-18" x2="72.5" y2="-18"/>
			<line fill="none" stroke="#000000" stroke-width="4.8" x1="0" y1="-42" x2="72.5" y2="-42"/>
			<line fill="none" stroke="#000000" stroke-width="4.8" x1="0" y1="-66" x2="72.5" y2="-66"/>
		</g>
	</g>
</pattern>
<g>
	<g>
		<line fill="none" stroke="#000000" x1="18.554" y1="12.5" x2="18.554" y2="0"/>
		<line fill="none" stroke="#000000" x1="89.253" y1="12.5" x2="89.253" y2="0"/>
		<g>
			
				<pattern  id="SVGID_1_" xlink:href="#_x36__lpi_40_x25_" patternTransform="matrix(0.5303 -0.5303 0.5303 0.5303 300.3086 -7909.771)">
			</pattern>
			<path opacity="0.05" fill="url(#SVGID_1_)" d="M29.181,279.512c-5.869,0-10.627,4.762-10.627,10.633v49.469
				c0,5.871,4.758,10.633,10.627,10.633h49.445c5.869,0,10.627-4.762,10.627-10.633v-49.469c0-5.871-4.758-10.633-10.627-10.633
				H29.181z"/>
			
				<pattern  id="SVGID_2_" xlink:href="#_x36__lpi_40_x25_" patternTransform="matrix(-0.5303 -0.5303 -0.5303 0.5303 -16260.4561 -7909.771)">
			</pattern>
			<path opacity="0.05" fill="url(#SVGID_2_)" d="M78.626,279.512c5.869,0,10.627,4.762,10.627,10.633v49.469
				c0,5.871-4.758,10.633-10.627,10.633H29.181c-5.869,0-10.627-4.762-10.627-10.633v-49.469c0-5.871,4.758-10.633,10.627-10.633
				H78.626z"/>
			<line fill="none" stroke="#000000" x1="18.554" y1="405.08" x2="18.554" y2="392.58"/>
			<line fill="none" stroke="#000000" x1="89.253" y1="405.08" x2="89.253" y2="392.58"/>
			<line fill="none" stroke="#000000" x1="0" y1="18.481" x2="12.5" y2="18.481"/>
			<line fill="none" stroke="#000000" x1="95.001" y1="18.481" x2="107.501" y2="18.481"/>
			<line fill="none" stroke="#000000" x1="95.001" y1="385.613" x2="107.501" y2="385.613"/>
			<line fill="none" stroke="#000000" x1="0" y1="385.613" x2="12.5" y2="385.613"/>
			<line fill="none" stroke="#000000" x1="95.001" y1="392.613" x2="107.501" y2="392.613"/>
			<line fill="none" stroke="#000000" x1="0" y1="392.613" x2="12.5" y2="392.613"/>
			
				<pattern  id="SVGID_3_" xlink:href="#_x36__lpi_40_x25_" patternTransform="matrix(0.5303 -0.5303 0.5303 0.5303 300.3086 -7943.6997)">
			</pattern>
			<path opacity="0.05" fill="url(#SVGID_3_)" d="M29.181,18.481c-5.869,0-10.627,4.762-10.627,10.633v21.65h70.699v-21.65
				c0-5.871-4.758-10.633-10.627-10.633H29.181z"/>
			
				<pattern  id="SVGID_4_" xlink:href="#_x36__lpi_40_x25_" patternTransform="matrix(-0.5303 -0.5303 -0.5303 0.5303 -16260.4561 -7943.6997)">
			</pattern>
			<path opacity="0.05" fill="url(#SVGID_4_)" d="M78.626,18.481c5.869,0,10.627,4.762,10.627,10.633v21.65H18.554v-21.65
				c0-5.871,4.758-10.633,10.627-10.633H78.626z"/>
			<line fill="none" stroke="#D1D3D4" stroke-dasharray="1,2" x1="31.181" y1="277.512" x2="77.626" y2="277.512"/>
			<line fill="none" stroke="#D1D3D4" stroke-dasharray="1,2" x1="31.181" y1="146.996" x2="77.626" y2="146.996"/>
			<line fill="none" stroke="#D1D3D4" stroke-dasharray="1,2" x1="77.626" y1="279.512" x2="31.181" y2="279.512"/>
			<line fill="none" stroke="#D1D3D4" stroke-dasharray="1,2" x1="20.554" y1="242.145" x2="41.12" y2="242.145"/>
			<line fill="none" stroke="#D1D3D4" stroke-dasharray="1,2" x1="68.054" y1="242.145" x2="88.62" y2="242.145"/>
			<g>
				<g>
					<polyline fill="none" stroke="#D1D3D4" points="64.187,240.145 65.687,240.145 65.687,241.645 					"/>
					<polyline fill="none" stroke="#D1D3D4" points="65.687,241.645 65.687,243.145 64.187,243.145 					"/>
					<line fill="none" stroke="#D1D3D4" stroke-dasharray="3.4277,4.5703" x1="59.616" y1="243.145" x2="45.905" y2="243.145"/>
					<polyline fill="none" stroke="#D1D3D4" points="43.62,243.145 42.12,243.145 42.12,241.645 					"/>
					<polyline fill="none" stroke="#D1D3D4" points="42.12,241.645 42.12,240.145 43.62,240.145 					"/>
					<line fill="none" stroke="#D1D3D4" stroke-dasharray="3.4277,4.5703" x1="48.19" y1="240.145" x2="61.901" y2="240.145"/>
				</g>
			</g>
			<line fill="none" stroke="#D1D3D4" stroke-dasharray="1,2" x1="87.253" y1="51.848" x2="66.687" y2="51.848"/>
			<line fill="none" stroke="#D1D3D4" stroke-dasharray="1,2" x1="39.753" y1="51.848" x2="19.187" y2="51.848"/>
			<g>
				<g>
					<polyline fill="none" stroke="#D1D3D4" points="43.62,53.848 42.12,53.848 42.12,52.348 					"/>
					<polyline fill="none" stroke="#D1D3D4" points="42.12,52.348 42.12,50.848 43.62,50.848 					"/>
					<line fill="none" stroke="#D1D3D4" stroke-dasharray="3.4277,4.5703" x1="48.19" y1="50.848" x2="61.901" y2="50.848"/>
					<polyline fill="none" stroke="#D1D3D4" points="64.187,50.848 65.687,50.848 65.687,52.348 					"/>
					<polyline fill="none" stroke="#D1D3D4" points="65.687,52.348 65.687,53.848 64.187,53.848 					"/>
					<line fill="none" stroke="#D1D3D4" stroke-dasharray="3.4277,4.5703" x1="59.616" y1="53.848" x2="45.905" y2="53.848"/>
				</g>
			</g>
			<g>
				<g>
					<path fill="none" stroke="#D1D3D4" d="M27.684,277.407c0.489,0.069,0.989,0.104,1.497,0.104v2
						c-0.508,0-1.008,0.035-1.497,0.104"/>
					<path fill="none" stroke="#D1D3D4" stroke-dasharray="2.9576,3.9434" d="M23.969,280.876c-3.233,1.824-5.416,5.292-5.416,9.269
						v49.469c0,4.679,3.021,8.652,7.218,10.074"/>
					<path fill="none" stroke="#D1D3D4" d="M27.684,350.142c0.489,0.069,0.989,0.104,1.497,0.104v2
						c-0.508,0-1.008,0.035-1.497,0.104"/>
					<path fill="none" stroke="#D1D3D4" stroke-dasharray="2.8021,3.7361" d="M24.149,353.512c-3.331,1.795-5.595,5.316-5.595,9.367
						v19.373"/>
					<polyline fill="none" stroke="#D1D3D4" points="18.554,384.113 18.554,385.613 20.054,385.613 					"/>
					<line fill="none" stroke="#D1D3D4" stroke-dasharray="2.588,3.4506" x1="23.504" y1="385.613" x2="39.895" y2="385.613"/>
					<polyline fill="none" stroke="#D1D3D4" points="41.62,385.613 43.12,385.613 43.332,387.098 					"/>
					<polyline fill="none" stroke="#D1D3D4" points="43.908,391.129 44.12,392.613 45.62,392.613 					"/>
					<line fill="none" stroke="#D1D3D4" stroke-dasharray="2.7611,3.6814" x1="49.302" y1="392.613" x2="60.346" y2="392.613"/>
					<polyline fill="none" stroke="#D1D3D4" points="62.187,392.613 63.687,392.613 63.898,391.129 					"/>
					<polyline fill="none" stroke="#D1D3D4" points="64.475,387.098 64.687,385.613 66.187,385.613 					"/>
					<line fill="none" stroke="#D1D3D4" stroke-dasharray="2.588,3.4506" x1="69.637" y1="385.613" x2="86.027" y2="385.613"/>
					<polyline fill="none" stroke="#D1D3D4" points="87.753,385.613 89.253,385.613 89.253,384.113 					"/>
					<path fill="none" stroke="#D1D3D4" stroke-dasharray="2.8021,3.7361" d="M89.253,380.377v-17.498
						c0-4.713-3.066-8.711-7.312-10.105"/>
					<path fill="none" stroke="#D1D3D4" d="M80.123,352.351c-0.489-0.069-0.989-0.104-1.497-0.104v-2
						c0.508,0,1.008-0.035,1.497-0.104"/>
					<path fill="none" stroke="#D1D3D4" stroke-dasharray="2.9576,3.9434" d="M83.838,348.881c3.232-1.823,5.415-5.291,5.415-9.268
						v-49.469c0-4.679-3.021-8.652-7.219-10.074"/>
					<path fill="none" stroke="#D1D3D4" d="M80.123,279.616c-0.489-0.069-0.989-0.104-1.497-0.104v-2
						c0.508,0,1.008-0.035,1.497-0.104"/>
					<path fill="none" stroke="#D1D3D4" stroke-dasharray="3.0574,4.0765" d="M83.953,276.081c3.169-1.841,5.3-5.272,5.3-9.202
						V157.645c0-4.654-2.991-8.612-7.155-10.053"/>
					<path fill="none" stroke="#D1D3D4" d="M80.123,147.116c-0.489-0.069-0.989-0.104-1.497-0.104c0.508,0,1.008-0.035,1.497-0.104"
						/>
					<path fill="none" stroke="#D1D3D4" stroke-dasharray="3.0161,4.0214" d="M83.905,145.608c3.195-1.833,5.348-5.281,5.348-9.229
						V29.114c0-5.871-4.758-10.633-10.627-10.633H29.181c-5.869,0-10.627,4.762-10.627,10.633v107.265
						c0,4.665,3.003,8.629,7.181,10.062"/>
					<path fill="none" stroke="#D1D3D4" d="M27.684,146.907c0.489,0.069,0.989,0.104,1.497,0.104c-0.508,0-1.008,0.035-1.497,0.104"
						/>
					<path fill="none" stroke="#D1D3D4" stroke-dasharray="3.0574,4.0765" d="M23.854,148.442c-3.169,1.841-5.3,5.272-5.3,9.202
						v109.234c0,4.654,2.991,8.612,7.155,10.053"/>
				</g>
			</g>
			<line fill="none" stroke="#D1D3D4" stroke-dasharray="1,2" x1="31.181" y1="350.246" x2="77.626" y2="350.246"/>
			<line fill="none" stroke="#D1D3D4" stroke-dasharray="1,2" x1="31.181" y1="352.246" x2="77.626" y2="352.246"/>
			<path fill="#A7A9AC" d="M100.755,309.453c-0.266-0.73-1.234-0.945-2.049-0.484c-0.986,0.471-2.08,1.303-3.732,1.302l-0.695-0.001
				v-0.622c0.002-1.654,0.836-2.747,1.311-3.732c0.461-0.813,0.248-1.782-0.479-2.05c-0.691-0.313-1.686,0.23-2.162,0.98
				c-0.523,0.727-0.543,1.746,0.09,2.094c0.66,0.361,0.781,0.057,1.043,0.179c0.338,0.157-0.453,1.26-1.023,3.283l-0.016,0.06
				l-5.537,1.607c-0.762,0.272-1.598,0.813-1.934,1.787l7.068-1.934l-1.965,7.125c0.975-0.334,1.516-1.168,1.789-1.931l1.637-5.595
				l0.117-0.031c2.021-0.566,3.127-1.354,3.283-1.018c0.121,0.264-0.184,0.384,0.176,1.044c0.346,0.634,1.363,0.616,2.092,0.095
				C100.521,311.139,101.065,310.144,100.755,309.453z M94.808,306.287c-0.727,0.727-1.807,0.307-1.684-0.66
				c0.084-0.663,0.854-1.434,1.514-1.306C95.487,304.411,95.507,305.651,94.808,306.287z M98.989,311.436
				c-0.967,0.12-1.385-0.961-0.656-1.686c0.637-0.699,1.877-0.677,1.965,0.174C100.425,310.586,99.653,311.353,98.989,311.436z"/>
		</g>
	</g>
	<g>
		<path fill-rule="evenodd" clip-rule="evenodd" fill="#B3B3B3" d="M49.002,40.273c0.449-0.707,0.9-1.413,1.349-2.122
			c0.141-0.222,0.273-0.448,0.396-0.65c0.571,0.604,1.131,1.196,1.707,1.806c-0.615,0.371-1.354,0.809-2.084,1.258
			c-0.218,0.135-0.416,0.301-0.624,0.453c-0.248,0-0.495,0-0.743,0C49.002,40.769,49.002,40.521,49.002,40.273z"/>
		<path fill-rule="evenodd" clip-rule="evenodd" fill="#B3B3B3" d="M62.563,32.602c-0.155,0.254-0.253,0.51-0.427,0.688
			c-1.542,1.564-3.093,3.118-4.65,4.664c-0.443,0.441-0.892,0.431-1.348-0.021c-1.357-1.348-2.71-2.698-4.055-4.057
			c-0.459-0.464-0.464-0.88-0.007-1.342c1.544-1.56,3.095-3.114,4.655-4.659c0.479-0.474,0.901-0.464,1.385,0.015
			c1.348,1.332,2.688,2.672,4.016,4.021C62.309,32.089,62.406,32.343,62.563,32.602z"/>
		<path fill-rule="evenodd" clip-rule="evenodd" fill="#B3B3B3" d="M51.932,35.02c1.039,1.034,2.022,2.013,3.143,3.13
			c-0.183,0.123-0.406,0.241-0.592,0.404c-0.465,0.406-0.867,0.437-1.308,0.015c-0.601-0.572-1.187-1.161-1.761-1.762
			c-0.364-0.379-0.365-0.785-0.033-1.186C51.56,35.406,51.758,35.208,51.932,35.02z"/>
	</g>
</g>
</svg>
