<?xml version="1.0" encoding="utf-8"?>
<!-- Generator: Adobe Illustrator 16.0.0, SVG Export Plug-In . SVG Version: 6.00 Build 0)  -->
<!DOCTYPE svg PUBLIC "-//W3C//DTD SVG 1.1//EN" "http://www.w3.org/Graphics/SVG/1.1/DTD/svg11.dtd">
<svg version="1.1" id="Layer_1" xmlns="http://www.w3.org/2000/svg" xmlns:xlink="http://www.w3.org/1999/xlink" x="0px" y="0px"
	 width="158.976px" height="673.018px" viewBox="0 0 158.976 673.018" enable-background="new 0 0 158.976 673.018"
	 xml:space="preserve">
<line fill="none" stroke="#000000" x1="18.25" y1="40.132" x2="18.25" y2="27.632"/>
<line fill="none" stroke="#000000" x1="18.25" y1="673.018" x2="18.25" y2="660.518"/>
<line fill="none" stroke="#000000" x1="0" y1="652.881" x2="12.5" y2="652.881"/>
<line fill="none" stroke="#000000" x1="139.493" y1="40.132" x2="139.493" y2="27.632"/>
<line fill="none" stroke="#000000" x1="139.493" y1="673.018" x2="139.493" y2="660.518"/>
<line fill="none" stroke="#000000" x1="0" y1="302.338" x2="12.5" y2="302.338"/>
<line fill="none" stroke="#000000" x1="146.476" y1="302.338" x2="158.976" y2="302.338"/>
<line fill="none" stroke="#000000" x1="146.476" y1="652.883" x2="158.976" y2="652.883"/>
<line fill="none" stroke="#000000" x1="0" y1="298.338" x2="12.5" y2="298.338"/>
<line fill="none" stroke="#000000" x1="146.476" y1="298.338" x2="158.976" y2="298.338"/>
<line fill="none" stroke="#BCBEC0" stroke-dasharray="1,2" x1="33.275" y1="302.338" x2="126.71" y2="302.338"/>
<line fill="none" stroke="#BCBEC0" stroke-dasharray="1,2" x1="33.275" y1="298.338" x2="126.71" y2="298.338"/>
<g>
	<g>
		<path fill="none" stroke="#D1D3D4" d="M127.493,299.838v-1.5c0.507,0,1.007-0.031,1.498-0.093"/>
		<path fill="none" stroke="#D1D3D4" stroke-dasharray="3.035,4.0467" d="M132.85,297.079c3.938-1.969,6.644-6.039,6.644-10.741
			V54.829c0-2.847-0.993-5.46-2.65-7.517"/>
		<path fill="none" stroke="#D1D3D4" d="M135.454,45.855c-0.374-0.332-0.768-0.64-1.181-0.924h0.197l-1.299-0.75"/>
		<line fill="none" stroke="#D1D3D4" stroke-dasharray="3.0887,4.1183" x1="129.604" y1="42.123" x2="81.454" y2="14.328"/>
		<polyline fill="none" stroke="#D1D3D4" points="79.67,13.298 78.371,12.548 77.079,13.311 		"/>
		<line fill="none" stroke="#D1D3D4" stroke-dasharray="3.037,4.0494" x1="73.591" y1="15.368" x2="26.505" y2="43.141"/>
		<path fill="none" stroke="#D1D3D4" d="M24.761,44.169l-1.292,0.762h0.001c-0.413,0.284-0.808,0.592-1.181,0.924"/>
		<path fill="none" stroke="#D1D3D4" stroke-dasharray="3.035,4.0467" d="M19.763,48.995c-0.964,1.727-1.513,3.716-1.513,5.834
			v231.509c0,5.418,3.591,9.998,8.524,11.488"/>
		<path fill="none" stroke="#D1D3D4" d="M28.752,298.245c0.491,0.062,0.991,0.093,1.498,0.093v1.5"/>
		<path fill="none" stroke="#D1D3D4" d="M30.25,300.828v1.5c-0.507,0-1.007,0.031-1.498,0.093"/>
		<path fill="none" stroke="#D1D3D4" stroke-dasharray="2.999,3.9987" d="M24.935,303.566c-3.961,1.96-6.685,6.043-6.685,10.762
			v326.555c0,6.627,5.373,12,12,12h97.243c6.627,0,12-5.373,12-12V314.328c0-5.43-3.607-10.018-8.555-11.498"/>
		<path fill="none" stroke="#D1D3D4" d="M128.991,302.421c-0.491-0.062-0.991-0.093-1.498-0.093v-1.5"/>
	</g>
</g>
<line fill="none" stroke="#000000" x1="56.871" y1="0" x2="67.696" y2="6.25"/>
<line fill="none" stroke="#000000" x1="146.476" y1="51.814" x2="157.302" y2="58.064"/>
<line fill="none" stroke="#000000" x1="89.077" y1="6.25" x2="99.903" y2="0"/>
<polygon fill="#808285" points="89.202,25.155 78.377,18.905 78.372,18.914 78.367,18.905 67.541,25.155 69.041,27.753 
	78.372,22.366 87.702,27.753 "/>
<line fill="none" stroke="#000000" x1="1.674" y1="57.268" x2="12.5" y2="51.018"/>
</svg>
