<?xml version="1.0" encoding="utf-8"?>
<!-- Generator: Adobe Illustrator 16.0.0, SVG Export Plug-In . SVG Version: 6.00 Build 0)  -->
<!DOCTYPE svg PUBLIC "-//W3C//DTD SVG 1.1//EN" "http://www.w3.org/Graphics/SVG/1.1/DTD/svg11.dtd">
<svg version="1.1" id="Layer_1" xmlns="http://www.w3.org/2000/svg" xmlns:xlink="http://www.w3.org/1999/xlink" x="0px" y="0px"
	 width="181.334px" height="90.333px" viewBox="0 0 181.334 90.333" enable-background="new 0 0 181.334 90.333"
	 xml:space="preserve">
<pattern  width="72" height="72" patternUnits="userSpaceOnUse" id="_x36__lpi_40_x25_" viewBox="72.25 -72 72 72" overflow="visible">
	<g>
		<polygon fill="none" points="72.25,-72 144.25,-72 144.25,0 72.25,0 		"/>
		<g>
			<line fill="none" stroke="#000000" stroke-width="4.8" x1="144" y1="-6" x2="216.5" y2="-6"/>
			<line fill="none" stroke="#000000" stroke-width="4.8" x1="144" y1="-30" x2="216.5" y2="-30"/>
			<line fill="none" stroke="#000000" stroke-width="4.8" x1="144" y1="-54" x2="216.5" y2="-54"/>
			<line fill="none" stroke="#000000" stroke-width="4.8" x1="144" y1="-18" x2="216.5" y2="-18"/>
			<line fill="none" stroke="#000000" stroke-width="4.8" x1="144" y1="-42" x2="216.5" y2="-42"/>
			<line fill="none" stroke="#000000" stroke-width="4.8" x1="144" y1="-66" x2="216.5" y2="-66"/>
		</g>
		<g>
			<line fill="none" stroke="#000000" stroke-width="4.8" x1="72" y1="-6" x2="144.5" y2="-6"/>
			<line fill="none" stroke="#000000" stroke-width="4.8" x1="72" y1="-30" x2="144.5" y2="-30"/>
			<line fill="none" stroke="#000000" stroke-width="4.8" x1="72" y1="-54" x2="144.5" y2="-54"/>
			<line fill="none" stroke="#000000" stroke-width="4.8" x1="72" y1="-18" x2="144.5" y2="-18"/>
			<line fill="none" stroke="#000000" stroke-width="4.8" x1="72" y1="-42" x2="144.5" y2="-42"/>
			<line fill="none" stroke="#000000" stroke-width="4.8" x1="72" y1="-66" x2="144.5" y2="-66"/>
		</g>
		<g>
			<line fill="none" stroke="#000000" stroke-width="4.8" x1="0" y1="-6" x2="72.5" y2="-6"/>
			<line fill="none" stroke="#000000" stroke-width="4.8" x1="0" y1="-30" x2="72.5" y2="-30"/>
			<line fill="none" stroke="#000000" stroke-width="4.8" x1="0" y1="-54" x2="72.5" y2="-54"/>
			<line fill="none" stroke="#000000" stroke-width="4.8" x1="0" y1="-18" x2="72.5" y2="-18"/>
			<line fill="none" stroke="#000000" stroke-width="4.8" x1="0" y1="-42" x2="72.5" y2="-42"/>
			<line fill="none" stroke="#000000" stroke-width="4.8" x1="0" y1="-66" x2="72.5" y2="-66"/>
		</g>
	</g>
</pattern>
<g>
	<g>
		
			<pattern  id="SVGID_1_" xlink:href="#_x36__lpi_40_x25_" patternTransform="matrix(0.3875 -0.3875 0.3875 0.3875 -1801.3228 -8010.9131)">
		</pattern>
		<rect x="52.64" y="51.342" opacity="0.05" fill="url(#SVGID_1_)" width="18.119" height="15.028"/>
		
			<pattern  id="SVGID_2_" xlink:href="#_x36__lpi_40_x25_" patternTransform="matrix(-0.3875 -0.3875 -0.3875 0.3875 -14182.6445 -8010.9131)">
		</pattern>
		<rect x="52.64" y="51.342" opacity="0.05" fill="url(#SVGID_2_)" width="18.119" height="15.028"/>
	</g>
	<line fill="none" stroke="#6D6E71" stroke-dasharray="1,2" x1="15.865" y1="53.656" x2="35.833" y2="42.156"/>
	<text transform="matrix(1 0 0 1 1 8.5552)" fill="#6D6E71" font-family="Merriweather-Black" font-size="9">1.</text>
	<text transform="matrix(1 0 0 1 1 48.0552)" fill="#6D6E71" font-family="Merriweather-Black" font-size="9">2.</text>
	<text transform="matrix(1 0 0 1 40.5 8.5552)"><tspan x="0" y="0" fill="#6D6E71" font-family="Roboto-Condensed" font-size="7">Cut out carefully with a sharp knife or scissors,</tspan><tspan x="0" y="13.4" fill="#6D6E71" font-family="Roboto-Condensed" font-size="7">using the      marks as guides</tspan></text>
	<text transform="matrix(1 0 0 1 40.5 48.0552)"><tspan x="0" y="0" fill="#6D6E71" font-family="Roboto-Condensed" font-size="7">Fold along the dotted lines, making sure</tspan><tspan x="0" y="13.4" fill="#6D6E71" font-family="Roboto-Condensed" font-size="7">the                hatched areas are hidden or face down</tspan></text>
	<text transform="matrix(1 0 0 1 1 85.5552)" fill="#6D6E71" font-family="Merriweather-Black" font-size="9">3.</text>
	<text transform="matrix(1 0 0 1 40.5 85.5552)" fill="#6D6E71" font-family="Roboto-Condensed" font-size="7">Optionally, fix it with glue</text>
	<path fill="#6D6E71" d="M32.046,6.859c-0.266-0.73-1.234-0.945-2.049-0.484c-0.985,0.471-2.079,1.303-3.732,1.302L25.57,7.675
		l0.001-0.622c0.002-1.654,0.835-2.747,1.31-3.732c0.462-0.813,0.249-1.782-0.479-2.05c-0.691-0.313-1.686,0.23-2.161,0.98
		c-0.523,0.727-0.543,1.746,0.09,2.094c0.659,0.361,0.78,0.057,1.043,0.179c0.337,0.157-0.454,1.26-1.024,3.283l-0.016,0.06
		l-5.537,1.607c-0.762,0.272-1.598,0.813-1.934,1.787l7.068-1.934l-1.965,7.125c0.975-0.334,1.516-1.168,1.789-1.931l1.637-5.595
		l0.117-0.031c2.021-0.566,3.128-1.354,3.283-1.018c0.122,0.264-0.183,0.384,0.176,1.044c0.347,0.634,1.364,0.616,2.093,0.095
		C31.813,8.544,32.358,7.549,32.046,6.859z M26.099,3.693C25.373,4.419,24.292,4,24.416,3.033C24.5,2.37,25.269,1.599,25.93,1.727
		C26.78,1.817,26.799,3.057,26.099,3.693z M30.282,8.841c-0.968,0.12-1.385-0.961-0.657-1.686c0.638-0.699,1.878-0.677,1.965,0.174
		C31.717,7.992,30.945,8.758,30.282,8.841z"/>
	<g>
		<path fill-rule="evenodd" clip-rule="evenodd" fill="#4D4D4D" d="M18.836,87.803c0.449-0.707,0.9-1.413,1.349-2.122
			c0.141-0.222,0.273-0.448,0.396-0.65c0.571,0.604,1.131,1.196,1.707,1.806c-0.615,0.371-1.354,0.809-2.084,1.258
			c-0.218,0.135-0.416,0.301-0.624,0.453c-0.248,0-0.495,0-0.743,0C18.836,88.299,18.836,88.051,18.836,87.803z"/>
		<path fill-rule="evenodd" clip-rule="evenodd" fill="#4D4D4D" d="M32.398,80.132c-0.155,0.254-0.253,0.51-0.427,0.688
			c-1.542,1.564-3.093,3.118-4.65,4.664c-0.443,0.441-0.892,0.431-1.348-0.021c-1.357-1.348-2.71-2.698-4.055-4.057
			c-0.459-0.464-0.464-0.88-0.007-1.342c1.544-1.56,3.095-3.114,4.655-4.659c0.479-0.474,0.901-0.464,1.385,0.015
			c1.348,1.332,2.688,2.672,4.016,4.021C32.143,79.62,32.241,79.874,32.398,80.132z"/>
		<path fill-rule="evenodd" clip-rule="evenodd" fill="#4D4D4D" d="M21.766,82.55c1.039,1.034,2.022,2.013,3.143,3.13
			c-0.183,0.123-0.406,0.241-0.592,0.404c-0.465,0.406-0.867,0.437-1.308,0.015c-0.601-0.572-1.187-1.161-1.761-1.762
			c-0.364-0.379-0.365-0.785-0.033-1.186C21.394,82.936,21.592,82.739,21.766,82.55z"/>
	</g>
	<line fill="none" stroke="#000000" x1="70.69" y1="25.33" x2="70.69" y2="12.83"/>
</g>
</svg>
