<?xml version="1.0" encoding="utf-8"?>
<!-- Generator: Adobe Illustrator 16.0.0, SVG Export Plug-In . SVG Version: 6.00 Build 0)  -->
<!DOCTYPE svg PUBLIC "-//W3C//DTD SVG 1.1//EN" "http://www.w3.org/Graphics/SVG/1.1/DTD/svg11.dtd">
<svg version="1.1" id="Layer_1" xmlns="http://www.w3.org/2000/svg" xmlns:xlink="http://www.w3.org/1999/xlink" x="0px" y="0px"
	 width="187.976px" height="531.973px" viewBox="0 0 187.976 531.973" enable-background="new 0 0 187.976 531.973"
	 xml:space="preserve">
<line fill="none" stroke="#000000" x1="18.25" y1="48.132" x2="18.25" y2="35.632"/>
<line fill="none" stroke="#000000" x1="18.25" y1="531.973" x2="18.25" y2="519.473"/>
<line fill="none" stroke="#000000" x1="0" y1="511.836" x2="12.5" y2="511.836"/>
<line fill="none" stroke="#000000" x1="168.493" y1="48.132" x2="168.493" y2="35.632"/>
<line fill="none" stroke="#000000" x1="168.493" y1="531.973" x2="168.493" y2="519.473"/>
<line fill="none" stroke="#000000" x1="0" y1="310.338" x2="12.5" y2="310.338"/>
<line fill="none" stroke="#000000" x1="175.476" y1="310.338" x2="187.976" y2="310.338"/>
<line fill="none" stroke="#000000" x1="175.476" y1="511.838" x2="187.976" y2="511.838"/>
<line fill="none" stroke="#000000" x1="0" y1="306.338" x2="12.5" y2="306.338"/>
<line fill="none" stroke="#000000" x1="175.476" y1="306.338" x2="187.976" y2="306.338"/>
<line fill="none" stroke="#BCBEC0" stroke-dasharray="1,2" x1="33.275" y1="310.338" x2="155.71" y2="310.338"/>
<line fill="none" stroke="#BCBEC0" stroke-dasharray="1,2" x1="33.275" y1="306.338" x2="155.71" y2="306.338"/>
<g>
	<g>
		<path fill="none" stroke="#D1D3D4" d="M156.493,307.838v-1.5c0.507,0,1.007-0.031,1.498-0.093"/>
		<path fill="none" stroke="#D1D3D4" stroke-dasharray="3.035,4.0467" d="M161.85,305.079c3.938-1.969,6.644-6.039,6.644-10.741
			V62.829c0-2.847-0.993-5.46-2.649-7.517"/>
		<path fill="none" stroke="#D1D3D4" d="M164.453,53.855c-0.373-0.332-0.768-0.64-1.181-0.924h0.197l-1.3-0.749"/>
		<line fill="none" stroke="#D1D3D4" stroke-dasharray="2.8851,3.8468" x1="158.837" y1="50.262" x2="96.337" y2="14.257"/>
		<polyline fill="none" stroke="#D1D3D4" points="94.671,13.297 93.371,12.548 92.072,13.299 		"/>
		<line fill="none" stroke="#D1D3D4" stroke-dasharray="2.8788,3.8385" x1="88.749" y1="15.219" x2="26.429" y2="51.221"/>
		<path fill="none" stroke="#D1D3D4" d="M24.768,52.181l-1.299,0.75h0.001c-0.413,0.284-0.808,0.592-1.181,0.924"/>
		<path fill="none" stroke="#D1D3D4" stroke-dasharray="3.035,4.0467" d="M19.763,56.995c-0.964,1.727-1.513,3.716-1.513,5.834
			v231.509c0,5.418,3.591,9.998,8.524,11.488"/>
		<path fill="none" stroke="#D1D3D4" d="M28.752,306.245c0.491,0.062,0.991,0.093,1.498,0.093v1.5"/>
		<path fill="none" stroke="#D1D3D4" d="M30.25,308.828v1.5c-0.507,0-1.007,0.031-1.498,0.093"/>
		<path fill="none" stroke="#D1D3D4" stroke-dasharray="2.9819,3.9759" d="M24.956,311.557c-3.972,1.956-6.706,6.045-6.706,10.771
			v177.51c0,6.627,5.373,12,12,12h126.243c6.627,0,12-5.373,12-12v-177.51c0-5.434-3.612-10.024-8.565-11.501"/>
		<path fill="none" stroke="#D1D3D4" d="M157.991,310.421c-0.491-0.062-0.991-0.093-1.498-0.093v-1.5"/>
	</g>
</g>
<line fill="none" stroke="#000000" x1="71.871" y1="0" x2="82.696" y2="6.25"/>
<line fill="none" stroke="#000000" x1="175.476" y1="59.814" x2="186.302" y2="66.064"/>
<line fill="none" stroke="#000000" x1="104.077" y1="6.25" x2="114.903" y2="0"/>
<polygon fill="#808285" points="104.202,25.155 93.377,18.905 93.372,18.914 93.367,18.905 82.541,25.155 84.041,27.753 
	93.372,22.366 102.702,27.753 "/>
<line fill="none" stroke="#000000" x1="1.674" y1="65.268" x2="12.5" y2="59.018"/>
</svg>
