<?xml version="1.0" encoding="utf-8"?>
<!-- Generator: Adobe Illustrator 16.0.0, SVG Export Plug-In . SVG Version: 6.00 Build 0)  -->
<!DOCTYPE svg PUBLIC "-//W3C//DTD SVG 1.1//EN" "http://www.w3.org/Graphics/SVG/1.1/DTD/svg11.dtd">
<svg version="1.1" id="Layer_1" xmlns="http://www.w3.org/2000/svg" xmlns:xlink="http://www.w3.org/1999/xlink" x="0px" y="0px"
	 width="113.501px" height="385.522px" viewBox="0 0 113.501 385.522" enable-background="new 0 0 113.501 385.522"
	 xml:space="preserve">
<pattern  x="3" y="-1" width="72" height="72" patternUnits="userSpaceOnUse" id="_x36__lpi_40_x25_" viewBox="72.25 -72 72 72" overflow="visible">
	<g>
		<polygon fill="none" points="72.25,-72 144.25,-72 144.25,0 72.25,0 		"/>
		<g>
			<line fill="none" stroke="#000000" stroke-width="4.8" x1="144" y1="-6" x2="216.5" y2="-6"/>
			<line fill="none" stroke="#000000" stroke-width="4.8" x1="144" y1="-30" x2="216.5" y2="-30"/>
			<line fill="none" stroke="#000000" stroke-width="4.8" x1="144" y1="-54" x2="216.5" y2="-54"/>
			<line fill="none" stroke="#000000" stroke-width="4.8" x1="144" y1="-18" x2="216.5" y2="-18"/>
			<line fill="none" stroke="#000000" stroke-width="4.8" x1="144" y1="-42" x2="216.5" y2="-42"/>
			<line fill="none" stroke="#000000" stroke-width="4.8" x1="144" y1="-66" x2="216.5" y2="-66"/>
		</g>
		<g>
			<line fill="none" stroke="#000000" stroke-width="4.8" x1="72" y1="-6" x2="144.5" y2="-6"/>
			<line fill="none" stroke="#000000" stroke-width="4.8" x1="72" y1="-30" x2="144.5" y2="-30"/>
			<line fill="none" stroke="#000000" stroke-width="4.8" x1="72" y1="-54" x2="144.5" y2="-54"/>
			<line fill="none" stroke="#000000" stroke-width="4.8" x1="72" y1="-18" x2="144.5" y2="-18"/>
			<line fill="none" stroke="#000000" stroke-width="4.8" x1="72" y1="-42" x2="144.5" y2="-42"/>
			<line fill="none" stroke="#000000" stroke-width="4.8" x1="72" y1="-66" x2="144.5" y2="-66"/>
		</g>
		<g>
			<line fill="none" stroke="#000000" stroke-width="4.8" x1="0" y1="-6" x2="72.5" y2="-6"/>
			<line fill="none" stroke="#000000" stroke-width="4.8" x1="0" y1="-30" x2="72.5" y2="-30"/>
			<line fill="none" stroke="#000000" stroke-width="4.8" x1="0" y1="-54" x2="72.5" y2="-54"/>
			<line fill="none" stroke="#000000" stroke-width="4.8" x1="0" y1="-18" x2="72.5" y2="-18"/>
			<line fill="none" stroke="#000000" stroke-width="4.8" x1="0" y1="-42" x2="72.5" y2="-42"/>
			<line fill="none" stroke="#000000" stroke-width="4.8" x1="0" y1="-66" x2="72.5" y2="-66"/>
		</g>
	</g>
</pattern>
<line fill="none" stroke="#000000" x1="18.554" y1="12.5" x2="18.554" y2="0"/>
<line fill="none" stroke="#000000" x1="95.253" y1="12.5" x2="95.253" y2="0"/>
<pattern  id="SVGID_1_" xlink:href="#_x36__lpi_40_x25_" patternTransform="matrix(0.5303 -0.5303 0.5303 0.5303 308.7412 -7920.0771)">
</pattern>
<path opacity="0.05" fill="url(#SVGID_1_)" d="M29.181,250.954c-5.869,0-10.627,4.762-10.627,10.633v55.469
	c0,5.871,4.758,10.633,10.627,10.633h55.445c5.869,0,10.627-4.762,10.627-10.633v-55.469c0-5.871-4.758-10.633-10.627-10.633H29.181
	z"/>
<pattern  id="SVGID_2_" xlink:href="#_x36__lpi_40_x25_" patternTransform="matrix(-0.5303 -0.5303 -0.5303 0.5303 -16274.8887 -7920.0771)">
</pattern>
<path opacity="0.05" fill="url(#SVGID_2_)" d="M84.626,250.954c5.869,0,10.627,4.762,10.627,10.633v55.469
	c0,5.871-4.758,10.633-10.627,10.633H29.181c-5.869,0-10.627-4.762-10.627-10.633v-55.469c0-5.871,4.758-10.633,10.627-10.633
	H84.626z"/>
<line fill="none" stroke="#000000" x1="18.554" y1="385.522" x2="18.554" y2="373.022"/>
<line fill="none" stroke="#000000" x1="95.253" y1="385.522" x2="95.253" y2="373.022"/>
<line fill="none" stroke="#000000" x1="0" y1="18.481" x2="12.5" y2="18.481"/>
<line fill="none" stroke="#000000" x1="101.001" y1="18.481" x2="113.501" y2="18.481"/>
<line fill="none" stroke="#000000" x1="101.001" y1="366.056" x2="113.501" y2="366.056"/>
<line fill="none" stroke="#000000" x1="0" y1="366.056" x2="12.5" y2="366.056"/>
<line fill="none" stroke="#000000" x1="101.001" y1="373.056" x2="113.501" y2="373.056"/>
<line fill="none" stroke="#000000" x1="0" y1="373.056" x2="12.5" y2="373.056"/>
<pattern  id="SVGID_3_" xlink:href="#_x36__lpi_40_x25_" patternTransform="matrix(0.5303 -0.5303 0.5303 0.5303 308.7412 -7954.0063)">
</pattern>
<path opacity="0.05" fill="url(#SVGID_3_)" d="M29.181,18.481c-5.869,0-10.627,4.762-10.627,10.633v24.65h76.699v-24.65
	c0-5.871-4.758-10.633-10.627-10.633H29.181z"/>
<pattern  id="SVGID_4_" xlink:href="#_x36__lpi_40_x25_" patternTransform="matrix(-0.5303 -0.5303 -0.5303 0.5303 -16274.8887 -7954.0063)">
</pattern>
<path opacity="0.05" fill="url(#SVGID_4_)" d="M84.626,18.481c5.869,0,10.627,4.762,10.627,10.633v24.65H18.554v-24.65
	c0-5.871,4.758-10.633,10.627-10.633H84.626z"/>
<line fill="none" stroke="#D1D3D4" stroke-dasharray="1,2" x1="31.181" y1="248.954" x2="83.626" y2="248.954"/>
<line fill="none" stroke="#D1D3D4" stroke-dasharray="1,2" x1="39.767" y1="134.202" x2="75.04" y2="134.202"/>
<line fill="none" stroke="#D1D3D4" stroke-dasharray="1,2" x1="83.626" y1="250.954" x2="31.181" y2="250.954"/>
<line fill="none" stroke="#D1D3D4" stroke-dasharray="1,2" x1="28.525" y1="213.587" x2="44.12" y2="213.587"/>
<line fill="none" stroke="#D1D3D4" stroke-dasharray="1,2" x1="71.054" y1="213.587" x2="85.18" y2="213.587"/>
<g>
	<g>
		<polyline fill="none" stroke="#D1D3D4" points="67.187,211.587 68.687,211.587 68.687,213.087 		"/>
		<polyline fill="none" stroke="#D1D3D4" points="68.687,213.087 68.687,214.587 67.187,214.587 		"/>
		<line fill="none" stroke="#D1D3D4" stroke-dasharray="3.4277,4.5703" x1="62.616" y1="214.587" x2="48.905" y2="214.587"/>
		<polyline fill="none" stroke="#D1D3D4" points="46.62,214.587 45.12,214.587 45.12,213.087 		"/>
		<polyline fill="none" stroke="#D1D3D4" points="45.12,213.087 45.12,211.587 46.62,211.587 		"/>
		<line fill="none" stroke="#D1D3D4" stroke-dasharray="3.4277,4.5703" x1="51.19" y1="211.587" x2="64.901" y2="211.587"/>
	</g>
</g>
<line fill="none" stroke="#D1D3D4" stroke-dasharray="1,2" x1="85.26" y1="54.848" x2="69.687" y2="54.848"/>
<line fill="none" stroke="#D1D3D4" stroke-dasharray="1,2" x1="42.753" y1="54.848" x2="28.525" y2="54.848"/>
<g>
	<g>
		<polyline fill="none" stroke="#D1D3D4" points="46.62,56.848 45.12,56.848 45.12,55.348 		"/>
		<polyline fill="none" stroke="#D1D3D4" points="45.12,55.348 45.12,53.848 46.62,53.848 		"/>
		<line fill="none" stroke="#D1D3D4" stroke-dasharray="3.4277,4.5703" x1="51.19" y1="53.848" x2="64.901" y2="53.848"/>
		<polyline fill="none" stroke="#D1D3D4" points="67.187,53.848 68.687,53.848 68.687,55.348 		"/>
		<polyline fill="none" stroke="#D1D3D4" points="68.687,55.348 68.687,56.848 67.187,56.848 		"/>
		<line fill="none" stroke="#D1D3D4" stroke-dasharray="3.4277,4.5703" x1="62.616" y1="56.848" x2="48.905" y2="56.848"/>
	</g>
</g>
<g>
	<g>
		<path fill="none" stroke="#D1D3D4" d="M27.684,248.85c0.489,0.068,0.989,0.104,1.497,0.104v2c-0.508,0-1.008,0.036-1.497,0.104"/>
		<path fill="none" stroke="#D1D3D4" stroke-dasharray="2.9268,3.9025" d="M24.005,252.299c-3.252,1.818-5.451,5.297-5.451,9.288
			v55.469c0,4.686,3.03,8.665,7.238,10.08"/>
		<path fill="none" stroke="#D1D3D4" d="M27.684,327.584c0.489,0.068,0.989,0.104,1.497,0.104v2c-0.508,0-1.008,0.036-1.497,0.104"
			/>
		<path fill="none" stroke="#D1D3D4" stroke-dasharray="3.0329,4.0438" d="M23.882,331.103c-3.185,1.837-5.328,5.278-5.328,9.219
			v22.218"/>
		<polyline fill="none" stroke="#D1D3D4" points="18.554,364.556 18.554,366.056 20.054,366.056 		"/>
		<line fill="none" stroke="#D1D3D4" stroke-dasharray="2.948,3.9306" x1="23.984" y1="366.056" x2="42.655" y2="366.056"/>
		<polyline fill="none" stroke="#D1D3D4" points="44.62,366.056 46.12,366.056 46.332,367.541 		"/>
		<polyline fill="none" stroke="#D1D3D4" points="46.908,371.57 47.12,373.056 48.62,373.056 		"/>
		<line fill="none" stroke="#D1D3D4" stroke-dasharray="2.7611,3.6814" x1="52.302" y1="373.056" x2="63.346" y2="373.056"/>
		<polyline fill="none" stroke="#D1D3D4" points="65.187,373.056 66.687,373.056 66.898,371.57 		"/>
		<polyline fill="none" stroke="#D1D3D4" points="67.475,367.541 67.687,366.056 69.187,366.056 		"/>
		<line fill="none" stroke="#D1D3D4" stroke-dasharray="2.948,3.9306" x1="73.117" y1="366.056" x2="91.788" y2="366.056"/>
		<polyline fill="none" stroke="#D1D3D4" points="93.753,366.056 95.253,366.056 95.253,364.556 		"/>
		<path fill="none" stroke="#D1D3D4" stroke-dasharray="3.0329,4.0438" d="M95.253,360.512v-20.19c0-4.659-2.996-8.619-7.166-10.056
			"/>
		<path fill="none" stroke="#D1D3D4" d="M86.123,329.793c-0.489-0.068-0.989-0.104-1.497-0.104v-2c0.508,0,1.008-0.036,1.497-0.104"
			/>
		<path fill="none" stroke="#D1D3D4" stroke-dasharray="2.9268,3.9025" d="M89.802,326.344c3.252-1.818,5.451-5.297,5.451-9.288
			v-55.469c0-4.686-3.03-8.665-7.238-10.08"/>
		<path fill="none" stroke="#D1D3D4" d="M86.123,251.059c-0.489-0.068-0.989-0.104-1.497-0.104v-2c0.508,0,1.008-0.036,1.497-0.104"
			/>
		<path fill="none" stroke="#D1D3D4" stroke-dasharray="2.9559,3.9412" d="M89.835,247.591c3.234-1.823,5.417-5.292,5.417-9.27
			v-21.27"/>
		<polyline fill="none" stroke="#D1D3D4" points="95.253,215.087 95.253,213.587 93.753,213.587 		"/>
		<line fill="none" stroke="#D1D3D4" stroke-dasharray="1.5234,2.0313" x1="91.722" y1="213.587" x2="89.183" y2="213.587"/>
		<polyline fill="none" stroke="#D1D3D4" points="88.167,213.587 86.667,213.587 86.667,212.087 		"/>
		<path fill="none" stroke="#D1D3D4" stroke-dasharray="3.0529,4.0706" d="M86.667,208.017v-63.166c0-4.654-2.99-8.611-7.153-10.052
			"/>
		<path fill="none" stroke="#D1D3D4" d="M77.537,134.322c-0.489-0.069-0.989-0.104-1.497-0.104c0.508,0,1.008-0.036,1.497-0.104"/>
		<path fill="none" stroke="#D1D3D4" stroke-dasharray="3.053,4.0706" d="M81.362,132.79c3.171-1.84,5.305-5.274,5.305-9.205V58.378
			"/>
		<polyline fill="none" stroke="#D1D3D4" points="86.667,56.348 86.667,54.848 88.167,54.848 		"/>
		<line fill="none" stroke="#D1D3D4" stroke-dasharray="1.5234,2.0313" x1="90.198" y1="54.848" x2="92.737" y2="54.848"/>
		<polyline fill="none" stroke="#D1D3D4" points="93.753,54.848 95.253,54.848 95.253,53.348 		"/>
		<path fill="none" stroke="#D1D3D4" stroke-dasharray="3.0065,4.0087" d="M95.253,49.339V29.114
			c0-5.871-4.758-10.633-10.627-10.633H29.181c-5.869,0-10.627,4.762-10.627,10.633v22.229"/>
		<polyline fill="none" stroke="#D1D3D4" points="18.554,53.348 18.554,54.848 20.054,54.848 		"/>
		<line fill="none" stroke="#D1D3D4" stroke-dasharray="1.5234,2.0313" x1="22.085" y1="54.848" x2="24.624" y2="54.848"/>
		<polyline fill="none" stroke="#D1D3D4" points="25.64,54.848 27.14,54.848 27.14,56.348 		"/>
		<path fill="none" stroke="#D1D3D4" stroke-dasharray="3.053,4.0706" d="M27.14,60.418v63.167c0,4.654,2.99,8.611,7.153,10.052"/>
		<path fill="none" stroke="#D1D3D4" d="M36.27,134.113c0.489,0.069,0.989,0.104,1.497,0.104c-0.508,0-1.008,0.036-1.497,0.104"/>
		<path fill="none" stroke="#D1D3D4" stroke-dasharray="3.0529,4.0706" d="M32.444,135.646c-3.171,1.84-5.305,5.274-5.305,9.205
			v65.206"/>
		<polyline fill="none" stroke="#D1D3D4" points="27.14,212.087 27.14,213.587 25.64,213.587 		"/>
		<line fill="none" stroke="#D1D3D4" stroke-dasharray="1.5234,2.0313" x1="23.608" y1="213.587" x2="21.069" y2="213.587"/>
		<polyline fill="none" stroke="#D1D3D4" points="20.054,213.587 18.554,213.587 18.554,215.087 		"/>
		<path fill="none" stroke="#D1D3D4" stroke-dasharray="2.9559,3.9412" d="M18.554,219.028v19.293c0,4.677,3.019,8.65,7.214,10.072"
			/>
	</g>
</g>
<line fill="none" stroke="#D1D3D4" stroke-dasharray="1,2" x1="31.181" y1="327.688" x2="83.626" y2="327.688"/>
<line fill="none" stroke="#D1D3D4" stroke-dasharray="1,2" x1="31.181" y1="329.688" x2="83.626" y2="329.688"/>
<path fill="#A7A9AC" d="M106.755,283.896c-0.266-0.73-1.234-0.945-2.049-0.484c-0.986,0.471-2.08,1.303-3.732,1.302l-0.695-0.001
	v-0.622c0.002-1.654,0.836-2.747,1.311-3.732c0.461-0.813,0.248-1.782-0.479-2.05c-0.691-0.313-1.686,0.23-2.162,0.98
	c-0.523,0.727-0.543,1.746,0.09,2.094c0.66,0.361,0.781,0.057,1.043,0.179c0.338,0.157-0.453,1.26-1.023,3.283l-0.016,0.06
	l-5.537,1.607c-0.762,0.272-1.598,0.813-1.934,1.787l7.068-1.934l-1.965,7.125c0.975-0.334,1.516-1.168,1.789-1.931l1.637-5.595
	l0.117-0.031c2.021-0.566,3.127-1.354,3.283-1.018c0.121,0.264-0.184,0.384,0.176,1.044c0.346,0.634,1.363,0.616,2.092,0.095
	C106.521,285.581,107.065,284.586,106.755,283.896z M100.808,280.729c-0.727,0.727-1.807,0.307-1.684-0.66
	c0.084-0.663,0.854-1.434,1.514-1.306C101.487,278.854,101.507,280.094,100.808,280.729z M104.989,285.878
	c-0.967,0.12-1.385-0.961-0.656-1.686c0.637-0.699,1.877-0.677,1.965,0.174C106.425,285.028,105.653,285.795,104.989,285.878z"/>
<g>
	<path fill-rule="evenodd" clip-rule="evenodd" fill="#B3B3B3" d="M52.002,40.273c0.449-0.707,0.9-1.413,1.349-2.122
		c0.141-0.222,0.273-0.448,0.396-0.65c0.571,0.604,1.131,1.196,1.707,1.806c-0.615,0.371-1.354,0.809-2.084,1.258
		c-0.218,0.135-0.416,0.301-0.624,0.453c-0.248,0-0.495,0-0.743,0C52.002,40.769,52.002,40.521,52.002,40.273z"/>
	<path fill-rule="evenodd" clip-rule="evenodd" fill="#B3B3B3" d="M65.563,32.602c-0.155,0.254-0.253,0.51-0.427,0.688
		c-1.542,1.564-3.093,3.118-4.65,4.664c-0.443,0.441-0.892,0.431-1.348-0.021c-1.357-1.348-2.71-2.698-4.055-4.057
		c-0.459-0.464-0.464-0.88-0.007-1.342c1.544-1.56,3.095-3.114,4.655-4.659c0.479-0.474,0.901-0.464,1.385,0.015
		c1.348,1.332,2.688,2.672,4.016,4.021C65.309,32.089,65.406,32.343,65.563,32.602z"/>
	<path fill-rule="evenodd" clip-rule="evenodd" fill="#B3B3B3" d="M54.932,35.02c1.039,1.034,2.022,2.013,3.143,3.13
		c-0.183,0.123-0.406,0.241-0.592,0.404c-0.465,0.406-0.867,0.437-1.308,0.015c-0.601-0.572-1.187-1.161-1.761-1.762
		c-0.364-0.379-0.365-0.785-0.033-1.186C54.56,35.406,54.758,35.208,54.932,35.02z"/>
</g>
</svg>
