<?xml version="1.0" encoding="utf-8"?>
<!-- Generator: Adobe Illustrator 16.0.0, SVG Export Plug-In . SVG Version: 6.00 Build 0)  -->
<!DOCTYPE svg PUBLIC "-//W3C//DTD SVG 1.1//EN" "http://www.w3.org/Graphics/SVG/1.1/DTD/svg11.dtd">
<svg version="1.1" id="Layer_1" xmlns="http://www.w3.org/2000/svg" xmlns:xlink="http://www.w3.org/1999/xlink" x="0px" y="0px"
	 width="187.977px" height="649.5px" viewBox="0 0 187.977 649.5" enable-background="new 0 0 187.977 649.5" xml:space="preserve">
<pattern  width="72" height="72" patternUnits="userSpaceOnUse" id="_x36__lpi_40_x25_" viewBox="72.25 -72 72 72" overflow="visible">
	<g>
		<polygon fill="none" points="72.25,-72 144.25,-72 144.25,0 72.25,0 		"/>
		<g>
			<line fill="none" stroke="#000000" stroke-width="4.8" x1="144" y1="-6" x2="216.5" y2="-6"/>
			<line fill="none" stroke="#000000" stroke-width="4.8" x1="144" y1="-30" x2="216.5" y2="-30"/>
			<line fill="none" stroke="#000000" stroke-width="4.8" x1="144" y1="-54" x2="216.5" y2="-54"/>
			<line fill="none" stroke="#000000" stroke-width="4.8" x1="144" y1="-18" x2="216.5" y2="-18"/>
			<line fill="none" stroke="#000000" stroke-width="4.8" x1="144" y1="-42" x2="216.5" y2="-42"/>
			<line fill="none" stroke="#000000" stroke-width="4.8" x1="144" y1="-66" x2="216.5" y2="-66"/>
		</g>
		<g>
			<line fill="none" stroke="#000000" stroke-width="4.8" x1="72" y1="-6" x2="144.5" y2="-6"/>
			<line fill="none" stroke="#000000" stroke-width="4.8" x1="72" y1="-30" x2="144.5" y2="-30"/>
			<line fill="none" stroke="#000000" stroke-width="4.8" x1="72" y1="-54" x2="144.5" y2="-54"/>
			<line fill="none" stroke="#000000" stroke-width="4.8" x1="72" y1="-18" x2="144.5" y2="-18"/>
			<line fill="none" stroke="#000000" stroke-width="4.8" x1="72" y1="-42" x2="144.5" y2="-42"/>
			<line fill="none" stroke="#000000" stroke-width="4.8" x1="72" y1="-66" x2="144.5" y2="-66"/>
		</g>
		<g>
			<line fill="none" stroke="#000000" stroke-width="4.8" x1="0" y1="-6" x2="72.5" y2="-6"/>
			<line fill="none" stroke="#000000" stroke-width="4.8" x1="0" y1="-30" x2="72.5" y2="-30"/>
			<line fill="none" stroke="#000000" stroke-width="4.8" x1="0" y1="-54" x2="72.5" y2="-54"/>
			<line fill="none" stroke="#000000" stroke-width="4.8" x1="0" y1="-18" x2="72.5" y2="-18"/>
			<line fill="none" stroke="#000000" stroke-width="4.8" x1="0" y1="-42" x2="72.5" y2="-42"/>
			<line fill="none" stroke="#000000" stroke-width="4.8" x1="0" y1="-66" x2="72.5" y2="-66"/>
		</g>
	</g>
</pattern>
<g>
	<g>
		<path fill="none" stroke="#D1D3D4" d="M30.25,269.356c-0.507,0-1.007-0.031-1.498-0.093"/>
		<path fill="none" stroke="#D1D3D4" stroke-dasharray="2.993,3.9907" d="M24.942,268.122c-3.965-1.959-6.692-6.044-6.692-10.766
			V64.848c0-6.627,5.373-12,12-12h126.242c6.628,0,12,5.373,12,12v192.508c0,5.432-3.608,10.021-8.559,11.499"/>
		<path fill="none" stroke="#D1D3D4" d="M157.99,269.264c-0.491,0.062-0.991,0.093-1.498,0.093"/>
	</g>
</g>
<g>
	<g>
		<path fill="none" stroke="#D1D3D4" d="M156.492,269.348c0.507,0,1.007,0.031,1.498,0.093"/>
		<path fill="none" stroke="#D1D3D4" stroke-dasharray="2.993,3.9907" d="M161.8,270.582c3.966,1.959,6.692,6.044,6.692,10.766
			v192.509c0,6.628-5.372,12-12,12H30.25c-6.627,0-12-5.372-12-12V281.348c0-5.431,3.609-10.02,8.559-11.499"/>
		<path fill="none" stroke="#D1D3D4" d="M28.752,269.44c0.491-0.062,0.991-0.093,1.498-0.093"/>
	</g>
</g>
<line fill="none" stroke="#000000" x1="18.25" y1="12.5" x2="18.25" y2="0"/>
<line fill="none" stroke="#000000" x1="0" y1="52.848" x2="12.5" y2="52.848"/>
<line fill="none" stroke="#000000" x1="0" y1="18.481" x2="12.5" y2="18.481"/>
<line fill="none" stroke="#000000" x1="0" y1="485.855" x2="12.5" y2="485.855"/>
<line fill="none" stroke="#000000" x1="0" y1="630.324" x2="12.5" y2="630.324"/>
<line fill="none" stroke="#000000" x1="0" y1="638.324" x2="12.5" y2="638.324"/>
<line fill="none" stroke="#000000" x1="168.492" y1="12.5" x2="168.492" y2="0"/>
<line fill="none" stroke="#000000" x1="18.25" y1="649.5" x2="18.25" y2="637"/>
<line fill="none" stroke="#000000" x1="168.492" y1="646.5" x2="168.492" y2="634"/>
<line fill="none" stroke="#000000" x1="175.477" y1="52.848" x2="187.977" y2="52.848"/>
<line fill="none" stroke="#000000" x1="175.477" y1="18.481" x2="187.977" y2="18.481"/>
<line fill="none" stroke="#000000" x1="175.477" y1="485.855" x2="187.977" y2="485.855"/>
<line fill="none" stroke="#000000" x1="175.477" y1="630.324" x2="187.977" y2="630.324"/>
<line fill="none" stroke="#000000" x1="175.477" y1="638.324" x2="187.977" y2="638.324"/>
<line fill="none" stroke="#BCBEC0" stroke-dasharray="1,2" x1="30.25" y1="269.356" x2="156.219" y2="269.356"/>
<pattern  id="SVGID_1_" xlink:href="#_x36__lpi_40_x25_" patternTransform="matrix(0.5303 -0.5303 0.5303 0.5303 224.6934 -7823.2002)">
</pattern>
<path opacity="0.05" fill="url(#SVGID_1_)" d="M28.877,593.957c-5.869,0-10.627-4.762-10.627-10.633v-49.469
	c0-5.871,4.758-10.633,10.627-10.633h128.988c5.869,0,10.627,4.762,10.627,10.633v49.469c0,5.871-4.758,10.633-10.627,10.633H28.877
	z"/>
<pattern  id="SVGID_2_" xlink:href="#_x36__lpi_40_x25_" patternTransform="matrix(-0.5303 -0.5303 -0.5303 0.5303 -16156.3682 -7823.2002)">
</pattern>
<path opacity="0.05" fill="url(#SVGID_2_)" d="M157.865,593.957c5.869,0,10.627-4.762,10.627-10.633v-49.469
	c0-5.871-4.758-10.633-10.627-10.633H28.877c-5.869,0-10.627,4.762-10.627,10.633v49.469c0,5.871,4.758,10.633,10.627,10.633
	H157.865z"/>
<g>
	<g>
		<line fill="none" stroke="#D1D3D4" x1="18.25" y1="486.855" x2="18.25" y2="488.355"/>
		<path fill="none" stroke="#D1D3D4" stroke-dasharray="2.879,3.8387" d="M18.25,492.194v18.396c0,4.695,3.042,8.681,7.263,10.089"
			/>
		<path fill="none" stroke="#D1D3D4" d="M27.38,521.118c0.489,0.068,0.989,0.104,1.497,0.104v2c-0.508,0-1.008,0.036-1.497,0.104"/>
		<path fill="none" stroke="#D1D3D4" stroke-dasharray="2.9576,3.9434" d="M23.666,524.587c-3.233,1.824-5.416,5.292-5.416,9.269
			v49.469c0,4.679,3.021,8.652,7.218,10.074"/>
		<path fill="none" stroke="#D1D3D4" d="M27.38,593.853c0.489,0.068,0.989,0.104,1.497,0.104v2c-0.508,0-1.008,0.036-1.497,0.104"/>
		<path fill="none" stroke="#D1D3D4" stroke-dasharray="2.879,3.8387" d="M23.757,597.271c-3.283,1.81-5.507,5.306-5.507,9.319
			v20.32"/>
		<polyline fill="none" stroke="#D1D3D4" points="18.25,628.824 18.25,630.324 19.75,630.324 		"/>
		<line fill="none" stroke="#D1D3D4" stroke-dasharray="3.1323,4.1764" x1="23.926" y1="630.324" x2="73" y2="630.324"/>
		<polyline fill="none" stroke="#D1D3D4" points="75.088,630.324 76.588,630.324 76.952,631.779 		"/>
		<polyline fill="none" stroke="#D1D3D4" points="78.224,636.869 78.588,638.324 80.088,638.324 		"/>
		<line fill="none" stroke="#D1D3D4" stroke-dasharray="3.188,4.2506" x1="84.338" y1="638.324" x2="104.529" y2="638.324"/>
		<polyline fill="none" stroke="#D1D3D4" points="106.654,638.324 108.154,638.324 108.518,636.869 		"/>
		<polyline fill="none" stroke="#D1D3D4" points="109.791,631.779 110.154,630.324 111.654,630.324 		"/>
		<line fill="none" stroke="#D1D3D4" stroke-dasharray="3.1323,4.1764" x1="115.831" y1="630.324" x2="164.904" y2="630.324"/>
		<polyline fill="none" stroke="#D1D3D4" points="166.992,630.324 168.492,630.324 168.492,628.824 		"/>
		<path fill="none" stroke="#D1D3D4" stroke-dasharray="2.879,3.8387" d="M168.492,624.985V606.59c0-4.695-3.043-8.681-7.263-10.089
			"/>
		<path fill="none" stroke="#D1D3D4" d="M159.362,596.062c-0.489-0.068-0.989-0.104-1.497-0.104v-2c0.508,0,1.008-0.036,1.497-0.104
			"/>
		<path fill="none" stroke="#D1D3D4" stroke-dasharray="2.9576,3.9434" d="M163.077,592.593c3.232-1.824,5.415-5.292,5.415-9.269
			v-49.469c0-4.679-3.021-8.652-7.219-10.074"/>
		<path fill="none" stroke="#D1D3D4" d="M159.362,523.327c-0.489-0.068-0.989-0.104-1.497-0.104v-2c0.508,0,1.008-0.036,1.497-0.104
			"/>
		<path fill="none" stroke="#D1D3D4" stroke-dasharray="2.879,3.8387" d="M162.985,519.909c3.282-1.81,5.507-5.306,5.507-9.319
			v-20.32"/>
		<line fill="none" stroke="#D1D3D4" x1="168.492" y1="488.355" x2="168.492" y2="486.855"/>
	</g>
</g>
<line fill="none" stroke="#BCBEC0" stroke-dasharray="1,2" x1="30.25" y1="523.223" x2="156.219" y2="523.223"/>
<line fill="none" stroke="#BCBEC0" stroke-dasharray="1,2" x1="30.25" y1="521.223" x2="156.219" y2="521.223"/>
<line fill="none" stroke="#BCBEC0" stroke-dasharray="1,2" x1="30.25" y1="593.957" x2="156.219" y2="593.957"/>
<line fill="none" stroke="#BCBEC0" stroke-dasharray="1,2" x1="30.25" y1="595.957" x2="156.219" y2="595.957"/>
<pattern  id="SVGID_3_" xlink:href="#_x36__lpi_40_x25_" patternTransform="matrix(0.5303 -0.5303 0.5303 0.5303 224.6934 -7793.3701)">
</pattern>
<path opacity="0.05" fill="url(#SVGID_3_)" d="M18.25,51.848V29.114c0-5.871,4.758-10.633,10.627-10.633h128.988
	c5.869,0,10.627,4.762,10.627,10.633v22.734"/>
<pattern  id="SVGID_4_" xlink:href="#_x36__lpi_40_x25_" patternTransform="matrix(-0.5303 -0.5303 -0.5303 0.5303 -16156.3682 -7793.3701)">
</pattern>
<path opacity="0.05" fill="url(#SVGID_4_)" d="M168.492,51.848V29.114c0-5.871-4.758-10.633-10.627-10.633H28.877
	c-5.869,0-10.627,4.762-10.627,10.633v22.734"/>
<g>
	<g>
		<line fill="none" stroke="#D1D3D4" x1="18.25" y1="52.848" x2="18.25" y2="51.348"/>
		<path fill="none" stroke="#D1D3D4" stroke-dasharray="2.9977,3.997" d="M18.25,47.351V29.114c0-5.871,4.758-10.633,10.627-10.633
			h128.988c5.869,0,10.627,4.762,10.627,10.633V49.35"/>
		<line fill="none" stroke="#D1D3D4" x1="168.492" y1="51.348" x2="168.492" y2="52.848"/>
	</g>
</g>
<g>
	<rect x="75.588" y="483.856" fill="#FFFFFF" width="35.566" height="3"/>
	<g>
		<polyline fill="none" stroke="#D1D3D4" points="109.654,483.856 111.154,483.856 111.154,485.356 		"/>
		<polyline fill="none" stroke="#D1D3D4" points="111.154,485.356 111.154,486.856 109.654,486.856 		"/>
		<line fill="none" stroke="#D1D3D4" stroke-dasharray="3.0531,4.0708" x1="105.583" y1="486.856" x2="79.123" y2="486.856"/>
		<polyline fill="none" stroke="#D1D3D4" points="77.088,486.856 75.588,486.856 75.588,485.356 		"/>
		<polyline fill="none" stroke="#D1D3D4" points="75.588,485.356 75.588,483.856 77.088,483.856 		"/>
		<line fill="none" stroke="#D1D3D4" stroke-dasharray="3.0531,4.0708" x1="81.159" y1="483.856" x2="107.619" y2="483.856"/>
	</g>
</g>
<path fill="#A7A9AC" d="M179.523,555.832c-0.266-0.73-1.234-0.945-2.049-0.484c-0.984,0.471-2.078,1.303-3.732,1.302l-0.695-0.001
	l0.002-0.622c0.002-1.654,0.834-2.747,1.309-3.732c0.463-0.813,0.25-1.782-0.479-2.05c-0.691-0.313-1.686,0.23-2.16,0.98
	c-0.523,0.727-0.543,1.746,0.09,2.094c0.658,0.361,0.779,0.057,1.043,0.179c0.336,0.157-0.455,1.26-1.025,3.283l-0.016,0.06
	l-5.537,1.607c-0.762,0.272-1.598,0.813-1.934,1.787l7.068-1.934l-1.965,7.125c0.975-0.334,1.516-1.168,1.789-1.931l1.637-5.595
	l0.117-0.031c2.021-0.566,3.129-1.354,3.283-1.018c0.123,0.264-0.182,0.384,0.176,1.044c0.348,0.634,1.365,0.616,2.094,0.095
	C179.291,557.518,179.836,556.522,179.523,555.832z M173.576,552.666c-0.727,0.727-1.807,0.307-1.684-0.66
	c0.086-0.663,0.854-1.434,1.516-1.306C174.258,550.79,174.277,552.03,173.576,552.666z M177.76,557.814
	c-0.969,0.12-1.385-0.961-0.658-1.686c0.639-0.699,1.879-0.677,1.965,0.174C179.195,556.965,178.422,557.731,177.76,557.814z"/>
<g>
	<rect x="75.588" y="51.848" fill="#FFFFFF" width="35.566" height="3"/>
	<g>
		<polyline fill="none" stroke="#D1D3D4" points="109.654,51.848 111.154,51.848 111.154,53.348 		"/>
		<polyline fill="none" stroke="#D1D3D4" points="111.154,53.348 111.154,54.848 109.654,54.848 		"/>
		<line fill="none" stroke="#D1D3D4" stroke-dasharray="3.0531,4.0708" x1="105.583" y1="54.848" x2="79.123" y2="54.848"/>
		<polyline fill="none" stroke="#D1D3D4" points="77.088,54.848 75.588,54.848 75.588,53.348 		"/>
		<polyline fill="none" stroke="#D1D3D4" points="75.588,53.348 75.588,51.848 77.088,51.848 		"/>
		<line fill="none" stroke="#D1D3D4" stroke-dasharray="3.0531,4.0708" x1="81.159" y1="51.848" x2="107.619" y2="51.848"/>
	</g>
</g>
</svg>
