<?xml version="1.0" encoding="utf-8"?>
<!-- Generator: Adobe Illustrator 16.0.0, SVG Export Plug-In . SVG Version: 6.00 Build 0)  -->
<!DOCTYPE svg PUBLIC "-//W3C//DTD SVG 1.1//EN" "http://www.w3.org/Graphics/SVG/1.1/DTD/svg11.dtd">
<svg version="1.1" id="Layer_1" xmlns="http://www.w3.org/2000/svg" xmlns:xlink="http://www.w3.org/1999/xlink" x="0px" y="0px"
	 width="42.52px" height="14.17px" viewBox="0 0 42.52 14.17" enable-background="new 0 0 42.52 14.17" xml:space="preserve">
<g>
	<path fill="#FFFFFF" d="M24.54,7.085C22.712,5.073,21.26,2.552,21.26,0l0,0c0,0.018-0.001,0.039-0.001,0.058
		c0-0.019-0.001-0.039-0.001-0.058l0,0c0,2.552-1.452,5.073-3.28,7.085c1.828,2.012,3.28,4.533,3.28,7.085l0,0
		c0-0.018,0.001-0.039,0.001-0.058c0,0.019,0.001,0.039,0.001,0.058l0,0C21.26,11.617,22.712,9.097,24.54,7.085z"/>
</g>
<path fill="#FFFFFF" d="M13.512,12.132c0.142-0.001,0.276,0.002,0.416,0.002c1.857-0.866,3.797-2.705,5.217-5.049
	c-1.42-2.344-3.36-4.183-5.217-5.049c-0.14,0-0.274,0.003-0.416,0.002C12.314,4.9,7.414,6.592,3.888,6.592H0v0.986h3.888
	C7.414,7.578,12.314,9.27,13.512,12.132z"/>
<path fill="#FFFFFF" d="M29.005,2.038c-0.142,0.001-0.276-0.002-0.415-0.002c-1.857,0.866-3.798,2.705-5.218,5.049
	c1.42,2.344,3.36,4.183,5.218,5.049c0.139-0.001,0.273-0.003,0.415-0.002c1.198-2.862,6.098-4.554,9.624-4.554h3.891V6.592h-3.891
	C35.103,6.592,30.203,4.9,29.005,2.038z"/>
<path fill="#A09F9F" d="M13.427,10.684c-1.416-2.627-5.818-4.087-9.482-4.103V6.578H0v1h3.888c3.593,0,8.622,1.753,9.697,4.715
	c3.594-1.45,7.672-6.734,7.672-12.293C21.257,4.589,16.564,9.085,13.427,10.684z"/>
<path fill="#A09F9F" d="M29.09,3.486c1.416,2.627,5.818,4.087,9.482,4.103v0.003h3.947v-1h-3.891c-3.594,0-8.622-1.753-9.697-4.715
	c-3.594,1.45-7.672,6.734-7.672,12.293C21.26,9.58,25.953,5.085,29.09,3.486z"/>
<g>
	<path fill="#A09F9F" d="M8.289,6.809c1.819-0.685,4.317-1.8,5.138-3.323c1.286,0.655,2.831,1.802,4.209,3.238
		c0.244-0.27,0.483-0.547,0.71-0.834c-1.404-1.904-3.13-3.355-4.761-4.014C12.756,4.16,9.173,5.72,6.387,6.317
		C7.05,6.438,7.691,6.596,8.289,6.809z"/>
	<path fill="#A09F9F" d="M18.965,8.28c1.335,1.773,2.292,3.82,2.292,5.89c0-2.335-0.725-4.618-1.826-6.592
		C19.28,7.817,19.125,8.051,18.965,8.28z"/>
</g>
<g>
	<path fill="#A09F9F" d="M34.228,7.361c-1.819,0.684-4.317,1.8-5.138,3.322c-1.285-0.655-2.83-1.803-4.209-3.238
		c-0.244,0.27-0.482,0.547-0.71,0.834c1.403,1.904,3.13,3.355,4.761,4.014c0.828-2.283,4.412-3.843,7.198-4.44
		C35.467,7.731,34.826,7.574,34.228,7.361z"/>
	<path fill="#A09F9F" d="M23.552,5.89C22.217,4.116,21.26,2.069,21.26,0c0,2.335,0.725,4.618,1.826,6.593
		C23.236,6.353,23.392,6.119,23.552,5.89z"/>
</g>
<path fill="#9F9E9E" d="M21.261,0.028l-0.003-0.001c0,0.011-0.001,0.021-0.001,0.031c0-0.011,0-0.021-0.001-0.033l-0.002-0.001
	c-0.009,2.544-1.456,5.056-3.278,7.062c0.536-0.536,0.864,0.153,1.318-0.238c0.705-0.607,1.339-1.497,1.964-1.49
	c0.568-0.006,1.146,0.84,1.776,1.345l0.52-0.819C22.225,4.118,21.27,2.086,21.261,0.028z"/>
<path fill="#9F9E9E" d="M21.257,14.142l0.003,0.002c0-0.011,0.001-0.021,0.001-0.031c0,0.011,0,0.021,0.001,0.033l0.002,0.001
	c0.009-2.544,1.456-5.056,3.278-7.062c-0.535,0.536-0.863-0.153-1.318,0.237c-0.703,0.607-1.338,1.496-1.963,1.49
	c-0.568,0.006-1.146-0.84-1.776-1.344l-0.52,0.818C20.293,10.052,21.248,12.084,21.257,14.142z"/>
</svg>
