<?xml version="1.0" encoding="UTF-8" standalone="no"?>
<!DOCTYPE svg PUBLIC "-//W3C//DTD SVG 1.1//EN" "http://www.w3.org/Graphics/SVG/1.1/DTD/svg11.dtd">
<svg width="100%" height="100%" viewBox="0 0 1182 1182" version="1.1" xmlns="http://www.w3.org/2000/svg" xmlns:xlink="http://www.w3.org/1999/xlink" xml:space="preserve" xmlns:serif="http://www.serif.com/" style="fill-rule:evenodd;clip-rule:evenodd;stroke-linejoin:round;stroke-miterlimit:2;">
    <g transform="matrix(1.72531,0.441978,-0.441978,1.72531,-142.62,-690.788)">
        <path d="M792.076,201.525L367.212,547.441C367.212,547.441 325.66,575.489 314.233,644.049C302.807,712.609 312.156,767.665 323.583,810.255C335.009,852.845 333.97,936.987 333.97,936.987C333.97,936.987 374.483,926.599 392.143,933.871C409.802,941.142 430.578,969.19 430.578,969.19L450.315,959.84C450.315,959.84 443.043,922.444 452.392,899.591C461.741,876.737 492.905,863.233 492.905,863.233C492.905,863.233 418.112,789.479 418.112,746.889C418.112,704.299 469.013,670.018 469.013,670.018L460.853,635.427L490.827,571.853L651.84,445.64L824.279,319.947L819.085,264.891L787.921,235.805L792.076,201.525Z" style="fill:rgb(157,153,148);"/>
    </g>
    <g transform="matrix(1.72531,0.441978,-0.441978,1.72531,-142.62,-690.788)">
        <path d="M309.033,533.92C309.033,533.92 336.508,510.958 341.611,468.86C346.713,426.762 421.341,429.952 421.341,429.952C421.341,429.952 399.016,443.346 407.308,453.552C415.6,463.757 421.341,475.238 421.341,475.238C421.341,475.238 394.551,482.255 398.378,496.925C402.206,511.595 414.325,517.974 428.357,512.871C442.39,507.768 460.887,523.076 460.887,523.076L559.115,442.071C559.115,442.071 543.806,477.79 575.061,473.325C606.315,468.86 598.661,416.557 598.661,416.557L686.683,343.843L738.986,399.335L737.71,428.676L590.551,545.401L590.551,561.985L552.098,590.551C552.098,590.551 569.095,623.218 566.656,639.164C564.217,655.11 539.341,681.261 539.341,681.261L467.903,734.84L467.265,693.38L444.303,683.813L454.509,643.629L455.146,597.066C455.146,597.066 447.492,611.736 432.822,622.58C418.152,633.423 411.773,651.283 411.773,651.283C411.773,651.283 395.827,651.283 384.346,655.748C372.865,660.212 353.73,690.191 353.73,690.191C353.73,690.191 339.059,639.801 362.659,606.634C386.26,573.466 399.654,556.244 399.654,556.244C399.654,556.244 375.416,522.439 360.746,524.99C346.075,527.541 345.438,533.92 333.319,534.558C321.2,535.195 309.033,533.92 309.033,533.92ZM467.045,641.581C466.749,640.863 466.628,640.439 466.628,640.439C466.628,640.439 466.772,640.85 467.045,641.581C468.412,644.9 473.517,654.514 487.676,657.661C504.898,661.488 516.356,658.937 516.356,658.937C516.356,658.937 494.26,661.251 488.314,641.715C483.849,627.045 491.102,608.086 505.536,603.445C519.699,598.89 536.152,602.807 539.979,621.304C543.176,636.756 536.152,658.299 529.774,663.402C523.395,668.504 494.055,679.348 484.487,671.694C476.181,665.049 468.837,646.388 467.045,641.581Z" style="fill:rgb(255,72,176);"/>
    </g>
</svg>
