<?xml version="1.0" encoding="utf-8"?>
<!DOCTYPE svg PUBLIC "-//W3C//DTD SVG 1.1//EN" "http://www.w3.org/Graphics/SVG/1.1/DTD/svg11.dtd">
<svg version="1.1" id="Layer_1" xmlns="http://www.w3.org/2000/svg" xmlns:xlink="http://www.w3.org/1999/xlink" x="0px" y="0px"
	 width="283.46px" height="283.46px" viewBox="0 0 283.46 283.46" enable-background="new 0 0 283.46 283.46" xml:space="preserve">
<g>
	<path fill="#808080" d="M252.339,21.671l-2.813,2.918l0.155,3.265l-3.213,0.151l-3.199,3.371l0.156,3.264l-3.21,0.153l-3.199,3.37
		l0.153,3.265l-3.213,0.153l-3.197,3.37l0.154,3.264l-3.211,0.153l-3.197,3.371l0.107,2.302l-2.144-1.595
		c0,0-0.437,1.701-1.554,1.75c-0.874,0.041-8.366-2.698-12.828-4.508l-9.352-5.016c-6.6-3.949-15.623-9.476-15.623-9.476
		l-2.946,2.931c0,0,10.572,10.998,15.563,16.089c2.213,2.259,8.976,9.701,12.774,14.241L18.316,266.943L7.294,281.666l14.954-10.793
		L219.335,78.33c5.165,3.553,13.495,10.222,16.117,12.353c3.165,2.573,8.425,6.788,12.348,9.924c-1.397-0.375-2.942-0.037-4.04,1.06
		c-1.339,1.339-1.564,3.35-0.72,4.938c-0.05-0.026-0.103-0.044-0.152-0.073c0.248,0.381,0.537,0.743,0.872,1.077
		c0,0,0,0,0.001,0.001c2.586,2.585,6.779,2.584,9.364-0.001c2.571-2.571,2.579-6.729,0.038-9.317
		c-0.013-0.018-0.018-0.037-0.03-0.054c-4.015-5.393-11.729-15.785-12.841-17.581c-1.517-2.448-7.099-13.936-7.153-15.054
		c-0.053-1.119,1.599-1.712,1.599-1.712l-1.247-1.386l0.479-0.022l3.732-3.955l-0.131-2.707l2.653-0.125l3.731-3.957l-0.127-2.704
		l2.652-0.125l3.73-3.958l-0.13-2.704l2.653-0.128l3.731-3.955l-0.129-2.705l2.654-0.125l3.73-3.957l-0.17-3.536
		c0.682-0.396,1.663-0.766,2.456-0.232c1.353,0.911,2.035,3.885,4.579,3.459c2.54-0.427,5.736-7.957,6.736-10.982
		c0.995-3.029,2.642-10.363,2.701-11.479c0.058-1.116-1.149-2.161-1.149-2.161l-0.01,0.015c-0.22-0.236-1.131-1.148-2.105-1.103
		c-1.118,0.053-8.458,1.66-11.489,2.645c-2.995,0.972-10.375,4.06-10.986,6.581l3.064,6.872L252.339,21.671z"/>
	<path fill="#808080" d="M221.655,60.402c-7.442-7.442-12.105-22.134-1.42-32.818c10.684-10.685,30.755-11.401,38.197-3.959
		c0.46,0.459,5.562-3.731,5.942-3.219c-4.551-2.201-9.367-4.539-15-8.936c-14.219-11.093-32.65-13.547-45.558-0.641
		c-12.906,12.907-10.293,30.976,2.465,43.733c6.021,6.021,10.188,12.816,18.119,13.109
		C221.963,67.014,223.425,62.173,221.655,60.402z M203.043,47.342c0,0-3.528-9.1,0.403-18.509
		c2.815-6.731,6.722-10.704,9.167-12.029c1.275-0.691,1.693,0.486,1.253,1.025c-0.438,0.539-4.388,6.285-5.582,14.017
		c-2.044,13.225,3.076,22.448,3.076,22.448L203.043,47.342z"/>
</g>
<path fill="--c-accent" d="M141.012,114.524c0.002-3.227-2.452-6.686-4.55-9.845c-2.255-3.397-3.376-5.592-3.376-5.592l-0.016,0.008
	c-0.473-1.14-0.79-2-0.79-2.246c-0.005-0.883,1.316-1.296,1.316-1.296l-1.341-1.627l1.822-0.003l2.53-2.658l-0.006-2.538l2.58-0.007
	l2.534-2.656l-0.008-2.538l2.581-0.007l2.529-2.657l-0.004-2.539l2.579-0.007l2.531-2.656l-0.008-2.54l2.579-0.005l2.532-2.655
	l-0.008-2.87l-0.252-0.219c0.488-0.263,1.098-0.436,1.633-0.117c1.104,0.66,1.776,2.977,3.761,2.53
	c1.986-0.449,4.178-6.523,4.832-8.955c0.656-2.431,1.633-8.284,1.631-9.168c0-0.769-0.759-1.452-0.951-1.616l0.01-0.01
	c0,0-0.871-0.909-1.747-0.818c-0.881,0.089-6.599,1.678-8.948,2.584c-2.346,0.908-8.16,3.723-8.397,5.746
	c-0.234,2.022,2.139,2.443,2.911,3.475c0.453,0.604,0.198,1.393-0.087,1.946l-2.794,0.006l-2.973,3.099l0.004,2.097l-2.138,0.005
	l-2.97,3.099l0.004,2.098l-2.138,0.006l-2.972,3.098l0.006,2.098l-2.14,0.005l-2.972,3.1l0.005,2.097l-2.138,0.006l-2.973,3.098
	l0.001,0.379l-1.142-0.93c0,0-0.402,1.327-1.285,1.331c-0.219,0-0.951-0.243-1.956-0.62c-0.785-0.426-2.647-1.476-5.178-3.155
	c-3.16-2.1-6.617-4.551-9.846-4.551c-6.551,0-18.389,12.266-18.389,12.266s12.917-8.789,17.707-8.788
	c4.75,0,12.612,9.536,12.745,9.696c0.267,0.341,1.515,1.663,1.754,1.976L74.764,142.56l-24.54,30.893l30.186-25.745l45.645-46.807
	c0.36,0.271,1.737,1.554,2.137,1.86c1.75,1.492,9.342,8.208,9.342,12.445c0.001,4.791-8.788,17.709-8.788,17.709
	S141.012,121.074,141.012,114.524z"/>
</svg>
