<?xml version="1.0" encoding="UTF-8" standalone="no"?>
<!DOCTYPE svg PUBLIC "-//W3C//DTD SVG 1.1//EN" "http://www.w3.org/Graphics/SVG/1.1/DTD/svg11.dtd">
<svg width="100%" height="100%" viewBox="0 0 1182 1182" version="1.1" xmlns="http://www.w3.org/2000/svg" xmlns:xlink="http://www.w3.org/1999/xlink" xml:space="preserve" xmlns:serif="http://www.serif.com/" style="fill-rule:evenodd;clip-rule:evenodd;stroke-linejoin:round;stroke-miterlimit:2;">
    <g transform="matrix(1.54396,0,0,1.54396,-497.267,19.5894)">
        <path d="M936.07,136.458C960.492,142.671 982.267,155.549 999.344,173.042L1050.05,147.513L1080.17,199.691L1032.76,230.803C1036.03,242.438 1037.77,254.698 1037.77,267.363C1037.77,280.028 1036.03,292.289 1032.76,303.924L1080.17,335.036L1050.05,387.214L999.344,361.685C982.272,379.173 960.497,392.052 936.07,398.269L932.832,454.887L872.582,454.887L869.344,398.269C844.922,392.056 823.147,379.178 806.07,361.685L755.37,387.214L725.245,335.036L772.658,303.924C769.39,292.289 767.643,280.028 767.643,267.363C767.643,254.698 769.39,242.438 772.658,230.803L725.245,199.691L755.37,147.513L806.07,173.042C823.142,155.553 844.917,142.674 869.344,136.458L872.582,79.84L932.832,79.84L936.07,136.458ZM902.707,190.212C945.288,190.212 979.858,224.783 979.858,267.363C979.858,309.944 945.288,344.514 902.707,344.514C860.126,344.514 825.556,309.944 825.556,267.363C825.556,224.783 860.126,190.212 902.707,190.212Z" fill="--c-accent"/>
    </g>
    <g transform="matrix(1.54396,0,0,1.54396,-345.608,-412.41)">
        <path d="M490.373,541.139C515.593,546.006 538.891,556.293 559.013,570.742L603.757,530.839L646.36,573.442L605.135,619.669C616.543,637.717 624.744,657.993 628.932,679.697L684.562,682.879L684.562,743.128L628.932,746.31C624.744,768.011 616.542,788.289 605.135,806.338L646.36,852.565L603.757,895.168L559.013,855.265C538.899,869.712 515.598,880.001 490.373,884.869L487.192,940.498L426.942,940.498L423.761,884.869C401.858,880.641 381.405,872.326 363.227,860.751L324.634,895.168L282.031,852.565L315.15,815.428C300.522,795.205 290.107,771.733 285.202,746.31L229.572,743.128L229.572,682.879L285.202,679.697C290.108,654.276 300.521,630.807 315.15,610.579L282.031,573.442L324.634,530.839L363.227,565.256C381.404,553.68 401.858,545.365 423.761,541.139L426.942,485.509L487.192,485.509L490.373,541.139ZM457.067,613.02C512.249,613.02 557.05,657.821 557.05,713.004C557.05,768.186 512.249,812.987 457.067,812.987C401.885,812.987 357.083,768.186 357.083,713.004C357.083,657.821 401.885,613.02 457.067,613.02Z" fill="#808080"/>
    </g>
</svg>
