<?xml version="1.0" encoding="utf-8"?>
<!-- Generator: Adobe Illustrator 16.0.0, SVG Export Plug-In . SVG Version: 6.00 Build 0)  -->
<!DOCTYPE svg PUBLIC "-//W3C//DTD SVG 1.1//EN" "http://www.w3.org/Graphics/SVG/1.1/DTD/svg11.dtd">
<svg version="1.1" id="Layer_1" xmlns="http://www.w3.org/2000/svg" xmlns:xlink="http://www.w3.org/1999/xlink" x="0px" y="0px"
	 width="510.236px" height="510.236px" viewBox="0 0 510.236 510.236" enable-background="new 0 0 510.236 510.236"
	 xml:space="preserve">
<path fill="--c-accent" d="M497.982,451.709c-2.041-5.323-8.386-18.506-12.963-19.052c-4.578-0.547-5.547,4.827-7.885,6.569
	c-1.372,1.021-3.159,0.441-4.406-0.212v-6.326l-7-6.75h-4.75v-4.844l-7-6.75h-4.75v-4.844l-7-6.75h-4.75v-4.844l-7-6.75h-4.75
	v-4.844l-7-6.75h-0.857l2.107-2.58c0,0-3-0.92-3-2.92s9-23,11.5-27.5s25.5-38.5,25.5-38.5l-5-5.5c0,0-20.5,18-30,26.5
	c-4.501,4.027-14.16,11.53-23.082,18.313L169.978,99.563c0,0-33.5-20-56-32s-75.5-44-75.5-44s32.818,52.498,45.166,74.809
	c12.347,22.312,32.864,55.498,32.864,55.498l251.566,222.299c-6.402,8.433-13.201,17.184-16.962,21.406
	c-8.479,9.52-26.434,30.06-26.434,30.06l5.512,4.987c0,0,33.949-23.075,38.442-25.586c4.495-2.51,25.475-11.557,27.475-11.561
	c2-0.005,2.927,2.994,2.927,2.994l3.694-3.031v4.125l6,5.75h5.75v5.844l6,5.75h5.75v5.844l6,5.75h5.75v5.844l6,5.75h5.75v5.844
	l6,5.75h6.5l0.494-0.577c0.593,1.108,0.982,2.492,0.256,3.702c-1.5,2.5-6.75,4-5.75,8.5s14.75,9.5,20.25,11s18.75,3.75,20.75,3.75
	c1.744,0,3.296-1.708,3.665-2.146l0.024,0.021c0,0,2.064-1.966,1.865-3.955C503.583,469.993,500.022,457.032,497.982,451.709z"/>
<g>
	<path fill="#808080" d="M380.219,315.336c2.079-16.024,5.048-41.683,4.618-54.593c-0.653-19.608-1.308-67.974,5.882-76.471
		c7.19-8.497,22.223-18.954,22.223-18.954s-2.888-1.838-7.594-4.811c-1.371,2.201-2.232,3.574-2.395,3.832l-0.786,1.251
		l-88.318,76.943L380.219,315.336z"/>
	<path fill="#808080" d="M341.914,366.397l-84.515-74.683l-81.564,71.059l4.428,4.506c0,0,25.49,7.843,41.177,15.687
		s39.216,28.104,39.216,28.104s23.529-20.261,39.215-28.104c15.688-7.844,41.178-15.687,41.178-15.687L341.914,366.397z"/>
</g>
<g>
	<path fill="#808080" d="M257.327,180.534l64.25-69.489c-22.026-10.17-60.922-26.772-60.922-26.772s-44.079,18.814-64.962,28.655
		L257.327,180.534z"/>
	<path fill="#808080" d="M111.856,163.104c-2.223,1.408-3.489,2.214-3.489,2.214s15.033,10.458,22.223,18.954
		s6.536,56.863,5.882,76.471c-0.364,10.924,1.706,30.976,3.611,46.595l60.701-65.651L111.856,163.104z"/>
</g>
<g>
	<path fill="#808080" d="M303.339,238.428l91.145-79.406c0,0,20.749-33.041,33.253-55.265c12.503-22.224,45.689-74.49,45.689-74.49
		s-53.223,31.627-75.807,43.468c-22.584,11.842-56.225,31.605-56.225,31.605l-80.714,87.295L303.339,238.428z"/>
	<path fill="#808080" d="M141.644,379.298l111.999-97.574l-41.968-37.085l-98.19,106.197c-8.285-6.59-16.882-13.586-21.019-17.439
		c-9.327-8.693-29.456-27.104-29.456-27.104l-5.111,5.396c0,0,22.306,34.461,24.714,39.01c2.407,4.551,10.979,25.729,10.938,27.727
		c-0.039,2.002-3.059,2.859-3.059,2.859l2.947,3.764l-4.124-0.094l-5.883,5.869l-0.13,5.748l-5.842-0.131l-5.884,5.867l-0.129,5.75
		l-5.843-0.133l-5.883,5.869l-0.129,5.75l-5.842-0.133l-5.884,5.869l-0.129,5.748l-5.843-0.133l-5.883,5.871l-0.146,6.498
		l0.567,0.506c-1.122,0.568-2.514,0.928-3.708,0.174c-2.465-1.557-3.847-6.84-8.368-5.941c-4.521,0.9-9.83,14.533-11.454,19.998
		c-1.624,5.465-4.171,18.66-4.216,20.66c-0.04,1.744,1.634,3.334,2.063,3.713l-0.022,0.023c0,0,1.92,2.107,3.912,1.953
		c1.994-0.152,15.032-3.422,20.401-5.342c5.367-1.92,18.69-7.967,19.338-12.529c0.649-4.564-4.7-5.656-6.389-8.031
		c-0.99-1.395-0.37-3.168,0.31-4.4l6.324,0.141l6.906-6.846l0.107-4.748l4.842,0.109l6.906-6.846l0.107-4.75l4.843,0.109
		l6.906-6.846l0.107-4.75l4.843,0.111l6.906-6.846l0.107-4.75l4.842,0.109l6.906-6.848l0.02-0.855l2.532,2.164
		c0,0,0.987-2.979,2.987-2.934c1.999,0.045,22.792,9.518,27.234,12.117c4.442,2.6,37.915,26.359,37.915,26.359l5.612-4.875
		c0,0-17.534-20.898-25.817-30.588C155.506,398.198,148.224,388.372,141.644,379.298z"/>
</g>
</svg>
