<?xml version="1.0" encoding="utf-8"?>
<!-- Generator: Adobe Illustrator 16.0.0, SVG Export Plug-In . SVG Version: 6.00 Build 0)  -->
<!DOCTYPE svg PUBLIC "-//W3C//DTD SVG 1.1//EN" "http://www.w3.org/Graphics/SVG/1.1/DTD/svg11.dtd">
<svg version="1.1" id="Layer_1" xmlns="http://www.w3.org/2000/svg" xmlns:xlink="http://www.w3.org/1999/xlink" x="0px" y="0px"
	 width="283.46px" height="173.333px" viewBox="0 0 283.46 173.333" enable-background="new 0 0 283.46 173.333"
	 xml:space="preserve">
<path fill="#808080" d="M218.242,34.753c-38.371-17.626-76.401-16.154-76.406-16.154c-0.004,0-38.032-1.472-76.405,16.154
	C24.784,53.424,1.472,86.578,1.472,86.578S31.55,62.605,59.899,51.324c32.835-13.606,81.916-12.694,81.937-12.693l0,0l0,0l0,0l0,0
	c0.022-0.001,49.103-0.913,81.939,12.693c28.349,11.281,58.427,35.254,58.427,35.254S258.89,53.424,218.242,34.753z"/>
<path fill="#808080" d="M99.216,152.522c21.405,4.186,42.618,4.178,42.621,4.178c0.002,0,21.216,0.008,42.619-4.178
	c22.676-4.432,35.679-13.514,35.679-13.514s-16.777,5.691-32.592,8.369c-18.316,3.229-45.707,3.012-45.707,3.012
	c-0.011,0-27.39,0.217-45.706-3.012c-15.814-2.678-32.593-8.369-32.593-8.369S76.542,148.09,99.216,152.522z"/>
<g>
	<circle fill="--c-accent" cx="141.837" cy="92.36" r="52.62"/>
	<circle fill="#FFFFFF" cx="141.836" cy="92.36" r="21.927"/>
	<circle fill="#808080" cx="141.836" cy="92.36" r="18.407"/>
	<circle fill="#FFFFFF" cx="126.948" cy="72.961" r="11.368"/>
</g>
</svg>
