<?xml version="1.0" encoding="UTF-8" standalone="no"?>
<!DOCTYPE svg PUBLIC "-//W3C//DTD SVG 1.1//EN" "http://www.w3.org/Graphics/SVG/1.1/DTD/svg11.dtd">
<svg width="100%" height="100%" viewBox="0 0 1182 1182" version="1.1" xmlns="http://www.w3.org/2000/svg" xmlns:xlink="http://www.w3.org/1999/xlink" xml:space="preserve" xmlns:serif="http://www.serif.com/" style="fill-rule:evenodd;clip-rule:evenodd;stroke-linejoin:round;stroke-miterlimit:2;">
    <g transform="matrix(2.08955,0,0,1.78979,131.126,-500.239)">
        <path d="M127.801,930.172C127.801,930.172 124.824,919.116 133.329,905.509C141.833,891.902 189.033,890.201 189.033,854.056L189.033,798.352C189.033,754.128 139.707,748.6 139.707,748.6L127.296,748.6L127.296,728.189L308.868,728.189L308.868,748.6L296.457,748.6C296.457,748.6 247.131,754.128 247.131,798.352L247.131,854.056C247.131,890.201 294.331,891.902 302.835,905.509C311.34,919.116 308.363,930.172 308.363,930.172L127.801,930.172Z" fill="#808080"/>
    </g>
    <g transform="matrix(2.19621,0,0,2.19621,113.548,-622.55)">
        <path d="M218.665,407.875C218.665,407.875 191.509,399.97 191.509,352.344C191.509,304.719 223.397,288.929 223.397,288.929C223.397,288.929 217.019,315.429 226.799,334.139C236.579,352.849 242.533,366.746 237.855,382.904C233.178,399.063 218.665,407.875 218.665,407.875Z" fill="--c-accent"/>
    </g>
    <g transform="matrix(1.02628,0,0,1.02628,-15.517,1.35233)">
        <path d="M493.257,335.82L689.197,242.95L689.197,290.916C689.197,290.916 687.816,309.684 674.902,314.407C662.359,318.994 636.085,316.43 623.328,348.066C610.571,379.703 624.349,437.875 620.267,459.816C616.185,481.758 584.548,490.943 583.017,454.203C581.486,417.464 591.719,351.712 570.77,350.618C517.425,347.833 518.371,465.515 493.257,456.405" fill="#808080"/>
    </g>
    <g transform="matrix(1.02628,0,0,1.02628,-15.517,7.8949)">
        <path d="M674.902,328.131C674.238,328.324 673.568,328.52 672.894,328.718C661.965,331.935 647.74,334.946 642.65,347.569C637.253,360.953 638.203,380.005 639.337,397.977C640.807,421.294 642.989,443.294 640.749,455.338C635.822,481.821 608.979,496.306 589.197,489.901C576.959,485.939 563.345,474.214 562.201,446.782C561.429,428.24 563.591,401.714 563.333,380.017C563.28,375.572 563.376,371.402 560.914,370.436C556.296,368.623 548.468,387.122 546.339,396.969C541.7,418.425 520.22,470.79 508.234,472.661L508.234,760.842L674.902,760.842L674.902,328.131Z" fill="#808080"/>
    </g>
    <g transform="matrix(1.02628,0,0,1.02628,-15.517,12)">
        <path d="M483.513,365.416L483.513,335.82" style="fill:none;"/>
    </g>
</svg>
