<?xml version="1.0" encoding="utf-8"?>
<!DOCTYPE svg PUBLIC "-//W3C//DTD SVG 1.1//EN" "http://www.w3.org/Graphics/SVG/1.1/DTD/svg11.dtd">
<svg version="1.1" id="Layer_1" xmlns="http://www.w3.org/2000/svg" xmlns:xlink="http://www.w3.org/1999/xlink" x="0px" y="0px"
	 width="27.468px" height="28.318px" viewBox="0 0 27.468 28.318" enable-background="new 0 0 27.468 28.318" xml:space="preserve">
<linearGradient id="SVGID_1_" gradientUnits="userSpaceOnUse" x1="3.5508" y1="6.2998" x2="23.536" y2="23.0694">
	<stop  offset="0" style="stop-color:#8C8C8C"/>
	<stop  offset="1" style="stop-color:#B3B3B3"/>
</linearGradient>
<path fill="url(#SVGID_1_)" d="M16.625,27.953c0,0,2.078-2.264,5.089-5.061c2.899-2.697,5.34-4.184,5.513-4.287l0.044,0.014
	c0,0-1.244-2.656-2.163-6.664c-0.844-3.668-1.29-6.519-1.359-6.973c0.008-0.052,0.012-0.079,0.012-0.079s-0.03,0.002-0.076,0.005
	c-0.336-0.076-3.205-0.735-6.893-1.87c-3.928-1.206-6.486-2.641-6.486-2.641v0.001C10.303,0.4,8.624,2.805,5.616,5.602
	c-2.882,2.682-5.188,4.527-5.379,4.679c-0.013,0.005-0.04,0.016-0.04,0.016s0.006,0.009,0.007,0.01l-0.003,0.002l0,0l0,0.001
	l-0.001,0l0.001,0c0.004,0.012,0.921,2.939,1.836,6.938c0.864,3.762,0.949,6.58,0.957,6.906L2.989,24.16c0,0,0.005,0,0.006,0
	c0,0.014,0,0.027,0,0.027l0.026-0.025c0.324,0.031,3.126,0.32,6.818,1.455c3.777,1.158,6.555,2.244,6.765,2.328
	c0.001,0,0.013,0.01,0.013,0.01l0.002-0.004L16.625,27.953l-0.005-0.004"/>
<g>
	<path fill="#B3B3B3" d="M5.616,5.602c3.009-2.798,4.689-5.204,4.689-5.204l0.753,3.288c0,0-1.946,1.748-5.566,3.87
		C1.865,9.682,0.201,10.31,0.201,10.31S2.608,8.401,5.616,5.602z"/>
</g>
<g>
	<path fill="#808080" d="M9.839,25.617C5.912,24.41,2.989,24.16,2.989,24.16l2.471-2.299c0,0,2.487,0.813,6.134,2.887
		c3.654,2.078,5.031,3.205,5.031,3.205S13.768,26.822,9.839,25.617z"/>
</g>
<g>
	<path fill="#333333" d="M21.714,22.892c3.009-2.799,5.53-4.297,5.53-4.297l-3.225-0.99c0,0-1.885,1.814-4.264,5.271
		c-2.384,3.461-3.131,5.076-3.131,5.076S18.703,25.689,21.714,22.892z"/>
</g>
<g>
	<path fill="#4D4D4D" d="M25.107,11.955c0.919,4.007,2.163,6.664,2.163,6.664l-3.225-0.992c0,0-0.539-2.561-0.568-6.756
		c-0.028-4.204,0.26-5.959,0.26-5.959S24.187,7.95,25.107,11.955z"/>
</g>
<g>
	<linearGradient id="SVGID_2_" gradientUnits="userSpaceOnUse" x1="9.4521" y1="12.9917" x2="0.0167" y2="11.328">
		<stop  offset="0" style="stop-color:#FFFFFF"/>
		<stop  offset="1" style="stop-color:#CCCCCC"/>
	</linearGradient>
	<path fill="url(#SVGID_2_)" d="M3.028,15.552c-1.807-3.8-2.831-5.256-2.831-5.256s1.665-0.628,5.292-2.754
		c3.62-2.122,5.566-3.87,5.566-3.87s-0.344,3.381-2.164,9.303C7.073,18.9,5.459,21.89,5.459,21.89S4.837,19.347,3.028,15.552z"/>
</g>
<g>
	<linearGradient id="SVGID_3_" gradientUnits="userSpaceOnUse" x1="5.4517" y1="22.7778" x2="24.0254" y2="22.7778">
		<stop  offset="0" style="stop-color:#404040"/>
		<stop  offset="1" style="stop-color:#666666"/>
	</linearGradient>
	<path fill="url(#SVGID_3_)" d="M19.751,22.876c-2.385,3.463-3.134,5.078-3.134,5.078s-1.377-1.127-5.032-3.205
		c-3.648-2.074-6.134-2.887-6.134-2.887s3.1-1.395,9.138-2.777c6.039-1.387,9.436-1.484,9.436-1.484S22.133,19.414,19.751,22.876z"
		/>
</g>
<g>
	<linearGradient id="SVGID_4_" gradientUnits="userSpaceOnUse" x1="11.0898" y1="10.6426" x2="24.0674" y2="10.6426">
		<stop  offset="0.0049" style="stop-color:#666666"/>
		<stop  offset="1" style="stop-color:#808080"/>
	</linearGradient>
	<path fill="url(#SVGID_4_)" d="M17.795,4.727c4.191,0.334,5.965,0.176,5.965,0.176s-0.289,1.756-0.26,5.962
		c0.028,4.195,0.567,6.756,0.567,6.756s-2.757-1.988-6.974-6.527c-4.22-4.537-6.004-7.429-6.004-7.429S13.605,4.396,17.795,4.727z"
		/>
</g>
<g>
	<linearGradient id="SVGID_5_" gradientUnits="userSpaceOnUse" x1="5.4277" y1="10.3926" x2="19.9153" y2="22.549">
		<stop  offset="0" style="stop-color:#8C8C8C"/>
		<stop  offset="1" style="stop-color:#A6A6A6"/>
	</linearGradient>
	<path fill="url(#SVGID_5_)" d="M17.074,11.099c4.206,4.528,6.972,6.528,6.972,6.528s-3.395,0.102-9.436,1.486
		c-6.039,1.387-9.139,2.773-9.139,2.773s1.614-2.99,3.433-8.914c1.819-5.921,2.164-9.303,2.164-9.303S12.853,6.563,17.074,11.099z"
		/>
</g>
</svg>
