<?xml version="1.0" encoding="utf-8"?>
<!-- Generator: Adobe Illustrator 16.0.0, SVG Export Plug-In . SVG Version: 6.00 Build 0)  -->
<!DOCTYPE svg PUBLIC "-//W3C//DTD SVG 1.1//EN" "http://www.w3.org/Graphics/SVG/1.1/DTD/svg11.dtd">
<svg version="1.1" id="Layer_1" xmlns="http://www.w3.org/2000/svg" xmlns:xlink="http://www.w3.org/1999/xlink" x="0px" y="0px"
	 width="28.347px" height="28.347px" viewBox="0 0 28.347 28.347" enable-background="new 0 0 28.347 28.347" xml:space="preserve">
<linearGradient id="SVGID_1_" gradientUnits="userSpaceOnUse" x1="3.8315" y1="6.1909" x2="24.1302" y2="23.2235">
	<stop  offset="0" style="stop-color:#8C8C8C"/>
	<stop  offset="1" style="stop-color:#B3B3B3"/>
</linearGradient>
<path fill="url(#SVGID_1_)" d="M17.11,28.184c0,0,2.11-2.3,5.169-5.141c2.944-2.739,5.424-4.249,5.599-4.354l0.045,0.015
	c0,0-1.264-2.698-2.197-6.769c-0.856-3.726-1.311-6.621-1.381-7.083c0.008-0.053,0.012-0.081,0.012-0.081s-0.03,0.002-0.077,0.005
	c-0.341-0.077-3.255-0.747-7.001-1.899c-3.989-1.225-6.588-2.682-6.588-2.682v0.001c-0.002,0.002-1.708,2.445-4.762,5.285
	c-2.927,2.724-5.271,4.599-5.464,4.753c-0.013,0.005-0.04,0.016-0.04,0.016s0.006,0.009,0.007,0.01l-0.003,0.002l0,0l0,0.001
	l-0.001,0l0.001,0c0.004,0.013,0.936,2.986,1.865,7.047c0.878,3.821,0.964,6.684,0.972,7.016l-0.006,0.006c0,0,0.005,0,0.006,0
	c0,0.014,0,0.027,0,0.027l0.027-0.025c0.329,0.031,3.175,0.325,6.925,1.478c3.836,1.177,6.658,2.279,6.871,2.365
	c0.001,0,0.013,0.01,0.013,0.01l0.002-0.004L17.11,28.184l-0.006-0.004"/>
<g>
	<path fill="#B3B3B3" d="M5.928,5.481c3.056-2.842,4.763-5.286,4.763-5.286l0.765,3.34c0,0-1.977,1.775-5.653,3.931
		c-3.685,2.159-5.375,2.797-5.375,2.797S2.873,8.324,5.928,5.481z"/>
</g>
<g>
	<path fill="#808080" d="M10.218,25.811c-3.99-1.226-6.958-1.479-6.958-1.479l2.509-2.335c0,0,2.527,0.825,6.231,2.932
		c3.711,2.111,5.111,3.256,5.111,3.256S14.208,27.035,10.218,25.811z"/>
</g>
<g>
	<path fill="#333333" d="M22.279,23.043c3.056-2.843,5.617-4.364,5.617-4.364l-3.275-1.006c0,0-1.915,1.843-4.331,5.354
		c-2.421,3.516-3.18,5.156-3.18,5.156S19.221,25.884,22.279,23.043z"/>
</g>
<g>
	<path fill="#4D4D4D" d="M25.726,11.934c0.934,4.071,2.197,6.769,2.197,6.769l-3.275-1.008c0,0-0.548-2.602-0.577-6.863
		c-0.029-4.27,0.264-6.053,0.264-6.053S24.79,7.866,25.726,11.934z"/>
</g>
<g>
	<linearGradient id="SVGID_2_" gradientUnits="userSpaceOnUse" x1="9.8232" y1="12.9873" x2="0.2396" y2="11.2975">
		<stop  offset="0" style="stop-color:#FFFFFF"/>
		<stop  offset="1" style="stop-color:#CCCCCC"/>
	</linearGradient>
	<path fill="url(#SVGID_2_)" d="M3.299,15.588c-1.835-3.859-2.875-5.338-2.875-5.338s1.691-0.638,5.375-2.798
		c3.677-2.155,5.654-3.93,5.654-3.93s-0.349,3.435-2.198,9.449c-1.848,6.018-3.487,9.055-3.487,9.055S5.136,19.442,3.299,15.588z"/>
</g>
<g>
	<linearGradient id="SVGID_3_" gradientUnits="userSpaceOnUse" x1="5.7607" y1="22.9277" x2="24.627" y2="22.9277">
		<stop  offset="0" style="stop-color:#404040"/>
		<stop  offset="1" style="stop-color:#666666"/>
	</linearGradient>
	<path fill="url(#SVGID_3_)" d="M20.285,23.027c-2.423,3.518-3.184,5.158-3.184,5.158s-1.398-1.145-5.11-3.256
		c-3.706-2.106-6.23-2.932-6.23-2.932s3.148-1.417,9.282-2.821c6.134-1.408,9.584-1.508,9.584-1.508S22.704,19.51,20.285,23.027z"/>
</g>
<g>
	<linearGradient id="SVGID_4_" gradientUnits="userSpaceOnUse" x1="11.4878" y1="10.6006" x2="24.6689" y2="10.6006">
		<stop  offset="0.0049" style="stop-color:#666666"/>
		<stop  offset="1" style="stop-color:#808080"/>
	</linearGradient>
	<path fill="url(#SVGID_4_)" d="M18.298,4.593c4.258,0.339,6.059,0.178,6.059,0.178s-0.293,1.784-0.264,6.056
		c0.029,4.261,0.576,6.862,0.576,6.862s-2.8-2.02-7.083-6.629c-4.286-4.608-6.098-7.546-6.098-7.546S14.043,4.257,18.298,4.593z"/>
</g>
<g>
	<linearGradient id="SVGID_5_" gradientUnits="userSpaceOnUse" x1="5.7363" y1="10.3472" x2="20.4528" y2="22.6957">
		<stop  offset="0" style="stop-color:#8C8C8C"/>
		<stop  offset="1" style="stop-color:#A6A6A6"/>
	</linearGradient>
	<path fill="url(#SVGID_5_)" d="M17.566,11.064c4.272,4.599,7.081,6.631,7.081,6.631s-3.448,0.103-9.584,1.51
		c-6.134,1.408-9.282,2.816-9.282,2.816s1.64-3.037,3.487-9.054c1.848-6.014,2.198-9.449,2.198-9.449S13.278,6.457,17.566,11.064z"
		/>
</g>
<path opacity="0.4" fill="#FFFFFF" d="M15.663,11.741c0,0-4.037-3.27-4.951-3.27c-0.915,0-4.951,3.27-4.951,3.27
	s3.27-4.037,3.27-4.951s-3.27-4.951-3.27-4.951s4.037,3.27,4.951,3.27s4.951-3.27,4.951-3.27s-3.271,4.035-3.271,4.951
	C12.393,7.704,15.663,11.741,15.663,11.741z"/>
<path opacity="0.7" fill="#FFFFFF" d="M13.114,9.192c0,0-1.959-1.587-2.402-1.587S8.31,9.192,8.31,9.192S9.896,7.233,9.896,6.79
	S8.31,4.388,8.31,4.388s1.959,1.586,2.402,1.586s2.402-1.586,2.402-1.586s-1.587,1.958-1.587,2.402
	C11.527,7.233,13.114,9.192,13.114,9.192z"/>
</svg>
